<svg id="class_icon" xmlns="http://www.w3.org/2000/svg" width="24" height="24" viewBox="0 0 24 24">
  <g id="class_icon-2" data-name="class_icon" transform="translate(-926.952 -472.952)" opacity="0.8">
    <rect id="사각형_1415" data-name="사각형 1415" width="24" height="24" transform="translate(926.952 472.952)" fill="none"/>
    <g id="그룹_275" data-name="그룹 275" transform="translate(929.379 476.951)">
      <path id="패스_623" data-name="패스 623" d="M2912.873,1275.135h-12.462a3.252,3.252,0,0,1-3.2-3.295v-5.47a3.252,3.252,0,0,1,3.2-3.295h12.462a3.252,3.252,0,0,1,3.2,3.295v5.47A3.252,3.252,0,0,1,2912.873,1275.135Zm-12.462-10.993a2.2,2.2,0,0,0-2.164,2.228v5.47a2.2,2.2,0,0,0,2.164,2.228h12.462a2.2,2.2,0,0,0,2.164-2.228v-5.47a2.2,2.2,0,0,0-2.164-2.228Z" transform="translate(-2897.212 -1263.075)" fill="#fff"/>
      <path id="패스_624" data-name="패스 624" d="M2930.7,1282.982a1.269,1.269,0,0,1-1.265-1.267v-3.546a1.265,1.265,0,0,1,1.9-1.1l3.071,1.773h0a1.265,1.265,0,0,1,0,2.191l-3.071,1.773A1.263,1.263,0,0,1,2930.7,1282.982Zm0-5.026a.214.214,0,0,0-.107.03.206.206,0,0,0-.106.184v3.546a.212.212,0,0,0,.318.184l3.071-1.772a.213.213,0,0,0,0-.368l-3.071-1.773A.21.21,0,0,0,2930.7,1277.956Z" transform="translate(-2922.808 -1273.943)" fill="#fff"/>
      <path id="패스_625" data-name="패스 625" d="M2917.215,1328.959h-12.89a.6.6,0,0,0-.548-.356H2902.4a.6.6,0,0,0-.548.356h-1.292a.526.526,0,0,0,0,1.052h1.292a.6.6,0,0,0,.548.356h1.373a.6.6,0,0,0,.548-.356h12.89a.526.526,0,0,0,0-1.052Z" transform="translate(-2899.451 -1314.651)" fill="#fff"/>
    </g>
  </g>
</svg>
