<svg xmlns="http://www.w3.org/2000/svg" width="16" height="16" viewBox="0 0 16 16">
  <g id="그룹_741" data-name="그룹 741" opacity="0.6">
    <rect id="사각형_4092" data-name="사각형 4092" width="16" height="16" fill="none"/>
    <path id="패스_1481" data-name="패스 1481" d="M14.25,8.576a1.109,1.109,0,0,0-.931-1.054c-.183-.027-.372-.022-.569-.033V7.363c0-.461,0-.921,0-1.383a3,3,0,0,0-2.175-2.861c-.187-.054-.381-.08-.571-.119H9.486c-.127.023-.254.042-.379.07A2.961,2.961,0,0,0,6.764,5.689c-.049.547-.019,1.1-.025,1.651,0,.05,0,.1,0,.161H6.4A1.125,1.125,0,0,0,5.236,8.658q0,2.59,0,5.179A1.125,1.125,0,0,0,6.4,15q3.346,0,6.693,0a1.261,1.261,0,0,0,.324-.039,1.115,1.115,0,0,0,.837-1.109q0-2.221,0-4.441c0-.277.005-.555,0-.832M7.49,6.014a2.253,2.253,0,0,1,4.5-.13c.018.523,0,1.047,0,1.57a.258.258,0,0,1-.009.043H7.49V7.385c0-.457,0-.914,0-1.371m6.011,7.8a.387.387,0,0,1-.441.437H6.428a.386.386,0,0,1-.441-.437q0-2.566,0-5.132a.384.384,0,0,1,.434-.431h6.633c.305,0,.447.14.447.442v5.121" transform="translate(-1.745 -1)" fill="#222"/>
  </g>
</svg>
