<svg id="chat" xmlns="http://www.w3.org/2000/svg" width="20" height="20" viewBox="0 0 20 20">
  <rect id="사각형_4088" data-name="사각형 4088" width="20" height="20" fill="none" opacity="0.1"/>
  <path id="패스_1474" data-name="패스 1474" d="M19.893,6.273a2.623,2.623,0,0,0-2.616-2.617q-5.831-.008-11.663,0a2.629,2.629,0,0,0-2.555,2.08A1.1,1.1,0,0,1,3,5.9v8.184a.535.535,0,0,1,.059.163,2.629,2.629,0,0,0,2.408,2.071c.161.009.18.066.179.2,0,.731,0,1.463,0,2.194a.619.619,0,0,0,.124.417.522.522,0,0,0,.821,0q1.274-1.338,2.542-2.682a.35.35,0,0,1,.285-.118q3.918,0,7.835,0A2.628,2.628,0,0,0,19.894,13.7q.008-3.712,0-7.423m-1.054,7.373a1.578,1.578,0,0,1-1.627,1.624q-4.032,0-8.065,0a.754.754,0,0,0-.6.255c-.569.612-1.148,1.215-1.723,1.821a1.228,1.228,0,0,0-.079.105L6.7,17.422c0-.531,0-1.062,0-1.6a.532.532,0,0,0-.194-.435.572.572,0,0,0-.367-.123,3.653,3.653,0,0,1-.87-.044,1.578,1.578,0,0,1-1.211-1.568q0-3,0-5.989c0-.446,0-.89,0-1.336A1.578,1.578,0,0,1,5.67,4.712q5.781,0,11.562,0a1.574,1.574,0,0,1,1.606,1.61q0,3.661,0,7.324" transform="translate(-1.449 -1.489)" fill="#fb8c00"/>
  <path id="패스_1475" data-name="패스 1475" d="M9.748,10.4A1.124,1.124,0,1,1,8.614,9.279,1.128,1.128,0,0,1,9.748,10.4" transform="translate(-1.764 -1.887)" fill="#fb8c00"/>
  <path id="패스_1476" data-name="패스 1476" d="M13.123,10.407A1.124,1.124,0,1,1,12,9.279a1.128,1.128,0,0,1,1.125,1.128" transform="translate(-2 -1.887)" fill="#fb8c00"/>
  <path id="패스_1477" data-name="패스 1477" d="M15.367,9.279a1.125,1.125,0,1,1-1.119,1.134,1.127,1.127,0,0,1,1.119-1.134" transform="translate(-2.236 -1.887)" fill="#fb8c00"/>
</svg>
