<svg xmlns="http://www.w3.org/2000/svg" width="16" height="16" viewBox="0 0 16 16">
  <g id="그룹_1436" data-name="그룹 1436" transform="translate(-0.07)">
    <rect id="사각형_4079" data-name="사각형 4079" width="16" height="16" transform="translate(0.07)" fill="none"/>
    <g id="그룹_719" data-name="그룹 719" transform="translate(2.568 1.854)">
      <path id="패스_1472" data-name="패스 1472" d="M15.117,6.559A2.3,2.3,0,0,0,13.085,4.27a4.74,4.74,0,0,0-.774-.024c-.094,0-.191,0-.294,0,0-.226,0-.451,0-.678V3.52a.479.479,0,0,0-.468-.514h-.007a.447.447,0,0,0-.338.148.536.536,0,0,0-.131.36c0,.239,0,.478,0,.735-1.336,0-2.672,0-4.022,0,0-.245,0-.49,0-.734a.53.53,0,0,0-.15-.381.451.451,0,0,0-.319-.128H6.575a.479.479,0,0,0-.469.515c0,.239,0,.478,0,.727-.176,0-.351,0-.527,0H5.393A2.341,2.341,0,0,0,3,6.633Q3,8.77,3,10.908v1.833a2.459,2.459,0,0,0,.1.721,2.335,2.335,0,0,0,2.278,1.663c.847,0,1.693,0,2.538,0H11.3q.726,0,1.452,0a2.331,2.331,0,0,0,2.361-2.311c.015-1.957.016-4,0-6.254M11.854,5.135l.163-.041A.085.085,0,0,1,12,5.135ZM6.106,5.92a.479.479,0,0,0,.467.515A.44.44,0,0,0,6.9,6.309.528.528,0,0,0,7.05,5.93c0-.24,0-.479,0-.739,1.337,0,2.672,0,4.022,0,0,.241,0,.481,0,.722a.548.548,0,0,0,.152.4.463.463,0,0,0,.326.126.485.485,0,0,0,.467-.529V5.2c.1,0,.2,0,.294,0a3.184,3.184,0,0,1,.8.046,1.362,1.362,0,0,1,1.053,1.287c.007.257.006.515.005.774,0,.218,0,.437,0,.672H7.945q-2,0-3.988,0H3.951V7.964c0-.28,0-.56,0-.84V6.639A1.392,1.392,0,0,1,5.393,5.194H5.7c.131,0,.259,0,.4,0,0,.214,0,.429,0,.643ZM3.951,8.913h0q2.021.006,4.04,0h2.157q2.005,0,4.011,0a.017.017,0,0,1,.01,0v.013q0,1.059,0,2.117,0,.846,0,1.692a1.38,1.38,0,0,1-1.152,1.417,1.341,1.341,0,0,1-.245.019H11.536q-3.089,0-6.179,0a1.371,1.371,0,0,1-1.384-1.155,1.685,1.685,0,0,1-.019-.3V11.447q0-1.265,0-2.53ZM14.18,8.135Z" transform="translate(-3 -3.006)" fill="#222"/>
      <path id="패스_1473" data-name="패스 1473" d="M15.627,16.746c.114,0,.228.006.343.006s.225,0,.337-.006a.447.447,0,0,0,.441-.447c0-.078,0-.156,0-.234v-.2c0-.082,0-.163,0-.244a.446.446,0,0,0-.436-.433c-.226-.009-.454-.008-.68,0a.444.444,0,0,0-.439.436c-.007.226-.007.453,0,.679a.444.444,0,0,0,.436.439" transform="translate(-6.975 -6.979)" fill="#222"/>
    </g>
  </g>
</svg>
