<svg id="delete_icon" xmlns="http://www.w3.org/2000/svg" width="16" height="16" viewBox="0 0 16 16">
  <rect id="사각형_4082" data-name="사각형 4082" width="16" height="16" fill="#fff" opacity="0"/>
  <rect id="사각형_4083" data-name="사각형 4083" width="10" height="10" transform="translate(3 3)" fill="#ffa7a7" opacity="0"/>
  <g id="합치기_23" data-name="합치기 23" transform="translate(3 3)" fill="none">
    <path d="M2.777,10A1.111,1.111,0,0,1,1.667,8.889L.555,3.334a.556.556,0,0,1,0-1.112H9.445a.556.556,0,0,1,0,1.112L8.333,8.889A1.111,1.111,0,0,1,7.223,10Zm0-8.888A.556.556,0,0,1,2.777,0H7.223a.556.556,0,0,1,0,1.112Z" stroke="none"/>
    <path d="M 7.222499847412109 8.999899864196777 C 7.28348970413208 8.999899864196777 7.333099842071533 8.950289726257324 7.333099842071533 8.889300346374512 L 7.333099842071533 8.790249824523926 L 8.447088241577148 3.222100019454956 L 1.55281138420105 3.222100019454956 L 2.666800022125244 8.790249824523926 L 2.666800022125244 8.889300346374512 C 2.666800022125244 8.950289726257324 2.716409921646118 8.999899864196777 2.777400016784668 8.999899864196777 L 7.222499847412109 8.999899864196777 M 7.222499847412109 9.999899864196777 L 2.777400016784668 9.999899864196777 C 2.164499998092651 9.999899864196777 1.666799902915955 9.502200126647949 1.666799902915955 8.889300346374512 L 0.5552999377250671 3.333600044250488 C 0.2483999282121658 3.333600044250488 -6.790160966829717e-08 3.08430004119873 -6.790160966829717e-08 2.777400016784668 C -6.790160966829717e-08 2.471400022506714 0.2483999282121658 2.222100019454956 0.5552999377250671 2.222100019454956 L 9.444600105285645 2.222100019454956 C 9.751500129699707 2.222100019454956 9.999899864196777 2.471400022506714 9.999899864196777 2.777400016784668 C 9.999899864196777 3.08430004119873 9.751500129699707 3.333600044250488 9.444600105285645 3.333600044250488 L 8.333100318908691 8.889300346374512 C 8.333100318908691 9.502200126647949 7.836299896240234 9.999899864196777 7.222499847412109 9.999899864196777 Z M 7.222499847412109 1.111499905586243 L 2.777400016784668 1.111499905586243 C 2.471400022506714 1.111499905586243 2.222100019454956 0.8621999025344849 2.222100019454956 0.5552999377250671 C 2.222100019454956 0.2483999282121658 2.471400022506714 -6.790160966829717e-08 2.777400016784668 -6.790160966829717e-08 L 7.222499847412109 -6.790160966829717e-08 C 7.529399871826172 -6.790160966829717e-08 7.7778000831604 0.2483999282121658 7.7778000831604 0.5552999377250671 C 7.7778000831604 0.8621999025344849 7.529399871826172 1.111499905586243 7.222499847412109 1.111499905586243 Z" stroke="none" fill="rgba(34,34,34,0.2)"/>
  </g>
</svg>
