<svg xmlns="http://www.w3.org/2000/svg" width="30" height="30" viewBox="0 0 30 30">
  <g id="그룹_716" data-name="그룹 716" transform="translate(-678.768 -259.768)">
    <rect id="사각형_1417" data-name="사각형 1417" width="30" height="30" transform="translate(678.768 259.768)" fill="none"/>
    <g id="그룹_278" data-name="그룹 278" transform="translate(681.954 264.43)" opacity="0.8">
      <path id="패스_627" data-name="패스 627" d="M2659.556,1613.875c-.413.255-.809.488-1.191.745a.408.408,0,0,0-.107.291c-.007,1.269-.014,2.538,0,3.807a2.942,2.942,0,0,1-1.5,2.762c-1.291.767-2.559,1.578-3.848,2.347a5.2,5.2,0,0,1-5.667,0c-1.335-.792-2.655-1.615-3.978-2.43a2.808,2.808,0,0,1-1.378-2.538q-.008-1.971,0-3.941a.38.38,0,0,0-.207-.377q-1.346-.818-2.682-1.654a1.418,1.418,0,0,1,.006-2.5q4.837-2.991,9.679-5.974a2.468,2.468,0,0,1,2.757-.008q4.866,2.99,9.722,6a1.425,1.425,0,0,1,.041,2.454.411.411,0,0,0-.156.286q-.013,3.378,0,6.757a.464.464,0,0,0,.127.288,1.439,1.439,0,0,1,.054,1.991,1.241,1.241,0,0,1-1.853-.018,1.442,1.442,0,0,1,.09-1.989.388.388,0,0,0,.114-.24q.008-2.99,0-5.979A.478.478,0,0,0,2659.556,1613.875Zm-19.684-2.233c.114.073.2.128.282.18,3.008,1.857,6.023,3.7,9.02,5.58a1.5,1.5,0,0,0,1.783.005c3.02-1.889,6.056-3.749,9.085-5.62.067-.041.13-.089.216-.148-.086-.056-.136-.089-.186-.12q-4.61-2.846-9.218-5.7a1.357,1.357,0,0,0-1.583.009c-2.478,1.547-4.967,3.073-7.452,4.607Zm3.464,3.933v.327c0,.956.01,1.913,0,2.869a1.423,1.423,0,0,0,.74,1.35c1.281.767,2.551,1.556,3.825,2.334a3.868,3.868,0,0,0,4.29.031c1.323-.8,2.635-1.614,3.955-2.417a1.316,1.316,0,0,0,.658-1.208q0-1.541,0-3.083c0-.049-.007-.1-.014-.188-.116.07-.2.121-.287.173q-2.507,1.546-5.014,3.093a2.531,2.531,0,0,1-2.847-.01L2645,1616.6C2644.462,1616.267,2643.925,1615.938,2643.336,1615.575Z" transform="translate(-2638.253 -1603.994)" fill="#fb8c00"/>
    </g>
  </g>
</svg>
