<svg xmlns="http://www.w3.org/2000/svg" width="16" height="16" viewBox="0 0 16 16">
  <g id="history_icon" opacity="0.5">
    <rect id="사각형_4127" data-name="사각형 4127" width="16" height="16" fill="#fff" opacity="0"/>
    <rect id="사각형_4128" data-name="사각형 4128" width="12" height="12" transform="translate(2 2)" fill="#fff" opacity="0"/>
    <g id="레이어_1" data-name="레이어 1" transform="translate(3.338 2.011)">
      <path id="합치기_28" data-name="합치기 28" d="M4.315,11.945l-.252-.126h0c-.122-.061-.261-.129-.4-.2a.187.187,0,0,0-.086-.024.178.178,0,0,0-.083.023c-.09.047-.183.093-.273.137l-.005,0c-.107.052-.217.106-.323.163a.849.849,0,0,1-.4.109.836.836,0,0,1-.4-.107c-.085-.046-.173-.089-.258-.13h0c-.1-.049-.206-.1-.308-.157a.247.247,0,0,0-.12-.035.266.266,0,0,0-.128.038c-.172.093-.35.18-.522.264L.7,11.931A.594.594,0,0,1,.441,12a.436.436,0,0,1-.175-.035.4.4,0,0,1-.141-.1A.532.532,0,0,1,0,11.5C0,7.421,0,4.053,0,.9A.985.985,0,0,1,.066.537.815.815,0,0,1,.532.068.977.977,0,0,1,.892,0L4.667,0,8.443,0a.975.975,0,0,1,.363.067.805.805,0,0,1,.283.189A.84.84,0,0,1,9.27.55a1.066,1.066,0,0,1,.064.372c0,1.273,0,2.547,0,3.779v6.744c0,.011,0,.022,0,.032a.616.616,0,0,1-.024.211.459.459,0,0,1-.167.226.446.446,0,0,1-.26.082.5.5,0,0,1-.215-.049c-.2-.093-.409-.2-.65-.324a.2.2,0,0,0-.091-.026.19.19,0,0,0-.089.025c-.1.051-.195.1-.291.146l-.007,0c-.1.049-.2.1-.3.153a.842.842,0,0,1-.4.107.831.831,0,0,1-.391-.1c-.079-.042-.162-.082-.242-.121l-.006,0c-.106-.052-.215-.105-.321-.164a.257.257,0,0,0-.126-.038.276.276,0,0,0-.133.04c-.131.072-.267.138-.4.2l-.008,0-.2.1a.747.747,0,0,1-.705,0Zm-.352-.9c.1.05.2.1.293.147s.212.1.321.161a.2.2,0,0,0,.092.026.193.193,0,0,0,.089-.024c.1-.053.205-.1.305-.154h0c.1-.049.211-.1.318-.16a.8.8,0,0,1,.372-.1.816.816,0,0,1,.369.094l.2.1.016.008c.128.063.26.127.387.2a.239.239,0,0,0,.115.034.256.256,0,0,0,.122-.036c.121-.065.246-.126.366-.186l.007,0,.229-.114a.757.757,0,0,1,.718,0l.037.018.087.044.045.023.171.086a.126.126,0,0,0,.052.017c.005,0,.006,0,.007,0a.1.1,0,0,0,.009-.053V.963A.351.351,0,0,0,8.63.711.346.346,0,0,0,8.379.65H.957A.35.35,0,0,0,.705.711a.345.345,0,0,0-.062.25V5.993h0v5.159c0,.007,0,.014,0,.022v.007c0,.018,0,.039,0,.06.058-.03.119-.06.169-.084.07-.034.143-.069.214-.108a.8.8,0,0,1,.379-.1.815.815,0,0,1,.373.1l.279.14.006,0c.106.052.225.112.34.171a.194.194,0,0,0,.09.025.2.2,0,0,0,.092-.025c.088-.045.177-.089.263-.131h0c.114-.056.233-.114.347-.175a.808.808,0,0,1,.382-.1A.831.831,0,0,1,3.963,11.048Z" transform="translate(-0.006 -0.011)" fill="#fff"/>
      <path id="합치기_25" data-name="합치기 25" d="M1.742,6.856a.382.382,0,0,1-.279-.113.443.443,0,0,1-.119-.291,2.889,2.889,0,0,1,0-.339.1.1,0,0,0-.008-.059.1.1,0,0,0-.056-.022A2.564,2.564,0,0,1,.223,5.578.5.5,0,0,1,.015,5.3a.364.364,0,0,1-.008-.16A.394.394,0,0,1,.07,4.991a.372.372,0,0,1,.315-.172.51.51,0,0,1,.286.1,2.235,2.235,0,0,0,.489.261,1.511,1.511,0,0,0,.532.1c.033,0,.068,0,.1,0a1.238,1.238,0,0,0,.413-.1,1,1,0,0,0,.34-.246.45.45,0,0,0-.049-.7,1.867,1.867,0,0,0-.523-.278l-.028-.011L1.6,3.8c-.186-.075-.378-.153-.567-.231a2.092,2.092,0,0,1-.553-.336A1.286,1.286,0,0,1,0,2.327a1.286,1.286,0,0,1,.366-.955A1.781,1.781,0,0,1,1.26.858.146.146,0,0,0,1.334.824s.015-.018.011-.068a2.789,2.789,0,0,1,0-.339.456.456,0,0,1,.118-.3A.367.367,0,0,1,1.588.03.405.405,0,0,1,1.744,0h0a.4.4,0,0,1,.4.407,1.271,1.271,0,0,1,0,.162A.407.407,0,0,0,2.159.8h0c.032.043.126.06.217.076a1.277,1.277,0,0,1,.155.035,2.754,2.754,0,0,1,.769.4.384.384,0,0,1,.182.322v.038h0a.382.382,0,0,1-.2.325.389.389,0,0,1-.2.057.394.394,0,0,1-.226-.075,2.3,2.3,0,0,0-.537-.29,1.646,1.646,0,0,0-.54-.1,1.225,1.225,0,0,0-.321.042,1.279,1.279,0,0,0-.315.134.834.834,0,0,0-.232.2A.436.436,0,0,0,.958,2.6a1.674,1.674,0,0,0,.551.312c.126.052.254.1.379.152.211.084.43.17.641.264a2,2,0,0,1,.517.318,1.31,1.31,0,0,1,.2.225,1.228,1.228,0,0,1,.149.282,1.262,1.262,0,0,1,.065.7,1.34,1.34,0,0,1-.33.622,1.743,1.743,0,0,1-.917.533.121.121,0,0,0-.064.029.109.109,0,0,0-.01.064,2.866,2.866,0,0,1,0,.355.4.4,0,0,1-.4.4Z" transform="translate(2.918 2.578)" fill="#fff"/>
    </g>
  </g>
</svg>
