<svg xmlns="http://www.w3.org/2000/svg" width="30" height="30" viewBox="0 0 30 30">
  <g id="ing" transform="translate(-926.582 -472.582)" opacity="0.8">
    <rect id="사각형_1415" data-name="사각형 1415" width="30" height="30" transform="translate(926.582 472.582)" fill="none"/>
    <g id="그룹_275" data-name="그룹 275" transform="translate(929.974 477.88)">
      <path id="패스_623" data-name="패스 623" d="M2916.2,1277.7h-15.113a3.943,3.943,0,0,1-3.88-4v-6.633a3.943,3.943,0,0,1,3.88-4H2916.2a3.943,3.943,0,0,1,3.88,4v6.633A3.943,3.943,0,0,1,2916.2,1277.7Zm-15.113-13.331a2.667,2.667,0,0,0-2.624,2.7v6.633a2.667,2.667,0,0,0,2.624,2.7H2916.2a2.666,2.666,0,0,0,2.624-2.7v-6.633a2.666,2.666,0,0,0-2.624-2.7Z" transform="translate(-2897.212 -1263.075)" fill="#fff"/>
      <path id="패스_624" data-name="패스 624" d="M2930.972,1284.275a1.539,1.539,0,0,1-1.534-1.536v-4.3a1.534,1.534,0,0,1,2.3-1.328l3.724,2.15h0a1.534,1.534,0,0,1,0,2.657l-3.724,2.15A1.531,1.531,0,0,1,2930.972,1284.275Zm0-6.095a.259.259,0,0,0-.13.036.25.25,0,0,0-.128.223v4.3a.257.257,0,0,0,.386.223l3.724-2.15a.257.257,0,0,0,0-.446l-3.724-2.15A.256.256,0,0,0,2930.973,1278.18Z" transform="translate(-2921.398 -1273.314)" fill="#fff"/>
      <path id="패스_625" data-name="패스 625" d="M2920.866,1329.035h-15.631a.732.732,0,0,0-.664-.432h-1.665a.732.732,0,0,0-.664.432h-1.566a.638.638,0,0,0,0,1.276h1.566a.732.732,0,0,0,.664.432h1.665a.732.732,0,0,0,.664-.432h15.631a.638.638,0,0,0,0-1.276Z" transform="translate(-2899.324 -1311.683)" fill="#fff"/>
    </g>
  </g>
</svg>
