<svg xmlns="http://www.w3.org/2000/svg" xmlns:xlink="http://www.w3.org/1999/xlink" width="120" height="45" viewBox="0 0 120 45">
  <defs>
    <clipPath id="clip-path">
      <rect id="사각형_42" data-name="사각형 42" width="120" height="45" transform="translate(0 0)" fill="none"/>
    </clipPath>
    <clipPath id="clip-path-2">
      <path id="패스_140" data-name="패스 140" d="M0,20.613l6.224-.035a5.768,5.768,0,0,1,5.86-6.062c.135,0,.265.005.4.013l0-.018a5.889,5.889,0,0,1,.213-.6,12.4,12.4,0,0,1,.814-1.545c.23-.372.481-.7.732-1.032.073-.105.148-.206.238-.317A12.426,12.426,0,0,1,15.6,9.838,12,12,0,0,1,16.639,9a13.721,13.721,0,0,0-4.721-.808C4.9,8.19,0,13.3,0,20.613" transform="translate(0 -8.19)" fill="none"/>
    </clipPath>
    <clipPath id="clip-path-3">
      <path id="패스_230" data-name="패스 230" d="M33.858,22.455c0,3.887-2.313,6.4-5.893,6.4a6.046,6.046,0,0,1-2.06-.346,5.385,5.385,0,0,1,.174,1.388,5.7,5.7,0,0,1-2.413,4.53,12.345,12.345,0,0,0,4.3.756c7.116,0,11.715-5,11.715-12.725Z" transform="translate(-23.665 -22.455)" fill="none"/>
    </clipPath>
    <clipPath id="clip-path-4">
      <path id="패스_298" data-name="패스 298" d="M15.118,22.455a15.932,15.932,0,0,0,.649,4.552c.092-.027.181-.057.266-.089a8.239,8.239,0,0,0,1.234-.637,5.993,5.993,0,0,1,3.174-1.061,4.856,4.856,0,0,1,1.063.117,7.667,7.667,0,0,1-.531-2.882Z" transform="translate(-15.118 -22.455)" fill="none"/>
    </clipPath>
  </defs>
  <g id="그룹_313" data-name="그룹 313" transform="translate(-436.529 -192.553)">
    <g id="그룹_41" data-name="그룹 41" transform="translate(436.529 192.553)">
      <g id="그룹_40" data-name="그룹 40" transform="translate(0 0)" clip-path="url(#clip-path)">
        <path id="패스_47" data-name="패스 47" d="M11.918,33.446C4.79,33.446,0,28.329,0,20.715,0,13.342,4.9,8.19,11.918,8.19a13.619,13.619,0,0,1,4.721.815,12.318,12.318,0,0,0-1.037.847,12.47,12.47,0,0,0-1.12,1.183c-.091.111-.166.213-.238.32-.25.334-.5.665-.732,1.042a12.7,12.7,0,0,0-.814,1.556,6.122,6.122,0,0,0-.213.61l0,.018c-.13-.007-.261-.012-.395-.012a5.793,5.793,0,0,0-5.86,6.112c0,3.78,2.423,6.42,5.894,6.42a7.019,7.019,0,0,0,.892-.057,7.775,7.775,0,0,0,.853-.159,6.569,6.569,0,0,0,.7-.22,9.475,9.475,0,0,0,1.472-.756,4.444,4.444,0,0,1,2.346-.845,2.733,2.733,0,0,1,2.826,3.053,4.417,4.417,0,0,1-2.366,3.669,6.068,6.068,0,0,1-.637.327l-.193.09a10.007,10.007,0,0,1-1.233.5l-.187.059c-.4.125-.8.237-1.22.326-.119.025-.806.141-.806.141-.267.045-.53.09-.809.118a17.38,17.38,0,0,1-1.84.1" transform="translate(0.537 -0.919)" fill="#fb8c00"/>
        <path id="패스_48" data-name="패스 48" d="M26.8,33.446a12.246,12.246,0,0,1-4.3-.762,5.764,5.764,0,0,0,2.413-4.567,5.485,5.485,0,0,0-.174-1.4,6.005,6.005,0,0,0,2.06.35c3.58,0,5.893-2.532,5.893-6.451,0-3.879-2.313-6.385-5.893-6.385-3.539,0-5.827,2.506-5.827,6.385A7.787,7.787,0,0,0,21.5,23.52a4.818,4.818,0,0,0-1.063-.118,5.961,5.961,0,0,0-3.174,1.07,8.254,8.254,0,0,1-1.234.643c-.085.032-.174.063-.266.09a16.219,16.219,0,0,1-.648-4.59,14.982,14.982,0,0,1,1.147-5.994,10.938,10.938,0,0,1,.7-1.349,10.233,10.233,0,0,1,.594-.84c.124-.177.18-.255.24-.33a9.566,9.566,0,0,1,.938-.991,9.854,9.854,0,0,1,1.155-.923l.485-.333A12.281,12.281,0,0,1,26.8,8.19c7.226,0,11.715,4.761,11.715,12.424,0,7.793-4.6,12.831-11.715,12.831" transform="translate(-1.522 -0.919)" fill="#fb8c00"/>
        <path id="패스_49" data-name="패스 49" d="M14.678,2.876A2.852,2.852,0,1,1,11.826,0a2.864,2.864,0,0,1,2.852,2.876" transform="translate(-0.685 0.138)" fill="#fb8c00"/>
        <path id="패스_50" data-name="패스 50" d="M31.064,2.876A2.852,2.852,0,1,1,28.212,0a2.864,2.864,0,0,1,2.852,2.876" transform="translate(-2.917 0.138)" fill="#fb8c00"/>
      </g>
    </g>
    <g id="그룹_43" data-name="그룹 43" transform="translate(437.067 199.848)">
      <g id="그룹_42" data-name="그룹 42" clip-path="url(#clip-path-2)">
        <path id="패스_51" data-name="패스 51" d="M0,16.557l2.754,5.2H0Z" transform="translate(0 -9.33)" fill="#fb8c00"/>
        <path id="패스_52" data-name="패스 52" d="M0,16.084l2.971,5.6H2.754L0,16.492Z" transform="translate(0 -9.265)" fill="#fb8c00"/>
        <path id="패스_53" data-name="패스 53" d="M0,15.611l3.187,6.012H2.971L0,16.02Z" transform="translate(0 -9.201)" fill="#fb8c00"/>
        <path id="패스_54" data-name="패스 54" d="M0,15.138l3.4,6.42H3.187L0,15.547Z" transform="translate(0 -9.136)" fill="#fb8c00"/>
        <path id="패스_55" data-name="패스 55" d="M0,14.666l3.62,6.829H3.4L0,15.074Z" transform="translate(0 -9.072)" fill="#fb8c00"/>
        <path id="패스_56" data-name="패스 56" d="M0,14.193,3.836,21.43H3.62L0,14.6Z" transform="translate(0 -9.008)" fill="#fb8c00"/>
        <path id="패스_57" data-name="패스 57" d="M0,13.72l4.053,7.645H3.836L0,14.129Z" transform="translate(0 -8.943)" fill="#fb8c00"/>
        <path id="패스_58" data-name="패스 58" d="M0,13.247,4.27,21.3H4.053L0,13.656Z" transform="translate(0 -8.879)" fill="#fb8c00"/>
        <path id="패스_59" data-name="패스 59" d="M0,12.775l4.486,8.462H4.27L0,13.183Z" transform="translate(0 -8.815)" fill="#fb8c00"/>
        <path id="패스_60" data-name="패스 60" d="M0,12.3l4.7,8.871H4.486L0,12.71Z" transform="translate(0 -8.75)" fill="#fb8c00"/>
        <path id="패스_61" data-name="패스 61" d="M0,11.829l4.918,9.279H4.7L0,12.238Z" transform="translate(0 -8.686)" fill="#fb8c00"/>
        <path id="패스_62" data-name="패스 62" d="M0,11.356l5.135,9.687H4.918L0,11.765Z" transform="translate(0 -8.621)" fill="#fb8c00"/>
        <path id="패스_63" data-name="패스 63" d="M0,10.884l5.351,10.1H5.135L0,11.292Z" transform="translate(0 -8.557)" fill="#fb8c00"/>
        <path id="패스_64" data-name="패스 64" d="M0,10.411l5.568,10.5H5.351L0,10.819Z" transform="translate(0 -8.493)" fill="#fb8c00"/>
        <path id="패스_65" data-name="패스 65" d="M0,9.938,5.785,20.85H5.568L0,10.347Z" transform="translate(0 -8.428)" fill="#fb8c00"/>
        <path id="패스_66" data-name="패스 66" d="M0,9.465,6,20.786H5.785L0,9.874Z" transform="translate(0 -8.364)" fill="#fb8c00"/>
        <path id="패스_67" data-name="패스 67" d="M0,8.993,6.217,20.722H6L0,9.4Z" transform="translate(0 -8.299)" fill="#fb8c00"/>
        <path id="패스_68" data-name="패스 68" d="M0,8.921l.148-.079L6.433,20.7H6.217L0,8.972Z" transform="translate(0 -8.279)" fill="#fb8c00"/>
        <path id="패스_69" data-name="패스 69" d="M.171,8.829l.169-.09L6.674,20.688H6.457Z" transform="translate(-0.023 -8.265)" fill="#fb8c00"/>
        <path id="패스_70" data-name="패스 70" d="M.367,8.725l.169-.09L6.917,20.673H6.7Z" transform="translate(-0.05 -8.251)" fill="#fb8c00"/>
        <path id="패스_71" data-name="패스 71" d="M.563,8.621l.169-.09L7.16,20.659H6.943Z" transform="translate(-0.077 -8.237)" fill="#fb8c00"/>
        <path id="패스_72" data-name="패스 72" d="M.758,8.518l.169-.09L7.4,20.645H7.186Z" transform="translate(-0.103 -8.222)" fill="#fb8b00"/>
        <path id="패스_73" data-name="패스 73" d="M.954,8.414l.169-.09L7.646,20.63H7.43Z" transform="translate(-0.13 -8.208)" fill="#fb8b00"/>
        <path id="패스_74" data-name="패스 74" d="M1.149,8.31l.169-.09,6.571,12.4H7.673Z" transform="translate(-0.157 -8.194)" fill="#fb8b00"/>
        <path id="패스_75" data-name="패스 75" d="M1.345,8.217,1.4,8.19h.152L8.133,20.613H7.916Z" transform="translate(-0.183 -8.19)" fill="#fb8b00"/>
        <path id="패스_76" data-name="패스 76" d="M1.8,8.19,8.38,20.613H8.164L1.579,8.19Z" transform="translate(-0.215 -8.19)" fill="#fb8b00"/>
        <path id="패스_77" data-name="패스 77" d="M2.046,8.19,8.631,20.613H8.415L1.829,8.19Z" transform="translate(-0.249 -8.19)" fill="#fb8b01"/>
        <path id="패스_78" data-name="패스 78" d="M2.3,8.19,8.882,20.613H8.666L2.08,8.19Z" transform="translate(-0.283 -8.19)" fill="#fb8b01"/>
        <path id="패스_79" data-name="패스 79" d="M2.548,8.19,9.132,20.613H8.916L2.331,8.19Z" transform="translate(-0.317 -8.19)" fill="#fb8b01"/>
        <path id="패스_80" data-name="패스 80" d="M2.8,8.19,9.383,20.613H9.167L2.581,8.19Z" transform="translate(-0.352 -8.19)" fill="#fb8a01"/>
        <path id="패스_81" data-name="패스 81" d="M3.049,8.19,9.633,20.613H9.417L2.832,8.19Z" transform="translate(-0.386 -8.19)" fill="#fb8a01"/>
        <path id="패스_82" data-name="패스 82" d="M3.3,8.19,9.884,20.613H9.668L3.082,8.19Z" transform="translate(-0.42 -8.19)" fill="#fa8a01"/>
        <path id="패스_83" data-name="패스 83" d="M3.55,8.19l6.585,12.423H9.918L3.333,8.19Z" transform="translate(-0.454 -8.19)" fill="#fa8a01"/>
        <path id="패스_84" data-name="패스 84" d="M3.8,8.19l6.574,12.4-.039.021h-.167L3.584,8.19Z" transform="translate(-0.488 -8.19)" fill="#fa8901"/>
        <path id="패스_85" data-name="패스 85" d="M4.051,8.19,10.578,20.5l-.169.09L3.834,8.19Z" transform="translate(-0.522 -8.19)" fill="#fa8901"/>
        <path id="패스_86" data-name="패스 86" d="M4.3,8.19l6.479,12.223-.169.089L4.085,8.19Z" transform="translate(-0.556 -8.19)" fill="#fa8902"/>
        <path id="패스_87" data-name="패스 87" d="M4.552,8.19l6.432,12.134-.169.09L4.335,8.19Z" transform="translate(-0.591 -8.19)" fill="#fa8802"/>
        <path id="패스_88" data-name="패스 88" d="M4.8,8.19l6.384,12.044-.169.09L4.586,8.19Z" transform="translate(-0.625 -8.19)" fill="#fa8802"/>
        <path id="패스_89" data-name="패스 89" d="M5.053,8.19,11.39,20.145l-.169.089L4.837,8.19Z" transform="translate(-0.659 -8.19)" fill="#fa8802"/>
        <path id="패스_90" data-name="패스 90" d="M5.3,8.19l6.289,11.865-.169.09L5.087,8.19Z" transform="translate(-0.693 -8.19)" fill="#fa8702"/>
        <path id="패스_91" data-name="패스 91" d="M5.555,8.19,11.8,19.965l-.169.09L5.338,8.19Z" transform="translate(-0.727 -8.19)" fill="#fa8703"/>
        <path id="패스_92" data-name="패스 92" d="M5.805,8.19,12,19.875l-.168.09L5.588,8.19Z" transform="translate(-0.761 -8.19)" fill="#fa8603"/>
        <path id="패스_93" data-name="패스 93" d="M6.056,8.19l6.147,11.6-.168.089L5.839,8.19Z" transform="translate(-0.795 -8.19)" fill="#f98603"/>
        <path id="패스_94" data-name="패스 94" d="M6.306,8.19l6.1,11.506-.168.09L6.09,8.19Z" transform="translate(-0.83 -8.19)" fill="#f98503"/>
        <path id="패스_95" data-name="패스 95" d="M6.557,8.19l6.052,11.417-.168.09L6.34,8.19Z" transform="translate(-0.864 -8.19)" fill="#f98404"/>
        <path id="패스_96" data-name="패스 96" d="M6.808,8.19l6,11.328-.168.089L6.591,8.19Z" transform="translate(-0.898 -8.19)" fill="#f98404"/>
        <path id="패스_97" data-name="패스 97" d="M7.058,8.19l5.957,11.238-.168.09L6.841,8.19Z" transform="translate(-0.932 -8.19)" fill="#f98304"/>
        <path id="패스_98" data-name="패스 98" d="M7.309,8.19l5.909,11.148-.168.09L7.092,8.19Z" transform="translate(-0.966 -8.19)" fill="#f98205"/>
        <path id="패스_99" data-name="패스 99" d="M7.559,8.19l5.862,11.059-.168.089L7.342,8.19Z" transform="translate(-1 -8.19)" fill="#f88205"/>
        <path id="패스_100" data-name="패스 100" d="M7.81,8.19l5.814,10.969-.168.09L7.593,8.19Z" transform="translate(-1.034 -8.19)" fill="#f88105"/>
        <path id="패스_101" data-name="패스 101" d="M8.061,8.19l5.767,10.879-.168.09L7.844,8.19Z" transform="translate(-1.068 -8.19)" fill="#f88006"/>
        <path id="패스_102" data-name="패스 102" d="M8.311,8.19,14.03,18.98l-.168.089L8.094,8.19Z" transform="translate(-1.103 -8.19)" fill="#f87f06"/>
        <path id="패스_103" data-name="패스 103" d="M8.562,8.19l5.672,10.7-.168.09L8.345,8.19Z" transform="translate(-1.137 -8.19)" fill="#f87e07"/>
        <path id="패스_104" data-name="패스 104" d="M8.812,8.19,14.437,18.8l-.169.09L8.6,8.19Z" transform="translate(-1.171 -8.19)" fill="#f77d07"/>
        <path id="패스_105" data-name="패스 105" d="M9.063,8.19,14.64,18.711l-.169.09L8.846,8.19Z" transform="translate(-1.205 -8.19)" fill="#f77c08"/>
        <path id="패스_106" data-name="패스 106" d="M9.314,8.19l5.53,10.432-.169.089L9.1,8.19Z" transform="translate(-1.239 -8.19)" fill="#f77b08"/>
        <path id="패스_107" data-name="패스 107" d="M9.564,8.19l5.482,10.342-.169.09L9.347,8.19Z" transform="translate(-1.273 -8.19)" fill="#f67a09"/>
        <path id="패스_108" data-name="패스 108" d="M9.815,8.19,15.25,18.442l-.169.09L9.6,8.19Z" transform="translate(-1.307 -8.19)" fill="#f67909"/>
        <path id="패스_109" data-name="패스 109" d="M10.065,8.19l5.387,10.163-.169.089L9.848,8.19Z" transform="translate(-1.342 -8.19)" fill="#f6780a"/>
        <path id="패스_110" data-name="패스 110" d="M10.316,8.19l5.34,10.073-.169.09L10.1,8.19Z" transform="translate(-1.376 -8.19)" fill="#f6760b"/>
        <path id="패스_111" data-name="패스 111" d="M10.567,8.19l5.292,9.984-.169.09L10.35,8.19Z" transform="translate(-1.41 -8.19)" fill="#f5750b"/>
        <path id="패스_112" data-name="패스 112" d="M10.817,8.19l5.245,9.895-.169.089L10.6,8.19Z" transform="translate(-1.444 -8.19)" fill="#f5740c"/>
        <path id="패스_113" data-name="패스 113" d="M11.068,8.19l5.2,9.8-.169.09L10.851,8.19Z" transform="translate(-1.478 -8.19)" fill="#f4720d"/>
        <path id="패스_114" data-name="패스 114" d="M11.318,8.19l5.15,9.715-.169.09-5.2-9.8Z" transform="translate(-1.512 -8.19)" fill="#f4710e"/>
        <path id="패스_115" data-name="패스 115" d="M11.569,8.19l5.1,9.625-.169.09L11.352,8.19Z" transform="translate(-1.546 -8.19)" fill="#f46f0e"/>
        <path id="패스_116" data-name="패스 116" d="M11.819,8.19l5.055,9.536-.169.089L11.6,8.19Z" transform="translate(-1.58 -8.19)" fill="#f36d0f"/>
        <path id="패스_117" data-name="패스 117" d="M12.07,8.19l5.007,9.446-.169.09L11.853,8.19Z" transform="translate(-1.615 -8.19)" fill="#f36c10"/>
        <path id="패스_118" data-name="패스 118" d="M12.321,8.19l4.96,9.356-.169.09L12.1,8.19Z" transform="translate(-1.649 -8.19)" fill="#f26a11"/>
        <path id="패스_119" data-name="패스 119" d="M12.571,8.19l4.912,9.268-.169.089L12.354,8.19Z" transform="translate(-1.683 -8.19)" fill="#f26812"/>
        <path id="패스_120" data-name="패스 120" d="M12.822,8.19l4.865,9.178-.169.09L12.6,8.19Z" transform="translate(-1.717 -8.19)" fill="#f16613"/>
        <path id="패스_121" data-name="패스 121" d="M13.072,8.19l4.817,9.088-.169.09L12.856,8.19Z" transform="translate(-1.751 -8.19)" fill="#f16414"/>
        <path id="패스_122" data-name="패스 122" d="M13.323,8.19l4.77,9-.169.089L13.106,8.19Z" transform="translate(-1.785 -8.19)" fill="#f06215"/>
        <path id="패스_123" data-name="패스 123" d="M13.574,8.19,18.3,17.1l-.168.09-4.771-9Z" transform="translate(-1.819 -8.19)" fill="#f06016"/>
        <path id="패스_124" data-name="패스 124" d="M13.824,8.19,18.492,17v.016l-.162.086L13.607,8.19Z" transform="translate(-1.854 -8.19)" fill="#ef5e17"/>
        <path id="패스_125" data-name="패스 125" d="M14.075,8.19l4.452,8.4V17L13.858,8.19Z" transform="translate(-1.888 -8.19)" fill="#ef5b18"/>
        <path id="패스_126" data-name="패스 126" d="M14.325,8.19l4.235,7.99v.409l-4.452-8.4Z" transform="translate(-1.922 -8.19)" fill="#ee5919"/>
        <path id="패스_127" data-name="패스 127" d="M14.576,8.19,18.6,15.771v.409L14.359,8.19Z" transform="translate(-1.956 -8.19)" fill="#ed561b"/>
        <path id="패스_128" data-name="패스 128" d="M14.827,8.19l3.8,7.173v.409L14.61,8.19Z" transform="translate(-1.99 -8.19)" fill="#ed541c"/>
        <path id="패스_129" data-name="패스 129" d="M15.077,8.19l3.586,6.765v.408L14.86,8.19Z" transform="translate(-2.024 -8.19)" fill="#ec511d"/>
        <path id="패스_130" data-name="패스 130" d="M15.328,8.19l3.37,6.357v.409L15.111,8.19Z" transform="translate(-2.058 -8.19)" fill="#eb4e1e"/>
        <path id="패스_131" data-name="패스 131" d="M15.578,8.19l3.153,5.948v.409L15.361,8.19Z" transform="translate(-2.093 -8.19)" fill="#eb4c20"/>
        <path id="패스_132" data-name="패스 132" d="M15.829,8.19l2.937,5.539v.409L15.612,8.19Z" transform="translate(-2.127 -8.19)" fill="#ea4921"/>
        <path id="패스_133" data-name="패스 133" d="M16.08,8.19l2.72,5.132v.408L15.863,8.19Z" transform="translate(-2.161 -8.19)" fill="#e94623"/>
        <path id="패스_134" data-name="패스 134" d="M16.33,8.19l2.5,4.723v.409L16.113,8.19Z" transform="translate(-2.195 -8.19)" fill="#e84224"/>
        <path id="패스_135" data-name="패스 135" d="M16.581,8.19,18.868,12.5v.409l-2.5-4.723Z" transform="translate(-2.229 -8.19)" fill="#e83f26"/>
        <path id="패스_136" data-name="패스 136" d="M16.831,8.19,18.9,12.1V12.5L16.614,8.19Z" transform="translate(-2.263 -8.19)" fill="#e73c28"/>
        <path id="패스_137" data-name="패스 137" d="M17.082,8.19l1.855,3.5V12.1L16.865,8.19Z" transform="translate(-2.297 -8.19)" fill="#e63929"/>
        <path id="패스_138" data-name="패스 138" d="M17.333,8.19l1.638,3.09v.409l-1.855-3.5Z" transform="translate(-2.331 -8.19)" fill="#e5352b"/>
        <path id="패스_139" data-name="패스 139" d="M19,11.28,17.367,8.19H19Z" transform="translate(-2.366 -8.19)" fill="#e5352b"/>
      </g>
    </g>
    <g id="그룹_45" data-name="그룹 45" transform="translate(457.508 212.315)">
      <g id="그룹_44" data-name="그룹 44" clip-path="url(#clip-path-3)">
        <path id="패스_141" data-name="패스 141" d="M41.951,27.63l-1.617-5.176h1.617Z" transform="translate(-25.936 -22.455)" fill="#fb8c00"/>
        <path id="패스_142" data-name="패스 142" d="M41.92,28.248l-1.81-5.793H40.3L41.92,27.63Z" transform="translate(-25.905 -22.455)" fill="#fb8c00"/>
        <path id="패스_143" data-name="패스 143" d="M41.89,28.865l-2-6.41h.193l1.81,5.793Z" transform="translate(-25.875 -22.455)" fill="#fb8c00"/>
        <path id="패스_144" data-name="패스 144" d="M41.859,29.482l-2.2-7.028h.193l2,6.41Z" transform="translate(-25.844 -22.455)" fill="#fb8c00"/>
        <path id="패스_145" data-name="패스 145" d="M41.829,30.1l-2.388-7.644h.193l2.2,7.027Z" transform="translate(-25.814 -22.455)" fill="#fb8c00"/>
        <path id="패스_146" data-name="패스 146" d="M41.8,30.717l-2.581-8.262h.193L41.8,30.1Z" transform="translate(-25.784 -22.455)" fill="#fb8c00"/>
        <path id="패스_147" data-name="패스 147" d="M41.768,31.334l-2.774-8.88h.193l2.581,8.262Z" transform="translate(-25.753 -22.455)" fill="#fb8c00"/>
        <path id="패스_148" data-name="패스 148" d="M41.738,31.951l-2.967-9.5h.193l2.774,8.879Z" transform="translate(-25.723 -22.455)" fill="#fb8c00"/>
        <path id="패스_149" data-name="패스 149" d="M41.707,32.569l-3.16-10.114h.193l2.967,9.5Z" transform="translate(-25.692 -22.455)" fill="#fb8c00"/>
        <path id="패스_150" data-name="패스 150" d="M41.677,33.186,38.325,22.454h.193l3.16,10.114Z" transform="translate(-25.662 -22.455)" fill="#fb8c00"/>
        <path id="패스_151" data-name="패스 151" d="M41.647,33.8,38.1,22.455h.193l3.352,10.731Z" transform="translate(-25.632 -22.455)" fill="#fb8c00"/>
        <path id="패스_152" data-name="패스 152" d="M41.616,34.42,37.878,22.454h.193L41.616,33.8Z" transform="translate(-25.601 -22.455)" fill="#fb8c00"/>
        <path id="패스_153" data-name="패스 153" d="M41.586,35.038,37.655,22.454h.193L41.586,34.42Z" transform="translate(-25.571 -22.455)" fill="#fb8c00"/>
        <path id="패스_154" data-name="패스 154" d="M41.407,35.18,37.431,22.455h.193l3.931,12.583v.143Z" transform="translate(-25.54 -22.455)" fill="#fb8c00"/>
        <path id="패스_155" data-name="패스 155" d="M41.184,35.18,37.208,22.455H37.4L41.376,35.18Z" transform="translate(-25.51 -22.455)" fill="#fb8c00"/>
        <path id="패스_156" data-name="패스 156" d="M40.96,35.18,36.984,22.455h.193L41.153,35.18Z" transform="translate(-25.479 -22.455)" fill="#fb8c00"/>
        <path id="패스_157" data-name="패스 157" d="M40.737,35.18,36.761,22.455h.193L40.93,35.18Z" transform="translate(-25.449 -22.455)" fill="#fb8c00"/>
        <path id="패스_158" data-name="패스 158" d="M40.514,35.18,36.538,22.455h.193L40.706,35.18Z" transform="translate(-25.419 -22.455)" fill="#fb8c00"/>
        <path id="패스_159" data-name="패스 159" d="M40.29,35.18,36.314,22.455h.193L40.483,35.18Z" transform="translate(-25.388 -22.455)" fill="#fb8c00"/>
        <path id="패스_160" data-name="패스 160" d="M40.067,35.18,36.091,22.455h.193L40.26,35.18Z" transform="translate(-25.358 -22.455)" fill="#fb8c00"/>
        <path id="패스_161" data-name="패스 161" d="M39.844,35.18,35.868,22.455h.193L40.037,35.18Z" transform="translate(-25.327 -22.455)" fill="#fb8c00"/>
        <path id="패스_162" data-name="패스 162" d="M39.621,35.18,35.645,22.455h.193L39.813,35.18Z" transform="translate(-25.297 -22.455)" fill="#fb8b00"/>
        <path id="패스_163" data-name="패스 163" d="M39.4,35.18,35.422,22.455h.193L39.59,35.18Z" transform="translate(-25.266 -22.455)" fill="#fb8b00"/>
        <path id="패스_164" data-name="패스 164" d="M39.174,35.18,35.2,22.455h.193L39.367,35.18Z" transform="translate(-25.236 -22.455)" fill="#fb8b00"/>
        <path id="패스_165" data-name="패스 165" d="M38.951,35.18,34.975,22.455h.193L39.144,35.18Z" transform="translate(-25.206 -22.455)" fill="#fb8b00"/>
        <path id="패스_166" data-name="패스 166" d="M38.728,35.18,34.752,22.455h.193L38.92,35.18Z" transform="translate(-25.175 -22.455)" fill="#fb8b00"/>
        <path id="패스_167" data-name="패스 167" d="M38.5,35.18,34.528,22.455h.193L38.7,35.18Z" transform="translate(-25.145 -22.455)" fill="#fb8b01"/>
        <path id="패스_168" data-name="패스 168" d="M38.281,35.18,34.305,22.455H34.5L38.474,35.18Z" transform="translate(-25.114 -22.455)" fill="#fb8b01"/>
        <path id="패스_169" data-name="패스 169" d="M38.058,35.18,34.082,22.455h.193L38.251,35.18Z" transform="translate(-25.084 -22.455)" fill="#fb8b01"/>
        <path id="패스_170" data-name="패스 170" d="M37.835,35.18,33.859,22.455h.193L38.027,35.18Z" transform="translate(-25.054 -22.455)" fill="#fb8a01"/>
        <path id="패스_171" data-name="패스 171" d="M37.611,35.18,33.635,22.455h.193L37.8,35.18Z" transform="translate(-25.023 -22.455)" fill="#fb8a01"/>
        <path id="패스_172" data-name="패스 172" d="M37.388,35.18,33.412,22.455h.193L37.581,35.18Z" transform="translate(-24.993 -22.455)" fill="#fa8a01"/>
        <path id="패스_173" data-name="패스 173" d="M37.165,35.18,33.189,22.455h.193L37.358,35.18Z" transform="translate(-24.962 -22.455)" fill="#fa8a01"/>
        <path id="패스_174" data-name="패스 174" d="M36.942,35.18,32.966,22.455h.193L37.134,35.18Z" transform="translate(-24.932 -22.455)" fill="#fa8901"/>
        <path id="패스_175" data-name="패스 175" d="M36.718,35.18,32.742,22.455h.193L36.911,35.18Z" transform="translate(-24.902 -22.455)" fill="#fa8901"/>
        <path id="패스_176" data-name="패스 176" d="M36.5,35.18,32.519,22.455h.193L36.688,35.18Z" transform="translate(-24.871 -22.455)" fill="#fa8902"/>
        <path id="패스_177" data-name="패스 177" d="M36.272,35.18,32.3,22.455h.193L36.464,35.18Z" transform="translate(-24.841 -22.455)" fill="#fa8802"/>
        <path id="패스_178" data-name="패스 178" d="M36.049,35.18,32.073,22.455h.193L36.241,35.18Z" transform="translate(-24.81 -22.455)" fill="#fa8802"/>
        <path id="패스_179" data-name="패스 179" d="M35.825,35.18,31.849,22.455h.193L36.018,35.18Z" transform="translate(-24.78 -22.455)" fill="#fa8802"/>
        <path id="패스_180" data-name="패스 180" d="M35.6,35.18,31.626,22.455h.193L35.795,35.18Z" transform="translate(-24.749 -22.455)" fill="#fa8702"/>
        <path id="패스_181" data-name="패스 181" d="M35.379,35.18,31.4,22.455H31.6L35.571,35.18Z" transform="translate(-24.719 -22.455)" fill="#fa8703"/>
        <path id="패스_182" data-name="패스 182" d="M35.155,35.18,31.18,22.455h.193L35.348,35.18Z" transform="translate(-24.689 -22.455)" fill="#fa8603"/>
        <path id="패스_183" data-name="패스 183" d="M34.932,35.18,30.956,22.455h.193L35.125,35.18Z" transform="translate(-24.658 -22.455)" fill="#f98603"/>
        <path id="패스_184" data-name="패스 184" d="M34.709,35.18,30.733,22.455h.193L34.9,35.18Z" transform="translate(-24.628 -22.455)" fill="#f98503"/>
        <path id="패스_185" data-name="패스 185" d="M34.486,35.18,30.51,22.455H30.7L34.678,35.18Z" transform="translate(-24.597 -22.455)" fill="#f98404"/>
        <path id="패스_186" data-name="패스 186" d="M34.262,35.18,30.286,22.455h.193L34.455,35.18Z" transform="translate(-24.567 -22.455)" fill="#f98404"/>
        <path id="패스_187" data-name="패스 187" d="M34.039,35.18,30.063,22.455h.193L34.232,35.18Z" transform="translate(-24.537 -22.455)" fill="#f98304"/>
        <path id="패스_188" data-name="패스 188" d="M33.816,35.18,29.84,22.455h.193L34.009,35.18Z" transform="translate(-24.506 -22.455)" fill="#f98205"/>
        <path id="패스_189" data-name="패스 189" d="M33.593,35.18,29.617,22.455h.193L33.785,35.18Z" transform="translate(-24.476 -22.455)" fill="#f88205"/>
        <path id="패스_190" data-name="패스 190" d="M33.369,35.18,29.393,22.455h.193L33.562,35.18Z" transform="translate(-24.445 -22.455)" fill="#f88105"/>
        <path id="패스_191" data-name="패스 191" d="M33.146,35.18,29.17,22.455h.193L33.339,35.18Z" transform="translate(-24.415 -22.455)" fill="#f88006"/>
        <path id="패스_192" data-name="패스 192" d="M32.923,35.18,28.947,22.455h.193L33.116,35.18Z" transform="translate(-24.384 -22.455)" fill="#f87f06"/>
        <path id="패스_193" data-name="패스 193" d="M32.7,35.18,28.727,22.463l.027-.008h.164L32.893,35.18Z" transform="translate(-24.354 -22.455)" fill="#f87e07"/>
        <path id="패스_194" data-name="패스 194" d="M32.48,35.181,28.523,22.519l.176-.055,3.973,12.717Z" transform="translate(-24.327 -22.456)" fill="#f77d07"/>
        <path id="패스_195" data-name="패스 195" d="M32.259,35.19,28.32,22.582l.176-.054L32.452,35.19Z" transform="translate(-24.299 -22.465)" fill="#f77c08"/>
        <path id="패스_196" data-name="패스 196" d="M32.038,35.2,28.117,22.646l.175-.055L32.231,35.2Z" transform="translate(-24.271 -22.474)" fill="#f77b08"/>
        <path id="패스_197" data-name="패스 197" d="M31.818,35.207l-3.9-12.5.175-.054,3.922,12.552Z" transform="translate(-24.244 -22.482)" fill="#f67a09"/>
        <path id="패스_198" data-name="패스 198" d="M31.6,35.216,27.71,22.773l.175-.055,3.9,12.5Z" transform="translate(-24.216 -22.491)" fill="#f67909"/>
        <path id="패스_199" data-name="패스 199" d="M31.377,35.225l-3.87-12.388.175-.054,3.887,12.443Z" transform="translate(-24.188 -22.5)" fill="#f6780a"/>
        <path id="패스_200" data-name="패스 200" d="M31.156,35.233,27.3,22.9l.176-.055,3.87,12.388Z" transform="translate(-24.161 -22.508)" fill="#f6760b"/>
        <path id="패스_201" data-name="패스 201" d="M30.936,35.242,27.1,22.964l.176-.055,3.852,12.333Z" transform="translate(-24.133 -22.517)" fill="#f5750b"/>
        <path id="패스_202" data-name="패스 202" d="M30.715,35.251,26.9,23.027l.176-.054,3.835,12.278Z" transform="translate(-24.105 -22.526)" fill="#f5740c"/>
        <path id="패스_203" data-name="패스 203" d="M30.495,35.259l-3.8-12.168.175-.055,3.819,12.223Z" transform="translate(-24.077 -22.534)" fill="#f4720d"/>
        <path id="패스_204" data-name="패스 204" d="M30.274,35.268,26.49,23.154l.175-.054,3.8,12.168Z" transform="translate(-24.05 -22.543)" fill="#f4710e"/>
        <path id="패스_205" data-name="패스 205" d="M30.053,35.277,26.286,23.218l.175-.055,3.784,12.114Z" transform="translate(-24.022 -22.551)" fill="#f46f0e"/>
        <path id="패스_206" data-name="패스 206" d="M29.833,35.285l-3.75-12,.175-.054,3.767,12.058Z" transform="translate(-23.994 -22.56)" fill="#f36d0f"/>
        <path id="패스_207" data-name="패스 207" d="M29.612,35.294,25.879,23.345l.176-.055,3.75,12Z" transform="translate(-23.967 -22.569)" fill="#f36c10"/>
        <path id="패스_208" data-name="패스 208" d="M29.392,35.3,25.676,23.408l.176-.054L29.584,35.3Z" transform="translate(-23.939 -22.577)" fill="#f26a11"/>
        <path id="패스_209" data-name="패스 209" d="M29.171,35.311l-3.7-11.839.176-.055,3.715,11.894Z" transform="translate(-23.911 -22.586)" fill="#f26812"/>
        <path id="패스_210" data-name="패스 210" d="M28.951,35.32,25.269,23.535l.175-.054,3.7,11.839Z" transform="translate(-23.884 -22.595)" fill="#f16613"/>
        <path id="패스_211" data-name="패스 211" d="M28.73,35.329,25.066,23.6l.175-.055,3.681,11.785Z" transform="translate(-23.856 -22.603)" fill="#f16414"/>
        <path id="패스_212" data-name="패스 212" d="M28.51,35.337,24.863,23.663l.175-.055L28.7,35.337Z" transform="translate(-23.828 -22.612)" fill="#f06215"/>
        <path id="패스_213" data-name="패스 213" d="M28.289,35.346l-3.63-11.62.175-.054,3.647,11.674Z" transform="translate(-23.8 -22.621)" fill="#f06016"/>
        <path id="패스_214" data-name="패스 214" d="M28.068,35.355,24.455,23.79l.176-.055,3.63,11.62Z" transform="translate(-23.773 -22.629)" fill="#ef5e17"/>
        <path id="패스_215" data-name="패스 215" d="M27.848,35.363l-3.6-11.51.176-.054L28.04,35.363Z" transform="translate(-23.745 -22.638)" fill="#ef5b18"/>
        <path id="패스_216" data-name="패스 216" d="M27.627,35.372,24.049,23.917l.176-.055,3.6,11.51Z" transform="translate(-23.717 -22.647)" fill="#ee5919"/>
        <path id="패스_217" data-name="패스 217" d="M27.407,35.381l-3.561-11.4.175-.054L27.6,35.381Z" transform="translate(-23.69 -22.655)" fill="#ed561b"/>
        <path id="패스_218" data-name="패스 218" d="M27.189,35.389l-3.524-11.28v-.072l.155-.048,3.561,11.4Z" transform="translate(-23.665 -22.664)" fill="#ed541c"/>
        <path id="패스_219" data-name="패스 219" d="M27,35.408,23.666,24.746v-.618l3.523,11.28Z" transform="translate(-23.665 -22.683)" fill="#ec511d"/>
        <path id="패스_220" data-name="패스 220" d="M26.8,35.506,23.666,25.461v-.618L27,35.506Z" transform="translate(-23.665 -22.78)" fill="#eb4e1e"/>
        <path id="패스_221" data-name="패스 221" d="M26.611,35.6l-2.945-9.428v-.617L26.8,35.6Z" transform="translate(-23.665 -22.878)" fill="#eb4c20"/>
        <path id="패스_222" data-name="패스 222" d="M26.418,35.7,23.665,26.89v-.618L26.611,35.7Z" transform="translate(-23.665 -22.975)" fill="#ea4921"/>
        <path id="패스_223" data-name="패스 223" d="M26.225,35.8,23.666,27.6v-.618L26.418,35.8Z" transform="translate(-23.665 -23.072)" fill="#e94623"/>
        <path id="패스_224" data-name="패스 224" d="M26.032,35.895l-2.367-7.576V27.7l2.559,8.193Z" transform="translate(-23.665 -23.17)" fill="#e84224"/>
        <path id="패스_225" data-name="패스 225" d="M25.839,35.992l-2.174-6.959v-.618l2.367,7.576Z" transform="translate(-23.665 -23.267)" fill="#e83f26"/>
        <path id="패스_226" data-name="패스 226" d="M25.647,36.09l-1.982-6.341v-.618l2.174,6.959Z" transform="translate(-23.665 -23.364)" fill="#e73c28"/>
        <path id="패스_227" data-name="패스 227" d="M25.454,36.187l-1.788-5.724v-.617l1.981,6.341Z" transform="translate(-23.665 -23.462)" fill="#e63929"/>
        <path id="패스_228" data-name="패스 228" d="M25.261,36.284l-1.6-5.107V30.56l1.788,5.724Z" transform="translate(-23.665 -23.559)" fill="#e5352b"/>
        <path id="패스_229" data-name="패스 229" d="M23.666,31.275l1.6,5.107h-1.6Z" transform="translate(-23.665 -23.656)" fill="#e5352b"/>
      </g>
    </g>
    <g id="그룹_47" data-name="그룹 47" transform="translate(450.125 212.267)">
      <g id="그룹_46" data-name="그룹 46" clip-path="url(#clip-path-4)">
        <path id="패스_231" data-name="패스 231" d="M15.163,22.455l-.044.013v-.013Z" transform="translate(-15.118 -22.455)" fill="#fb8b00"/>
        <path id="패스_232" data-name="패스 232" d="M15.424,22.455l-.307.09v-.077l.045-.013Z" transform="translate(-15.118 -22.455)" fill="#fb8b00"/>
        <path id="패스_233" data-name="패스 233" d="M15.686,22.455l-.568.166v-.076l.307-.09Z" transform="translate(-15.118 -22.455)" fill="#fb8b00"/>
        <path id="패스_234" data-name="패스 234" d="M15.948,22.455l-.83.243V22.62l.568-.166Z" transform="translate(-15.118 -22.455)" fill="#fb8b00"/>
        <path id="패스_235" data-name="패스 235" d="M16.21,22.455l-1.092.319V22.7l.83-.243Z" transform="translate(-15.118 -22.455)" fill="#fb8b01"/>
        <path id="패스_236" data-name="패스 236" d="M16.472,22.455l-1.354.4v-.077l1.092-.319Z" transform="translate(-15.118 -22.455)" fill="#fb8b01"/>
        <path id="패스_237" data-name="패스 237" d="M16.734,22.455l-1.615.472V22.85l1.354-.4Z" transform="translate(-15.118 -22.455)" fill="#fb8b01"/>
        <path id="패스_238" data-name="패스 238" d="M17,22.455,15.119,23v-.077l1.615-.472Z" transform="translate(-15.118 -22.455)" fill="#fb8a01"/>
        <path id="패스_239" data-name="패스 239" d="M17.257,22.455l-2.139.625V23L17,22.455Z" transform="translate(-15.118 -22.455)" fill="#fb8a01"/>
        <path id="패스_240" data-name="패스 240" d="M17.519,22.455l-2.4.7v-.077l2.14-.625Z" transform="translate(-15.118 -22.455)" fill="#fa8a01"/>
        <path id="패스_241" data-name="패스 241" d="M17.781,22.455l-2.663.777v-.076l2.4-.7Z" transform="translate(-15.118 -22.455)" fill="#fa8a01"/>
        <path id="패스_242" data-name="패스 242" d="M18.043,22.455l-2.925.854v-.077l2.663-.777Z" transform="translate(-15.118 -22.455)" fill="#fa8901"/>
        <path id="패스_243" data-name="패스 243" d="M18.3,22.455l-3.186.93v-.076l2.925-.854Z" transform="translate(-15.118 -22.455)" fill="#fa8901"/>
        <path id="패스_244" data-name="패스 244" d="M18.567,22.455l-3.448,1.007v-.077l3.186-.93Z" transform="translate(-15.118 -22.455)" fill="#fa8902"/>
        <path id="패스_245" data-name="패스 245" d="M18.828,22.455l-3.71,1.083v-.076l3.448-1.007Z" transform="translate(-15.118 -22.455)" fill="#fa8802"/>
        <path id="패스_246" data-name="패스 246" d="M19.09,22.455l-3.972,1.16v-.077l3.71-1.083Z" transform="translate(-15.118 -22.455)" fill="#fa8802"/>
        <path id="패스_247" data-name="패스 247" d="M19.352,22.455l-4.233,1.237v-.077l3.972-1.16Z" transform="translate(-15.118 -22.455)" fill="#fa8802"/>
        <path id="패스_248" data-name="패스 248" d="M19.614,22.455l-4.5,1.313v-.076l4.234-1.237Z" transform="translate(-15.118 -22.455)" fill="#fa8702"/>
        <path id="패스_249" data-name="패스 249" d="M19.876,22.455l-4.758,1.39v-.077l4.5-1.313Z" transform="translate(-15.118 -22.455)" fill="#fa8703"/>
        <path id="패스_250" data-name="패스 250" d="M20.138,22.455,15.118,23.92v-.076l4.758-1.39Z" transform="translate(-15.118 -22.455)" fill="#fa8603"/>
        <path id="패스_251" data-name="패스 251" d="M20.4,22.455,15.118,24V23.92l5.019-1.466Z" transform="translate(-15.118 -22.455)" fill="#f98603"/>
        <path id="패스_252" data-name="패스 252" d="M20.661,22.455l-5.543,1.619V24L20.4,22.455Z" transform="translate(-15.118 -22.455)" fill="#f98503"/>
        <path id="패스_253" data-name="패스 253" d="M20.923,22.455l-5.8,1.7v-.077l5.543-1.619Z" transform="translate(-15.118 -22.455)" fill="#f98404"/>
        <path id="패스_254" data-name="패스 254" d="M21.185,22.455l-6.066,1.772V24.15l5.8-1.7Z" transform="translate(-15.118 -22.455)" fill="#f98404"/>
        <path id="패스_255" data-name="패스 255" d="M21.447,22.455,15.119,24.3v-.077l6.066-1.772Z" transform="translate(-15.118 -22.455)" fill="#f98304"/>
        <path id="패스_256" data-name="패스 256" d="M21.5,22.514l-6.386,1.865V24.3l6.328-1.848H21.5Z" transform="translate(-15.118 -22.455)" fill="#f98205"/>
        <path id="패스_257" data-name="패스 257" d="M21.5,22.6l-6.386,1.865v-.076L21.5,22.523Z" transform="translate(-15.118 -22.464)" fill="#f88205"/>
        <path id="패스_258" data-name="패스 258" d="M21.5,22.688l-6.386,1.865v-.076L21.5,22.612Z" transform="translate(-15.118 -22.476)" fill="#f88105"/>
        <path id="패스_259" data-name="패스 259" d="M21.5,22.777l-6.386,1.865v-.076L21.5,22.7Z" transform="translate(-15.118 -22.488)" fill="#f88006"/>
        <path id="패스_260" data-name="패스 260" d="M21.5,22.866,15.119,24.73v-.076L21.5,22.789Z" transform="translate(-15.118 -22.5)" fill="#f87f06"/>
        <path id="패스_261" data-name="패스 261" d="M21.5,22.954l-6.386,1.865v-.076L21.5,22.877Z" transform="translate(-15.118 -22.513)" fill="#f87e07"/>
        <path id="패스_262" data-name="패스 262" d="M21.5,23.043l-6.386,1.865v-.076L21.5,22.966Z" transform="translate(-15.118 -22.525)" fill="#f77d07"/>
        <path id="패스_263" data-name="패스 263" d="M21.5,23.131,15.119,25V24.92L21.5,23.054Z" transform="translate(-15.118 -22.537)" fill="#f77c08"/>
        <path id="패스_264" data-name="패스 264" d="M21.5,23.22l-6.386,1.865v-.076L21.5,23.143Z" transform="translate(-15.118 -22.549)" fill="#f77b08"/>
        <path id="패스_265" data-name="패스 265" d="M21.5,23.308l-6.386,1.865V25.1L21.5,23.231Z" transform="translate(-15.118 -22.561)" fill="#f67a09"/>
        <path id="패스_266" data-name="패스 266" d="M21.5,23.4l-6.386,1.865v-.076L21.5,23.32Z" transform="translate(-15.118 -22.573)" fill="#f67909"/>
        <path id="패스_267" data-name="패스 267" d="M21.5,23.485,15.119,25.35v-.076L21.5,23.408Z" transform="translate(-15.118 -22.585)" fill="#f6780a"/>
        <path id="패스_268" data-name="패스 268" d="M21.5,23.574l-6.386,1.865v-.076L21.5,23.5Z" transform="translate(-15.118 -22.597)" fill="#f6760b"/>
        <path id="패스_269" data-name="패스 269" d="M21.5,23.662l-6.386,1.865v-.076L21.5,23.586Z" transform="translate(-15.118 -22.609)" fill="#f5750b"/>
        <path id="패스_270" data-name="패스 270" d="M21.5,23.751l-6.386,1.865V25.54L21.5,23.674Z" transform="translate(-15.118 -22.621)" fill="#f5740c"/>
        <path id="패스_271" data-name="패스 271" d="M21.5,23.839,15.119,25.7v-.076L21.5,23.763Z" transform="translate(-15.118 -22.633)" fill="#f4720d"/>
        <path id="패스_272" data-name="패스 272" d="M21.5,23.928l-6.386,1.865v-.076L21.5,23.851Z" transform="translate(-15.118 -22.645)" fill="#f4710e"/>
        <path id="패스_273" data-name="패스 273" d="M21.5,24.016l-6.386,1.865v-.076L21.5,23.94Z" transform="translate(-15.118 -22.657)" fill="#f46f0e"/>
        <path id="패스_274" data-name="패스 274" d="M21.5,24.1,15.119,25.97v-.076L21.5,24.028Z" transform="translate(-15.118 -22.669)" fill="#f36d0f"/>
        <path id="패스_275" data-name="패스 275" d="M21.5,24.193l-6.386,1.865v-.076L21.5,24.117Z" transform="translate(-15.118 -22.681)" fill="#f36c10"/>
        <path id="패스_276" data-name="패스 276" d="M21.5,24.282l-6.386,1.865v-.076L21.5,24.205Z" transform="translate(-15.118 -22.693)" fill="#f26a11"/>
        <path id="패스_277" data-name="패스 277" d="M21.5,24.371l-6.386,1.865v-.076L21.5,24.294Z" transform="translate(-15.118 -22.705)" fill="#f26812"/>
        <path id="패스_278" data-name="패스 278" d="M21.5,24.459l-6.386,1.865v-.076L21.5,24.382Z" transform="translate(-15.118 -22.718)" fill="#f16613"/>
        <path id="패스_279" data-name="패스 279" d="M21.5,24.548l-6.386,1.865v-.076L21.5,24.471Z" transform="translate(-15.118 -22.73)" fill="#f16414"/>
        <path id="패스_280" data-name="패스 280" d="M21.5,24.636,15.119,26.5v-.076L21.5,24.559Z" transform="translate(-15.118 -22.742)" fill="#f06215"/>
        <path id="패스_281" data-name="패스 281" d="M21.5,24.725,15.119,26.59v-.076L21.5,24.648Z" transform="translate(-15.118 -22.754)" fill="#f06016"/>
        <path id="패스_282" data-name="패스 282" d="M21.5,24.813l-6.386,1.865V26.6L21.5,24.736Z" transform="translate(-15.118 -22.766)" fill="#ef5e17"/>
        <path id="패스_283" data-name="패스 283" d="M21.5,24.9l-6.386,1.865v-.076L21.5,24.825Z" transform="translate(-15.118 -22.778)" fill="#ef5b18"/>
        <path id="패스_284" data-name="패스 284" d="M21.5,24.99l-6.386,1.865v-.076L21.5,24.913Z" transform="translate(-15.118 -22.79)" fill="#ee5919"/>
        <path id="패스_285" data-name="패스 285" d="M21.5,25.079l-6.386,1.865v-.076L21.5,25Z" transform="translate(-15.118 -22.802)" fill="#ed561b"/>
        <path id="패스_286" data-name="패스 286" d="M21.5,25.167l-6.386,1.865v-.076L21.5,25.091Z" transform="translate(-15.118 -22.814)" fill="#ed541c"/>
        <path id="패스_287" data-name="패스 287" d="M21.5,25.256l-6.386,1.865v-.076L21.5,25.179Z" transform="translate(-15.118 -22.826)" fill="#ec511d"/>
        <path id="패스_288" data-name="패스 288" d="M21.5,25.344l-6.386,1.865v-.076L21.5,25.268Z" transform="translate(-15.118 -22.838)" fill="#eb4e1e"/>
        <path id="패스_289" data-name="패스 289" d="M21.5,25.433,15.119,27.3v-.076L21.5,25.356Z" transform="translate(-15.118 -22.85)" fill="#eb4c20"/>
        <path id="패스_290" data-name="패스 290" d="M21.5,25.521l-6.386,1.865V27.31L21.5,25.445Z" transform="translate(-15.118 -22.862)" fill="#ea4921"/>
        <path id="패스_291" data-name="패스 291" d="M21.5,25.61l-6.219,1.817h-.167V27.4L21.5,25.533Z" transform="translate(-15.118 -22.874)" fill="#e94623"/>
        <path id="패스_292" data-name="패스 292" d="M21.531,25.7l-5.957,1.74h-.262l6.219-1.817Z" transform="translate(-15.144 -22.886)" fill="#e84224"/>
        <path id="패스_293" data-name="패스 293" d="M21.572,25.787l-5.7,1.664h-.262l5.957-1.741Z" transform="translate(-15.186 -22.898)" fill="#e83f26"/>
        <path id="패스_294" data-name="패스 294" d="M21.613,25.876l-5.434,1.587h-.262l5.7-1.664Z" transform="translate(-15.227 -22.91)" fill="#e73c28"/>
        <path id="패스_295" data-name="패스 295" d="M21.655,25.964l-5.172,1.511h-.262l5.434-1.588Z" transform="translate(-15.268 -22.923)" fill="#e63929"/>
        <path id="패스_296" data-name="패스 296" d="M21.7,26.053l-4.911,1.434h-.262L21.7,25.976Z" transform="translate(-15.309 -22.935)" fill="#e5352b"/>
        <path id="패스_297" data-name="패스 297" d="M16.827,27.5l4.911-1.434V27.5Z" transform="translate(-15.351 -22.947)" fill="#e5352b"/>
      </g>
    </g>
    <g id="그룹_49" data-name="그룹 49" transform="translate(436.529 192.553)">
      <g id="그룹_48" data-name="그룹 48" transform="translate(0 0)" clip-path="url(#clip-path)">
        <path id="패스_299" data-name="패스 299" d="M47.463,12.215a2.467,2.467,0,0,1,2.565-2.586,2.5,2.5,0,0,1,2.532,2.586V23.686c0,2.293.8,4.007,3.46,4.007,1.859,0,2.532-1.423,4.037-1.423a2.082,2.082,0,0,1,2.147,2.3c0,3.166-4.005,4.1-6.728,4.1-5.321,0-8.013-3.715-8.013-8.982Z" transform="translate(-5.928 -1.104)" fill="#222"/>
        <path id="패스_300" data-name="패스 300" d="M77.437,32.054c-1.987,0-3.2-.84-3.2-2.585,0-1.777,1.282-2.586,3.2-2.586h3.2c-.736-3.2-2.916-8.853-4.454-10.662-1.73,2.424-3.942,7.917-5.032,12.5-.545,2.327-1.121,3.588-2.916,3.588a2.358,2.358,0,0,1-2.6-2.586c0-1.84,1.025-5.235,2.468-8.789,1.731-4.264,4.71-11.31,8.043-11.31s6.314,7.012,8.012,11.31c1.411,3.523,2.436,6.787,2.436,8.692,0,1.455-.609,2.424-2.564,2.424Z" transform="translate(-8.405 -1.104)" fill="#222"/>
        <path id="패스_301" data-name="패스 301" d="M104.131,18.112c0-2.327-1.154-3.748-3.493-3.748-2.371,0-3.718,1.26-3.782,3.554V29.745a2.563,2.563,0,0,1-5.127,0V11.94a2.262,2.262,0,0,1,2.4-2.359c1.218,0,1.827.84,2.083,1.971a6.7,6.7,0,0,1,5.223-2.294c4.968,0,7.852,3.264,7.852,9.016v11.5a2.437,2.437,0,0,1-2.6,2.521,2.412,2.412,0,0,1-2.564-2.521Z" transform="translate(-11.958 -1.056)" fill="#222"/>
        <path id="패스_302" data-name="패스 302" d="M114.994,14.427c0-3.909,2.82-5.169,8.781-5.169,6.7,0,11.088,4.233,11.088,11.5,0,7.3-4.391,11.891-11.088,11.891-4.583,0-8.781-.906-8.781-4.88Zm5.129,10.922c0,1.422,1.152,1.971,3.556,1.971,3.556,0,5.991-2.649,5.991-6.558,0-3.845-2.4-6.335-5.959-6.335-2.852,0-3.588.518-3.588,2.036Z" transform="translate(-15.127 -1.056)" fill="#222"/>
        <path id="패스_303" data-name="패스 303" d="M9.778,46.189a.4.4,0,0,1-.165-.294.584.584,0,0,0-.227-.419.942.942,0,0,0-.591-.157.73.73,0,0,0-.8.8q-.021.533-.017,1.029c0,.331.009.662.017.995a.706.706,0,0,0,.8.784.885.885,0,0,0,.588-.159.728.728,0,0,0,.216-.492.392.392,0,0,1,.179-.292.615.615,0,0,1,.365-.118.479.479,0,0,1,.536.548,1.114,1.114,0,0,1-.134.533,1.342,1.342,0,0,1-.382.437,1.921,1.921,0,0,1-.594.294,2.62,2.62,0,0,1-.774.107,3.154,3.154,0,0,1-.756-.086,1.653,1.653,0,0,1-.612-.284,1.423,1.423,0,0,1-.416-.51,1.833,1.833,0,0,1-.168-.763q-.027-1.061,0-2.045a1.77,1.77,0,0,1,.172-.748,1.43,1.43,0,0,1,.422-.51,1.789,1.789,0,0,1,.609-.291,2.866,2.866,0,0,1,1.5.01,2.081,2.081,0,0,1,.608.28,1.334,1.334,0,0,1,.4.416.993.993,0,0,1,.141.51.473.473,0,0,1-.536.533.6.6,0,0,1-.371-.114" transform="translate(-0.393 -5.598)" fill="#222"/>
        <path id="패스_304" data-name="패스 304" d="M18.132,49.709a1.814,1.814,0,0,1-.66-.284,1.381,1.381,0,0,1-.437-.51,1.732,1.732,0,0,1-.165-.763c-.01-.333-.014-.664-.014-.995s0-.669.014-1.016a1.678,1.678,0,0,1,.168-.755,1.415,1.415,0,0,1,.44-.51,1.85,1.85,0,0,1,.66-.285,3.764,3.764,0,0,1,.828-.086,3.278,3.278,0,0,1,.805.094,1.91,1.91,0,0,1,.65.291,1.488,1.488,0,0,1,.447.506,1.706,1.706,0,0,1,.189.745q.019.5.016,1.019c0,.347-.008.678-.016.991a1.639,1.639,0,0,1-.172.749,1.433,1.433,0,0,1-.447.51,1.973,1.973,0,0,1-.661.291,3.354,3.354,0,0,1-.811.093,3.78,3.78,0,0,1-.834-.086m1.515-4.159a1.108,1.108,0,0,0-.681-.191,1.082,1.082,0,0,0-.69.194.751.751,0,0,0-.258.6q-.021,1.006,0,2a.739.739,0,0,0,.258.6,1.115,1.115,0,0,0,.69.187,1.053,1.053,0,0,0,.67-.2.785.785,0,0,0,.279-.593c.022-.327.031-.656.023-.984s-.015-.667-.023-1.019a.725.725,0,0,0-.269-.592" transform="translate(-1.759 -5.605)" fill="#222"/>
        <path id="패스_305" data-name="패스 305" d="M27.64,45.02a.437.437,0,0,1,.185-.388.741.741,0,0,1,.42-.125.763.763,0,0,1,.217.031.583.583,0,0,1,.189.093.452.452,0,0,1,.13.159.514.514,0,0,1,.048.229v3.875h1.979a.51.51,0,0,1,.4.132.461.461,0,0,1,.114.312.554.554,0,0,1-.021.142.325.325,0,0,1-.079.135.449.449,0,0,1-.158.1.692.692,0,0,1-.258.041H28.2a.624.624,0,0,1-.413-.125.43.43,0,0,1-.151-.354Z" transform="translate(-3.228 -5.605)" fill="#222"/>
        <path id="패스_306" data-name="패스 306" d="M37.333,45.02a.437.437,0,0,1,.185-.388.741.741,0,0,1,.42-.125.763.763,0,0,1,.217.031.583.583,0,0,1,.189.093.452.452,0,0,1,.13.159.514.514,0,0,1,.048.229v3.875H40.5a.51.51,0,0,1,.4.132.461.461,0,0,1,.114.312A.553.553,0,0,1,41,49.48a.325.325,0,0,1-.079.135.449.449,0,0,1-.158.1.692.692,0,0,1-.258.041H37.9a.624.624,0,0,1-.413-.125.43.43,0,0,1-.151-.354Z" transform="translate(-4.548 -5.605)" fill="#222"/>
        <path id="패스_307" data-name="패스 307" d="M47.553,49.436a.431.431,0,0,1-.24.256.637.637,0,0,1-.433.035.625.625,0,0,1-.213-.111.414.414,0,0,1-.12-.159.466.466,0,0,1-.038-.18.581.581,0,0,1,.027-.173l1.493-4.249a.624.624,0,0,1,.2-.267.716.716,0,0,1,.465-.128.731.731,0,0,1,.467.128.614.614,0,0,1,.206.267l1.493,4.263a.454.454,0,0,1-.007.388.506.506,0,0,1-.309.209.583.583,0,0,1-.437-.015.486.486,0,0,1-.244-.3l-.316-.949H47.883Zm1.712-1.823-.55-1.657-.549,1.657Z" transform="translate(-5.798 -5.598)" fill="#222"/>
        <path id="패스_308" data-name="패스 308" d="M57.157,44.854a.3.3,0,0,1,.121-.256.52.52,0,0,1,.32-.091h1.581a3.648,3.648,0,0,1,.722.07,1.856,1.856,0,0,1,.608.232,1.221,1.221,0,0,1,.42.427,1.286,1.286,0,0,1,.155.658,1.32,1.32,0,0,1-.158.669,1.252,1.252,0,0,1-.42.44,1.445,1.445,0,0,1,.279.145.993.993,0,0,1,.233.222,1.174,1.174,0,0,1,.162.3,1.215,1.215,0,0,1,.061.4v.118a1.666,1.666,0,0,1-.144.728,1.31,1.31,0,0,1-.4.485,1.614,1.614,0,0,1-.594.27,3.109,3.109,0,0,1-.736.084h-1.65a.606.606,0,0,1-.412-.132.444.444,0,0,1-.152-.354Zm1.981,1.789a.729.729,0,0,0,.567-.208.745.745,0,0,0,.189-.52.467.467,0,0,0-.2-.423,1.041,1.041,0,0,0-.567-.132h-.77v1.283Zm.068,2.252a1.05,1.05,0,0,0,.625-.159.648.648,0,0,0,.22-.562v-.049a.621.621,0,0,0-.22-.516.969.969,0,0,0-.625-.177h-.852v1.462Z" transform="translate(-7.249 -5.605)" fill="#222"/>
        <path id="패스_309" data-name="패스 309" d="M68.9,49.709a1.814,1.814,0,0,1-.66-.284,1.381,1.381,0,0,1-.437-.51,1.732,1.732,0,0,1-.165-.763c-.01-.333-.014-.664-.014-.995s0-.669.014-1.016a1.678,1.678,0,0,1,.168-.755,1.415,1.415,0,0,1,.44-.51,1.85,1.85,0,0,1,.66-.285,3.764,3.764,0,0,1,.828-.086,3.278,3.278,0,0,1,.805.094,1.91,1.91,0,0,1,.65.291,1.488,1.488,0,0,1,.447.506,1.706,1.706,0,0,1,.189.745c.013.333.019.672.016,1.019s-.008.678-.016.991a1.639,1.639,0,0,1-.172.749,1.433,1.433,0,0,1-.447.51,1.973,1.973,0,0,1-.661.291,3.354,3.354,0,0,1-.811.093,3.78,3.78,0,0,1-.834-.086m1.515-4.159a1.107,1.107,0,0,0-.681-.191,1.082,1.082,0,0,0-.69.194.751.751,0,0,0-.258.6q-.021,1.006,0,2a.739.739,0,0,0,.258.6,1.115,1.115,0,0,0,.69.187,1.053,1.053,0,0,0,.67-.2.785.785,0,0,0,.279-.593c.022-.327.031-.656.023-.984s-.015-.667-.023-1.019a.725.725,0,0,0-.269-.592" transform="translate(-8.674 -5.605)" fill="#222"/>
        <path id="패스_310" data-name="패스 310" d="M79.588,49.227a.5.5,0,0,1-.054.24.564.564,0,0,1-.137.166.557.557,0,0,1-.186.1.707.707,0,0,1-.206.031.738.738,0,0,1-.209-.031.582.582,0,0,1-.193-.1.515.515,0,0,1-.141-.166.488.488,0,0,1-.055-.24V44.9a.371.371,0,0,1,.113-.3.434.434,0,0,1,.293-.1h1.539a4.017,4.017,0,0,1,.759.069,1.831,1.831,0,0,1,.636.242,1.27,1.27,0,0,1,.436.458,1.438,1.438,0,0,1,.162.72,1.578,1.578,0,0,1-.083.527,1.388,1.388,0,0,1-.226.416,1.6,1.6,0,0,1-.743.513l.894,1.476a.605.605,0,0,1,.1.416.448.448,0,0,1-.247.339.611.611,0,0,1-.244.08.52.52,0,0,1-.22-.024.572.572,0,0,1-.181-.1.671.671,0,0,1-.138-.159l-1.119-1.893h-.551Zm.736-2.474a1.112,1.112,0,0,0,.618-.152.6.6,0,0,0,.234-.541.606.606,0,0,0-.231-.547,1.11,1.11,0,0,0-.622-.153h-.736v1.394Z" transform="translate(-10.143 -5.605)" fill="#222"/>
        <path id="패스_311" data-name="패스 311" d="M95.684,45.02a.437.437,0,0,1,.185-.388.741.741,0,0,1,.42-.125.763.763,0,0,1,.217.031.583.583,0,0,1,.189.093.451.451,0,0,1,.13.159.514.514,0,0,1,.048.229v3.875h1.979a.51.51,0,0,1,.4.132.461.461,0,0,1,.114.312.554.554,0,0,1-.021.142.325.325,0,0,1-.079.135.449.449,0,0,1-.158.1.692.692,0,0,1-.258.041h-2.6a.626.626,0,0,1-.413-.125.43.43,0,0,1-.151-.354Z" transform="translate(-12.497 -5.605)" fill="#222"/>
        <path id="패스_312" data-name="패스 312" d="M105.9,49.436a.431.431,0,0,1-.24.256.637.637,0,0,1-.433.035.626.626,0,0,1-.213-.111.414.414,0,0,1-.12-.159.466.466,0,0,1-.038-.18.582.582,0,0,1,.027-.173l1.493-4.249a.624.624,0,0,1,.2-.267.716.716,0,0,1,.465-.128.731.731,0,0,1,.467.128.615.615,0,0,1,.206.267l1.493,4.263a.454.454,0,0,1-.007.388.506.506,0,0,1-.309.209.583.583,0,0,1-.437-.015.486.486,0,0,1-.244-.3l-.316-.949h-1.665Zm1.712-1.823-.55-1.657-.549,1.657Z" transform="translate(-13.747 -5.598)" fill="#222"/>
        <path id="패스_313" data-name="패스 313" d="M119.825,49.179a.7.7,0,0,1-.048.277.457.457,0,0,1-.13.177.559.559,0,0,1-.186.1.731.731,0,0,1-.213.03,1.085,1.085,0,0,1-.406-.072.6.6,0,0,1-.281-.233L116.7,46.621v2.607a.462.462,0,0,1-.179.408.678.678,0,0,1-.4.125.816.816,0,0,1-.226-.03.6.6,0,0,1-.2-.1.494.494,0,0,1-.137-.166.528.528,0,0,1-.051-.239V44.992a.4.4,0,0,1,.038-.166.511.511,0,0,1,.113-.156.557.557,0,0,1,.189-.118.723.723,0,0,1,.271-.045,1.361,1.361,0,0,1,.254.021.634.634,0,0,1,.2.072.731.731,0,0,1,.172.143,1.645,1.645,0,0,1,.172.228l1.712,2.655V45.02a.434.434,0,0,1,.188-.388.759.759,0,0,1,.423-.125.731.731,0,0,1,.213.031.583.583,0,0,1,.186.093.452.452,0,0,1,.13.159.514.514,0,0,1,.048.229Z" transform="translate(-15.198 -5.605)" fill="#222"/>
        <path id="패스_314" data-name="패스 314" d="M128.427,44.507a3.713,3.713,0,0,1,.825.087,1.893,1.893,0,0,1,.67.284,1.394,1.394,0,0,1,.447.51,1.634,1.634,0,0,1,.162.755v1.976a1.651,1.651,0,0,1-.162.762,1.394,1.394,0,0,1-.447.51,1.892,1.892,0,0,1-.67.284,3.765,3.765,0,0,1-.825.087h-1.4a.545.545,0,0,1-.4-.136.485.485,0,0,1-.137-.363V44.979a.44.44,0,0,1,.151-.333.555.555,0,0,1,.392-.139Zm-.748,4.388h.748a1.072,1.072,0,0,0,.677-.187.7.7,0,0,0,.238-.589V46.143a.713.713,0,0,0-.238-.592,1.056,1.056,0,0,0-.677-.191h-.748Z" transform="translate(-16.693 -5.605)" fill="#222"/>
      </g>
    </g>
  </g>
</svg>
