<svg id="myland_icon" xmlns="http://www.w3.org/2000/svg" width="24" height="24" viewBox="0 0 24 24">
  <g id="myland_icon-2" data-name="myland_icon" opacity="0.8">
    <rect id="사각형_4185" data-name="사각형 4185" width="24" height="24" fill="none"/>
    <g id="그룹_1037" data-name="그룹 1037">
      <path id="패스_1466" data-name="패스 1466" d="M21.1,9.215c-.017-.115-.036-.229-.064-.341A3.737,3.737,0,0,0,19.486,6.7l.2-.065.241-.076c.241-.077.483-.154.725-.225A.7.7,0,0,0,21.11,6l.015-.269-.013-.05-.022-.032a2.848,2.848,0,0,0-1.683-1.781,4.239,4.239,0,0,0-3.178-.023,4.267,4.267,0,0,0-2.507,2.213l-.042.094-.011-.008c-.086-.069-.17-.133-.257-.193a4.576,4.576,0,0,0-5.834.778,2.882,2.882,0,0,0-.734,2.162.484.484,0,0,0,.563.472c.145-.015.292-.032.437-.05l.279-.033.6-.063A4.112,4.112,0,0,0,8.1,11.019a2.865,2.865,0,0,0,.491,1.967A.493.493,0,0,0,9.4,13.1L13.531,9.7c.009.118.017.235.026.35.03.395.06.767.072,1.143a29.256,29.256,0,0,1-.42,5.451c-.025.153-.1.22-.258.348a.593.593,0,0,1-.858-.027.643.643,0,0,0-.8-.012,3.135,3.135,0,0,1-3.384,0,.687.687,0,0,0-.8,0,3.115,3.115,0,0,1-2.253.433A3.354,3.354,0,0,1,3.622,16.9a.516.516,0,0,0-.482-.046.442.442,0,0,0-.257.34.492.492,0,0,0,.246.527,4.161,4.161,0,0,0,4.3.165.136.136,0,0,1,.158-.006,4.124,4.124,0,0,0,3.855.088,11.592,11.592,0,0,0-1.857,1.654.566.566,0,0,0-.161.405.458.458,0,0,0,.164.315.449.449,0,0,0,.3.116.565.565,0,0,0,.4-.189,13.735,13.735,0,0,1,5.792-3.631,21.417,21.417,0,0,1,4.5-.859.569.569,0,0,0,.4-.188.443.443,0,0,0,.1-.334.486.486,0,0,0-.578-.431,23.865,23.865,0,0,0-3.121.474l-.35.076a27.234,27.234,0,0,0-.587-5.954l.013,0,3.894,1.125a.557.557,0,0,0,.46-.027.57.57,0,0,0,.243-.4c.023-.1.039-.207.056-.311l.023-.133,0-.314ZM13.054,6.976a3.932,3.932,0,0,0-2.918.781,2.038,2.038,0,0,1-1.2.474,8.275,8.275,0,0,0-.869.084l-.263.033c.011-.032.022-.065.031-.1a3.093,3.093,0,0,1,.187-.485A2.8,2.8,0,0,1,9.692,6.427a4.06,4.06,0,0,1,1.321-.233,3.476,3.476,0,0,1,1.671.429A2.141,2.141,0,0,1,13.192,7c-.046-.009-.092-.016-.138-.022m-2.53,1.669a3.33,3.33,0,0,1,2.063-.75h.067a1.993,1.993,0,0,1,.906.231.194.194,0,0,1,.115.132.177.177,0,0,1-.081.143q-1.883,1.558-3.767,3.11l-.659.541a1.929,1.929,0,0,1-.121-.942,3.547,3.547,0,0,1,1.477-2.465M14.508,9.92c-.027-.285-.055-.5-.091-.707-.035-.182-.037-.288.042-.372l.176.053c.23.068.457.136.687.2.053.014.063.026.076.081a23.988,23.988,0,0,1,.626,4.509c.023.522.027,1.053.031,1.568l0,.326a.171.171,0,0,1-.014.055c-.549.2-1.1.394-1.657.589l-.158.056.09-.634a24.735,24.735,0,0,0,.189-5.724m3.663-3.867-.035-.01a4.24,4.24,0,0,0-3.4.321c-.047.026-.091.054-.138.086a2.739,2.739,0,0,1,.459-.711,3.769,3.769,0,0,1,2.782-1.226,3.132,3.132,0,0,1,1.051.174,2.08,2.08,0,0,1,1.074.8l.031.048L19.8,5.6c-.509.161-1.019.323-1.529.478a.407.407,0,0,1-.1-.021M14.856,7.462a2.426,2.426,0,0,1,1.525-.646c.129-.011.255-.016.38-.016a3.579,3.579,0,0,1,2.9,1.381,2.109,2.109,0,0,1,.492,1.313L14.99,8a.359.359,0,0,1-.275-.22.361.361,0,0,1,.141-.32" fill="#fff"/>
      <path id="패스_1467" data-name="패스 1467" d="M3.364,11.1c.1.049.195.093.294.136s.2.087.294.137a.265.265,0,0,1,.109.12c.049.119.092.24.134.362s.077.219.12.326a.366.366,0,0,0,.128.147.416.416,0,0,1,.039.032l.092.087.086-.093.034-.033a.368.368,0,0,0,.109-.14c.04-.1.077-.206.113-.309.045-.127.089-.255.14-.379a.271.271,0,0,1,.111-.119c.1-.053.205-.1.308-.144s.188-.082.279-.127c.054-.027.208-.136.194-.266a.369.369,0,0,0-.194-.261c-.1-.05-.2-.094-.293-.138s-.2-.088-.293-.137a.276.276,0,0,1-.112-.118c-.056-.135-.1-.273-.152-.411-.033-.092-.065-.185-.1-.275a.473.473,0,0,0-.086-.141c-.017-.022-.036-.047-.057-.077l-.107-.154-.1.157c-.022.034-.041.062-.06.088a.717.717,0,0,0-.093.159,2.465,2.465,0,0,0-.085.268,1.129,1.129,0,0,1-.185.436,1.1,1.1,0,0,1-.406.228c-.089.036-.179.073-.262.116,0,0-.206.11-.192.266a.374.374,0,0,0,.194.257" fill="#fff"/>
      <path id="패스_1468" data-name="패스 1468" d="M9.762,15.526a.243.243,0,0,1,.172.182,4.122,4.122,0,0,0,.139.4l.016.04a.417.417,0,0,0,.067.107c.012.018.029.039.046.066l.118.17.1-.181c.016-.031.033-.057.047-.081a.53.53,0,0,0,.078-.173.767.767,0,0,1,.595-.667.315.315,0,0,0,.164-.13l.032-.04.088-.09-.092-.087c-.01-.01-.02-.022-.03-.034a.31.31,0,0,0-.158-.118.751.751,0,0,1-.594-.662l-.01-.047-.239-.307-.1.13c-.01.012-.023.026-.035.038a.366.366,0,0,0-.1.172.764.764,0,0,1-.6.675.17.17,0,0,0-.1.053l-.024.022a.244.244,0,0,0-.1.17.282.282,0,0,0,.154.226,2.781,2.781,0,0,0,.367.165" fill="#fff"/>
    </g>
  </g>
</svg>
