<svg xmlns="http://www.w3.org/2000/svg" width="16" height="16" viewBox="0 0 16 16">
  <g id="pencil_icon" opacity="0.5">
    <g id="사각형_4167" data-name="사각형 4167" fill="#fff" stroke="#707070" stroke-width="1" opacity="0">
      <rect width="16" height="16" stroke="none"/>
      <rect x="0.5" y="0.5" width="15" height="15" fill="none"/>
    </g>
    <g id="레이어_1" data-name="레이어 1" transform="translate(3.511 3.502)">
      <path id="패스_1230" data-name="패스 1230" d="M-.381,10.5a1.118,1.118,0,0,1-.82-.347,1.141,1.141,0,0,1-.307-.855.857.857,0,0,1,.03-.186l.033-.134c.043-.174.087-.356.133-.539l.179-.716q.2-.8.4-1.594a1.3,1.3,0,0,1,.349-.618c2.6-2.6,4.73-4.733,6.7-6.706A.956.956,0,0,1,7-1.5a.957.957,0,0,1,.691.3c.791.8,1.607,1.614,2.5,2.5a.935.935,0,0,1,0,1.374c-2.292,2.289-4.576,4.575-6.7,6.7a1.3,1.3,0,0,1-.618.352l-1.607.4-1.348.335A1.227,1.227,0,0,1-.381,10.5ZM.9,6.643Q.716,7.388.529,8.135l-.108.433.427-.106,1.5-.372c1.943-1.944,4.015-4.018,6.1-6.1-.5-.5-.98-.979-1.448-1.449C5.2,2.344,3.24,4.3.9,6.643Z" transform="translate(0 0)" fill="#fff"/>
    </g>
  </g>
</svg>
