<svg id="quest_icon" xmlns="http://www.w3.org/2000/svg" width="20" height="20" viewBox="0 0 20 20">
  <rect id="사각형_4160" data-name="사각형 4160" width="20" height="20" fill="none"/>
  <path id="패스_1488" data-name="패스 1488" d="M19.1,14.955H16.428V13.67c0-.035,0-.069,0-.1q0-3.005,0-6.01a2.392,2.392,0,0,0-.049-.513,1.955,1.955,0,0,0-2-1.557q-2.339,0-4.679,0c-1.541,0-3.082.005-4.623,0A1.934,1.934,0,0,0,3.4,6.324a1.9,1.9,0,0,0-.179,2.062,1.815,1.815,0,0,0,1.722,1.04c.345,0,.69,0,1.035,0,.059,0,.117.005.188.009V9.7q0,3.541,0,7.082a2.656,2.656,0,0,0,.048.551,1.95,1.95,0,0,0,1.954,1.563c.832.008,1.665,0,2.5,0,1.843,0,3.687.02,5.529-.011a3.528,3.528,0,0,0,3.386-3.427c.006-.356-.129-.5-.482-.5M6.162,8.63c-.482,0-.95.031-1.413-.008a1.053,1.053,0,0,1-.936-.949,1.243,1.243,0,0,1,.7-1.288,1.163,1.163,0,0,1,1.648.972c.021.417,0,.836,0,1.274M8.382,18.1A1.211,1.211,0,0,1,6.96,16.821q.007-4.622,0-9.245A2.119,2.119,0,0,0,6.62,6.351a.416.416,0,0,1-.028-.072c.05,0,.086-.005.122-.005q3.857,0,7.712,0a1.276,1.276,0,0,1,.221.016,1.177,1.177,0,0,1,.99,1.237q0,3.005,0,6.009v1.419H11.391c-.346,0-.476.129-.491.479A2.759,2.759,0,0,1,8.382,18.1m9.272-.521a2.638,2.638,0,0,1-1.586.528c-1.848,0-3.7,0-5.545,0-.029,0-.059,0-.137-.007a3.629,3.629,0,0,0,1.288-2.351h7.091a2.724,2.724,0,0,1-1.112,1.827" transform="translate(-1.086 -2.399)" fill="#222"/>
</svg>
