<svg id="구성_요소_629_19" data-name="구성 요소 629 – 19" xmlns="http://www.w3.org/2000/svg" width="80" height="16" viewBox="0 0 80 16">
  <g id="사각형_4155" data-name="사각형 4155" transform="translate(64)" fill="#fb8c00" stroke="#707070" stroke-width="1" opacity="0">
    <rect width="16" height="16" stroke="none"/>
    <rect x="0.5" y="0.5" width="15" height="15" fill="none"/>
  </g>
  <g id="사각형_4219" data-name="사각형 4219" transform="translate(48)" fill="#fb8c00" stroke="#707070" stroke-width="1" opacity="0">
    <rect width="16" height="16" stroke="none"/>
    <rect x="0.5" y="0.5" width="15" height="15" fill="none"/>
  </g>
  <g id="사각형_4220" data-name="사각형 4220" transform="translate(32)" fill="#fb8c00" stroke="#707070" stroke-width="1" opacity="0">
    <rect width="16" height="16" stroke="none"/>
    <rect x="0.5" y="0.5" width="15" height="15" fill="none"/>
  </g>
  <g id="사각형_4221" data-name="사각형 4221" transform="translate(16)" fill="#fb8c00" stroke="#707070" stroke-width="1" opacity="0">
    <rect width="16" height="16" stroke="none"/>
    <rect x="0.5" y="0.5" width="15" height="15" fill="none"/>
  </g>
  <g id="사각형_4316" data-name="사각형 4316" fill="#fb8c00" stroke="#707070" stroke-width="1" opacity="0">
    <rect width="16" height="16" stroke="none"/>
    <rect x="0.5" y="0.5" width="15" height="15" fill="none"/>
  </g>
  <g id="패스_1226" data-name="패스 1226" transform="translate(-5978.005 4558.414)" fill="#fff" stroke-linecap="round" opacity="0.2">
    <path d="M 6047.03515625 -4545.5791015625 C 6046.9951171875 -4545.5791015625 6046.9482421875 -4545.58642578125 6046.876953125 -4545.6376953125 C 6046.74365234375 -4545.7333984375 6046.74462890625 -4545.83056640625 6046.7568359375 -4545.8955078125 C 6046.8212890625 -4546.228515625 6046.90087890625 -4546.5712890625 6046.97802734375 -4546.90283203125 L 6046.98486328125 -4546.931640625 C 6047.02294921875 -4547.0947265625 6047.06298828125 -4547.26611328125 6047.1015625 -4547.43310546875 L 6047.1025390625 -4547.43701171875 L 6047.10302734375 -4547.44091796875 C 6047.14404296875 -4547.6240234375 6047.185546875 -4547.806640625 6047.22705078125 -4547.98876953125 L 6047.28076171875 -4548.2255859375 L 6047.296875 -4548.294921875 C 6047.3154296875 -4548.37548828125 6047.33349609375 -4548.45458984375 6047.35205078125 -4548.5341796875 L 6047.48876953125 -4549.1181640625 L 6047.03759765625 -4549.513671875 C 6046.921875 -4549.615234375 6046.80517578125 -4549.716796875 6046.689453125 -4549.8173828125 L 6046.501953125 -4549.98046875 C 6046.431640625 -4550.04150390625 6046.35986328125 -4550.10400390625 6046.28759765625 -4550.1669921875 C 6046.1484375 -4550.2880859375 6046.00830078125 -4550.41015625 6045.86962890625 -4550.53271484375 C 6045.537109375 -4550.826171875 6045.263671875 -4551.0654296875 6045.00830078125 -4551.28564453125 C 6045.001953125 -4551.29736328125 6044.99267578125 -4551.34423828125 6044.98583984375 -4551.3818359375 C 6044.98388671875 -4551.39111328125 6044.982421875 -4551.4013671875 6044.98046875 -4551.41162109375 L 6044.98046875 -4551.55810546875 C 6045.013671875 -4551.7333984375 6045.03369140625 -4551.7529296875 6045.24658203125 -4551.78271484375 C 6045.30712890625 -4551.791015625 6045.36865234375 -4551.79638671875 6045.43408203125 -4551.8017578125 L 6045.43896484375 -4551.80224609375 C 6045.47509765625 -4551.80419921875 6045.5107421875 -4551.80712890625 6045.54541015625 -4551.810546875 C 6045.61328125 -4551.81640625 6045.6806640625 -4551.82275390625 6045.74755859375 -4551.82861328125 C 6045.80615234375 -4551.833984375 6045.86474609375 -4551.83935546875 6045.92333984375 -4551.8447265625 C 6046.1513671875 -4551.86572265625 6046.38232421875 -4551.88720703125 6046.61181640625 -4551.90625 C 6046.712890625 -4551.9150390625 6046.81201171875 -4551.923828125 6046.91064453125 -4551.9326171875 C 6047.01025390625 -4551.94189453125 6047.10986328125 -4551.95068359375 6047.20947265625 -4551.95947265625 L 6047.21240234375 -4551.95947265625 L 6047.21533203125 -4551.9599609375 C 6047.35693359375 -4551.97265625 6047.4990234375 -4551.98583984375 6047.640625 -4551.99755859375 L 6047.64306640625 -4551.998046875 L 6047.64599609375 -4551.998046875 L 6047.81494140625 -4552.013671875 L 6047.8544921875 -4552.017578125 L 6048.4541015625 -4552.07275390625 L 6048.685546875 -4552.62841796875 L 6048.693359375 -4552.64697265625 L 6048.79443359375 -4552.88134765625 C 6048.841796875 -4552.9921875 6048.8896484375 -4553.103515625 6048.9375 -4553.21435546875 C 6048.98388671875 -4553.32275390625 6049.0302734375 -4553.43212890625 6049.0771484375 -4553.5419921875 L 6049.16845703125 -4553.75732421875 C 6049.330078125 -4554.13671875 6049.53076171875 -4554.60791015625 6049.72509765625 -4555.05029296875 C 6049.7578125 -4555.12451171875 6049.83642578125 -4555.2490234375 6049.99609375 -4555.2490234375 C 6050.060546875 -4555.2490234375 6050.12890625 -4555.2255859375 6050.193359375 -4555.181640625 C 6050.20361328125 -4555.17431640625 6050.2431640625 -4555.14697265625 6050.29345703125 -4555.033203125 C 6050.59619140625 -4554.33740234375 6050.90087890625 -4553.62109375 6051.19580078125 -4552.92822265625 L 6051.32568359375 -4552.62353515625 L 6051.5615234375 -4552.0703125 L 6052.16064453125 -4552.01904296875 C 6052.84033203125 -4551.96142578125 6053.5693359375 -4551.89453125 6054.388671875 -4551.81494140625 C 6054.42041015625 -4551.8115234375 6054.45166015625 -4551.80908203125 6054.48291015625 -4551.806640625 C 6054.50146484375 -4551.80517578125 6054.52001953125 -4551.80419921875 6054.5380859375 -4551.80224609375 L 6054.54833984375 -4551.80126953125 L 6054.55810546875 -4551.80029296875 C 6054.66552734375 -4551.7919921875 6054.74853515625 -4551.78466796875 6054.83349609375 -4551.7734375 C 6054.859375 -4551.77001953125 6054.92822265625 -4551.76123046875 6055.00634765625 -4551.6826171875 C 6055.0087890625 -4551.67236328125 6055.01123046875 -4551.65771484375 6055.013671875 -4551.64404296875 C 6055.013671875 -4551.64208984375 6055.01416015625 -4551.6396484375 6055.01416015625 -4551.6376953125 L 6055.02099609375 -4551.5732421875 L 6055.0302734375 -4551.54052734375 L 6055.0302734375 -4551.4267578125 L 6055.0234375 -4551.38916015625 C 6055.02099609375 -4551.3759765625 6055.017578125 -4551.35986328125 6055.0146484375 -4551.3427734375 C 6055.0107421875 -4551.322265625 6055.00634765625 -4551.30078125 6055.00244140625 -4551.287109375 C 6054.951171875 -4551.24365234375 6054.90087890625 -4551.19921875 6054.849609375 -4551.1533203125 L 6054.802734375 -4551.111328125 L 6054.796875 -4551.1064453125 L 6054.79150390625 -4551.1015625 C 6054.74365234375 -4551.05810546875 6054.69580078125 -4551.01513671875 6054.64599609375 -4550.97216796875 C 6054.07275390625 -4550.474609375 6053.6796875 -4550.13134765625 6053.3291015625 -4549.82275390625 L 6053.16064453125 -4549.67529296875 C 6053.09765625 -4549.61962890625 6053.0361328125 -4549.56591796875 6052.97509765625 -4549.5126953125 L 6052.52734375 -4549.12158203125 L 6052.65673828125 -4548.54150390625 L 6052.66796875 -4548.4912109375 L 6052.66845703125 -4548.48876953125 L 6052.66943359375 -4548.486328125 L 6052.69970703125 -4548.3525390625 C 6052.8046875 -4547.89306640625 6052.91259765625 -4547.421875 6053.01806640625 -4546.95654296875 C 6053.0400390625 -4546.85693359375 6053.06396484375 -4546.75244140625 6053.087890625 -4546.6474609375 C 6053.14501953125 -4546.40234375 6053.203125 -4546.15234375 6053.25146484375 -4545.9072265625 C 6053.279296875 -4545.7646484375 6053.173828125 -4545.61767578125 6053.02099609375 -4545.5869140625 C 6053.0009765625 -4545.5830078125 6052.9833984375 -4545.5810546875 6052.9677734375 -4545.5810546875 C 6052.92919921875 -4545.5810546875 6052.86474609375 -4545.58935546875 6052.7470703125 -4545.6591796875 C 6052.49169921875 -4545.810546875 6052.2197265625 -4545.9736328125 6051.9140625 -4546.15625 C 6051.810546875 -4546.21875 6051.7041015625 -4546.28173828125 6051.59814453125 -4546.34423828125 C 6051.51708984375 -4546.392578125 6051.4365234375 -4546.4404296875 6051.357421875 -4546.48779296875 L 6051.3544921875 -4546.4892578125 L 6051.35205078125 -4546.49072265625 L 6051.23681640625 -4546.55859375 C 6051.00341796875 -4546.6962890625 6050.76171875 -4546.83837890625 6050.52880859375 -4546.98193359375 L 6050.0078125 -4547.30322265625 L 6049.48486328125 -4546.98583984375 C 6049.0888671875 -4546.7451171875 6048.6884765625 -4546.50732421875 6048.27880859375 -4546.26416015625 C 6047.9169921875 -4546.0498046875 6047.5908203125 -4545.85595703125 6047.2646484375 -4545.65869140625 C 6047.2060546875 -4545.62353515625 6047.115234375 -4545.5791015625 6047.03515625 -4545.5791015625 Z" stroke="none"/>
    <path d="M 6048.10107421875 -4547.32177734375 C 6048.3935546875 -4547.49560546875 6048.681640625 -4547.66748046875 6048.96630859375 -4547.84033203125 L 6050.01220703125 -4548.4755859375 L 6051.0537109375 -4547.8330078125 C 6051.27783203125 -4547.69482421875 6051.51513671875 -4547.5556640625 6051.744140625 -4547.42041015625 L 6051.87060546875 -4547.34619140625 C 6051.88330078125 -4547.33837890625 6051.89599609375 -4547.33056640625 6051.9091796875 -4547.32275390625 C 6051.84765625 -4547.59375 6051.78564453125 -4547.86376953125 6051.72509765625 -4548.12939453125 L 6051.6806640625 -4548.3232421875 L 6051.421875 -4549.48388671875 L 6052.3173828125 -4550.26611328125 C 6052.3779296875 -4550.31884765625 6052.43896484375 -4550.3720703125 6052.50146484375 -4550.4267578125 L 6052.66943359375 -4550.57421875 C 6052.79833984375 -4550.6875 6052.9326171875 -4550.8056640625 6053.07958984375 -4550.93408203125 C 6052.73095703125 -4550.9658203125 6052.39794921875 -4550.99560546875 6052.07568359375 -4551.02294921875 L 6050.876953125 -4551.125 L 6050.27587890625 -4552.5361328125 C 6050.1865234375 -4552.74609375 6050.0966796875 -4552.95751953125 6050.005859375 -4553.17041015625 L 6049.99755859375 -4553.15087890625 C 6049.9501953125 -4553.0400390625 6049.9033203125 -4552.92919921875 6049.8564453125 -4552.82080078125 C 6049.80908203125 -4552.708984375 6049.7607421875 -4552.59716796875 6049.712890625 -4552.48583984375 L 6049.60888671875 -4552.24365234375 L 6049.1455078125 -4551.13232421875 L 6047.72509765625 -4551.00146484375 C 6047.5859375 -4550.98974609375 6047.4462890625 -4550.9765625 6047.30712890625 -4550.9638671875 L 6047.29541015625 -4550.962890625 C 6047.19677734375 -4550.95458984375 6047.0986328125 -4550.94580078125 6047 -4550.93701171875 C 6046.97802734375 -4550.9345703125 6046.95556640625 -4550.9326171875 6046.93310546875 -4550.9306640625 C 6046.93701171875 -4550.927734375 6046.9404296875 -4550.9248046875 6046.94384765625 -4550.92138671875 C 6047.0166015625 -4550.85791015625 6047.08935546875 -4550.794921875 6047.15869140625 -4550.734375 L 6047.34521484375 -4550.57177734375 C 6047.4619140625 -4550.470703125 6047.580078125 -4550.3681640625 6047.69677734375 -4550.265625 L 6048.5986328125 -4549.474609375 L 6048.326171875 -4548.306640625 C 6048.3076171875 -4548.228515625 6048.28955078125 -4548.14990234375 6048.271484375 -4548.07080078125 L 6048.2021484375 -4547.7666015625 C 6048.16845703125 -4547.61865234375 6048.134765625 -4547.470703125 6048.10107421875 -4547.32177734375 M 6047.03515625 -4544.5791015625 C 6046.76953125 -4544.5791015625 6046.52001953125 -4544.662109375 6046.2919921875 -4544.82666015625 C 6045.875 -4545.1259765625 6045.6826171875 -4545.59521484375 6045.7744140625 -4546.0810546875 C 6045.8447265625 -4546.4462890625 6045.92919921875 -4546.8076171875 6046.0107421875 -4547.158203125 C 6046.04931640625 -4547.322265625 6046.0888671875 -4547.49169921875 6046.126953125 -4547.6572265625 C 6046.185546875 -4547.92138671875 6046.24609375 -4548.18408203125 6046.3056640625 -4548.44677734375 C 6046.330078125 -4548.552734375 6046.35400390625 -4548.6572265625 6046.37841796875 -4548.76171875 C 6046.2001953125 -4548.91796875 6046.01953125 -4549.07421875 6045.8447265625 -4549.2265625 C 6045.6357421875 -4549.4091796875 6045.4189453125 -4549.59619140625 6045.20703125 -4549.78369140625 C 6044.8759765625 -4550.076171875 6044.60546875 -4550.3125 6044.35546875 -4550.52783203125 C 6044.0849609375 -4550.76318359375 6044.02978515625 -4551.05419921875 6044 -4551.2119140625 C 6043.998046875 -4551.22509765625 6043.99609375 -4551.2373046875 6043.9931640625 -4551.2490234375 C 6043.982421875 -4551.30078125 6043.978515625 -4551.35302734375 6043.98046875 -4551.40478515625 L 6043.98046875 -4551.58935546875 C 6043.98046875 -4551.62890625 6043.984375 -4551.66943359375 6043.9912109375 -4551.7080078125 C 6044.107421875 -4552.34423828125 6044.4619140625 -4552.6826171875 6045.1083984375 -4552.77294921875 C 6045.2001953125 -4552.7861328125 6045.28759765625 -4552.79296875 6045.36474609375 -4552.79931640625 C 6045.39453125 -4552.80126953125 6045.423828125 -4552.80322265625 6045.4521484375 -4552.80615234375 C 6045.5810546875 -4552.8173828125 6045.7080078125 -4552.82958984375 6045.83544921875 -4552.8408203125 C 6046.0615234375 -4552.86181640625 6046.2958984375 -4552.88330078125 6046.5283203125 -4552.90283203125 C 6046.7265625 -4552.919921875 6046.92529296875 -4552.9384765625 6047.1240234375 -4552.95556640625 C 6047.267578125 -4552.96875 6047.412109375 -4552.98193359375 6047.5556640625 -4552.994140625 C 6047.630859375 -4553.0009765625 6047.69921875 -4553.00732421875 6047.7626953125 -4553.01318359375 L 6047.7724609375 -4553.03662109375 C 6047.85400390625 -4553.2265625 6047.9365234375 -4553.41748046875 6048.01806640625 -4553.60791015625 C 6048.095703125 -4553.78857421875 6048.171875 -4553.96923828125 6048.2490234375 -4554.14990234375 C 6048.4306640625 -4554.57666015625 6048.619140625 -4555.01904296875 6048.8095703125 -4555.45263671875 C 6049.025390625 -4555.94384765625 6049.48046875 -4556.2490234375 6049.99609375 -4556.2490234375 C 6050.263671875 -4556.2490234375 6050.52734375 -4556.1650390625 6050.7587890625 -4556.00634765625 C 6050.951171875 -4555.87353515625 6051.0986328125 -4555.6865234375 6051.208984375 -4555.43505859375 C 6051.55908203125 -4554.63037109375 6051.9072265625 -4553.81005859375 6052.24560546875 -4553.015625 C 6052.927734375 -4552.95751953125 6053.662109375 -4552.89013671875 6054.4853515625 -4552.81005859375 C 6054.5361328125 -4552.80517578125 6054.58740234375 -4552.80224609375 6054.63671875 -4552.79736328125 C 6054.7421875 -4552.7890625 6054.8505859375 -4552.77978515625 6054.96484375 -4552.7646484375 C 6055.26953125 -4552.72509765625 6055.54443359375 -4552.578125 6055.7607421875 -4552.34033203125 C 6055.94873046875 -4552.13330078125 6055.9853515625 -4551.90087890625 6056.0029296875 -4551.7890625 C 6056.00390625 -4551.7802734375 6056.005859375 -4551.77099609375 6056.0068359375 -4551.76171875 C 6056.0224609375 -4551.7060546875 6056.0302734375 -4551.6474609375 6056.0302734375 -4551.58935546875 L 6056.0302734375 -4551.38134765625 C 6056.0302734375 -4551.3203125 6056.0224609375 -4551.2607421875 6056.005859375 -4551.20263671875 C 6056.0048828125 -4551.197265625 6056.0009765625 -4551.17919921875 6055.9990234375 -4551.1650390625 C 6055.97314453125 -4551.0322265625 6055.92041015625 -4550.7529296875 6055.66015625 -4550.53369140625 C 6055.5966796875 -4550.47998046875 6055.5322265625 -4550.421875 6055.46484375 -4550.3623046875 C 6055.41015625 -4550.3125 6055.35546875 -4550.263671875 6055.298828125 -4550.21484375 C 6054.81640625 -4549.7958984375 6054.3876953125 -4549.42236328125 6053.990234375 -4549.072265625 C 6053.8662109375 -4548.9638671875 6053.748046875 -4548.85986328125 6053.6328125 -4548.75927734375 L 6053.64404296875 -4548.708984375 C 6053.7587890625 -4548.20703125 6053.87744140625 -4547.6884765625 6053.9931640625 -4547.17724609375 C 6054.015625 -4547.07568359375 6054.0390625 -4546.97412109375 6054.0625 -4546.87255859375 C 6054.12060546875 -4546.6220703125 6054.1806640625 -4546.36328125 6054.232421875 -4546.10107421875 C 6054.3671875 -4545.416015625 6053.912109375 -4544.74560546875 6053.21728515625 -4544.6064453125 C 6053.134765625 -4544.58984375 6053.05126953125 -4544.5810546875 6052.9677734375 -4544.5810546875 C 6052.72265625 -4544.5810546875 6052.48291015625 -4544.65283203125 6052.236328125 -4544.79931640625 C 6051.98046875 -4544.951171875 6051.70703125 -4545.11474609375 6051.400390625 -4545.29833984375 C 6051.2158203125 -4545.4091796875 6051.0263671875 -4545.5205078125 6050.84423828125 -4545.62939453125 C 6050.568359375 -4545.7919921875 6050.2841796875 -4545.9580078125 6050.00390625 -4546.130859375 C 6049.59765625 -4545.88427734375 6049.1875 -4545.640625 6048.7890625 -4545.404296875 C 6048.4580078125 -4545.2080078125 6048.11572265625 -4545.0048828125 6047.78271484375 -4544.80322265625 C 6047.53515625 -4544.65478515625 6047.2841796875 -4544.5791015625 6047.03515625 -4544.5791015625 Z" stroke="none" fill="#222"/>
  </g>
  <g id="패스_1484" data-name="패스 1484" transform="translate(-5994.005 4558.414)" fill="#fff" stroke-linecap="round" opacity="0.2">
    <path d="M 6047.03515625 -4545.5791015625 C 6046.9951171875 -4545.5791015625 6046.9482421875 -4545.58642578125 6046.876953125 -4545.6376953125 C 6046.74365234375 -4545.7333984375 6046.74462890625 -4545.83056640625 6046.7568359375 -4545.8955078125 C 6046.8212890625 -4546.228515625 6046.90087890625 -4546.5712890625 6046.97802734375 -4546.90283203125 L 6046.98486328125 -4546.931640625 C 6047.02294921875 -4547.0947265625 6047.06298828125 -4547.26611328125 6047.1015625 -4547.43310546875 L 6047.1025390625 -4547.43701171875 L 6047.10302734375 -4547.44091796875 C 6047.14404296875 -4547.6240234375 6047.185546875 -4547.806640625 6047.22705078125 -4547.98876953125 L 6047.28076171875 -4548.2255859375 L 6047.296875 -4548.294921875 C 6047.3154296875 -4548.37548828125 6047.33349609375 -4548.45458984375 6047.35205078125 -4548.5341796875 L 6047.48876953125 -4549.1181640625 L 6047.03759765625 -4549.513671875 C 6046.921875 -4549.615234375 6046.80517578125 -4549.716796875 6046.689453125 -4549.8173828125 L 6046.501953125 -4549.98046875 C 6046.431640625 -4550.04150390625 6046.35986328125 -4550.10400390625 6046.28759765625 -4550.1669921875 C 6046.1484375 -4550.2880859375 6046.00830078125 -4550.41015625 6045.86962890625 -4550.53271484375 C 6045.537109375 -4550.826171875 6045.263671875 -4551.0654296875 6045.00830078125 -4551.28564453125 C 6045.001953125 -4551.29736328125 6044.99267578125 -4551.34423828125 6044.98583984375 -4551.3818359375 C 6044.98388671875 -4551.39111328125 6044.982421875 -4551.4013671875 6044.98046875 -4551.41162109375 L 6044.98046875 -4551.55810546875 C 6045.013671875 -4551.7333984375 6045.03369140625 -4551.7529296875 6045.24658203125 -4551.78271484375 C 6045.30712890625 -4551.791015625 6045.36865234375 -4551.79638671875 6045.43408203125 -4551.8017578125 L 6045.43896484375 -4551.80224609375 C 6045.47509765625 -4551.80419921875 6045.5107421875 -4551.80712890625 6045.54541015625 -4551.810546875 C 6045.61328125 -4551.81640625 6045.6806640625 -4551.82275390625 6045.74755859375 -4551.82861328125 C 6045.80615234375 -4551.833984375 6045.86474609375 -4551.83935546875 6045.92333984375 -4551.8447265625 C 6046.1513671875 -4551.86572265625 6046.38232421875 -4551.88720703125 6046.61181640625 -4551.90625 C 6046.712890625 -4551.9150390625 6046.81201171875 -4551.923828125 6046.91064453125 -4551.9326171875 C 6047.01025390625 -4551.94189453125 6047.10986328125 -4551.95068359375 6047.20947265625 -4551.95947265625 L 6047.21240234375 -4551.95947265625 L 6047.21533203125 -4551.9599609375 C 6047.35693359375 -4551.97265625 6047.4990234375 -4551.98583984375 6047.640625 -4551.99755859375 L 6047.64306640625 -4551.998046875 L 6047.64599609375 -4551.998046875 L 6047.81494140625 -4552.013671875 L 6047.8544921875 -4552.017578125 L 6048.4541015625 -4552.07275390625 L 6048.685546875 -4552.62841796875 L 6048.693359375 -4552.64697265625 L 6048.79443359375 -4552.88134765625 C 6048.841796875 -4552.9921875 6048.8896484375 -4553.103515625 6048.9375 -4553.21435546875 C 6048.98388671875 -4553.32275390625 6049.0302734375 -4553.43212890625 6049.0771484375 -4553.5419921875 L 6049.16845703125 -4553.75732421875 C 6049.330078125 -4554.13671875 6049.53076171875 -4554.60791015625 6049.72509765625 -4555.05029296875 C 6049.7578125 -4555.12451171875 6049.83642578125 -4555.2490234375 6049.99609375 -4555.2490234375 C 6050.060546875 -4555.2490234375 6050.12890625 -4555.2255859375 6050.193359375 -4555.181640625 C 6050.20361328125 -4555.17431640625 6050.2431640625 -4555.14697265625 6050.29345703125 -4555.033203125 C 6050.59619140625 -4554.33740234375 6050.90087890625 -4553.62109375 6051.19580078125 -4552.92822265625 L 6051.32568359375 -4552.62353515625 L 6051.5615234375 -4552.0703125 L 6052.16064453125 -4552.01904296875 C 6052.84033203125 -4551.96142578125 6053.5693359375 -4551.89453125 6054.388671875 -4551.81494140625 C 6054.42041015625 -4551.8115234375 6054.45166015625 -4551.80908203125 6054.48291015625 -4551.806640625 C 6054.50146484375 -4551.80517578125 6054.52001953125 -4551.80419921875 6054.5380859375 -4551.80224609375 L 6054.54833984375 -4551.80126953125 L 6054.55810546875 -4551.80029296875 C 6054.66552734375 -4551.7919921875 6054.74853515625 -4551.78466796875 6054.83349609375 -4551.7734375 C 6054.859375 -4551.77001953125 6054.92822265625 -4551.76123046875 6055.00634765625 -4551.6826171875 C 6055.0087890625 -4551.67236328125 6055.01123046875 -4551.65771484375 6055.013671875 -4551.64404296875 C 6055.013671875 -4551.64208984375 6055.01416015625 -4551.6396484375 6055.01416015625 -4551.6376953125 L 6055.02099609375 -4551.5732421875 L 6055.0302734375 -4551.54052734375 L 6055.0302734375 -4551.4267578125 L 6055.0234375 -4551.38916015625 C 6055.02099609375 -4551.3759765625 6055.017578125 -4551.35986328125 6055.0146484375 -4551.3427734375 C 6055.0107421875 -4551.322265625 6055.00634765625 -4551.30078125 6055.00244140625 -4551.287109375 C 6054.951171875 -4551.24365234375 6054.90087890625 -4551.19921875 6054.849609375 -4551.1533203125 L 6054.802734375 -4551.111328125 L 6054.796875 -4551.1064453125 L 6054.79150390625 -4551.1015625 C 6054.74365234375 -4551.05810546875 6054.69580078125 -4551.01513671875 6054.64599609375 -4550.97216796875 C 6054.07275390625 -4550.474609375 6053.6796875 -4550.13134765625 6053.3291015625 -4549.82275390625 L 6053.16064453125 -4549.67529296875 C 6053.09765625 -4549.61962890625 6053.0361328125 -4549.56591796875 6052.97509765625 -4549.5126953125 L 6052.52734375 -4549.12158203125 L 6052.65673828125 -4548.54150390625 L 6052.66796875 -4548.4912109375 L 6052.66845703125 -4548.48876953125 L 6052.66943359375 -4548.486328125 L 6052.69970703125 -4548.3525390625 C 6052.8046875 -4547.89306640625 6052.91259765625 -4547.421875 6053.01806640625 -4546.95654296875 C 6053.0400390625 -4546.85693359375 6053.06396484375 -4546.75244140625 6053.087890625 -4546.6474609375 C 6053.14501953125 -4546.40234375 6053.203125 -4546.15234375 6053.25146484375 -4545.9072265625 C 6053.279296875 -4545.7646484375 6053.173828125 -4545.61767578125 6053.02099609375 -4545.5869140625 C 6053.0009765625 -4545.5830078125 6052.9833984375 -4545.5810546875 6052.9677734375 -4545.5810546875 C 6052.92919921875 -4545.5810546875 6052.86474609375 -4545.58935546875 6052.7470703125 -4545.6591796875 C 6052.49169921875 -4545.810546875 6052.2197265625 -4545.9736328125 6051.9140625 -4546.15625 C 6051.810546875 -4546.21875 6051.7041015625 -4546.28173828125 6051.59814453125 -4546.34423828125 C 6051.51708984375 -4546.392578125 6051.4365234375 -4546.4404296875 6051.357421875 -4546.48779296875 L 6051.3544921875 -4546.4892578125 L 6051.35205078125 -4546.49072265625 L 6051.23681640625 -4546.55859375 C 6051.00341796875 -4546.6962890625 6050.76171875 -4546.83837890625 6050.52880859375 -4546.98193359375 L 6050.0078125 -4547.30322265625 L 6049.48486328125 -4546.98583984375 C 6049.0888671875 -4546.7451171875 6048.6884765625 -4546.50732421875 6048.27880859375 -4546.26416015625 C 6047.9169921875 -4546.0498046875 6047.5908203125 -4545.85595703125 6047.2646484375 -4545.65869140625 C 6047.2060546875 -4545.62353515625 6047.115234375 -4545.5791015625 6047.03515625 -4545.5791015625 Z" stroke="none"/>
    <path d="M 6048.10107421875 -4547.32177734375 C 6048.3935546875 -4547.49560546875 6048.681640625 -4547.66748046875 6048.96630859375 -4547.84033203125 L 6050.01220703125 -4548.4755859375 L 6051.0537109375 -4547.8330078125 C 6051.27783203125 -4547.69482421875 6051.51513671875 -4547.5556640625 6051.744140625 -4547.42041015625 L 6051.87060546875 -4547.34619140625 C 6051.88330078125 -4547.33837890625 6051.89599609375 -4547.33056640625 6051.9091796875 -4547.32275390625 C 6051.84765625 -4547.59375 6051.78564453125 -4547.86376953125 6051.72509765625 -4548.12939453125 L 6051.6806640625 -4548.3232421875 L 6051.421875 -4549.48388671875 L 6052.3173828125 -4550.26611328125 C 6052.3779296875 -4550.31884765625 6052.43896484375 -4550.3720703125 6052.50146484375 -4550.4267578125 L 6052.66943359375 -4550.57421875 C 6052.79833984375 -4550.6875 6052.9326171875 -4550.8056640625 6053.07958984375 -4550.93408203125 C 6052.73095703125 -4550.9658203125 6052.39794921875 -4550.99560546875 6052.07568359375 -4551.02294921875 L 6050.876953125 -4551.125 L 6050.27587890625 -4552.5361328125 C 6050.1865234375 -4552.74609375 6050.0966796875 -4552.95751953125 6050.005859375 -4553.17041015625 L 6049.99755859375 -4553.15087890625 C 6049.9501953125 -4553.0400390625 6049.9033203125 -4552.92919921875 6049.8564453125 -4552.82080078125 C 6049.80908203125 -4552.708984375 6049.7607421875 -4552.59716796875 6049.712890625 -4552.48583984375 L 6049.60888671875 -4552.24365234375 L 6049.1455078125 -4551.13232421875 L 6047.72509765625 -4551.00146484375 C 6047.5859375 -4550.98974609375 6047.4462890625 -4550.9765625 6047.30712890625 -4550.9638671875 L 6047.29541015625 -4550.962890625 C 6047.19677734375 -4550.95458984375 6047.0986328125 -4550.94580078125 6047 -4550.93701171875 C 6046.97802734375 -4550.9345703125 6046.95556640625 -4550.9326171875 6046.93310546875 -4550.9306640625 C 6046.93701171875 -4550.927734375 6046.9404296875 -4550.9248046875 6046.94384765625 -4550.92138671875 C 6047.0166015625 -4550.85791015625 6047.08935546875 -4550.794921875 6047.15869140625 -4550.734375 L 6047.34521484375 -4550.57177734375 C 6047.4619140625 -4550.470703125 6047.580078125 -4550.3681640625 6047.69677734375 -4550.265625 L 6048.5986328125 -4549.474609375 L 6048.326171875 -4548.306640625 C 6048.3076171875 -4548.228515625 6048.28955078125 -4548.14990234375 6048.271484375 -4548.07080078125 L 6048.2021484375 -4547.7666015625 C 6048.16845703125 -4547.61865234375 6048.134765625 -4547.470703125 6048.10107421875 -4547.32177734375 M 6047.03515625 -4544.5791015625 C 6046.76953125 -4544.5791015625 6046.52001953125 -4544.662109375 6046.2919921875 -4544.82666015625 C 6045.875 -4545.1259765625 6045.6826171875 -4545.59521484375 6045.7744140625 -4546.0810546875 C 6045.8447265625 -4546.4462890625 6045.92919921875 -4546.8076171875 6046.0107421875 -4547.158203125 C 6046.04931640625 -4547.322265625 6046.0888671875 -4547.49169921875 6046.126953125 -4547.6572265625 C 6046.185546875 -4547.92138671875 6046.24609375 -4548.18408203125 6046.3056640625 -4548.44677734375 C 6046.330078125 -4548.552734375 6046.35400390625 -4548.6572265625 6046.37841796875 -4548.76171875 C 6046.2001953125 -4548.91796875 6046.01953125 -4549.07421875 6045.8447265625 -4549.2265625 C 6045.6357421875 -4549.4091796875 6045.4189453125 -4549.59619140625 6045.20703125 -4549.78369140625 C 6044.8759765625 -4550.076171875 6044.60546875 -4550.3125 6044.35546875 -4550.52783203125 C 6044.0849609375 -4550.76318359375 6044.02978515625 -4551.05419921875 6044 -4551.2119140625 C 6043.998046875 -4551.22509765625 6043.99609375 -4551.2373046875 6043.9931640625 -4551.2490234375 C 6043.982421875 -4551.30078125 6043.978515625 -4551.35302734375 6043.98046875 -4551.40478515625 L 6043.98046875 -4551.58935546875 C 6043.98046875 -4551.62890625 6043.984375 -4551.66943359375 6043.9912109375 -4551.7080078125 C 6044.107421875 -4552.34423828125 6044.4619140625 -4552.6826171875 6045.1083984375 -4552.77294921875 C 6045.2001953125 -4552.7861328125 6045.28759765625 -4552.79296875 6045.36474609375 -4552.79931640625 C 6045.39453125 -4552.80126953125 6045.423828125 -4552.80322265625 6045.4521484375 -4552.80615234375 C 6045.5810546875 -4552.8173828125 6045.7080078125 -4552.82958984375 6045.83544921875 -4552.8408203125 C 6046.0615234375 -4552.86181640625 6046.2958984375 -4552.88330078125 6046.5283203125 -4552.90283203125 C 6046.7265625 -4552.919921875 6046.92529296875 -4552.9384765625 6047.1240234375 -4552.95556640625 C 6047.267578125 -4552.96875 6047.412109375 -4552.98193359375 6047.5556640625 -4552.994140625 C 6047.630859375 -4553.0009765625 6047.69921875 -4553.00732421875 6047.7626953125 -4553.01318359375 L 6047.7724609375 -4553.03662109375 C 6047.85400390625 -4553.2265625 6047.9365234375 -4553.41748046875 6048.01806640625 -4553.60791015625 C 6048.095703125 -4553.78857421875 6048.171875 -4553.96923828125 6048.2490234375 -4554.14990234375 C 6048.4306640625 -4554.57666015625 6048.619140625 -4555.01904296875 6048.8095703125 -4555.45263671875 C 6049.025390625 -4555.94384765625 6049.48046875 -4556.2490234375 6049.99609375 -4556.2490234375 C 6050.263671875 -4556.2490234375 6050.52734375 -4556.1650390625 6050.7587890625 -4556.00634765625 C 6050.951171875 -4555.87353515625 6051.0986328125 -4555.6865234375 6051.208984375 -4555.43505859375 C 6051.55908203125 -4554.63037109375 6051.9072265625 -4553.81005859375 6052.24560546875 -4553.015625 C 6052.927734375 -4552.95751953125 6053.662109375 -4552.89013671875 6054.4853515625 -4552.81005859375 C 6054.5361328125 -4552.80517578125 6054.58740234375 -4552.80224609375 6054.63671875 -4552.79736328125 C 6054.7421875 -4552.7890625 6054.8505859375 -4552.77978515625 6054.96484375 -4552.7646484375 C 6055.26953125 -4552.72509765625 6055.54443359375 -4552.578125 6055.7607421875 -4552.34033203125 C 6055.94873046875 -4552.13330078125 6055.9853515625 -4551.90087890625 6056.0029296875 -4551.7890625 C 6056.00390625 -4551.7802734375 6056.005859375 -4551.77099609375 6056.0068359375 -4551.76171875 C 6056.0224609375 -4551.7060546875 6056.0302734375 -4551.6474609375 6056.0302734375 -4551.58935546875 L 6056.0302734375 -4551.38134765625 C 6056.0302734375 -4551.3203125 6056.0224609375 -4551.2607421875 6056.005859375 -4551.20263671875 C 6056.0048828125 -4551.197265625 6056.0009765625 -4551.17919921875 6055.9990234375 -4551.1650390625 C 6055.97314453125 -4551.0322265625 6055.92041015625 -4550.7529296875 6055.66015625 -4550.53369140625 C 6055.5966796875 -4550.47998046875 6055.5322265625 -4550.421875 6055.46484375 -4550.3623046875 C 6055.41015625 -4550.3125 6055.35546875 -4550.263671875 6055.298828125 -4550.21484375 C 6054.81640625 -4549.7958984375 6054.3876953125 -4549.42236328125 6053.990234375 -4549.072265625 C 6053.8662109375 -4548.9638671875 6053.748046875 -4548.85986328125 6053.6328125 -4548.75927734375 L 6053.64404296875 -4548.708984375 C 6053.7587890625 -4548.20703125 6053.87744140625 -4547.6884765625 6053.9931640625 -4547.17724609375 C 6054.015625 -4547.07568359375 6054.0390625 -4546.97412109375 6054.0625 -4546.87255859375 C 6054.12060546875 -4546.6220703125 6054.1806640625 -4546.36328125 6054.232421875 -4546.10107421875 C 6054.3671875 -4545.416015625 6053.912109375 -4544.74560546875 6053.21728515625 -4544.6064453125 C 6053.134765625 -4544.58984375 6053.05126953125 -4544.5810546875 6052.9677734375 -4544.5810546875 C 6052.72265625 -4544.5810546875 6052.48291015625 -4544.65283203125 6052.236328125 -4544.79931640625 C 6051.98046875 -4544.951171875 6051.70703125 -4545.11474609375 6051.400390625 -4545.29833984375 C 6051.2158203125 -4545.4091796875 6051.0263671875 -4545.5205078125 6050.84423828125 -4545.62939453125 C 6050.568359375 -4545.7919921875 6050.2841796875 -4545.9580078125 6050.00390625 -4546.130859375 C 6049.59765625 -4545.88427734375 6049.1875 -4545.640625 6048.7890625 -4545.404296875 C 6048.4580078125 -4545.2080078125 6048.11572265625 -4545.0048828125 6047.78271484375 -4544.80322265625 C 6047.53515625 -4544.65478515625 6047.2841796875 -4544.5791015625 6047.03515625 -4544.5791015625 Z" stroke="none" fill="#222"/>
  </g>
  <g id="패스_1485" data-name="패스 1485" transform="translate(-6010.005 4558.414)" fill="#fff" stroke-linecap="round" opacity="0.2">
    <path d="M 6047.03515625 -4545.5791015625 C 6046.9951171875 -4545.5791015625 6046.9482421875 -4545.58642578125 6046.876953125 -4545.6376953125 C 6046.74365234375 -4545.7333984375 6046.74462890625 -4545.83056640625 6046.7568359375 -4545.8955078125 C 6046.8212890625 -4546.228515625 6046.90087890625 -4546.5712890625 6046.97802734375 -4546.90283203125 L 6046.98486328125 -4546.931640625 C 6047.02294921875 -4547.0947265625 6047.06298828125 -4547.26611328125 6047.1015625 -4547.43310546875 L 6047.1025390625 -4547.43701171875 L 6047.10302734375 -4547.44091796875 C 6047.14404296875 -4547.6240234375 6047.185546875 -4547.806640625 6047.22705078125 -4547.98876953125 L 6047.28076171875 -4548.2255859375 L 6047.296875 -4548.294921875 C 6047.3154296875 -4548.37548828125 6047.33349609375 -4548.45458984375 6047.35205078125 -4548.5341796875 L 6047.48876953125 -4549.1181640625 L 6047.03759765625 -4549.513671875 C 6046.921875 -4549.615234375 6046.80517578125 -4549.716796875 6046.689453125 -4549.8173828125 L 6046.501953125 -4549.98046875 C 6046.431640625 -4550.04150390625 6046.35986328125 -4550.10400390625 6046.28759765625 -4550.1669921875 C 6046.1484375 -4550.2880859375 6046.00830078125 -4550.41015625 6045.86962890625 -4550.53271484375 C 6045.537109375 -4550.826171875 6045.263671875 -4551.0654296875 6045.00830078125 -4551.28564453125 C 6045.001953125 -4551.29736328125 6044.99267578125 -4551.34423828125 6044.98583984375 -4551.3818359375 C 6044.98388671875 -4551.39111328125 6044.982421875 -4551.4013671875 6044.98046875 -4551.41162109375 L 6044.98046875 -4551.55810546875 C 6045.013671875 -4551.7333984375 6045.03369140625 -4551.7529296875 6045.24658203125 -4551.78271484375 C 6045.30712890625 -4551.791015625 6045.36865234375 -4551.79638671875 6045.43408203125 -4551.8017578125 L 6045.43896484375 -4551.80224609375 C 6045.47509765625 -4551.80419921875 6045.5107421875 -4551.80712890625 6045.54541015625 -4551.810546875 C 6045.61328125 -4551.81640625 6045.6806640625 -4551.82275390625 6045.74755859375 -4551.82861328125 C 6045.80615234375 -4551.833984375 6045.86474609375 -4551.83935546875 6045.92333984375 -4551.8447265625 C 6046.1513671875 -4551.86572265625 6046.38232421875 -4551.88720703125 6046.61181640625 -4551.90625 C 6046.712890625 -4551.9150390625 6046.81201171875 -4551.923828125 6046.91064453125 -4551.9326171875 C 6047.01025390625 -4551.94189453125 6047.10986328125 -4551.95068359375 6047.20947265625 -4551.95947265625 L 6047.21240234375 -4551.95947265625 L 6047.21533203125 -4551.9599609375 C 6047.35693359375 -4551.97265625 6047.4990234375 -4551.98583984375 6047.640625 -4551.99755859375 L 6047.64306640625 -4551.998046875 L 6047.64599609375 -4551.998046875 L 6047.81494140625 -4552.013671875 L 6047.8544921875 -4552.017578125 L 6048.4541015625 -4552.07275390625 L 6048.685546875 -4552.62841796875 L 6048.693359375 -4552.64697265625 L 6048.79443359375 -4552.88134765625 C 6048.841796875 -4552.9921875 6048.8896484375 -4553.103515625 6048.9375 -4553.21435546875 C 6048.98388671875 -4553.32275390625 6049.0302734375 -4553.43212890625 6049.0771484375 -4553.5419921875 L 6049.16845703125 -4553.75732421875 C 6049.330078125 -4554.13671875 6049.53076171875 -4554.60791015625 6049.72509765625 -4555.05029296875 C 6049.7578125 -4555.12451171875 6049.83642578125 -4555.2490234375 6049.99609375 -4555.2490234375 C 6050.060546875 -4555.2490234375 6050.12890625 -4555.2255859375 6050.193359375 -4555.181640625 C 6050.20361328125 -4555.17431640625 6050.2431640625 -4555.14697265625 6050.29345703125 -4555.033203125 C 6050.59619140625 -4554.33740234375 6050.90087890625 -4553.62109375 6051.19580078125 -4552.92822265625 L 6051.32568359375 -4552.62353515625 L 6051.5615234375 -4552.0703125 L 6052.16064453125 -4552.01904296875 C 6052.84033203125 -4551.96142578125 6053.5693359375 -4551.89453125 6054.388671875 -4551.81494140625 C 6054.42041015625 -4551.8115234375 6054.45166015625 -4551.80908203125 6054.48291015625 -4551.806640625 C 6054.50146484375 -4551.80517578125 6054.52001953125 -4551.80419921875 6054.5380859375 -4551.80224609375 L 6054.54833984375 -4551.80126953125 L 6054.55810546875 -4551.80029296875 C 6054.66552734375 -4551.7919921875 6054.74853515625 -4551.78466796875 6054.83349609375 -4551.7734375 C 6054.859375 -4551.77001953125 6054.92822265625 -4551.76123046875 6055.00634765625 -4551.6826171875 C 6055.0087890625 -4551.67236328125 6055.01123046875 -4551.65771484375 6055.013671875 -4551.64404296875 C 6055.013671875 -4551.64208984375 6055.01416015625 -4551.6396484375 6055.01416015625 -4551.6376953125 L 6055.02099609375 -4551.5732421875 L 6055.0302734375 -4551.54052734375 L 6055.0302734375 -4551.4267578125 L 6055.0234375 -4551.38916015625 C 6055.02099609375 -4551.3759765625 6055.017578125 -4551.35986328125 6055.0146484375 -4551.3427734375 C 6055.0107421875 -4551.322265625 6055.00634765625 -4551.30078125 6055.00244140625 -4551.287109375 C 6054.951171875 -4551.24365234375 6054.90087890625 -4551.19921875 6054.849609375 -4551.1533203125 L 6054.802734375 -4551.111328125 L 6054.796875 -4551.1064453125 L 6054.79150390625 -4551.1015625 C 6054.74365234375 -4551.05810546875 6054.69580078125 -4551.01513671875 6054.64599609375 -4550.97216796875 C 6054.07275390625 -4550.474609375 6053.6796875 -4550.13134765625 6053.3291015625 -4549.82275390625 L 6053.16064453125 -4549.67529296875 C 6053.09765625 -4549.61962890625 6053.0361328125 -4549.56591796875 6052.97509765625 -4549.5126953125 L 6052.52734375 -4549.12158203125 L 6052.65673828125 -4548.54150390625 L 6052.66796875 -4548.4912109375 L 6052.66845703125 -4548.48876953125 L 6052.66943359375 -4548.486328125 L 6052.69970703125 -4548.3525390625 C 6052.8046875 -4547.89306640625 6052.91259765625 -4547.421875 6053.01806640625 -4546.95654296875 C 6053.0400390625 -4546.85693359375 6053.06396484375 -4546.75244140625 6053.087890625 -4546.6474609375 C 6053.14501953125 -4546.40234375 6053.203125 -4546.15234375 6053.25146484375 -4545.9072265625 C 6053.279296875 -4545.7646484375 6053.173828125 -4545.61767578125 6053.02099609375 -4545.5869140625 C 6053.0009765625 -4545.5830078125 6052.9833984375 -4545.5810546875 6052.9677734375 -4545.5810546875 C 6052.92919921875 -4545.5810546875 6052.86474609375 -4545.58935546875 6052.7470703125 -4545.6591796875 C 6052.49169921875 -4545.810546875 6052.2197265625 -4545.9736328125 6051.9140625 -4546.15625 C 6051.810546875 -4546.21875 6051.7041015625 -4546.28173828125 6051.59814453125 -4546.34423828125 C 6051.51708984375 -4546.392578125 6051.4365234375 -4546.4404296875 6051.357421875 -4546.48779296875 L 6051.3544921875 -4546.4892578125 L 6051.35205078125 -4546.49072265625 L 6051.23681640625 -4546.55859375 C 6051.00341796875 -4546.6962890625 6050.76171875 -4546.83837890625 6050.52880859375 -4546.98193359375 L 6050.0078125 -4547.30322265625 L 6049.48486328125 -4546.98583984375 C 6049.0888671875 -4546.7451171875 6048.6884765625 -4546.50732421875 6048.27880859375 -4546.26416015625 C 6047.9169921875 -4546.0498046875 6047.5908203125 -4545.85595703125 6047.2646484375 -4545.65869140625 C 6047.2060546875 -4545.62353515625 6047.115234375 -4545.5791015625 6047.03515625 -4545.5791015625 Z" stroke="none"/>
    <path d="M 6048.10107421875 -4547.32177734375 C 6048.3935546875 -4547.49560546875 6048.681640625 -4547.66748046875 6048.96630859375 -4547.84033203125 L 6050.01220703125 -4548.4755859375 L 6051.0537109375 -4547.8330078125 C 6051.27783203125 -4547.69482421875 6051.51513671875 -4547.5556640625 6051.744140625 -4547.42041015625 L 6051.87060546875 -4547.34619140625 C 6051.88330078125 -4547.33837890625 6051.89599609375 -4547.33056640625 6051.9091796875 -4547.32275390625 C 6051.84765625 -4547.59375 6051.78564453125 -4547.86376953125 6051.72509765625 -4548.12939453125 L 6051.6806640625 -4548.3232421875 L 6051.421875 -4549.48388671875 L 6052.3173828125 -4550.26611328125 C 6052.3779296875 -4550.31884765625 6052.43896484375 -4550.3720703125 6052.50146484375 -4550.4267578125 L 6052.66943359375 -4550.57421875 C 6052.79833984375 -4550.6875 6052.9326171875 -4550.8056640625 6053.07958984375 -4550.93408203125 C 6052.73095703125 -4550.9658203125 6052.39794921875 -4550.99560546875 6052.07568359375 -4551.02294921875 L 6050.876953125 -4551.125 L 6050.27587890625 -4552.5361328125 C 6050.1865234375 -4552.74609375 6050.0966796875 -4552.95751953125 6050.005859375 -4553.17041015625 L 6049.99755859375 -4553.15087890625 C 6049.9501953125 -4553.0400390625 6049.9033203125 -4552.92919921875 6049.8564453125 -4552.82080078125 C 6049.80908203125 -4552.708984375 6049.7607421875 -4552.59716796875 6049.712890625 -4552.48583984375 L 6049.60888671875 -4552.24365234375 L 6049.1455078125 -4551.13232421875 L 6047.72509765625 -4551.00146484375 C 6047.5859375 -4550.98974609375 6047.4462890625 -4550.9765625 6047.30712890625 -4550.9638671875 L 6047.29541015625 -4550.962890625 C 6047.19677734375 -4550.95458984375 6047.0986328125 -4550.94580078125 6047 -4550.93701171875 C 6046.97802734375 -4550.9345703125 6046.95556640625 -4550.9326171875 6046.93310546875 -4550.9306640625 C 6046.93701171875 -4550.927734375 6046.9404296875 -4550.9248046875 6046.94384765625 -4550.92138671875 C 6047.0166015625 -4550.85791015625 6047.08935546875 -4550.794921875 6047.15869140625 -4550.734375 L 6047.34521484375 -4550.57177734375 C 6047.4619140625 -4550.470703125 6047.580078125 -4550.3681640625 6047.69677734375 -4550.265625 L 6048.5986328125 -4549.474609375 L 6048.326171875 -4548.306640625 C 6048.3076171875 -4548.228515625 6048.28955078125 -4548.14990234375 6048.271484375 -4548.07080078125 L 6048.2021484375 -4547.7666015625 C 6048.16845703125 -4547.61865234375 6048.134765625 -4547.470703125 6048.10107421875 -4547.32177734375 M 6047.03515625 -4544.5791015625 C 6046.76953125 -4544.5791015625 6046.52001953125 -4544.662109375 6046.2919921875 -4544.82666015625 C 6045.875 -4545.1259765625 6045.6826171875 -4545.59521484375 6045.7744140625 -4546.0810546875 C 6045.8447265625 -4546.4462890625 6045.92919921875 -4546.8076171875 6046.0107421875 -4547.158203125 C 6046.04931640625 -4547.322265625 6046.0888671875 -4547.49169921875 6046.126953125 -4547.6572265625 C 6046.185546875 -4547.92138671875 6046.24609375 -4548.18408203125 6046.3056640625 -4548.44677734375 C 6046.330078125 -4548.552734375 6046.35400390625 -4548.6572265625 6046.37841796875 -4548.76171875 C 6046.2001953125 -4548.91796875 6046.01953125 -4549.07421875 6045.8447265625 -4549.2265625 C 6045.6357421875 -4549.4091796875 6045.4189453125 -4549.59619140625 6045.20703125 -4549.78369140625 C 6044.8759765625 -4550.076171875 6044.60546875 -4550.3125 6044.35546875 -4550.52783203125 C 6044.0849609375 -4550.76318359375 6044.02978515625 -4551.05419921875 6044 -4551.2119140625 C 6043.998046875 -4551.22509765625 6043.99609375 -4551.2373046875 6043.9931640625 -4551.2490234375 C 6043.982421875 -4551.30078125 6043.978515625 -4551.35302734375 6043.98046875 -4551.40478515625 L 6043.98046875 -4551.58935546875 C 6043.98046875 -4551.62890625 6043.984375 -4551.66943359375 6043.9912109375 -4551.7080078125 C 6044.107421875 -4552.34423828125 6044.4619140625 -4552.6826171875 6045.1083984375 -4552.77294921875 C 6045.2001953125 -4552.7861328125 6045.28759765625 -4552.79296875 6045.36474609375 -4552.79931640625 C 6045.39453125 -4552.80126953125 6045.423828125 -4552.80322265625 6045.4521484375 -4552.80615234375 C 6045.5810546875 -4552.8173828125 6045.7080078125 -4552.82958984375 6045.83544921875 -4552.8408203125 C 6046.0615234375 -4552.86181640625 6046.2958984375 -4552.88330078125 6046.5283203125 -4552.90283203125 C 6046.7265625 -4552.919921875 6046.92529296875 -4552.9384765625 6047.1240234375 -4552.95556640625 C 6047.267578125 -4552.96875 6047.412109375 -4552.98193359375 6047.5556640625 -4552.994140625 C 6047.630859375 -4553.0009765625 6047.69921875 -4553.00732421875 6047.7626953125 -4553.01318359375 L 6047.7724609375 -4553.03662109375 C 6047.85400390625 -4553.2265625 6047.9365234375 -4553.41748046875 6048.01806640625 -4553.60791015625 C 6048.095703125 -4553.78857421875 6048.171875 -4553.96923828125 6048.2490234375 -4554.14990234375 C 6048.4306640625 -4554.57666015625 6048.619140625 -4555.01904296875 6048.8095703125 -4555.45263671875 C 6049.025390625 -4555.94384765625 6049.48046875 -4556.2490234375 6049.99609375 -4556.2490234375 C 6050.263671875 -4556.2490234375 6050.52734375 -4556.1650390625 6050.7587890625 -4556.00634765625 C 6050.951171875 -4555.87353515625 6051.0986328125 -4555.6865234375 6051.208984375 -4555.43505859375 C 6051.55908203125 -4554.63037109375 6051.9072265625 -4553.81005859375 6052.24560546875 -4553.015625 C 6052.927734375 -4552.95751953125 6053.662109375 -4552.89013671875 6054.4853515625 -4552.81005859375 C 6054.5361328125 -4552.80517578125 6054.58740234375 -4552.80224609375 6054.63671875 -4552.79736328125 C 6054.7421875 -4552.7890625 6054.8505859375 -4552.77978515625 6054.96484375 -4552.7646484375 C 6055.26953125 -4552.72509765625 6055.54443359375 -4552.578125 6055.7607421875 -4552.34033203125 C 6055.94873046875 -4552.13330078125 6055.9853515625 -4551.90087890625 6056.0029296875 -4551.7890625 C 6056.00390625 -4551.7802734375 6056.005859375 -4551.77099609375 6056.0068359375 -4551.76171875 C 6056.0224609375 -4551.7060546875 6056.0302734375 -4551.6474609375 6056.0302734375 -4551.58935546875 L 6056.0302734375 -4551.38134765625 C 6056.0302734375 -4551.3203125 6056.0224609375 -4551.2607421875 6056.005859375 -4551.20263671875 C 6056.0048828125 -4551.197265625 6056.0009765625 -4551.17919921875 6055.9990234375 -4551.1650390625 C 6055.97314453125 -4551.0322265625 6055.92041015625 -4550.7529296875 6055.66015625 -4550.53369140625 C 6055.5966796875 -4550.47998046875 6055.5322265625 -4550.421875 6055.46484375 -4550.3623046875 C 6055.41015625 -4550.3125 6055.35546875 -4550.263671875 6055.298828125 -4550.21484375 C 6054.81640625 -4549.7958984375 6054.3876953125 -4549.42236328125 6053.990234375 -4549.072265625 C 6053.8662109375 -4548.9638671875 6053.748046875 -4548.85986328125 6053.6328125 -4548.75927734375 L 6053.64404296875 -4548.708984375 C 6053.7587890625 -4548.20703125 6053.87744140625 -4547.6884765625 6053.9931640625 -4547.17724609375 C 6054.015625 -4547.07568359375 6054.0390625 -4546.97412109375 6054.0625 -4546.87255859375 C 6054.12060546875 -4546.6220703125 6054.1806640625 -4546.36328125 6054.232421875 -4546.10107421875 C 6054.3671875 -4545.416015625 6053.912109375 -4544.74560546875 6053.21728515625 -4544.6064453125 C 6053.134765625 -4544.58984375 6053.05126953125 -4544.5810546875 6052.9677734375 -4544.5810546875 C 6052.72265625 -4544.5810546875 6052.48291015625 -4544.65283203125 6052.236328125 -4544.79931640625 C 6051.98046875 -4544.951171875 6051.70703125 -4545.11474609375 6051.400390625 -4545.29833984375 C 6051.2158203125 -4545.4091796875 6051.0263671875 -4545.5205078125 6050.84423828125 -4545.62939453125 C 6050.568359375 -4545.7919921875 6050.2841796875 -4545.9580078125 6050.00390625 -4546.130859375 C 6049.59765625 -4545.88427734375 6049.1875 -4545.640625 6048.7890625 -4545.404296875 C 6048.4580078125 -4545.2080078125 6048.11572265625 -4545.0048828125 6047.78271484375 -4544.80322265625 C 6047.53515625 -4544.65478515625 6047.2841796875 -4544.5791015625 6047.03515625 -4544.5791015625 Z" stroke="none" fill="#222"/>
  </g>
  <g id="패스_1486" data-name="패스 1486" transform="translate(-6026.005 4558.414)" fill="#fff" stroke-linecap="round" opacity="0.2">
    <path d="M 6047.03515625 -4545.5791015625 C 6046.9951171875 -4545.5791015625 6046.9482421875 -4545.58642578125 6046.876953125 -4545.6376953125 C 6046.74365234375 -4545.7333984375 6046.74462890625 -4545.83056640625 6046.7568359375 -4545.8955078125 C 6046.8212890625 -4546.228515625 6046.90087890625 -4546.5712890625 6046.97802734375 -4546.90283203125 L 6046.98486328125 -4546.931640625 C 6047.02294921875 -4547.0947265625 6047.06298828125 -4547.26611328125 6047.1015625 -4547.43310546875 L 6047.1025390625 -4547.43701171875 L 6047.10302734375 -4547.44091796875 C 6047.14404296875 -4547.6240234375 6047.185546875 -4547.806640625 6047.22705078125 -4547.98876953125 L 6047.28076171875 -4548.2255859375 L 6047.296875 -4548.294921875 C 6047.3154296875 -4548.37548828125 6047.33349609375 -4548.45458984375 6047.35205078125 -4548.5341796875 L 6047.48876953125 -4549.1181640625 L 6047.03759765625 -4549.513671875 C 6046.921875 -4549.615234375 6046.80517578125 -4549.716796875 6046.689453125 -4549.8173828125 L 6046.501953125 -4549.98046875 C 6046.431640625 -4550.04150390625 6046.35986328125 -4550.10400390625 6046.28759765625 -4550.1669921875 C 6046.1484375 -4550.2880859375 6046.00830078125 -4550.41015625 6045.86962890625 -4550.53271484375 C 6045.537109375 -4550.826171875 6045.263671875 -4551.0654296875 6045.00830078125 -4551.28564453125 C 6045.001953125 -4551.29736328125 6044.99267578125 -4551.34423828125 6044.98583984375 -4551.3818359375 C 6044.98388671875 -4551.39111328125 6044.982421875 -4551.4013671875 6044.98046875 -4551.41162109375 L 6044.98046875 -4551.55810546875 C 6045.013671875 -4551.7333984375 6045.03369140625 -4551.7529296875 6045.24658203125 -4551.78271484375 C 6045.30712890625 -4551.791015625 6045.36865234375 -4551.79638671875 6045.43408203125 -4551.8017578125 L 6045.43896484375 -4551.80224609375 C 6045.47509765625 -4551.80419921875 6045.5107421875 -4551.80712890625 6045.54541015625 -4551.810546875 C 6045.61328125 -4551.81640625 6045.6806640625 -4551.82275390625 6045.74755859375 -4551.82861328125 C 6045.80615234375 -4551.833984375 6045.86474609375 -4551.83935546875 6045.92333984375 -4551.8447265625 C 6046.1513671875 -4551.86572265625 6046.38232421875 -4551.88720703125 6046.61181640625 -4551.90625 C 6046.712890625 -4551.9150390625 6046.81201171875 -4551.923828125 6046.91064453125 -4551.9326171875 C 6047.01025390625 -4551.94189453125 6047.10986328125 -4551.95068359375 6047.20947265625 -4551.95947265625 L 6047.21240234375 -4551.95947265625 L 6047.21533203125 -4551.9599609375 C 6047.35693359375 -4551.97265625 6047.4990234375 -4551.98583984375 6047.640625 -4551.99755859375 L 6047.64306640625 -4551.998046875 L 6047.64599609375 -4551.998046875 L 6047.81494140625 -4552.013671875 L 6047.8544921875 -4552.017578125 L 6048.4541015625 -4552.07275390625 L 6048.685546875 -4552.62841796875 L 6048.693359375 -4552.64697265625 L 6048.79443359375 -4552.88134765625 C 6048.841796875 -4552.9921875 6048.8896484375 -4553.103515625 6048.9375 -4553.21435546875 C 6048.98388671875 -4553.32275390625 6049.0302734375 -4553.43212890625 6049.0771484375 -4553.5419921875 L 6049.16845703125 -4553.75732421875 C 6049.330078125 -4554.13671875 6049.53076171875 -4554.60791015625 6049.72509765625 -4555.05029296875 C 6049.7578125 -4555.12451171875 6049.83642578125 -4555.2490234375 6049.99609375 -4555.2490234375 C 6050.060546875 -4555.2490234375 6050.12890625 -4555.2255859375 6050.193359375 -4555.181640625 C 6050.20361328125 -4555.17431640625 6050.2431640625 -4555.14697265625 6050.29345703125 -4555.033203125 C 6050.59619140625 -4554.33740234375 6050.90087890625 -4553.62109375 6051.19580078125 -4552.92822265625 L 6051.32568359375 -4552.62353515625 L 6051.5615234375 -4552.0703125 L 6052.16064453125 -4552.01904296875 C 6052.84033203125 -4551.96142578125 6053.5693359375 -4551.89453125 6054.388671875 -4551.81494140625 C 6054.42041015625 -4551.8115234375 6054.45166015625 -4551.80908203125 6054.48291015625 -4551.806640625 C 6054.50146484375 -4551.80517578125 6054.52001953125 -4551.80419921875 6054.5380859375 -4551.80224609375 L 6054.54833984375 -4551.80126953125 L 6054.55810546875 -4551.80029296875 C 6054.66552734375 -4551.7919921875 6054.74853515625 -4551.78466796875 6054.83349609375 -4551.7734375 C 6054.859375 -4551.77001953125 6054.92822265625 -4551.76123046875 6055.00634765625 -4551.6826171875 C 6055.0087890625 -4551.67236328125 6055.01123046875 -4551.65771484375 6055.013671875 -4551.64404296875 C 6055.013671875 -4551.64208984375 6055.01416015625 -4551.6396484375 6055.01416015625 -4551.6376953125 L 6055.02099609375 -4551.5732421875 L 6055.0302734375 -4551.54052734375 L 6055.0302734375 -4551.4267578125 L 6055.0234375 -4551.38916015625 C 6055.02099609375 -4551.3759765625 6055.017578125 -4551.35986328125 6055.0146484375 -4551.3427734375 C 6055.0107421875 -4551.322265625 6055.00634765625 -4551.30078125 6055.00244140625 -4551.287109375 C 6054.951171875 -4551.24365234375 6054.90087890625 -4551.19921875 6054.849609375 -4551.1533203125 L 6054.802734375 -4551.111328125 L 6054.796875 -4551.1064453125 L 6054.79150390625 -4551.1015625 C 6054.74365234375 -4551.05810546875 6054.69580078125 -4551.01513671875 6054.64599609375 -4550.97216796875 C 6054.07275390625 -4550.474609375 6053.6796875 -4550.13134765625 6053.3291015625 -4549.82275390625 L 6053.16064453125 -4549.67529296875 C 6053.09765625 -4549.61962890625 6053.0361328125 -4549.56591796875 6052.97509765625 -4549.5126953125 L 6052.52734375 -4549.12158203125 L 6052.65673828125 -4548.54150390625 L 6052.66796875 -4548.4912109375 L 6052.66845703125 -4548.48876953125 L 6052.66943359375 -4548.486328125 L 6052.69970703125 -4548.3525390625 C 6052.8046875 -4547.89306640625 6052.91259765625 -4547.421875 6053.01806640625 -4546.95654296875 C 6053.0400390625 -4546.85693359375 6053.06396484375 -4546.75244140625 6053.087890625 -4546.6474609375 C 6053.14501953125 -4546.40234375 6053.203125 -4546.15234375 6053.25146484375 -4545.9072265625 C 6053.279296875 -4545.7646484375 6053.173828125 -4545.61767578125 6053.02099609375 -4545.5869140625 C 6053.0009765625 -4545.5830078125 6052.9833984375 -4545.5810546875 6052.9677734375 -4545.5810546875 C 6052.92919921875 -4545.5810546875 6052.86474609375 -4545.58935546875 6052.7470703125 -4545.6591796875 C 6052.49169921875 -4545.810546875 6052.2197265625 -4545.9736328125 6051.9140625 -4546.15625 C 6051.810546875 -4546.21875 6051.7041015625 -4546.28173828125 6051.59814453125 -4546.34423828125 C 6051.51708984375 -4546.392578125 6051.4365234375 -4546.4404296875 6051.357421875 -4546.48779296875 L 6051.3544921875 -4546.4892578125 L 6051.35205078125 -4546.49072265625 L 6051.23681640625 -4546.55859375 C 6051.00341796875 -4546.6962890625 6050.76171875 -4546.83837890625 6050.52880859375 -4546.98193359375 L 6050.0078125 -4547.30322265625 L 6049.48486328125 -4546.98583984375 C 6049.0888671875 -4546.7451171875 6048.6884765625 -4546.50732421875 6048.27880859375 -4546.26416015625 C 6047.9169921875 -4546.0498046875 6047.5908203125 -4545.85595703125 6047.2646484375 -4545.65869140625 C 6047.2060546875 -4545.62353515625 6047.115234375 -4545.5791015625 6047.03515625 -4545.5791015625 Z" stroke="none"/>
    <path d="M 6048.10107421875 -4547.32177734375 C 6048.3935546875 -4547.49560546875 6048.681640625 -4547.66748046875 6048.96630859375 -4547.84033203125 L 6050.01220703125 -4548.4755859375 L 6051.0537109375 -4547.8330078125 C 6051.27783203125 -4547.69482421875 6051.51513671875 -4547.5556640625 6051.744140625 -4547.42041015625 L 6051.87060546875 -4547.34619140625 C 6051.88330078125 -4547.33837890625 6051.89599609375 -4547.33056640625 6051.9091796875 -4547.32275390625 C 6051.84765625 -4547.59375 6051.78564453125 -4547.86376953125 6051.72509765625 -4548.12939453125 L 6051.6806640625 -4548.3232421875 L 6051.421875 -4549.48388671875 L 6052.3173828125 -4550.26611328125 C 6052.3779296875 -4550.31884765625 6052.43896484375 -4550.3720703125 6052.50146484375 -4550.4267578125 L 6052.66943359375 -4550.57421875 C 6052.79833984375 -4550.6875 6052.9326171875 -4550.8056640625 6053.07958984375 -4550.93408203125 C 6052.73095703125 -4550.9658203125 6052.39794921875 -4550.99560546875 6052.07568359375 -4551.02294921875 L 6050.876953125 -4551.125 L 6050.27587890625 -4552.5361328125 C 6050.1865234375 -4552.74609375 6050.0966796875 -4552.95751953125 6050.005859375 -4553.17041015625 L 6049.99755859375 -4553.15087890625 C 6049.9501953125 -4553.0400390625 6049.9033203125 -4552.92919921875 6049.8564453125 -4552.82080078125 C 6049.80908203125 -4552.708984375 6049.7607421875 -4552.59716796875 6049.712890625 -4552.48583984375 L 6049.60888671875 -4552.24365234375 L 6049.1455078125 -4551.13232421875 L 6047.72509765625 -4551.00146484375 C 6047.5859375 -4550.98974609375 6047.4462890625 -4550.9765625 6047.30712890625 -4550.9638671875 L 6047.29541015625 -4550.962890625 C 6047.19677734375 -4550.95458984375 6047.0986328125 -4550.94580078125 6047 -4550.93701171875 C 6046.97802734375 -4550.9345703125 6046.95556640625 -4550.9326171875 6046.93310546875 -4550.9306640625 C 6046.93701171875 -4550.927734375 6046.9404296875 -4550.9248046875 6046.94384765625 -4550.92138671875 C 6047.0166015625 -4550.85791015625 6047.08935546875 -4550.794921875 6047.15869140625 -4550.734375 L 6047.34521484375 -4550.57177734375 C 6047.4619140625 -4550.470703125 6047.580078125 -4550.3681640625 6047.69677734375 -4550.265625 L 6048.5986328125 -4549.474609375 L 6048.326171875 -4548.306640625 C 6048.3076171875 -4548.228515625 6048.28955078125 -4548.14990234375 6048.271484375 -4548.07080078125 L 6048.2021484375 -4547.7666015625 C 6048.16845703125 -4547.61865234375 6048.134765625 -4547.470703125 6048.10107421875 -4547.32177734375 M 6047.03515625 -4544.5791015625 C 6046.76953125 -4544.5791015625 6046.52001953125 -4544.662109375 6046.2919921875 -4544.82666015625 C 6045.875 -4545.1259765625 6045.6826171875 -4545.59521484375 6045.7744140625 -4546.0810546875 C 6045.8447265625 -4546.4462890625 6045.92919921875 -4546.8076171875 6046.0107421875 -4547.158203125 C 6046.04931640625 -4547.322265625 6046.0888671875 -4547.49169921875 6046.126953125 -4547.6572265625 C 6046.185546875 -4547.92138671875 6046.24609375 -4548.18408203125 6046.3056640625 -4548.44677734375 C 6046.330078125 -4548.552734375 6046.35400390625 -4548.6572265625 6046.37841796875 -4548.76171875 C 6046.2001953125 -4548.91796875 6046.01953125 -4549.07421875 6045.8447265625 -4549.2265625 C 6045.6357421875 -4549.4091796875 6045.4189453125 -4549.59619140625 6045.20703125 -4549.78369140625 C 6044.8759765625 -4550.076171875 6044.60546875 -4550.3125 6044.35546875 -4550.52783203125 C 6044.0849609375 -4550.76318359375 6044.02978515625 -4551.05419921875 6044 -4551.2119140625 C 6043.998046875 -4551.22509765625 6043.99609375 -4551.2373046875 6043.9931640625 -4551.2490234375 C 6043.982421875 -4551.30078125 6043.978515625 -4551.35302734375 6043.98046875 -4551.40478515625 L 6043.98046875 -4551.58935546875 C 6043.98046875 -4551.62890625 6043.984375 -4551.66943359375 6043.9912109375 -4551.7080078125 C 6044.107421875 -4552.34423828125 6044.4619140625 -4552.6826171875 6045.1083984375 -4552.77294921875 C 6045.2001953125 -4552.7861328125 6045.28759765625 -4552.79296875 6045.36474609375 -4552.79931640625 C 6045.39453125 -4552.80126953125 6045.423828125 -4552.80322265625 6045.4521484375 -4552.80615234375 C 6045.5810546875 -4552.8173828125 6045.7080078125 -4552.82958984375 6045.83544921875 -4552.8408203125 C 6046.0615234375 -4552.86181640625 6046.2958984375 -4552.88330078125 6046.5283203125 -4552.90283203125 C 6046.7265625 -4552.919921875 6046.92529296875 -4552.9384765625 6047.1240234375 -4552.95556640625 C 6047.267578125 -4552.96875 6047.412109375 -4552.98193359375 6047.5556640625 -4552.994140625 C 6047.630859375 -4553.0009765625 6047.69921875 -4553.00732421875 6047.7626953125 -4553.01318359375 L 6047.7724609375 -4553.03662109375 C 6047.85400390625 -4553.2265625 6047.9365234375 -4553.41748046875 6048.01806640625 -4553.60791015625 C 6048.095703125 -4553.78857421875 6048.171875 -4553.96923828125 6048.2490234375 -4554.14990234375 C 6048.4306640625 -4554.57666015625 6048.619140625 -4555.01904296875 6048.8095703125 -4555.45263671875 C 6049.025390625 -4555.94384765625 6049.48046875 -4556.2490234375 6049.99609375 -4556.2490234375 C 6050.263671875 -4556.2490234375 6050.52734375 -4556.1650390625 6050.7587890625 -4556.00634765625 C 6050.951171875 -4555.87353515625 6051.0986328125 -4555.6865234375 6051.208984375 -4555.43505859375 C 6051.55908203125 -4554.63037109375 6051.9072265625 -4553.81005859375 6052.24560546875 -4553.015625 C 6052.927734375 -4552.95751953125 6053.662109375 -4552.89013671875 6054.4853515625 -4552.81005859375 C 6054.5361328125 -4552.80517578125 6054.58740234375 -4552.80224609375 6054.63671875 -4552.79736328125 C 6054.7421875 -4552.7890625 6054.8505859375 -4552.77978515625 6054.96484375 -4552.7646484375 C 6055.26953125 -4552.72509765625 6055.54443359375 -4552.578125 6055.7607421875 -4552.34033203125 C 6055.94873046875 -4552.13330078125 6055.9853515625 -4551.90087890625 6056.0029296875 -4551.7890625 C 6056.00390625 -4551.7802734375 6056.005859375 -4551.77099609375 6056.0068359375 -4551.76171875 C 6056.0224609375 -4551.7060546875 6056.0302734375 -4551.6474609375 6056.0302734375 -4551.58935546875 L 6056.0302734375 -4551.38134765625 C 6056.0302734375 -4551.3203125 6056.0224609375 -4551.2607421875 6056.005859375 -4551.20263671875 C 6056.0048828125 -4551.197265625 6056.0009765625 -4551.17919921875 6055.9990234375 -4551.1650390625 C 6055.97314453125 -4551.0322265625 6055.92041015625 -4550.7529296875 6055.66015625 -4550.53369140625 C 6055.5966796875 -4550.47998046875 6055.5322265625 -4550.421875 6055.46484375 -4550.3623046875 C 6055.41015625 -4550.3125 6055.35546875 -4550.263671875 6055.298828125 -4550.21484375 C 6054.81640625 -4549.7958984375 6054.3876953125 -4549.42236328125 6053.990234375 -4549.072265625 C 6053.8662109375 -4548.9638671875 6053.748046875 -4548.85986328125 6053.6328125 -4548.75927734375 L 6053.64404296875 -4548.708984375 C 6053.7587890625 -4548.20703125 6053.87744140625 -4547.6884765625 6053.9931640625 -4547.17724609375 C 6054.015625 -4547.07568359375 6054.0390625 -4546.97412109375 6054.0625 -4546.87255859375 C 6054.12060546875 -4546.6220703125 6054.1806640625 -4546.36328125 6054.232421875 -4546.10107421875 C 6054.3671875 -4545.416015625 6053.912109375 -4544.74560546875 6053.21728515625 -4544.6064453125 C 6053.134765625 -4544.58984375 6053.05126953125 -4544.5810546875 6052.9677734375 -4544.5810546875 C 6052.72265625 -4544.5810546875 6052.48291015625 -4544.65283203125 6052.236328125 -4544.79931640625 C 6051.98046875 -4544.951171875 6051.70703125 -4545.11474609375 6051.400390625 -4545.29833984375 C 6051.2158203125 -4545.4091796875 6051.0263671875 -4545.5205078125 6050.84423828125 -4545.62939453125 C 6050.568359375 -4545.7919921875 6050.2841796875 -4545.9580078125 6050.00390625 -4546.130859375 C 6049.59765625 -4545.88427734375 6049.1875 -4545.640625 6048.7890625 -4545.404296875 C 6048.4580078125 -4545.2080078125 6048.11572265625 -4545.0048828125 6047.78271484375 -4544.80322265625 C 6047.53515625 -4544.65478515625 6047.2841796875 -4544.5791015625 6047.03515625 -4544.5791015625 Z" stroke="none" fill="#222"/>
  </g>
  <g id="패스_1497" data-name="패스 1497" transform="translate(-6042.005 4558.414)" fill="#fff" stroke-linecap="round" opacity="0.2">
    <path d="M 6047.03515625 -4545.5791015625 C 6046.9951171875 -4545.5791015625 6046.9482421875 -4545.58642578125 6046.876953125 -4545.6376953125 C 6046.74365234375 -4545.7333984375 6046.74462890625 -4545.83056640625 6046.7568359375 -4545.8955078125 C 6046.8212890625 -4546.228515625 6046.90087890625 -4546.5712890625 6046.97802734375 -4546.90283203125 L 6046.98486328125 -4546.931640625 C 6047.02294921875 -4547.0947265625 6047.06298828125 -4547.26611328125 6047.1015625 -4547.43310546875 L 6047.1025390625 -4547.43701171875 L 6047.10302734375 -4547.44091796875 C 6047.14404296875 -4547.6240234375 6047.185546875 -4547.806640625 6047.22705078125 -4547.98876953125 L 6047.28076171875 -4548.2255859375 L 6047.296875 -4548.294921875 C 6047.3154296875 -4548.37548828125 6047.33349609375 -4548.45458984375 6047.35205078125 -4548.5341796875 L 6047.48876953125 -4549.1181640625 L 6047.03759765625 -4549.513671875 C 6046.921875 -4549.615234375 6046.80517578125 -4549.716796875 6046.689453125 -4549.8173828125 L 6046.501953125 -4549.98046875 C 6046.431640625 -4550.04150390625 6046.35986328125 -4550.10400390625 6046.28759765625 -4550.1669921875 C 6046.1484375 -4550.2880859375 6046.00830078125 -4550.41015625 6045.86962890625 -4550.53271484375 C 6045.537109375 -4550.826171875 6045.263671875 -4551.0654296875 6045.00830078125 -4551.28564453125 C 6045.001953125 -4551.29736328125 6044.99267578125 -4551.34423828125 6044.98583984375 -4551.3818359375 C 6044.98388671875 -4551.39111328125 6044.982421875 -4551.4013671875 6044.98046875 -4551.41162109375 L 6044.98046875 -4551.55810546875 C 6045.013671875 -4551.7333984375 6045.03369140625 -4551.7529296875 6045.24658203125 -4551.78271484375 C 6045.30712890625 -4551.791015625 6045.36865234375 -4551.79638671875 6045.43408203125 -4551.8017578125 L 6045.43896484375 -4551.80224609375 C 6045.47509765625 -4551.80419921875 6045.5107421875 -4551.80712890625 6045.54541015625 -4551.810546875 C 6045.61328125 -4551.81640625 6045.6806640625 -4551.82275390625 6045.74755859375 -4551.82861328125 C 6045.80615234375 -4551.833984375 6045.86474609375 -4551.83935546875 6045.92333984375 -4551.8447265625 C 6046.1513671875 -4551.86572265625 6046.38232421875 -4551.88720703125 6046.61181640625 -4551.90625 C 6046.712890625 -4551.9150390625 6046.81201171875 -4551.923828125 6046.91064453125 -4551.9326171875 C 6047.01025390625 -4551.94189453125 6047.10986328125 -4551.95068359375 6047.20947265625 -4551.95947265625 L 6047.21240234375 -4551.95947265625 L 6047.21533203125 -4551.9599609375 C 6047.35693359375 -4551.97265625 6047.4990234375 -4551.98583984375 6047.640625 -4551.99755859375 L 6047.64306640625 -4551.998046875 L 6047.64599609375 -4551.998046875 L 6047.81494140625 -4552.013671875 L 6047.8544921875 -4552.017578125 L 6048.4541015625 -4552.07275390625 L 6048.685546875 -4552.62841796875 L 6048.693359375 -4552.64697265625 L 6048.79443359375 -4552.88134765625 C 6048.841796875 -4552.9921875 6048.8896484375 -4553.103515625 6048.9375 -4553.21435546875 C 6048.98388671875 -4553.32275390625 6049.0302734375 -4553.43212890625 6049.0771484375 -4553.5419921875 L 6049.16845703125 -4553.75732421875 C 6049.330078125 -4554.13671875 6049.53076171875 -4554.60791015625 6049.72509765625 -4555.05029296875 C 6049.7578125 -4555.12451171875 6049.83642578125 -4555.2490234375 6049.99609375 -4555.2490234375 C 6050.060546875 -4555.2490234375 6050.12890625 -4555.2255859375 6050.193359375 -4555.181640625 C 6050.20361328125 -4555.17431640625 6050.2431640625 -4555.14697265625 6050.29345703125 -4555.033203125 C 6050.59619140625 -4554.33740234375 6050.90087890625 -4553.62109375 6051.19580078125 -4552.92822265625 L 6051.32568359375 -4552.62353515625 L 6051.5615234375 -4552.0703125 L 6052.16064453125 -4552.01904296875 C 6052.84033203125 -4551.96142578125 6053.5693359375 -4551.89453125 6054.388671875 -4551.81494140625 C 6054.42041015625 -4551.8115234375 6054.45166015625 -4551.80908203125 6054.48291015625 -4551.806640625 C 6054.50146484375 -4551.80517578125 6054.52001953125 -4551.80419921875 6054.5380859375 -4551.80224609375 L 6054.54833984375 -4551.80126953125 L 6054.55810546875 -4551.80029296875 C 6054.66552734375 -4551.7919921875 6054.74853515625 -4551.78466796875 6054.83349609375 -4551.7734375 C 6054.859375 -4551.77001953125 6054.92822265625 -4551.76123046875 6055.00634765625 -4551.6826171875 C 6055.0087890625 -4551.67236328125 6055.01123046875 -4551.65771484375 6055.013671875 -4551.64404296875 C 6055.013671875 -4551.64208984375 6055.01416015625 -4551.6396484375 6055.01416015625 -4551.6376953125 L 6055.02099609375 -4551.5732421875 L 6055.0302734375 -4551.54052734375 L 6055.0302734375 -4551.4267578125 L 6055.0234375 -4551.38916015625 C 6055.02099609375 -4551.3759765625 6055.017578125 -4551.35986328125 6055.0146484375 -4551.3427734375 C 6055.0107421875 -4551.322265625 6055.00634765625 -4551.30078125 6055.00244140625 -4551.287109375 C 6054.951171875 -4551.24365234375 6054.90087890625 -4551.19921875 6054.849609375 -4551.1533203125 L 6054.802734375 -4551.111328125 L 6054.796875 -4551.1064453125 L 6054.79150390625 -4551.1015625 C 6054.74365234375 -4551.05810546875 6054.69580078125 -4551.01513671875 6054.64599609375 -4550.97216796875 C 6054.07275390625 -4550.474609375 6053.6796875 -4550.13134765625 6053.3291015625 -4549.82275390625 L 6053.16064453125 -4549.67529296875 C 6053.09765625 -4549.61962890625 6053.0361328125 -4549.56591796875 6052.97509765625 -4549.5126953125 L 6052.52734375 -4549.12158203125 L 6052.65673828125 -4548.54150390625 L 6052.66796875 -4548.4912109375 L 6052.66845703125 -4548.48876953125 L 6052.66943359375 -4548.486328125 L 6052.69970703125 -4548.3525390625 C 6052.8046875 -4547.89306640625 6052.91259765625 -4547.421875 6053.01806640625 -4546.95654296875 C 6053.0400390625 -4546.85693359375 6053.06396484375 -4546.75244140625 6053.087890625 -4546.6474609375 C 6053.14501953125 -4546.40234375 6053.203125 -4546.15234375 6053.25146484375 -4545.9072265625 C 6053.279296875 -4545.7646484375 6053.173828125 -4545.61767578125 6053.02099609375 -4545.5869140625 C 6053.0009765625 -4545.5830078125 6052.9833984375 -4545.5810546875 6052.9677734375 -4545.5810546875 C 6052.92919921875 -4545.5810546875 6052.86474609375 -4545.58935546875 6052.7470703125 -4545.6591796875 C 6052.49169921875 -4545.810546875 6052.2197265625 -4545.9736328125 6051.9140625 -4546.15625 C 6051.810546875 -4546.21875 6051.7041015625 -4546.28173828125 6051.59814453125 -4546.34423828125 C 6051.51708984375 -4546.392578125 6051.4365234375 -4546.4404296875 6051.357421875 -4546.48779296875 L 6051.3544921875 -4546.4892578125 L 6051.35205078125 -4546.49072265625 L 6051.23681640625 -4546.55859375 C 6051.00341796875 -4546.6962890625 6050.76171875 -4546.83837890625 6050.52880859375 -4546.98193359375 L 6050.0078125 -4547.30322265625 L 6049.48486328125 -4546.98583984375 C 6049.0888671875 -4546.7451171875 6048.6884765625 -4546.50732421875 6048.27880859375 -4546.26416015625 C 6047.9169921875 -4546.0498046875 6047.5908203125 -4545.85595703125 6047.2646484375 -4545.65869140625 C 6047.2060546875 -4545.62353515625 6047.115234375 -4545.5791015625 6047.03515625 -4545.5791015625 Z" stroke="none"/>
    <path d="M 6048.10107421875 -4547.32177734375 C 6048.3935546875 -4547.49560546875 6048.681640625 -4547.66748046875 6048.96630859375 -4547.84033203125 L 6050.01220703125 -4548.4755859375 L 6051.0537109375 -4547.8330078125 C 6051.27783203125 -4547.69482421875 6051.51513671875 -4547.5556640625 6051.744140625 -4547.42041015625 L 6051.87060546875 -4547.34619140625 C 6051.88330078125 -4547.33837890625 6051.89599609375 -4547.33056640625 6051.9091796875 -4547.32275390625 C 6051.84765625 -4547.59375 6051.78564453125 -4547.86376953125 6051.72509765625 -4548.12939453125 L 6051.6806640625 -4548.3232421875 L 6051.421875 -4549.48388671875 L 6052.3173828125 -4550.26611328125 C 6052.3779296875 -4550.31884765625 6052.43896484375 -4550.3720703125 6052.50146484375 -4550.4267578125 L 6052.66943359375 -4550.57421875 C 6052.79833984375 -4550.6875 6052.9326171875 -4550.8056640625 6053.07958984375 -4550.93408203125 C 6052.73095703125 -4550.9658203125 6052.39794921875 -4550.99560546875 6052.07568359375 -4551.02294921875 L 6050.876953125 -4551.125 L 6050.27587890625 -4552.5361328125 C 6050.1865234375 -4552.74609375 6050.0966796875 -4552.95751953125 6050.005859375 -4553.17041015625 L 6049.99755859375 -4553.15087890625 C 6049.9501953125 -4553.0400390625 6049.9033203125 -4552.92919921875 6049.8564453125 -4552.82080078125 C 6049.80908203125 -4552.708984375 6049.7607421875 -4552.59716796875 6049.712890625 -4552.48583984375 L 6049.60888671875 -4552.24365234375 L 6049.1455078125 -4551.13232421875 L 6047.72509765625 -4551.00146484375 C 6047.5859375 -4550.98974609375 6047.4462890625 -4550.9765625 6047.30712890625 -4550.9638671875 L 6047.29541015625 -4550.962890625 C 6047.19677734375 -4550.95458984375 6047.0986328125 -4550.94580078125 6047 -4550.93701171875 C 6046.97802734375 -4550.9345703125 6046.95556640625 -4550.9326171875 6046.93310546875 -4550.9306640625 C 6046.93701171875 -4550.927734375 6046.9404296875 -4550.9248046875 6046.94384765625 -4550.92138671875 C 6047.0166015625 -4550.85791015625 6047.08935546875 -4550.794921875 6047.15869140625 -4550.734375 L 6047.34521484375 -4550.57177734375 C 6047.4619140625 -4550.470703125 6047.580078125 -4550.3681640625 6047.69677734375 -4550.265625 L 6048.5986328125 -4549.474609375 L 6048.326171875 -4548.306640625 C 6048.3076171875 -4548.228515625 6048.28955078125 -4548.14990234375 6048.271484375 -4548.07080078125 L 6048.2021484375 -4547.7666015625 C 6048.16845703125 -4547.61865234375 6048.134765625 -4547.470703125 6048.10107421875 -4547.32177734375 M 6047.03515625 -4544.5791015625 C 6046.76953125 -4544.5791015625 6046.52001953125 -4544.662109375 6046.2919921875 -4544.82666015625 C 6045.875 -4545.1259765625 6045.6826171875 -4545.59521484375 6045.7744140625 -4546.0810546875 C 6045.8447265625 -4546.4462890625 6045.92919921875 -4546.8076171875 6046.0107421875 -4547.158203125 C 6046.04931640625 -4547.322265625 6046.0888671875 -4547.49169921875 6046.126953125 -4547.6572265625 C 6046.185546875 -4547.92138671875 6046.24609375 -4548.18408203125 6046.3056640625 -4548.44677734375 C 6046.330078125 -4548.552734375 6046.35400390625 -4548.6572265625 6046.37841796875 -4548.76171875 C 6046.2001953125 -4548.91796875 6046.01953125 -4549.07421875 6045.8447265625 -4549.2265625 C 6045.6357421875 -4549.4091796875 6045.4189453125 -4549.59619140625 6045.20703125 -4549.78369140625 C 6044.8759765625 -4550.076171875 6044.60546875 -4550.3125 6044.35546875 -4550.52783203125 C 6044.0849609375 -4550.76318359375 6044.02978515625 -4551.05419921875 6044 -4551.2119140625 C 6043.998046875 -4551.22509765625 6043.99609375 -4551.2373046875 6043.9931640625 -4551.2490234375 C 6043.982421875 -4551.30078125 6043.978515625 -4551.35302734375 6043.98046875 -4551.40478515625 L 6043.98046875 -4551.58935546875 C 6043.98046875 -4551.62890625 6043.984375 -4551.66943359375 6043.9912109375 -4551.7080078125 C 6044.107421875 -4552.34423828125 6044.4619140625 -4552.6826171875 6045.1083984375 -4552.77294921875 C 6045.2001953125 -4552.7861328125 6045.28759765625 -4552.79296875 6045.36474609375 -4552.79931640625 C 6045.39453125 -4552.80126953125 6045.423828125 -4552.80322265625 6045.4521484375 -4552.80615234375 C 6045.5810546875 -4552.8173828125 6045.7080078125 -4552.82958984375 6045.83544921875 -4552.8408203125 C 6046.0615234375 -4552.86181640625 6046.2958984375 -4552.88330078125 6046.5283203125 -4552.90283203125 C 6046.7265625 -4552.919921875 6046.92529296875 -4552.9384765625 6047.1240234375 -4552.95556640625 C 6047.267578125 -4552.96875 6047.412109375 -4552.98193359375 6047.5556640625 -4552.994140625 C 6047.630859375 -4553.0009765625 6047.69921875 -4553.00732421875 6047.7626953125 -4553.01318359375 L 6047.7724609375 -4553.03662109375 C 6047.85400390625 -4553.2265625 6047.9365234375 -4553.41748046875 6048.01806640625 -4553.60791015625 C 6048.095703125 -4553.78857421875 6048.171875 -4553.96923828125 6048.2490234375 -4554.14990234375 C 6048.4306640625 -4554.57666015625 6048.619140625 -4555.01904296875 6048.8095703125 -4555.45263671875 C 6049.025390625 -4555.94384765625 6049.48046875 -4556.2490234375 6049.99609375 -4556.2490234375 C 6050.263671875 -4556.2490234375 6050.52734375 -4556.1650390625 6050.7587890625 -4556.00634765625 C 6050.951171875 -4555.87353515625 6051.0986328125 -4555.6865234375 6051.208984375 -4555.43505859375 C 6051.55908203125 -4554.63037109375 6051.9072265625 -4553.81005859375 6052.24560546875 -4553.015625 C 6052.927734375 -4552.95751953125 6053.662109375 -4552.89013671875 6054.4853515625 -4552.81005859375 C 6054.5361328125 -4552.80517578125 6054.58740234375 -4552.80224609375 6054.63671875 -4552.79736328125 C 6054.7421875 -4552.7890625 6054.8505859375 -4552.77978515625 6054.96484375 -4552.7646484375 C 6055.26953125 -4552.72509765625 6055.54443359375 -4552.578125 6055.7607421875 -4552.34033203125 C 6055.94873046875 -4552.13330078125 6055.9853515625 -4551.90087890625 6056.0029296875 -4551.7890625 C 6056.00390625 -4551.7802734375 6056.005859375 -4551.77099609375 6056.0068359375 -4551.76171875 C 6056.0224609375 -4551.7060546875 6056.0302734375 -4551.6474609375 6056.0302734375 -4551.58935546875 L 6056.0302734375 -4551.38134765625 C 6056.0302734375 -4551.3203125 6056.0224609375 -4551.2607421875 6056.005859375 -4551.20263671875 C 6056.0048828125 -4551.197265625 6056.0009765625 -4551.17919921875 6055.9990234375 -4551.1650390625 C 6055.97314453125 -4551.0322265625 6055.92041015625 -4550.7529296875 6055.66015625 -4550.53369140625 C 6055.5966796875 -4550.47998046875 6055.5322265625 -4550.421875 6055.46484375 -4550.3623046875 C 6055.41015625 -4550.3125 6055.35546875 -4550.263671875 6055.298828125 -4550.21484375 C 6054.81640625 -4549.7958984375 6054.3876953125 -4549.42236328125 6053.990234375 -4549.072265625 C 6053.8662109375 -4548.9638671875 6053.748046875 -4548.85986328125 6053.6328125 -4548.75927734375 L 6053.64404296875 -4548.708984375 C 6053.7587890625 -4548.20703125 6053.87744140625 -4547.6884765625 6053.9931640625 -4547.17724609375 C 6054.015625 -4547.07568359375 6054.0390625 -4546.97412109375 6054.0625 -4546.87255859375 C 6054.12060546875 -4546.6220703125 6054.1806640625 -4546.36328125 6054.232421875 -4546.10107421875 C 6054.3671875 -4545.416015625 6053.912109375 -4544.74560546875 6053.21728515625 -4544.6064453125 C 6053.134765625 -4544.58984375 6053.05126953125 -4544.5810546875 6052.9677734375 -4544.5810546875 C 6052.72265625 -4544.5810546875 6052.48291015625 -4544.65283203125 6052.236328125 -4544.79931640625 C 6051.98046875 -4544.951171875 6051.70703125 -4545.11474609375 6051.400390625 -4545.29833984375 C 6051.2158203125 -4545.4091796875 6051.0263671875 -4545.5205078125 6050.84423828125 -4545.62939453125 C 6050.568359375 -4545.7919921875 6050.2841796875 -4545.9580078125 6050.00390625 -4546.130859375 C 6049.59765625 -4545.88427734375 6049.1875 -4545.640625 6048.7890625 -4545.404296875 C 6048.4580078125 -4545.2080078125 6048.11572265625 -4545.0048828125 6047.78271484375 -4544.80322265625 C 6047.53515625 -4544.65478515625 6047.2841796875 -4544.5791015625 6047.03515625 -4544.5791015625 Z" stroke="none" fill="#222"/>
  </g>
</svg>
