<svg xmlns="http://www.w3.org/2000/svg" xmlns:xlink="http://www.w3.org/1999/xlink" width="32" height="32" viewBox="0 0 32 32">
  <defs>
    <linearGradient id="linear-gradient" x1="0.131" y1="0.138" x2="0.762" y2="0.799" gradientUnits="objectBoundingBox">
      <stop offset="0" stop-color="#676eff"/>
      <stop offset="1" stop-color="#00a8fa"/>
    </linearGradient>
  </defs>
  <g id="다음_버튼_토글_후" data-name="다음 버튼_토글 후" transform="translate(-546.324 -741.324)">
    <circle id="타원_96" data-name="타원 96" cx="16" cy="16" r="16" transform="translate(546.324 741.324)" fill="url(#linear-gradient)"/>
    <g id="그룹_706" data-name="그룹 706" transform="translate(551.968 751.131)">
      <path id="패스_1468" data-name="패스 1468" d="M21.565,6.253h0a1.228,1.228,0,0,0-.087-.446.127.127,0,0,0-.007-.019,1.237,1.237,0,0,0-.266-.4L16.177.359A1.224,1.224,0,0,0,14.446,2.09l2.939,2.938H5.865a1.224,1.224,0,0,0,0,2.449h11.52L14.566,10.3A1.224,1.224,0,0,0,16.3,12.029L21.206,7.12a1.237,1.237,0,0,0,.266-.4l.007-.019a1.228,1.228,0,0,0,.087-.446" transform="translate(-0.853 0)" fill="#fff"/>
      <path id="패스_1469" data-name="패스 1469" d="M1.508,6.161H1.224a1.224,1.224,0,1,0,0,2.449h.283a1.224,1.224,0,0,0,0-2.449" transform="translate(0 -1.133)" fill="#fff"/>
    </g>
  </g>
</svg>
