<svg xmlns="http://www.w3.org/2000/svg" width="16" height="16" viewBox="0 0 16 16">
  <g id="그룹_965" data-name="그룹 965" transform="translate(-430 -245.063)">
    <rect id="사각형_3951" data-name="사각형 3951" width="16" height="16" transform="translate(430 245.063)" fill="none"/>
    <g id="그룹_597" data-name="그룹 597" transform="translate(433.016 247.008)">
      <path id="패스_1197" data-name="패스 1197" d="M14.536,16.479a4.265,4.265,0,0,0-2.15-3.671.966.966,0,0,0-.986-.054,4.048,4.048,0,0,1-3.767,0,.948.948,0,0,0-.958.048,4.261,4.261,0,0,0-2.167,3.63,1.661,1.661,0,0,0,1.758,1.806c1.087,0,2.174,0,3.261,0s2.195,0,3.292,0a1.652,1.652,0,0,0,1.717-1.754m-1.764.75c-1.076,0-2.153,0-3.229,0s-2.153,0-3.229,0c-.572,0-.837-.263-.8-.83A3.316,3.316,0,0,1,7,13.773a.351.351,0,0,1,.4-.034,4.914,4.914,0,0,0,4.241.007.351.351,0,0,1,.4.02,3.322,3.322,0,0,1,1.5,2.686.673.673,0,0,1-.761.777" transform="translate(-4.506 -6.189)" fill="#222"/>
      <path id="패스_1198" data-name="패스 1198" d="M10.524,3a3.011,3.011,0,1,0,3,3.022,3.014,3.014,0,0,0-3-3.022M10.5,8.018a2.007,2.007,0,1,1,2.019-2,2.012,2.012,0,0,1-2.019,2" transform="translate(-5.496 -3)" fill="#222"/>
    </g>
  </g>
</svg>
