<svg id="back_icon" xmlns="http://www.w3.org/2000/svg" width="40" height="40" viewBox="0 0 40 40">
  <rect id="사각형_3984" data-name="사각형 3984" width="40" height="40" fill="none"/>
  <path id="패스_1207" data-name="패스 1207" d="M21.311,14.679c.23.261.446.484.636.726a2.016,2.016,0,0,1-.152,2.731,1.96,1.96,0,0,1-2.726.1q-2.5-2.382-4.881-4.883a1.861,1.861,0,0,1,.062-2.655q2.4-2.481,4.886-4.88a2.019,2.019,0,0,1,2.852,2.852,14.5,14.5,0,0,1-1.422,1.194l.166.241c.2.054.4.115.6.164a11.149,11.149,0,0,1-2.488,22.005c-3.141.067-3.283.024-6.425.01a2.039,2.039,0,0,1-2.288-2.076,2.017,2.017,0,0,1,2.265-2.01c3.087-.017,3.176.027,6.262-.016A7.028,7.028,0,0,0,25.837,20.9a6.9,6.9,0,0,0-3.858-6.073,3.085,3.085,0,0,0-.447-.187c-.042-.014-.1.016-.221.039" transform="translate(1.019 1.207)" fill="#00a8fa"/>
</svg>
