<svg height="512" viewBox="0 0 60 60" width="512" xmlns="http://www.w3.org/2000/svg"><g id="Page-1" fill="none" fill-rule="evenodd"><g id="003---Letter-Copy" fill="rgb(0,0,0)" fill-rule="nonzero"><path id="Shape" d="m24.291 45.846.124-.1c1.4894957-1.2685864 3.6795043-1.2685864 5.169 0l.124.1c.2697035.2504395.6551755.3324871 1.0034915.2135927.3483161-.1188943.6031694-.4195108.6634545-.7825887.0602852-.363078-.0837431-.7299245-.374946-.955004l-.125-.107c-2.2349751-1.9034629-5.5210249-1.9034629-7.756 0l-.122.1c-.4222217.3562237-.4757237.9872783-.1195 1.4095s.9872783.4757237 1.4095.1195z"/><path id="Shape" d="m3 60h48c1.6568542 0 3-1.3431458 3-3v-23.952c-.0030185-.983716-.4851263-1.9042734-1.292-2.467l-6.708-4.645v-2.536c0-.5522847-.4477153-1-1-1s-1 .4477153-1 1v11.985l-10.914 5.454-4.148-3.511c-1.1208182-.9395302-2.7541818-.9395302-3.875 0l-4.149 3.512-10.914-5.455v-27.385c0-.55228475.4477153-1 1-1h27.53c.5522847 0 1-.44771525 1-1s-.4477153-1-1-1h-27.53c-1.65685425 0-3 1.34314575-3 3v17.936l-6.708 4.645c-.80713554.5624959-1.28932032 1.4832001-1.292 2.467v23.952c0 1.6568542 1.34314575 3 3 3zm43-31.631 5.047 3.5-5.047 2.516zm-41.033 27.277c.35684639.4212565.98755983.4736294 1.409.117l19.982-16.911c.3718303-.3121784.9141697-.3121784 1.286 0l19.98 16.91c.4226154.3416515 1.0407227.2832558 1.3918769-.1314974.3511541-.4147533.3068006-1.0340266-.0998769-1.3945026l-14.169-11.991 17.253-8.622v23.377c0 .5522847-.4477153 1-1 1h-48c-.55228475 0-1-.4477153-1-1v-23.377l17.253 8.622-14.169 11.992c-.42125645.3568464-.47362939.9875598-.117 1.409zm3.033-21.261-5.047-2.521 5.047-3.495z"/><path id="Shape" d="m14 12h18c.5522847 0 1-.4477153 1-1s-.4477153-1-1-1h-18c-.5522847 0-1 .4477153-1 1s.4477153 1 1 1z"/><path id="Shape" d="m14 16h10c.5522847 0 1-.4477153 1-1s-.4477153-1-1-1h-10c-.5522847 0-1 .4477153-1 1s.4477153 1 1 1z"/><path id="Shape" d="m40 28h-3c-.5522847 0-1 .4477153-1 1s.4477153 1 1 1h3c.5522847 0 1-.4477153 1-1s-.4477153-1-1-1z"/><path id="Shape" d="m40 32h-9c-.5522847 0-1 .4477153-1 1s.4477153 1 1 1h9c.5522847 0 1-.4477153 1-1s-.4477153-1-1-1z"/><path id="Shape" d="m21.84 21.188c-.006 0-.252.252-.257.258l-6.383 9.36c-.4662537.6838892-.4630683 1.5843245.0080125 2.2648977s1.3127128 1.0006506 2.1169875.8051023l11.009-2.669c.1179448-.032878.2302214-.0834531.333-.15l29.608-20.477c1.8144934-1.25807518 2.2685124-3.74735143 1.015-5.565l-2.276-3.29c-1.2564589-1.81699956-3.7479788-2.27142772-5.565-1.015zm20.06-11.438 4.55 6.58-18.099 12.514-4.551-6.58zm-19.618 20.866-2.282-3.299 2.415-3.541 4.032 5.83zm-5.43 1.316 1.941-2.845 1.407 2.034zm31.238-16.74-4.55-6.58 2.467-1.706 4.551 6.58zm4.5-12.837c.4363806-.30178799.9747943-.41781305 1.4967396-.32253881.5219452.09527424.9846444.39403926 1.2862604.83053881l2.275 3.289c.3021047.43645473.4183141.9751028.3230297 1.49729134-.0952844.52218855-.3942459.98507985-.8310297 1.28670866l-4.94 3.412-4.551-6.58z"/><path id="Shape" d="m14 20h5c.5522847 0 1-.4477153 1-1s-.4477153-1-1-1h-5c-.5522847 0-1 .4477153-1 1s.4477153 1 1 1z"/></g></g></svg>