<svg xmlns="http://www.w3.org/2000/svg" width="95.313" height="138.96" viewBox="0 0 95.313 138.96">
  <path id="asmo_q_left" d="M35.813-44.952v2.984H66.029v-2.984c0-10.912,4.943-16.228,14.549-22.01,12.777-7.461,21.45-16.88,21.45-32.828,0-24.621-20.518-37.118-48.5-37.118-25.367,0-46.444,12.217-46.817,40.849H39.543a13.508,13.508,0,0,1,13.8-13.43c6.9,0,12.4,4.663,12.5,11.564-.093,7.647-6.435,12.311-14.735,17.72C41.128-73.677,35.719-66.869,35.813-44.952ZM33.2-16.041A17.991,17.991,0,0,0,51.294,2.052,18.416,18.416,0,0,0,69.387-16.041,18.38,18.38,0,0,0,51.294-33.947,17.952,17.952,0,0,0,33.2-16.041Z" transform="translate(-6.715 136.908)" fill="#d9d9d9"/>
</svg>
