<svg xmlns="http://www.w3.org/2000/svg" width="139.228" height="202.983" viewBox="0 0 139.228 202.983">
  <path id="asmo_q_right" d="M52.313-65.663V-61.3H96.451v-4.359c0-15.939,7.22-23.7,21.252-32.15,18.664-10.9,31.333-24.658,31.333-47.953,0-35.965-29.971-54.22-70.84-54.22-37.055,0-67.843,17.846-68.388,59.669H57.762c.272-11.716,9.4-19.617,20.162-19.617,10.081,0,18.119,6.812,18.255,16.893-.136,11.171-9.4,17.982-21.524,25.884C60.078-107.622,52.176-97.677,52.313-65.663ZM48.5-23.432A26.281,26.281,0,0,0,74.927,3a26.9,26.9,0,0,0,26.429-26.429c-.136-14.44-12.533-26.156-26.429-26.156C60.35-49.588,48.362-37.872,48.5-23.432Z" transform="translate(-9.809 199.986)" fill="#d9d9d9"/>
</svg>
