<svg xmlns="http://www.w3.org/2000/svg" xmlns:xlink="http://www.w3.org/1999/xlink" width="226.629" height="108.531" viewBox="0 0 226.629 108.531">
  <defs>
    <linearGradient id="linear-gradient" x1="0.152" y1="0.173" x2="0.903" y2="0.904" gradientUnits="objectBoundingBox">
      <stop offset="0" stop-color="#60d5d2"/>
      <stop offset="1" stop-color="#40a6b4"/>
    </linearGradient>
  </defs>
  <g id="benefit02" transform="translate(-1413 -5373.469)">
    <g id="그룹_305" data-name="그룹 305">
      <g id="사각형_223" data-name="사각형 223" transform="translate(1413 5378)" stroke="#fff" stroke-width="3" fill="url(#linear-gradient)">
        <rect width="203" height="104" rx="10" stroke="none"/>
        <rect x="1.5" y="1.5" width="200" height="101" rx="8.5" fill="none"/>
      </g>
      <path id="패스_1252" data-name="패스 1252" d="M3.886-16.554H1.19V-2.785H9.321V-16.554H6.671v4.6H3.886Zm0,11.478V-9.7H6.671v4.627Zm7.143,6.2h2.718V-8.243h1.842V2.066h2.74V-18.373h-2.74v7.794H13.746v-7.5H11.028ZM30.39-17.317H21.2v8.625H22.91c4.4.011,6.9-.056,9.546-.674l-.292-2.224a38.623,38.623,0,0,1-8.108.674v-4.133H30.39ZM23.135-5.1H33.849v1.213H23.18V1.842H37.285V-.449h-11.3v-1.28H36.7V-7.367H23.135ZM33.826-8.2H36.7v-3.976h2.763V-14.51H36.7v-3.863H33.826ZM46.988-17c-3.223-.011-5.694,2.078-5.683,5.009-.011,2.942,2.459,5.02,5.683,5.031,3.246-.011,5.649-2.089,5.66-5.031C52.637-14.925,50.234-17.014,46.988-17ZM40.452-4.4l.337,2.336a68.826,68.826,0,0,0,12.96-.921l-.225-2.066A96.333,96.333,0,0,1,40.452-4.4Zm3.706-7.592a2.543,2.543,0,0,1,2.83-2.538,2.587,2.587,0,0,1,2.875,2.538,2.568,2.568,0,0,1-2.875,2.538A2.525,2.525,0,0,1,44.158-11.994ZM54.692,2.111h2.853V-18.373H54.692ZM76.569-16.733h-10v9.86h10ZM68.955,1.617H83.2V-.7H71.853v-4.47h-2.9ZM69.4-9.142v-5.323h4.313v5.323ZM79.781-3.818h2.875V-18.351H79.781Zm22.6-13.813H87.126v2.269h5.548c-.449,1.482-2.549,2.931-6.424,3.3l1.011,2.246c3.83-.393,6.379-1.853,7.457-3.852,1.089,2,3.684,3.459,7.524,3.852l1.033-2.246c-3.931-.371-6.053-1.808-6.491-3.3h5.593ZM85.419-6.132h18.643V-8.423H96.133V-11.1H93.3v2.673H85.419Zm2.066,3.751H98.94V2.066h2.853V-4.672H87.485ZM8.063,10.839V8.705H5.188v1.864a6.8,6.8,0,0,1-4.9,6.671l1.55,2.246a7.835,7.835,0,0,0,4.807-4.458,7.568,7.568,0,0,0,4.56,3.9L12.735,16.7C9.5,15.7,8.052,13.321,8.063,10.839ZM3.122,24.113c-.011,2.5,2.7,3.964,7.008,3.953,4.234.011,6.884-1.449,6.9-3.953-.011-2.482-2.662-3.953-6.9-3.953C5.817,20.16,3.111,21.631,3.122,24.113Zm2.875,0C5.975,23,7.446,22.406,10.13,22.406c2.65,0,4.065.6,4.065,1.707,0,1.157-1.415,1.707-4.065,1.707C7.446,25.82,5.975,25.27,6,24.113Zm7.951-4.357h2.875V14.792h2.763V12.411H16.823V7.627H13.948ZM39.127,17.2H20.484v2.269h7.884v1.752H22.641v6.626H36.9V21.216H31.221V19.464h7.906Zm-17-6.716h2.65V13.6H22.259v2.291H37.33V13.6H34.792V10.479h2.673V8.188H22.124Zm3.347,15.071V23.439H34.1v2.111ZM27.649,13.6V10.479h4.268V13.6ZM57.837,7.649h-2.9V18.521h-4v2.246h4v2.269h2.9ZM40.228,15.376l.359,2.269c1.527,0,3.268-.022,5.1-.112v3.931H43.058v6.244H58.309V25.416H45.933V21.755h2.583V17.364c1.718-.135,3.459-.337,5.144-.64l-.18-2.021c-.651.09-1.314.168-1.977.225a33.577,33.577,0,0,0,.4-5.525V8.638H42.092v2.269h6.94a39.732,39.732,0,0,1-.393,4.245C45.641,15.331,42.653,15.354,40.228,15.376Z" transform="translate(1431 5414)"/>
      <path id="패스_1254" data-name="패스 1254" d="M7.935.244c3.992,0,6.86-2.173,6.836-5.2.024-2.209-1.4-3.784-4-4.1V-9.2a3.747,3.747,0,0,0,3.345-3.735c.012-2.8-2.441-4.98-6.128-4.98-3.625,0-6.36,2.112-6.421,5.151H5.078C5.139-14.124,6.421-15,7.983-14.99a2.3,2.3,0,0,1,2.588,2.271c.012,1.392-1.208,2.344-2.954,2.344H5.981v2.71H7.617c2.075.012,3.357,1.025,3.345,2.466.012,1.428-1.245,2.4-3,2.417C6.25-2.8,4.968-3.662,4.907-4.98H1.2C1.27-1.892,4.053.244,7.935.244Zm16.284,0c4.419,0,7.1-3.271,7.1-9.082,0-5.774-2.7-9.082-7.1-9.082s-7.1,3.308-7.1,9.082S19.788.244,24.219.244ZM20.874-8.838c0-4.041,1.306-6.067,3.345-6.079,2.039.012,3.357,2.039,3.345,6.079.012,4.077-1.294,6.055-3.345,6.055S20.85-4.761,20.874-8.838ZM37.1-1.807H33.63L32.41,5.151H35ZM46.46.244c4.419,0,7.1-3.271,7.1-9.082,0-5.774-2.7-9.082-7.1-9.082s-7.1,3.308-7.1,9.082S42.029.244,46.46.244ZM43.115-8.838c0-4.041,1.306-6.067,3.345-6.079,2.039.012,3.357,2.039,3.345,6.079.012,4.077-1.294,6.055-3.345,6.055S43.091-4.761,43.115-8.838ZM62.964.244c4.419,0,7.1-3.271,7.1-9.082,0-5.774-2.7-9.082-7.1-9.082s-7.1,3.308-7.1,9.082S58.533.244,62.964.244ZM59.619-8.838c0-4.041,1.306-6.067,3.345-6.079,2.039.012,3.357,2.039,3.345,6.079.012,4.077-1.294,6.055-3.345,6.055S59.595-4.761,59.619-8.838ZM79.468.244c4.419,0,7.1-3.271,7.1-9.082,0-5.774-2.7-9.082-7.1-9.082s-7.1,3.308-7.1,9.082S75.037.244,79.468.244ZM76.123-8.838c0-4.041,1.306-6.067,3.345-6.079,2.039.012,3.357,2.039,3.345,6.079.012,4.077-1.294,6.055-3.345,6.055S76.1-4.761,76.123-8.838Z" transform="translate(1516.046 5464.482)" fill="#fff"/>
    </g>
    <g id="그룹_161" data-name="그룹 161" transform="translate(1579.563 5373.469)">
      <g id="패스_1246" data-name="패스 1246" transform="translate(0 0)" fill="#fb8c00">
        <path d="M 30.03323173522949 58.56646347045898 C 26.18061256408691 58.56646347045898 22.44402122497559 57.81225204467773 18.92727088928223 56.32479095458984 C 15.52973175048828 54.88775253295898 12.47811126708984 52.8302001953125 9.857192039489746 50.20927047729492 C 7.23626184463501 47.58834075927734 5.178701877593994 44.5367317199707 3.741671800613403 41.13919067382812 C 2.254211664199829 37.62244033813477 1.500001788139343 33.8858528137207 1.500001788139343 30.03323173522949 C 1.500001788139343 26.18061256408691 2.254211664199829 22.44402122497559 3.741671800613403 18.92727088928223 C 5.178701877593994 15.52973175048828 7.23626184463501 12.47811126708984 9.857192039489746 9.857192039489746 C 12.47811126708984 7.23626184463501 15.52973175048828 5.178701877593994 18.92727088928223 3.741671800613403 C 22.44402122497559 2.254211664199829 26.18061256408691 1.500001788139343 30.03323173522949 1.500001788139343 C 33.8858528137207 1.500001788139343 37.62244033813477 2.254211664199829 41.13919067382812 3.741671800613403 C 44.5367317199707 5.178701877593994 47.58834075927734 7.23626184463501 50.20927047729492 9.857192039489746 C 52.8302001953125 12.47811126708984 54.88775253295898 15.52973175048828 56.32479095458984 18.92727088928223 C 57.81225204467773 22.44402122497559 58.56646347045898 26.18061256408691 58.56646347045898 30.03323173522949 C 58.56646347045898 33.8858528137207 57.81225204467773 37.62244033813477 56.32479095458984 41.13919067382812 C 54.88775253295898 44.5367317199707 52.8302001953125 47.58834075927734 50.20927047729492 50.20927047729492 C 47.58834075927734 52.8302001953125 44.5367317199707 54.88775253295898 41.13919067382812 56.32479095458984 C 37.62244033813477 57.81225204467773 33.8858528137207 58.56646347045898 30.03323173522949 58.56646347045898 Z" stroke="none"/>
        <path d="M 30.03323173522949 3 C 26.38244247436523 3 22.84245300292969 3.714332580566406 19.5115966796875 5.123176574707031 C 16.29285430908203 6.484588623046875 13.40149688720703 8.434200286865234 10.91784286499023 10.91784286499023 C 8.434200286865234 13.40149688720703 6.484588623046875 16.29285430908203 5.123176574707031 19.5115966796875 C 3.714332580566406 22.84245300292969 3 26.38244247436523 3 30.03323173522949 C 3 33.68400955200195 3.714332580566406 37.2239990234375 5.123176574707031 40.55486297607422 C 6.484588623046875 43.77359771728516 8.434200286865234 46.66495513916016 10.91784286499023 49.14860916137695 C 13.40149688720703 51.63226318359375 16.29285430908203 53.58187484741211 19.5115966796875 54.94328689575195 C 22.84245300292969 56.35211944580078 26.38244247436523 57.06646347045898 30.03323173522949 57.06646347045898 C 33.68400955200195 57.06646347045898 37.2239990234375 56.35211944580078 40.55486297607422 54.94328689575195 C 43.77359771728516 53.58187484741211 46.66495513916016 51.63226318359375 49.14860916137695 49.14860916137695 C 51.63226318359375 46.66495513916016 53.58187484741211 43.77359771728516 54.94328689575195 40.55486297607422 C 56.35211944580078 37.2239990234375 57.06646347045898 33.68400955200195 57.06646347045898 30.03323173522949 C 57.06646347045898 26.38244247436523 56.35211944580078 22.84245300292969 54.94328689575195 19.5115966796875 C 53.58187484741211 16.29285430908203 51.63226318359375 13.40149688720703 49.14860916137695 10.91784286499023 C 46.66495513916016 8.434200286865234 43.77359771728516 6.484588623046875 40.55486297607422 5.123176574707031 C 37.2239990234375 3.714332580566406 33.68400955200195 3 30.03323173522949 3 M 30.03323173522949 0 C 46.62012100219727 0 60.06646347045898 13.44633102416992 60.06646347045898 30.03323173522949 C 60.06646347045898 46.62012100219727 46.62012100219727 60.06646347045898 30.03323173522949 60.06646347045898 C 13.44633102416992 60.06646347045898 0 46.62012100219727 0 30.03323173522949 C 0 13.44633102416992 13.44633102416992 0 30.03323173522949 0 Z" stroke="none" fill="#fff"/>
      </g>
      <path id="패스_1253" data-name="패스 1253" d="M-10.324.234C-6.5.234-3.9-2.215-3.9-5.648A5.326,5.326,0,0,0-9.34-11.227a4.242,4.242,0,0,0-3.4,1.43h-.141l.469-4.289h7.547v-2.883H-15.316L-16.23-7.2h3.188a2.765,2.765,0,0,1,2.672-1.43,2.935,2.935,0,0,1,3.047,3.07,2.86,2.86,0,0,1-3,3A2.549,2.549,0,0,1-13.09-4.781h-3.422C-16.453-1.852-13.863.234-10.324.234ZM15.762-19.172H12.785v3.117H8.8V-17.6H-1.324v9.75H8.8V-9.4h3.984V-6.68h2.977ZM1.137-1.969c0,2.637,2.789,4.137,7.336,4.125,4.559.012,7.348-1.488,7.359-4.125-.012-2.625-2.8-4.16-7.359-4.148C3.926-6.129,1.137-4.594,1.137-1.969Zm.516-8.25v-5.016H5.871v5.016Zm2.461,8.25c0-1.266,1.535-1.875,4.359-1.875s4.371.609,4.383,1.875C12.844-.75,11.309-.117,8.473-.117S4.113-.75,4.113-1.969ZM8.8-11.812v-1.875h3.984v1.875Z" transform="translate(29.712 38.376)"/>
    </g>
  </g>
</svg>
