<svg id="landing_top_logo" xmlns="http://www.w3.org/2000/svg" xmlns:xlink="http://www.w3.org/1999/xlink" width="157.834" height="42.533" viewBox="0 0 157.834 42.533">
  <defs>
    <clipPath id="clip-path">
      <rect id="사각형_91" data-name="사각형 91" width="157.834" height="42.533" fill="#fff"/>
    </clipPath>
    <clipPath id="clip-path-2">
      <path id="패스_1072" data-name="패스 1072" d="M0,29.077l8.242-.046C8.242,24.38,11.505,21,16,21c.178,0,.352.006.524.016,0-.008,0-.016.006-.024a7.8,7.8,0,0,1,.281-.8,16.784,16.784,0,0,1,1.078-2.044c.3-.493.637-.929.969-1.368.1-.139.2-.274.315-.419a16.329,16.329,0,0,1,1.484-1.553A16.68,16.68,0,0,1,22.031,13.7a18.187,18.187,0,0,0-6.252-1.07C6.489,12.628,0,19.392,0,29.077" transform="translate(0 -12.628)" fill="#fff"/>
    </clipPath>
    <clipPath id="clip-path-3">
      <path id="패스_1162" data-name="패스 1162" d="M49.985,34.622c0,5.147-3.063,8.472-7.8,8.472a8.021,8.021,0,0,1-2.728-.459,7.177,7.177,0,0,1,.229,1.838,7.552,7.552,0,0,1-3.194,6,16.343,16.343,0,0,0,5.693,1c9.422,0,15.513-6.615,15.513-16.85Z" transform="translate(-36.489 -34.622)" fill="#fff"/>
    </clipPath>
    <clipPath id="clip-path-4">
      <path id="패스_1230" data-name="패스 1230" d="M23.31,34.622a21.147,21.147,0,0,0,.858,6.028c.122-.036.24-.076.352-.118a10.816,10.816,0,0,0,1.635-.845,7.943,7.943,0,0,1,4.2-1.4,6.482,6.482,0,0,1,1.407.154,10.153,10.153,0,0,1-.7-3.815Z" transform="translate(-23.31 -34.622)" fill="#fff"/>
    </clipPath>
  </defs>
  <g id="그룹_96" data-name="그룹 96" transform="translate(0 0)">
    <g id="그룹_95" data-name="그룹 95" clip-path="url(#clip-path)">
      <path id="패스_979" data-name="패스 979" d="M15.779,45.793C6.341,45.793,0,39.074,0,29.077c0-9.684,6.49-16.449,15.78-16.449a18.173,18.173,0,0,1,6.252,1.07,15.316,15.316,0,0,0-2.857,2.665c-.12.145-.22.28-.315.419-.332.439-.665.875-.969,1.368A16.681,16.681,0,0,0,16.812,20.2a7.756,7.756,0,0,0-.282.8l-.006.024C16.353,21.01,16.178,21,16,21c-4.5,0-7.759,3.377-7.759,8.027,0,4.964,3.208,8.431,7.805,8.431a9.342,9.342,0,0,0,1.182-.074,10.144,10.144,0,0,0,1.128-.21,8.626,8.626,0,0,0,.927-.289,12.558,12.558,0,0,0,1.949-.993,5.911,5.911,0,0,1,3.107-1.11c2.308,0,3.742,1.537,3.742,4.009,0,1.855-1.113,3.566-3.133,4.818a7.913,7.913,0,0,1-.843.429l-.255.118a13.336,13.336,0,0,1-1.633.653l-.248.078c-.531.164-1.054.312-1.615.427-.158.034-1.067.186-1.067.186-.353.059-.7.118-1.072.156a23.383,23.383,0,0,1-2.436.134" transform="translate(0 -3.26)" fill="#fff"/>
      <path id="패스_980" data-name="패스 980" d="M38.779,45.793a16.344,16.344,0,0,1-5.693-1,7.55,7.55,0,0,0,3.195-6,7.179,7.179,0,0,0-.23-1.839,8.021,8.021,0,0,0,2.728.459c4.74,0,7.8-3.325,7.8-8.472,0-5.094-3.063-8.385-7.8-8.385-4.686,0-7.715,3.291-7.715,8.385a10.143,10.143,0,0,0,.7,3.816,6.4,6.4,0,0,0-1.408-.154,7.939,7.939,0,0,0-4.2,1.4,10.88,10.88,0,0,1-1.635.844c-.112.042-.23.082-.352.118a21.125,21.125,0,0,1-.859-6.028,19.516,19.516,0,0,1,1.52-7.871,14.336,14.336,0,0,1,.932-1.771,13.534,13.534,0,0,1,.786-1.1c.164-.231.238-.335.317-.433a12.724,12.724,0,0,1,1.243-1.3,12.991,12.991,0,0,1,1.529-1.212l.643-.437a16.36,16.36,0,0,1,8.5-2.185c9.568,0,15.513,6.252,15.513,16.315,0,10.235-6.09,16.85-15.513,16.85" transform="translate(-6.019 -3.26)" fill="#fff"/>
      <path id="패스_981" data-name="패스 981" d="M21.39,3.777A3.777,3.777,0,1,1,17.614,0,3.776,3.776,0,0,1,21.39,3.777" transform="translate(-3.573 0)" fill="#fff"/>
      <path id="패스_982" data-name="패스 982" d="M46.654,3.777A3.777,3.777,0,1,1,42.878,0a3.776,3.776,0,0,1,3.777,3.777" transform="translate(-10.096 0)" fill="#fff"/>
    </g>
  </g>
  <g id="그룹_98" data-name="그룹 98" transform="translate(0 9.368)">
    <g id="그룹_97" data-name="그룹 97" clip-path="url(#clip-path-2)">
      <path id="패스_983" data-name="패스 983" d="M0,25.528l3.647,6.879H0Z" transform="translate(0 -15.959)" fill="#fff"/>
      <path id="패스_984" data-name="패스 984" d="M0,24.8l3.933,7.42H3.647L0,25.34Z" transform="translate(0 -15.77)" fill="#fff"/>
      <path id="패스_985" data-name="패스 985" d="M0,24.07l4.22,7.961H3.933L0,24.611Z" transform="translate(0 -15.582)" fill="#fff"/>
      <path id="패스_986" data-name="패스 986" d="M0,23.341l4.506,8.5H4.22L0,23.882Z" transform="translate(0 -15.394)" fill="#fff"/>
      <path id="패스_987" data-name="패스 987" d="M0,22.612l4.794,9.043H4.506L0,23.153Z" transform="translate(0 -15.206)" fill="#fff"/>
      <path id="패스_988" data-name="패스 988" d="M0,21.883l5.08,9.583H4.794L0,22.424Z" transform="translate(0 -15.018)" fill="#fff"/>
      <path id="패스_989" data-name="패스 989" d="M0,21.154,5.366,31.278H5.08L0,21.7Z" transform="translate(0 -14.829)" fill="#fff"/>
      <path id="패스_990" data-name="패스 990" d="M0,20.425,5.653,31.089H5.366L0,20.966Z" transform="translate(0 -14.641)" fill="#fff"/>
      <path id="패스_991" data-name="패스 991" d="M0,19.7,5.94,30.9H5.653L0,20.237Z" transform="translate(0 -14.453)" fill="#fff"/>
      <path id="패스_992" data-name="패스 992" d="M0,18.968,6.226,30.713H5.94L0,19.508Z" transform="translate(0 -14.265)" fill="#fff"/>
      <path id="패스_993" data-name="패스 993" d="M0,18.239,6.513,30.525H6.226L0,18.779Z" transform="translate(0 -14.077)" fill="#fff"/>
      <path id="패스_994" data-name="패스 994" d="M0,17.51,6.8,30.337H6.513L0,18.05Z" transform="translate(0 -13.888)" fill="#fff"/>
      <path id="패스_995" data-name="패스 995" d="M0,16.781,7.086,30.149H6.8L0,17.322Z" transform="translate(0 -13.7)" fill="#fff"/>
      <path id="패스_996" data-name="패스 996" d="M0,16.052,7.373,29.961H7.086L0,16.593Z" transform="translate(0 -13.512)" fill="#fff"/>
      <path id="패스_997" data-name="패스 997" d="M0,15.323l7.659,14.45H7.373L0,15.864Z" transform="translate(0 -13.324)" fill="#fff"/>
      <path id="패스_998" data-name="패스 998" d="M0,14.594l7.946,14.99H7.659L0,15.135Z" transform="translate(0 -13.136)" fill="#fff"/>
      <path id="패스_999" data-name="패스 999" d="M0,13.865,8.233,29.4H7.946L0,14.406Z" transform="translate(0 -12.947)" fill="#fff"/>
      <path id="패스_1000" data-name="패스 1000" d="M0,13.738l.2-.1,8.323,15.7H8.233L0,13.806Z" transform="translate(0 -12.888)" fill="#fff"/>
      <path id="패스_1001" data-name="패스 1001" d="M.264,13.593l.224-.119,8.386,15.82H8.587Z" transform="translate(-0.068 -12.847)" fill="#fff"/>
      <path id="패스_1002" data-name="패스 1002" d="M.566,13.433l.224-.119L9.238,29.254H8.952Z" transform="translate(-0.146 -12.805)" fill="#fff"/>
      <path id="패스_1003" data-name="패스 1003" d="M.867,13.273l.224-.119L9.6,29.213H9.317Z" transform="translate(-0.224 -12.764)" fill="#fff"/>
      <path id="패스_1004" data-name="패스 1004" d="M1.169,13.114l.224-.119L9.967,29.171H9.681Z" transform="translate(-0.302 -12.723)" fill="#fff"/>
      <path id="패스_1005" data-name="패스 1005" d="M1.471,12.954l.224-.119,8.638,16.3h-.287Z" transform="translate(-0.38 -12.681)" fill="#fff"/>
      <path id="패스_1006" data-name="패스 1006" d="M1.772,12.794,2,12.675l8.7,16.414H10.41Z" transform="translate(-0.458 -12.64)" fill="#fff"/>
      <path id="패스_1007" data-name="패스 1007" d="M2.074,12.663l.067-.036h.2l8.719,16.449h-.286Z" transform="translate(-0.535 -12.628)" fill="#fff"/>
      <path id="패스_1008" data-name="패스 1008" d="M2.722,12.628l8.719,16.449h-.286L2.435,12.628Z" transform="translate(-0.629 -12.628)" fill="#fff"/>
      <path id="패스_1009" data-name="패스 1009" d="M3.108,12.628l8.719,16.449h-.286L2.822,12.628Z" transform="translate(-0.729 -12.628)" fill="#fff"/>
      <path id="패스_1010" data-name="패스 1010" d="M3.494,12.628l8.719,16.449h-.286L3.208,12.628Z" transform="translate(-0.828 -12.628)" fill="#fff"/>
      <path id="패스_1011" data-name="패스 1011" d="M3.881,12.628,12.6,29.076h-.286L3.595,12.628Z" transform="translate(-0.928 -12.628)" fill="#fff"/>
      <path id="패스_1012" data-name="패스 1012" d="M4.267,12.628l8.719,16.449H12.7L3.981,12.628Z" transform="translate(-1.028 -12.628)" fill="#fff"/>
      <path id="패스_1013" data-name="패스 1013" d="M4.654,12.628l8.719,16.449h-.286L4.367,12.628Z" transform="translate(-1.128 -12.628)" fill="#fff"/>
      <path id="패스_1014" data-name="패스 1014" d="M5.04,12.628l8.719,16.449h-.286L4.754,12.628Z" transform="translate(-1.227 -12.628)" fill="#fff"/>
      <path id="패스_1015" data-name="패스 1015" d="M5.426,12.628l8.719,16.449h-.286L5.14,12.628Z" transform="translate(-1.327 -12.628)" fill="#fff"/>
      <path id="패스_1016" data-name="패스 1016" d="M5.813,12.628,14.518,29.05l-.051.027h-.221L5.526,12.628Z" transform="translate(-1.427 -12.628)" fill="#fff"/>
      <path id="패스_1017" data-name="패스 1017" d="M6.2,12.628l8.642,16.3-.224.119-8.7-16.422Z" transform="translate(-1.527 -12.628)" fill="#fff"/>
      <path id="패스_1018" data-name="패스 1018" d="M6.586,12.628l8.579,16.185-.223.119L6.3,12.628Z" transform="translate(-1.626 -12.628)" fill="#fff"/>
      <path id="패스_1019" data-name="패스 1019" d="M6.972,12.628l8.517,16.066-.224.119L6.686,12.628Z" transform="translate(-1.726 -12.628)" fill="#fff"/>
      <path id="패스_1020" data-name="패스 1020" d="M7.358,12.628l8.454,15.947-.224.119L7.072,12.628Z" transform="translate(-1.826 -12.628)" fill="#fff"/>
      <path id="패스_1021" data-name="패스 1021" d="M7.745,12.628l8.391,15.829-.224.118L7.458,12.628Z" transform="translate(-1.926 -12.628)" fill="#fff"/>
      <path id="패스_1022" data-name="패스 1022" d="M8.131,12.628l8.327,15.711-.223.119L7.845,12.628Z" transform="translate(-2.025 -12.628)" fill="#fff"/>
      <path id="패스_1023" data-name="패스 1023" d="M8.517,12.628,16.783,28.22l-.224.119L8.231,12.628Z" transform="translate(-2.125 -12.628)" fill="#fff"/>
      <path id="패스_1024" data-name="패스 1024" d="M8.9,12.628l8.2,15.473-.224.119L8.617,12.628Z" transform="translate(-2.225 -12.628)" fill="#fff"/>
      <path id="패스_1025" data-name="패스 1025" d="M9.29,12.628l8.139,15.355-.224.119L9,12.628Z" transform="translate(-2.325 -12.628)" fill="#fff"/>
      <path id="패스_1026" data-name="패스 1026" d="M9.677,12.628l8.076,15.236-.223.119L9.39,12.628Z" transform="translate(-2.425 -12.628)" fill="#fff"/>
      <path id="패스_1027" data-name="패스 1027" d="M10.063,12.628l8.014,15.117-.224.119L9.777,12.628Z" transform="translate(-2.524 -12.628)" fill="#fff"/>
      <path id="패스_1028" data-name="패스 1028" d="M10.449,12.628l7.951,15-.224.119L10.163,12.628Z" transform="translate(-2.624 -12.628)" fill="#fff"/>
      <path id="패스_1029" data-name="패스 1029" d="M10.836,12.628l7.888,14.88-.224.119-7.95-15Z" transform="translate(-2.724 -12.628)" fill="#fff"/>
      <path id="패스_1030" data-name="패스 1030" d="M11.222,12.628l7.825,14.762-.223.118-7.888-14.88Z" transform="translate(-2.824 -12.628)" fill="#fff"/>
      <path id="패스_1031" data-name="패스 1031" d="M11.608,12.628l7.762,14.643-.224.119L11.322,12.628Z" transform="translate(-2.923 -12.628)" fill="#fff"/>
      <path id="패스_1032" data-name="패스 1032" d="M11.995,12.628l7.7,14.524-.224.119L11.708,12.628Z" transform="translate(-3.023 -12.628)" fill="#fff"/>
      <path id="패스_1033" data-name="패스 1033" d="M12.381,12.628l7.636,14.406-.224.119-7.7-14.524Z" transform="translate(-3.123 -12.628)" fill="#fff"/>
      <path id="패스_1034" data-name="패스 1034" d="M12.768,12.628l7.573,14.287-.223.119L12.481,12.628Z" transform="translate(-3.223 -12.628)" fill="#fff"/>
      <path id="패스_1035" data-name="패스 1035" d="M13.154,12.628,20.665,26.8l-.224.119L12.868,12.628Z" transform="translate(-3.322 -12.628)" fill="#fff"/>
      <path id="패스_1036" data-name="패스 1036" d="M13.54,12.628l7.448,14.05-.224.119-7.51-14.168Z" transform="translate(-3.422 -12.628)" fill="#fff"/>
      <path id="패스_1037" data-name="패스 1037" d="M13.927,12.628l7.385,13.931-.224.119L13.64,12.628Z" transform="translate(-3.522 -12.628)" fill="#fff"/>
      <path id="패스_1038" data-name="패스 1038" d="M14.313,12.628,21.635,26.44l-.223.119L14.027,12.628Z" transform="translate(-3.622 -12.628)" fill="#fff"/>
      <path id="패스_1039" data-name="패스 1039" d="M14.7,12.628l7.259,13.694-.224.118L14.413,12.628Z" transform="translate(-3.721 -12.628)" fill="#fff"/>
      <path id="패스_1040" data-name="패스 1040" d="M15.086,12.628l7.2,13.576-.224.119L14.8,12.628Z" transform="translate(-3.821 -12.628)" fill="#fff"/>
      <path id="패스_1041" data-name="패스 1041" d="M15.472,12.628l7.133,13.457-.224.119-7.2-13.576Z" transform="translate(-3.921 -12.628)" fill="#fff"/>
      <path id="패스_1042" data-name="패스 1042" d="M15.859,12.628l7.07,13.338-.223.119L15.572,12.628Z" transform="translate(-4.021 -12.628)" fill="#fff"/>
      <path id="패스_1043" data-name="패스 1043" d="M16.245,12.628l7.008,13.22-.224.119-7.07-13.338Z" transform="translate(-4.12 -12.628)" fill="#fff"/>
      <path id="패스_1044" data-name="패스 1044" d="M16.631,12.628l6.945,13.1-.224.119-7.007-13.22Z" transform="translate(-4.22 -12.628)" fill="#fff"/>
      <path id="패스_1045" data-name="패스 1045" d="M17.018,12.628,23.9,25.61l-.224.119-6.944-13.1Z" transform="translate(-4.32 -12.628)" fill="#fff"/>
      <path id="패스_1046" data-name="패스 1046" d="M17.4,12.628l6.819,12.864L24,25.61,17.118,12.628Z" transform="translate(-4.42 -12.628)" fill="#fff"/>
      <path id="패스_1047" data-name="패스 1047" d="M17.791,12.628l6.756,12.746-.224.118L17.5,12.628Z" transform="translate(-4.52 -12.628)" fill="#fff"/>
      <path id="패스_1048" data-name="패스 1048" d="M18.177,12.628,24.87,25.255l-.224.119L17.89,12.628Z" transform="translate(-4.619 -12.628)" fill="#fff"/>
      <path id="패스_1049" data-name="패스 1049" d="M18.563,12.628l6.63,12.508-.224.119L18.277,12.628Z" transform="translate(-4.719 -12.628)" fill="#fff"/>
      <path id="패스_1050" data-name="패스 1050" d="M18.95,12.628l6.567,12.39-.223.119-6.63-12.508Z" transform="translate(-4.819 -12.628)" fill="#fff"/>
      <path id="패스_1051" data-name="패스 1051" d="M19.336,12.628l6.5,12.271-.224.119L19.05,12.628Z" transform="translate(-4.919 -12.628)" fill="#fff"/>
      <path id="패스_1052" data-name="패스 1052" d="M19.722,12.628,26.164,24.78l-.224.119-6.5-12.271Z" transform="translate(-5.018 -12.628)" fill="#fff"/>
      <path id="패스_1053" data-name="패스 1053" d="M20.109,12.628l6.379,12.033-.224.119L19.822,12.628Z" transform="translate(-5.118 -12.628)" fill="#fff"/>
      <path id="패스_1054" data-name="패스 1054" d="M20.5,12.628l6.316,11.915-.223.119L20.209,12.628Z" transform="translate(-5.218 -12.628)" fill="#fff"/>
      <path id="패스_1055" data-name="패스 1055" d="M20.882,12.628l6.253,11.8-.224.119L20.6,12.628Z" transform="translate(-5.318 -12.628)" fill="#fff"/>
      <path id="패스_1056" data-name="패스 1056" d="M21.268,12.628l6.181,11.661v.022l-.215.113-6.253-11.8Z" transform="translate(-5.417 -12.628)" fill="#fff"/>
      <path id="패스_1057" data-name="패스 1057" d="M21.654,12.628l5.894,11.12v.541L21.368,12.628Z" transform="translate(-5.517 -12.628)" fill="#fff"/>
      <path id="패스_1058" data-name="패스 1058" d="M22.041,12.628l5.608,10.58v.541l-5.894-11.12Z" transform="translate(-5.617 -12.628)" fill="#fff"/>
      <path id="패스_1059" data-name="패스 1059" d="M22.427,12.628l5.322,10.039v.541l-5.608-10.58Z" transform="translate(-5.717 -12.628)" fill="#fff"/>
      <path id="패스_1060" data-name="패스 1060" d="M22.813,12.628l5.035,9.5v.541L22.527,12.628Z" transform="translate(-5.816 -12.628)" fill="#fff"/>
      <path id="패스_1061" data-name="패스 1061" d="M23.2,12.628l4.748,8.957v.541l-5.035-9.5Z" transform="translate(-5.916 -12.628)" fill="#fff"/>
      <path id="패스_1062" data-name="패스 1062" d="M23.586,12.628l4.461,8.416v.541L23.3,12.628Z" transform="translate(-6.016 -12.628)" fill="#fff"/>
      <path id="패스_1063" data-name="패스 1063" d="M23.973,12.628,28.147,20.5v.541l-4.461-8.416Z" transform="translate(-6.116 -12.628)" fill="#fff"/>
      <path id="패스_1064" data-name="패스 1064" d="M24.359,12.628l3.889,7.336v.54l-4.175-7.876Z" transform="translate(-6.216 -12.628)" fill="#fff"/>
      <path id="패스_1065" data-name="패스 1065" d="M24.745,12.628l3.6,6.795v.541l-3.888-7.336Z" transform="translate(-6.315 -12.628)" fill="#fff"/>
      <path id="패스_1066" data-name="패스 1066" d="M25.132,12.628l3.315,6.254v.541l-3.6-6.795Z" transform="translate(-6.415 -12.628)" fill="#fff"/>
      <path id="패스_1067" data-name="패스 1067" d="M25.518,12.628l3.029,5.713v.541l-3.315-6.254Z" transform="translate(-6.515 -12.628)" fill="#fff"/>
      <path id="패스_1068" data-name="패스 1068" d="M25.9,12.628,28.646,17.8v.541l-3.028-5.713Z" transform="translate(-6.615 -12.628)" fill="#fff"/>
      <path id="패스_1069" data-name="패스 1069" d="M26.291,12.628l2.455,4.632V17.8L26,12.628Z" transform="translate(-6.714 -12.628)" fill="#fff"/>
      <path id="패스_1070" data-name="패스 1070" d="M26.677,12.628l2.168,4.091v.541l-2.455-4.632Z" transform="translate(-6.814 -12.628)" fill="#fff"/>
      <path id="패스_1071" data-name="패스 1071" d="M28.946,16.719l-2.168-4.091h2.168Z" transform="translate(-6.914 -12.628)" fill="#fff"/>
    </g>
  </g>
  <g id="그룹_100" data-name="그룹 100" transform="translate(27.068 25.683)">
    <g id="그룹_99" data-name="그룹 99" clip-path="url(#clip-path-3)">
      <path id="패스_1073" data-name="패스 1073" d="M64.33,41.475l-2.141-6.853H64.33Z" transform="translate(-43.125 -34.622)" fill="#fff"/>
      <path id="패스_1074" data-name="패스 1074" d="M64.241,42.292l-2.4-7.67H62.1l2.141,6.853Z" transform="translate(-43.036 -34.622)" fill="#fff"/>
      <path id="패스_1075" data-name="패스 1075" d="M64.152,43.109,61.5,34.622h.256l2.4,7.67Z" transform="translate(-42.947 -34.622)" fill="#fff"/>
      <path id="패스_1076" data-name="패스 1076" d="M64.063,43.927l-2.907-9.305h.255l2.652,8.488Z" transform="translate(-42.858 -34.622)" fill="#fff"/>
      <path id="패스_1077" data-name="패스 1077" d="M63.974,44.744,60.812,34.621h.255l2.907,9.305Z" transform="translate(-42.769 -34.622)" fill="#fff"/>
      <path id="패스_1078" data-name="패스 1078" d="M63.885,45.561l-3.417-10.94h.255l3.162,10.123Z" transform="translate(-42.68 -34.622)" fill="#fff"/>
      <path id="패스_1079" data-name="패스 1079" d="M63.8,46.379,60.123,34.621h.256L63.8,45.561Z" transform="translate(-42.591 -34.622)" fill="#fff"/>
      <path id="패스_1080" data-name="패스 1080" d="M63.707,47.2,59.779,34.621h.255l3.673,11.758Z" transform="translate(-42.502 -34.622)" fill="#fff"/>
      <path id="패스_1081" data-name="패스 1081" d="M63.618,48.014,59.435,34.622h.255L63.618,47.2Z" transform="translate(-42.414 -34.622)" fill="#fff"/>
      <path id="패스_1082" data-name="패스 1082" d="M63.53,48.831,59.091,34.622h.255L63.53,48.014Z" transform="translate(-42.325 -34.622)" fill="#fff"/>
      <path id="패스_1083" data-name="패스 1083" d="M63.441,49.648,58.747,34.622H59l4.439,14.209Z" transform="translate(-42.236 -34.622)" fill="#fff"/>
      <path id="패스_1084" data-name="패스 1084" d="M63.352,50.466,58.4,34.622h.256l4.694,15.027Z" transform="translate(-42.147 -34.622)" fill="#fff"/>
      <path id="패스_1085" data-name="패스 1085" d="M63.263,51.283,58.058,34.622h.255l4.95,15.844Z" transform="translate(-42.058 -34.622)" fill="#fff"/>
      <path id="패스_1086" data-name="패스 1086" d="M62.978,51.472l-5.264-16.85h.255l5.205,16.662v.188Z" transform="translate(-41.969 -34.622)" fill="#fff"/>
      <path id="패스_1087" data-name="패스 1087" d="M62.633,51.472,57.37,34.622h.255l5.264,16.85Z" transform="translate(-41.88 -34.622)" fill="#fff"/>
      <path id="패스_1088" data-name="패스 1088" d="M62.289,51.472l-5.264-16.85h.255l5.264,16.85Z" transform="translate(-41.791 -34.622)" fill="#fff"/>
      <path id="패스_1089" data-name="패스 1089" d="M61.945,51.472l-5.264-16.85h.255L62.2,51.472Z" transform="translate(-41.703 -34.622)" fill="#fff"/>
      <path id="패스_1090" data-name="패스 1090" d="M61.6,51.472l-5.264-16.85h.255l5.264,16.85Z" transform="translate(-41.614 -34.622)" fill="#fff"/>
      <path id="패스_1091" data-name="패스 1091" d="M61.257,51.472l-5.264-16.85h.255l5.264,16.85Z" transform="translate(-41.525 -34.622)" fill="#fff"/>
      <path id="패스_1092" data-name="패스 1092" d="M60.912,51.472l-5.264-16.85H55.9l5.264,16.85Z" transform="translate(-41.436 -34.622)" fill="#fff"/>
      <path id="패스_1093" data-name="패스 1093" d="M60.568,51.472,55.3,34.622h.255l5.264,16.85Z" transform="translate(-41.347 -34.622)" fill="#fff"/>
      <path id="패스_1094" data-name="패스 1094" d="M60.224,51.472,54.96,34.622h.255l5.264,16.85Z" transform="translate(-41.258 -34.622)" fill="#fff"/>
      <path id="패스_1095" data-name="패스 1095" d="M59.88,51.472l-5.264-16.85h.255l5.264,16.85Z" transform="translate(-41.169 -34.622)" fill="#fff"/>
      <path id="패스_1096" data-name="패스 1096" d="M59.535,51.472l-5.264-16.85h.255l5.264,16.85Z" transform="translate(-41.08 -34.622)" fill="#fff"/>
      <path id="패스_1097" data-name="패스 1097" d="M59.191,51.472l-5.264-16.85h.255l5.264,16.85Z" transform="translate(-40.992 -34.622)" fill="#fff"/>
      <path id="패스_1098" data-name="패스 1098" d="M58.847,51.472l-5.264-16.85h.255L59.1,51.472Z" transform="translate(-40.903 -34.622)" fill="#fff"/>
      <path id="패스_1099" data-name="패스 1099" d="M58.5,51.472l-5.264-16.85h.255l5.264,16.85Z" transform="translate(-40.814 -34.622)" fill="#fff"/>
      <path id="패스_1100" data-name="패스 1100" d="M58.158,51.472l-5.264-16.85h.255l5.264,16.85Z" transform="translate(-40.725 -34.622)" fill="#fff"/>
      <path id="패스_1101" data-name="패스 1101" d="M57.814,51.472,52.55,34.622h.255l5.264,16.85Z" transform="translate(-40.636 -34.622)" fill="#fff"/>
      <path id="패스_1102" data-name="패스 1102" d="M57.47,51.472l-5.264-16.85h.255l5.264,16.85Z" transform="translate(-40.547 -34.622)" fill="#fff"/>
      <path id="패스_1103" data-name="패스 1103" d="M57.126,51.472l-5.264-16.85h.255l5.264,16.85Z" transform="translate(-40.458 -34.622)" fill="#fff"/>
      <path id="패스_1104" data-name="패스 1104" d="M56.782,51.472l-5.264-16.85h.255l5.264,16.85Z" transform="translate(-40.369 -34.622)" fill="#fff"/>
      <path id="패스_1105" data-name="패스 1105" d="M56.437,51.472l-5.264-16.85h.255l5.264,16.85Z" transform="translate(-40.28 -34.622)" fill="#fff"/>
      <path id="패스_1106" data-name="패스 1106" d="M56.093,51.472l-5.264-16.85h.255l5.264,16.85Z" transform="translate(-40.192 -34.622)" fill="#fff"/>
      <path id="패스_1107" data-name="패스 1107" d="M55.749,51.472l-5.264-16.85h.255L56,51.472Z" transform="translate(-40.103 -34.622)" fill="#fff"/>
      <path id="패스_1108" data-name="패스 1108" d="M55.4,51.472l-5.264-16.85H50.4l5.264,16.85Z" transform="translate(-40.014 -34.622)" fill="#fff"/>
      <path id="패스_1109" data-name="패스 1109" d="M55.06,51.472,49.8,34.622h.255l5.264,16.85Z" transform="translate(-39.925 -34.622)" fill="#fff"/>
      <path id="패스_1110" data-name="패스 1110" d="M54.716,51.472l-5.264-16.85h.255l5.264,16.85Z" transform="translate(-39.836 -34.622)" fill="#fff"/>
      <path id="패스_1111" data-name="패스 1111" d="M54.372,51.472l-5.264-16.85h.255l5.264,16.85Z" transform="translate(-39.747 -34.622)" fill="#fff"/>
      <path id="패스_1112" data-name="패스 1112" d="M54.028,51.472l-5.264-16.85h.255l5.264,16.85Z" transform="translate(-39.658 -34.622)" fill="#fff"/>
      <path id="패스_1113" data-name="패스 1113" d="M53.683,51.472l-5.264-16.85h.255l5.264,16.85Z" transform="translate(-39.569 -34.622)" fill="#fff"/>
      <path id="패스_1114" data-name="패스 1114" d="M53.339,51.472l-5.264-16.85h.255l5.264,16.85Z" transform="translate(-39.481 -34.622)" fill="#fff"/>
      <path id="패스_1115" data-name="패스 1115" d="M52.995,51.472l-5.264-16.85h.255l5.264,16.85Z" transform="translate(-39.392 -34.622)" fill="#fff"/>
      <path id="패스_1116" data-name="패스 1116" d="M52.651,51.472l-5.264-16.85h.255l5.264,16.85Z" transform="translate(-39.303 -34.622)" fill="#fff"/>
      <path id="패스_1117" data-name="패스 1117" d="M52.306,51.472l-5.264-16.85H47.3l5.264,16.85Z" transform="translate(-39.214 -34.622)" fill="#fff"/>
      <path id="패스_1118" data-name="패스 1118" d="M51.962,51.472,46.7,34.622h.255l5.264,16.85Z" transform="translate(-39.125 -34.622)" fill="#fff"/>
      <path id="패스_1119" data-name="패스 1119" d="M51.618,51.472l-5.264-16.85h.255l5.264,16.85Z" transform="translate(-39.036 -34.622)" fill="#fff"/>
      <path id="패스_1120" data-name="패스 1120" d="M51.274,51.472,46.01,34.622h.255l5.264,16.85Z" transform="translate(-38.947 -34.622)" fill="#fff"/>
      <path id="패스_1121" data-name="패스 1121" d="M50.93,51.472l-5.264-16.85h.255l5.264,16.85Z" transform="translate(-38.858 -34.622)" fill="#fff"/>
      <path id="패스_1122" data-name="패스 1122" d="M50.585,51.472l-5.264-16.85h.255l5.264,16.85Z" transform="translate(-38.77 -34.622)" fill="#fff"/>
      <path id="패스_1123" data-name="패스 1123" d="M50.241,51.472l-5.264-16.85h.255L50.5,51.472Z" transform="translate(-38.681 -34.622)" fill="#fff"/>
      <path id="패스_1124" data-name="패스 1124" d="M49.9,51.472l-5.264-16.85h.255l5.264,16.85Z" transform="translate(-38.592 -34.622)" fill="#fff"/>
      <path id="패스_1125" data-name="패스 1125" d="M49.554,51.472,44.293,34.633l.036-.011h.217l5.264,16.85Z" transform="translate(-38.504 -34.622)" fill="#fff"/>
      <path id="패스_1126" data-name="패스 1126" d="M49.217,51.476,43.979,34.71l.233-.073,5.26,16.839Z" transform="translate(-38.423 -34.626)" fill="#fff"/>
      <path id="패스_1127" data-name="패스 1127" d="M48.881,51.5,43.665,34.808l.233-.073L49.136,51.5Z" transform="translate(-38.342 -34.651)" fill="#fff"/>
      <path id="패스_1128" data-name="패스 1128" d="M48.545,51.526,43.352,34.906l.233-.073L48.8,51.526Z" transform="translate(-38.261 -34.676)" fill="#fff"/>
      <path id="패스_1129" data-name="패스 1129" d="M48.208,51.552,43.039,35l.232-.073,5.193,16.621Z" transform="translate(-38.18 -34.702)" fill="#fff"/>
      <path id="패스_1130" data-name="패스 1130" d="M47.872,51.577,42.725,35.1l.233-.072,5.17,16.548Z" transform="translate(-38.099 -34.727)" fill="#fff"/>
      <path id="패스_1131" data-name="패스 1131" d="M47.536,51.6,42.411,35.2l.233-.073L47.791,51.6Z" transform="translate(-38.018 -34.752)" fill="#fff"/>
      <path id="패스_1132" data-name="패스 1132" d="M47.2,51.627,42.1,35.3l.232-.073,5.124,16.4Z" transform="translate(-37.937 -34.777)" fill="#fff"/>
      <path id="패스_1133" data-name="패스 1133" d="M46.863,51.653,41.784,35.395l.233-.073,5.1,16.331Z" transform="translate(-37.856 -34.803)" fill="#fff"/>
      <path id="패스_1134" data-name="패스 1134" d="M46.527,51.678,41.471,35.493l.232-.073,5.079,16.258Z" transform="translate(-37.775 -34.828)" fill="#fff"/>
      <path id="패스_1135" data-name="패스 1135" d="M46.19,51.7,41.156,35.591l.233-.073L46.445,51.7Z" transform="translate(-37.694 -34.853)" fill="#fff"/>
      <path id="패스_1136" data-name="패스 1136" d="M45.854,51.728l-5.011-16.04.233-.073,5.033,16.113Z" transform="translate(-37.613 -34.879)" fill="#fff"/>
      <path id="패스_1137" data-name="패스 1137" d="M45.518,51.754,40.53,35.787l.232-.073,5.011,16.04Z" transform="translate(-37.532 -34.904)" fill="#fff"/>
      <path id="패스_1138" data-name="패스 1138" d="M45.181,51.779,40.216,35.885l.233-.073,4.988,15.967Z" transform="translate(-37.451 -34.929)" fill="#fff"/>
      <path id="패스_1139" data-name="패스 1139" d="M44.845,51.8,39.9,35.983l.232-.073L45.1,51.8Z" transform="translate(-37.37 -34.955)" fill="#fff"/>
      <path id="패스_1140" data-name="패스 1140" d="M44.509,51.83l-4.92-15.749.233-.073L44.764,51.83Z" transform="translate(-37.289 -34.98)" fill="#fff"/>
      <path id="패스_1141" data-name="패스 1141" d="M44.172,51.855l-4.9-15.676.233-.073,4.92,15.749Z" transform="translate(-37.208 -35.005)" fill="#fff"/>
      <path id="패스_1142" data-name="패스 1142" d="M43.836,51.88l-4.874-15.6.232-.073,4.9,15.676Z" transform="translate(-37.127 -35.03)" fill="#fff"/>
      <path id="패스_1143" data-name="패스 1143" d="M43.5,51.906,38.647,36.375l.233-.073,4.874,15.6Z" transform="translate(-37.046 -35.056)" fill="#fff"/>
      <path id="패스_1144" data-name="패스 1144" d="M43.163,51.931,38.334,36.473l.232-.073,4.852,15.531Z" transform="translate(-36.965 -35.081)" fill="#fff"/>
      <path id="패스_1145" data-name="패스 1145" d="M42.827,51.956,38.02,36.571l.233-.073,4.829,15.458Z" transform="translate(-36.884 -35.106)" fill="#fff"/>
      <path id="패스_1146" data-name="패스 1146" d="M42.491,51.981,37.707,36.669l.233-.073,4.806,15.386Z" transform="translate(-36.803 -35.132)" fill="#fff"/>
      <path id="패스_1147" data-name="패스 1147" d="M42.154,52.007l-4.761-15.24.232-.073L42.41,52.007Z" transform="translate(-36.723 -35.157)" fill="#fff"/>
      <path id="패스_1148" data-name="패스 1148" d="M41.818,52.032,37.079,36.865l.233-.073,4.761,15.24Z" transform="translate(-36.641 -35.182)" fill="#fff"/>
      <path id="패스_1149" data-name="패스 1149" d="M41.482,52.057,36.766,36.963,37,36.89l4.738,15.168Z" transform="translate(-36.561 -35.208)" fill="#fff"/>
      <path id="패스_1150" data-name="패스 1150" d="M41.155,52.083,36.489,37.147v-.095l.205-.065L41.41,52.083Z" transform="translate(-36.489 -35.233)" fill="#fff"/>
      <path id="패스_1151" data-name="패스 1151" d="M40.9,52.138,36.489,38.02V37.2l4.666,14.935Z" transform="translate(-36.489 -35.288)" fill="#fff"/>
      <path id="패스_1152" data-name="패스 1152" d="M40.644,52.423l-4.156-13.3V38.3L40.9,52.423Z" transform="translate(-36.489 -35.573)" fill="#fff"/>
      <path id="패스_1153" data-name="패스 1153" d="M40.389,52.707l-3.9-12.484v-.817l4.155,13.3Z" transform="translate(-36.489 -35.857)" fill="#fff"/>
      <path id="패스_1154" data-name="패스 1154" d="M40.133,52.992,36.489,41.325v-.817l3.9,12.484Z" transform="translate(-36.489 -36.142)" fill="#fff"/>
      <path id="패스_1155" data-name="패스 1155" d="M39.878,53.276,36.489,42.427V41.61l3.644,11.666Z" transform="translate(-36.489 -36.426)" fill="#fff"/>
      <path id="패스_1156" data-name="패스 1156" d="M39.623,53.561,36.489,43.529v-.817l3.389,10.849Z" transform="translate(-36.489 -36.711)" fill="#fff"/>
      <path id="패스_1157" data-name="패스 1157" d="M39.367,53.845l-2.878-9.214v-.817l3.133,10.031Z" transform="translate(-36.489 -36.995)" fill="#fff"/>
      <path id="패스_1158" data-name="패스 1158" d="M39.112,54.13l-2.623-8.4v-.817l2.878,9.214Z" transform="translate(-36.489 -37.28)" fill="#fff"/>
      <path id="패스_1159" data-name="패스 1159" d="M38.857,54.414l-2.368-7.58v-.817l2.623,8.4Z" transform="translate(-36.489 -37.564)" fill="#fff"/>
      <path id="패스_1160" data-name="패스 1160" d="M38.6,54.7l-2.113-6.762v-.817l2.368,7.58Z" transform="translate(-36.489 -37.849)" fill="#fff"/>
      <path id="패스_1161" data-name="패스 1161" d="M36.489,48.221,38.6,54.983H36.489Z" transform="translate(-36.489 -38.133)" fill="#fff"/>
    </g>
  </g>
  <g id="그룹_102" data-name="그룹 102" transform="translate(17.291 25.683)">
    <g id="그룹_101" data-name="그룹 101" clip-path="url(#clip-path-4)">
      <path id="패스_1163" data-name="패스 1163" d="M23.369,34.622l-.059.017v-.017Z" transform="translate(-23.31 -34.622)" fill="#fff"/>
      <path id="패스_1164" data-name="패스 1164" d="M23.716,34.622l-.406.119v-.1l.059-.017Z" transform="translate(-23.31 -34.622)" fill="#fff"/>
      <path id="패스_1165" data-name="패스 1165" d="M24.062,34.622l-.752.22v-.1l.406-.119Z" transform="translate(-23.31 -34.622)" fill="#fff"/>
      <path id="패스_1166" data-name="패스 1166" d="M24.409,34.622l-1.1.321v-.1l.752-.22Z" transform="translate(-23.31 -34.622)" fill="#fff"/>
      <path id="패스_1167" data-name="패스 1167" d="M24.756,34.622l-1.446.422v-.1l1.1-.321Z" transform="translate(-23.31 -34.622)" fill="#fff"/>
      <path id="패스_1168" data-name="패스 1168" d="M25.1,34.622l-1.792.524v-.1l1.446-.422Z" transform="translate(-23.31 -34.622)" fill="#fff"/>
      <path id="패스_1169" data-name="패스 1169" d="M25.449,34.622l-2.139.625v-.1l1.792-.524Z" transform="translate(-23.31 -34.622)" fill="#fff"/>
      <path id="패스_1170" data-name="패스 1170" d="M25.8,34.622l-2.486.726v-.1l2.139-.625Z" transform="translate(-23.31 -34.622)" fill="#fff"/>
      <path id="패스_1171" data-name="패스 1171" d="M26.143,34.622l-2.832.827v-.1l2.486-.726Z" transform="translate(-23.31 -34.622)" fill="#fff"/>
      <path id="패스_1172" data-name="패스 1172" d="M26.489,34.622l-3.179.929v-.1l2.833-.827Z" transform="translate(-23.31 -34.622)" fill="#fff"/>
      <path id="패스_1173" data-name="패스 1173" d="M26.836,34.622l-3.526,1.03v-.1l3.179-.929Z" transform="translate(-23.31 -34.622)" fill="#fff"/>
      <path id="패스_1174" data-name="패스 1174" d="M27.183,34.622,23.31,35.753v-.1l3.526-1.03Z" transform="translate(-23.31 -34.622)" fill="#fff"/>
      <path id="패스_1175" data-name="패스 1175" d="M27.529,34.622,23.31,35.854v-.1l3.873-1.131Z" transform="translate(-23.31 -34.622)" fill="#fff"/>
      <path id="패스_1176" data-name="패스 1176" d="M27.876,34.622,23.31,35.955v-.1l4.219-1.232Z" transform="translate(-23.31 -34.622)" fill="#fff"/>
      <path id="패스_1177" data-name="패스 1177" d="M28.223,34.622,23.31,36.056v-.1l4.567-1.334Z" transform="translate(-23.31 -34.622)" fill="#fff"/>
      <path id="패스_1178" data-name="패스 1178" d="M28.569,34.622,23.31,36.158v-.1l4.913-1.435Z" transform="translate(-23.31 -34.622)" fill="#fff"/>
      <path id="패스_1179" data-name="패스 1179" d="M28.916,34.622,23.31,36.259v-.1l5.259-1.536Z" transform="translate(-23.31 -34.622)" fill="#fff"/>
      <path id="패스_1180" data-name="패스 1180" d="M29.263,34.622,23.31,36.36v-.1l5.607-1.637Z" transform="translate(-23.31 -34.622)" fill="#fff"/>
      <path id="패스_1181" data-name="패스 1181" d="M29.61,34.622l-6.3,1.84v-.1l5.953-1.739Z" transform="translate(-23.31 -34.622)" fill="#fff"/>
      <path id="패스_1182" data-name="패스 1182" d="M29.956,34.622l-6.646,1.941v-.1l6.3-1.84Z" transform="translate(-23.31 -34.622)" fill="#fff"/>
      <path id="패스_1183" data-name="패스 1183" d="M30.3,34.622,23.31,36.664v-.1l6.647-1.941Z" transform="translate(-23.31 -34.622)" fill="#fff"/>
      <path id="패스_1184" data-name="패스 1184" d="M30.65,34.622,23.31,36.765v-.1L30.3,34.622Z" transform="translate(-23.31 -34.622)" fill="#fff"/>
      <path id="패스_1185" data-name="패스 1185" d="M31,34.622,23.31,36.866v-.1l7.34-2.144Z" transform="translate(-23.31 -34.622)" fill="#fff"/>
      <path id="패스_1186" data-name="패스 1186" d="M31.343,34.622,23.31,36.968v-.1L31,34.622Z" transform="translate(-23.31 -34.622)" fill="#fff"/>
      <path id="패스_1187" data-name="패스 1187" d="M31.69,34.622,23.31,37.069v-.1l8.033-2.346Z" transform="translate(-23.31 -34.622)" fill="#fff"/>
      <path id="패스_1188" data-name="패스 1188" d="M31.766,34.7,23.31,37.17v-.1l8.379-2.447h.076Z" transform="translate(-23.31 -34.622)" fill="#fff"/>
      <path id="패스_1189" data-name="패스 1189" d="M31.766,34.829,23.31,37.3v-.1l8.456-2.469Z" transform="translate(-23.31 -34.649)" fill="#fff"/>
      <path id="패스_1190" data-name="패스 1190" d="M31.766,34.966,23.31,37.435v-.1l8.456-2.47Z" transform="translate(-23.31 -34.684)" fill="#fff"/>
      <path id="패스_1191" data-name="패스 1191" d="M31.766,35.1,23.31,37.571v-.1L31.766,35Z" transform="translate(-23.31 -34.72)" fill="#fff"/>
      <path id="패스_1192" data-name="패스 1192" d="M31.766,35.239,23.31,37.708v-.1l8.456-2.47Z" transform="translate(-23.31 -34.755)" fill="#fff"/>
      <path id="패스_1193" data-name="패스 1193" d="M31.766,35.375,23.31,37.845v-.1l8.456-2.469Z" transform="translate(-23.31 -34.79)" fill="#fff"/>
      <path id="패스_1194" data-name="패스 1194" d="M31.766,35.512,23.31,37.981v-.1l8.456-2.47Z" transform="translate(-23.31 -34.825)" fill="#fff"/>
      <path id="패스_1195" data-name="패스 1195" d="M31.766,35.648,23.31,38.117v-.1l8.456-2.47Z" transform="translate(-23.31 -34.861)" fill="#fff"/>
      <path id="패스_1196" data-name="패스 1196" d="M31.766,35.785,23.31,38.254v-.1l8.456-2.47Z" transform="translate(-23.31 -34.896)" fill="#fff"/>
      <path id="패스_1197" data-name="패스 1197" d="M31.766,35.921,23.31,38.391v-.1l8.456-2.469Z" transform="translate(-23.31 -34.931)" fill="#fff"/>
      <path id="패스_1198" data-name="패스 1198" d="M31.766,36.058,23.31,38.527v-.1l8.456-2.47Z" transform="translate(-23.31 -34.966)" fill="#fff"/>
      <path id="패스_1199" data-name="패스 1199" d="M31.766,36.194,23.31,38.663v-.1l8.456-2.47Z" transform="translate(-23.31 -35.002)" fill="#fff"/>
      <path id="패스_1200" data-name="패스 1200" d="M31.766,36.331,23.31,38.8v-.1l8.456-2.469Z" transform="translate(-23.31 -35.037)" fill="#fff"/>
      <path id="패스_1201" data-name="패스 1201" d="M31.766,36.467,23.31,38.936v-.1l8.456-2.47Z" transform="translate(-23.31 -35.072)" fill="#fff"/>
      <path id="패스_1202" data-name="패스 1202" d="M31.766,36.6,23.31,39.073v-.1l8.456-2.47Z" transform="translate(-23.31 -35.107)" fill="#fff"/>
      <path id="패스_1203" data-name="패스 1203" d="M31.766,36.74,23.31,39.209v-.1l8.456-2.47Z" transform="translate(-23.31 -35.143)" fill="#fff"/>
      <path id="패스_1204" data-name="패스 1204" d="M31.766,36.877,23.31,39.346v-.1l8.456-2.469Z" transform="translate(-23.31 -35.178)" fill="#fff"/>
      <path id="패스_1205" data-name="패스 1205" d="M31.766,37.013,23.31,39.482v-.1l8.456-2.47Z" transform="translate(-23.31 -35.213)" fill="#fff"/>
      <path id="패스_1206" data-name="패스 1206" d="M31.766,37.15,23.31,39.619v-.1l8.456-2.47Z" transform="translate(-23.31 -35.248)" fill="#fff"/>
      <path id="패스_1207" data-name="패스 1207" d="M31.766,37.286,23.31,39.755v-.1l8.456-2.47Z" transform="translate(-23.31 -35.284)" fill="#fff"/>
      <path id="패스_1208" data-name="패스 1208" d="M31.766,37.423,23.31,39.892v-.1l8.456-2.469Z" transform="translate(-23.31 -35.319)" fill="#fff"/>
      <path id="패스_1209" data-name="패스 1209" d="M31.766,37.559,23.31,40.028v-.1l8.456-2.47Z" transform="translate(-23.31 -35.354)" fill="#fff"/>
      <path id="패스_1210" data-name="패스 1210" d="M31.766,37.7,23.31,40.165v-.1l8.456-2.47Z" transform="translate(-23.31 -35.389)" fill="#fff"/>
      <path id="패스_1211" data-name="패스 1211" d="M31.766,37.832,23.31,40.3v-.1l8.456-2.47Z" transform="translate(-23.31 -35.425)" fill="#fff"/>
      <path id="패스_1212" data-name="패스 1212" d="M31.766,37.969,23.31,40.438v-.1l8.456-2.469Z" transform="translate(-23.31 -35.46)" fill="#fff"/>
      <path id="패스_1213" data-name="패스 1213" d="M31.766,38.105,23.31,40.574v-.1L31.766,38Z" transform="translate(-23.31 -35.495)" fill="#fff"/>
      <path id="패스_1214" data-name="패스 1214" d="M31.766,38.242,23.31,40.711v-.1l8.456-2.47Z" transform="translate(-23.31 -35.53)" fill="#fff"/>
      <path id="패스_1215" data-name="패스 1215" d="M31.766,38.378,23.31,40.848v-.1l8.456-2.469Z" transform="translate(-23.31 -35.566)" fill="#fff"/>
      <path id="패스_1216" data-name="패스 1216" d="M31.766,38.515,23.31,40.984v-.1l8.456-2.47Z" transform="translate(-23.31 -35.601)" fill="#fff"/>
      <path id="패스_1217" data-name="패스 1217" d="M31.766,38.651,23.31,41.12v-.1l8.456-2.47Z" transform="translate(-23.31 -35.636)" fill="#fff"/>
      <path id="패스_1218" data-name="패스 1218" d="M31.766,38.788,23.31,41.257v-.1l8.456-2.47Z" transform="translate(-23.31 -35.671)" fill="#fff"/>
      <path id="패스_1219" data-name="패스 1219" d="M31.766,38.924,23.31,41.394v-.1l8.456-2.469Z" transform="translate(-23.31 -35.707)" fill="#fff"/>
      <path id="패스_1220" data-name="패스 1220" d="M31.766,39.061,23.31,41.53v-.1l8.456-2.47Z" transform="translate(-23.31 -35.742)" fill="#fff"/>
      <path id="패스_1221" data-name="패스 1221" d="M31.766,39.2,23.31,41.666v-.1l8.456-2.47Z" transform="translate(-23.31 -35.777)" fill="#fff"/>
      <path id="패스_1222" data-name="패스 1222" d="M31.766,39.334,23.31,41.8v-.1l8.456-2.47Z" transform="translate(-23.31 -35.812)" fill="#fff"/>
      <path id="패스_1223" data-name="패스 1223" d="M31.766,39.47l-8.235,2.4h-.22v-.036l8.456-2.469Z" transform="translate(-23.31 -35.848)" fill="#fff"/>
      <path id="패스_1224" data-name="패스 1224" d="M31.843,39.607l-7.888,2.3h-.347L31.843,39.5Z" transform="translate(-23.387 -35.883)" fill="#fff"/>
      <path id="패스_1225" data-name="패스 1225" d="M31.964,39.743l-7.542,2.2h-.346l7.888-2.3Z" transform="translate(-23.508 -35.918)" fill="#fff"/>
      <path id="패스_1226" data-name="패스 1226" d="M32.084,39.88l-7.2,2.1h-.346l7.542-2.2Z" transform="translate(-23.628 -35.953)" fill="#fff"/>
      <path id="패스_1227" data-name="패스 1227" d="M32.2,40.016l-6.848,2h-.347l7.2-2.1Z" transform="translate(-23.749 -35.989)" fill="#fff"/>
      <path id="패스_1228" data-name="패스 1228" d="M32.326,40.153l-6.5,1.9h-.346l6.848-2Z" transform="translate(-23.87 -36.024)" fill="#fff"/>
      <path id="패스_1229" data-name="패스 1229" d="M25.945,42.087l6.5-1.9v1.9Z" transform="translate(-23.99 -36.059)" fill="#fff"/>
    </g>
  </g>
  <g id="그룹_104" data-name="그룹 104" transform="translate(0 0)">
    <g id="그룹_103" data-name="그룹 103" clip-path="url(#clip-path)">
      <path id="패스_1231" data-name="패스 1231" d="M73.181,18.242a3.254,3.254,0,0,1,3.4-3.4,3.292,3.292,0,0,1,3.352,3.4V33.3c0,3.012,1.061,5.262,4.582,5.262,2.461,0,3.352-1.869,5.346-1.869A2.743,2.743,0,0,1,92.7,39.713c0,4.159-5.3,5.388-8.909,5.388-7.045,0-10.61-4.878-10.61-11.8Z" transform="translate(-18.895 -3.833)" fill="#fff"/>
      <path id="패스_1232" data-name="패스 1232" d="M116.83,44.295c-2.63,0-4.242-1.1-4.242-3.394,0-2.334,1.7-3.4,4.242-3.4h4.244c-.975-4.2-3.862-11.625-5.9-14-2.292,3.183-5.22,10.4-6.663,16.422-.722,3.055-1.484,4.711-3.862,4.711a3.109,3.109,0,0,1-3.436-3.4c0-2.417,1.357-6.874,3.267-11.541,2.292-5.6,6.237-14.852,10.65-14.852s8.36,9.207,10.608,14.852c1.868,4.626,3.225,8.911,3.225,11.414,0,1.91-.806,3.183-3.394,3.183Z" transform="translate(-26.134 -3.833)" fill="#fff"/>
      <path id="패스_1233" data-name="패스 1233" d="M157.854,25.9c0-3.056-1.528-4.922-4.626-4.922-3.139,0-4.922,1.655-5.007,4.667v15.53a3.394,3.394,0,0,1-6.788,0V17.8a2.983,2.983,0,0,1,3.181-3.1c1.613,0,2.419,1.1,2.76,2.588a8.907,8.907,0,0,1,6.916-3.012c6.578,0,10.4,4.285,10.4,11.84v15.1a3.216,3.216,0,0,1-3.437,3.311,3.182,3.182,0,0,1-3.394-3.311Z" transform="translate(-36.518 -3.685)" fill="#fff"/>
      <path id="패스_1234" data-name="패스 1234" d="M177.3,21.062c0-5.133,3.734-6.788,11.627-6.788,8.869,0,14.682,5.559,14.682,15.107C203.613,38.97,197.8,45,188.931,45c-6.068,0-11.627-1.19-11.627-6.408Zm6.79,14.343c0,1.868,1.526,2.588,4.709,2.588,4.71,0,7.934-3.478,7.934-8.612,0-5.049-3.181-8.319-7.892-8.319-3.777,0-4.751.68-4.751,2.674Z" transform="translate(-45.78 -3.685)" fill="#fff"/>
    </g>
  </g>
</svg>
