<svg xmlns="http://www.w3.org/2000/svg" width="36.24" height="31.931" viewBox="0 0 36.24 31.931">
  <g id="landing_sec02_icon" transform="translate(0 -2.231)">
    <path id="패스_1247" data-name="패스 1247" d="M17.274,6.195A2.835,2.835,0,1,1,14.439,3.36a2.835,2.835,0,0,1,2.835,2.835" transform="translate(-3.898 -1.129)" fill="#ef7303"/>
    <path id="패스_1248" data-name="패스 1248" d="M38.462,6.195A2.835,2.835,0,1,1,35.627,3.36a2.835,2.835,0,0,1,2.835,2.835" transform="translate(-11.016 -1.129)" fill="#ef7303"/>
    <path id="패스_1249" data-name="패스 1249" d="M11.847,38.849C4.761,38.849,0,33.8,0,26.3,0,19.029,4.871,13.95,11.847,13.95a13.644,13.644,0,0,1,4.694.8,12.385,12.385,0,0,0-1.031.835A12.243,12.243,0,0,0,14.4,16.755c-.09.109-.165.21-.237.315-.249.329-.5.656-.727,1.027a12.5,12.5,0,0,0-.809,1.535,5.9,5.9,0,0,0-.211.6l0,.018c-.129-.007-.26-.012-.392-.012a5.734,5.734,0,0,0-5.826,6.026c0,3.727,2.409,6.329,5.86,6.329a7.014,7.014,0,0,0,.888-.056,7.574,7.574,0,0,0,.847-.157,6.559,6.559,0,0,0,.7-.217,9.418,9.418,0,0,0,1.463-.745,4.441,4.441,0,0,1,2.332-.833,2.7,2.7,0,0,1,2.81,3.01,4.35,4.35,0,0,1-2.352,3.617,5.931,5.931,0,0,1-.633.322l-.192.088a10.055,10.055,0,0,1-1.226.491l-.186.058c-.4.123-.792.234-1.213.321-.119.025-.8.139-.8.139-.265.044-.527.088-.8.117a17.6,17.6,0,0,1-1.829.1" transform="translate(0 -4.687)" fill="#ef7303"/>
    <path id="패스_1250" data-name="패스 1250" d="M31.162,38.849a12.269,12.269,0,0,1-4.274-.751,5.669,5.669,0,0,0,2.4-4.5,5.379,5.379,0,0,0-.173-1.381,6.019,6.019,0,0,0,2.048.345c3.559,0,5.858-2.5,5.858-6.36,0-3.824-2.3-6.295-5.858-6.295-3.518,0-5.792,2.471-5.792,6.295a7.615,7.615,0,0,0,.527,2.865,4.832,4.832,0,0,0-1.057-.116A5.961,5.961,0,0,0,21.685,30a8.153,8.153,0,0,1-1.228.634c-.084.031-.172.061-.264.088a15.839,15.839,0,0,1-.645-4.526A14.654,14.654,0,0,1,20.69,20.29a10.809,10.809,0,0,1,.7-1.33,9.884,9.884,0,0,1,.591-.829c.123-.174.178-.252.238-.325a9.468,9.468,0,0,1,.932-.977,9.781,9.781,0,0,1,1.148-.91l.483-.328a12.284,12.284,0,0,1,6.38-1.64c7.183,0,11.645,4.694,11.645,12.248,0,7.684-4.571,12.65-11.645,12.65" transform="translate(-6.568 -4.687)" fill="#ef7303"/>
  </g>
</svg>
