<svg xmlns="http://www.w3.org/2000/svg" xmlns:xlink="http://www.w3.org/1999/xlink" width="300.393" height="60.052" viewBox="0 0 300.393 60.052">
  <defs>
    <clipPath id="clip-path">
      <rect id="사각형_21" data-name="사각형 21" width="300.393" height="60.052" fill="none"/>
    </clipPath>
  </defs>
  <g id="landing_sec02_logo" transform="translate(0 0)">
    <g id="그룹_18" data-name="그룹 18" transform="translate(0 -0.001)" clip-path="url(#clip-path)">
      <path id="패스_5" data-name="패스 5" d="M22.278,53.9C8.952,53.9,0,44.414,0,30.3,0,16.626,9.162,7.074,22.278,7.074a25.662,25.662,0,0,1,8.827,1.512,21.583,21.583,0,0,0-4.034,3.763c-.17.206-.31.394-.447.593-.467.621-.938,1.234-1.366,1.931a23.506,23.506,0,0,0-1.522,2.886,10.657,10.657,0,0,0-.4,1.131l-.007.034c-.243-.015-.488-.022-.74-.022-6.348,0-10.952,4.767-10.952,11.332,0,7.01,4.527,11.9,11.018,11.9a13.121,13.121,0,0,0,1.669-.1,14.61,14.61,0,0,0,1.593-.3,12.264,12.264,0,0,0,1.309-.409,17.812,17.812,0,0,0,2.752-1.4,8.36,8.36,0,0,1,4.385-1.566c3.26,0,5.283,2.17,5.283,5.66,0,2.619-1.57,5.036-4.421,6.8a11.074,11.074,0,0,1-1.191.606l-.361.166a19.013,19.013,0,0,1-2.307.923l-.348.108c-.751.232-1.49.441-2.282.6-.222.049-1.5.262-1.5.262-.5.086-.993.166-1.514.221a32.826,32.826,0,0,1-3.44.189" transform="translate(0 6.15)" fill="#fb8c00"/>
      <path id="패스_6" data-name="패스 6" d="M34.9,53.9a23.077,23.077,0,0,1-8.038-1.413,10.657,10.657,0,0,0,4.511-8.468,10.146,10.146,0,0,0-.323-2.6,11.291,11.291,0,0,0,3.851.649c6.692,0,11.018-4.694,11.018-11.962,0-7.191-4.326-11.837-11.018-11.837-6.617,0-10.892,4.645-10.892,11.837A14.328,14.328,0,0,0,25,35.5a9.083,9.083,0,0,0-1.989-.217,11.209,11.209,0,0,0-5.933,1.981,15.273,15.273,0,0,1-2.309,1.193c-.159.06-.325.116-.5.166A29.8,29.8,0,0,1,13.06,30.11,27.586,27.586,0,0,1,15.2,19a20.186,20.186,0,0,1,1.318-2.5,18.029,18.029,0,0,1,1.11-1.559c.232-.327.335-.475.449-.613a17.9,17.9,0,0,1,1.753-1.838,18.335,18.335,0,0,1,2.159-1.71l.908-.619a23.107,23.107,0,0,1,12-3.084c13.51,0,21.9,8.827,21.9,23.036C56.8,44.561,48.2,53.9,34.9,53.9" transform="translate(11.353 6.15)" fill="#fb8c00"/>
      <path id="패스_7" data-name="패스 7" d="M18.416,5.331A5.332,5.332,0,1,1,13.085,0a5.332,5.332,0,0,1,5.331,5.331" transform="translate(6.739 0.001)" fill="#fb8c00"/>
      <path id="패스_8" data-name="패스 8" d="M32.571,5.331A5.332,5.332,0,1,1,27.24,0a5.332,5.332,0,0,1,5.331,5.331" transform="translate(19.044 0.001)" fill="#fb8c00"/>
      <path id="패스_9" data-name="패스 9" d="M97.1,54.21c-4.3,0-6.933-1.8-6.933-5.548,0-3.813,2.774-5.55,6.933-5.55h6.935c-1.593-6.864-6.311-19-9.638-22.884-3.744,5.2-8.532,16.992-10.889,26.838-1.18,4.995-2.426,7.7-6.311,7.7-4.092,0-5.617-2.568-5.617-5.55,0-3.95,2.219-11.235,5.341-18.863C80.666,21.2,87.113,6.079,94.325,6.079s13.665,15.05,17.338,24.273c3.053,7.561,5.271,14.566,5.271,18.656,0,3.122-1.318,5.2-5.548,5.2Z" transform="translate(62.225 5.286)" fill="#fb8c00"/>
      <path id="패스_10" data-name="패스 10" d="M38.31,12.472a4.835,4.835,0,0,1,5.045-5.045,4.891,4.891,0,0,1,4.984,5.045V34.865c0,4.479,1.578,7.821,6.814,7.821,3.658,0,4.982-2.774,7.948-2.774,2.649,0,4.225,1.828,4.225,4.479,0,6.18-7.885,8.01-13.246,8.01-10.472,0-15.77-7.255-15.77-17.536Z" transform="translate(33.303 6.457)" fill="#fb8c00"/>
      <path id="패스_11" data-name="패스 11" d="M54.644,12.472a4.835,4.835,0,0,1,5.045-5.045,4.891,4.891,0,0,1,4.984,5.045V34.865c0,4.479,1.578,7.821,6.814,7.821,3.658,0,4.982-2.774,7.948-2.774,2.649,0,4.225,1.828,4.225,4.479,0,6.18-7.885,8.01-13.246,8.01-10.472,0-15.77-7.255-15.77-17.536Z" transform="translate(47.503 6.457)" fill="#fb8c00"/>
      <path id="패스_12" data-name="패스 12" d="M123.938,29.229c4.92-1.514,7.064-5.109,7.064-9.588,0-10.029-8.326-12.552-16.9-12.552-11.354,0-16.843,2.46-16.843,10.156V42.666c0,7.442,5.614,10.092,15.77,10.092,9.84,0,18.734-2.712,18.734-13.31,0-5.3-2.776-9.083-7.821-10.22m-9.335-12.8c3.974,0,7.128,1.387,7.128,5.109,0,3.785-2.587,4.29-5.425,4.29h-7.264a4.931,4.931,0,0,0-1.694.265V20.651c0-3.09,1.7-4.227,7.255-4.227m-.064,26.619c-4.227,0-7.191-1.071-7.191-4.352V33.071a4.242,4.242,0,0,0,1.694.322h7.2c2.839,0,5.677.63,5.677,4.417,0,4.1-3.785,5.234-7.38,5.234" transform="translate(84.545 6.164)" fill="#fb8c00"/>
      <path id="패스_13" data-name="패스 13" d="M117.165,29.545c0-14.192,8.451-22.456,21.256-22.456,12.868,0,21.321,8.264,21.321,22.456,0,14.255-8.453,23.213-21.321,23.213-12.8,0-21.256-8.958-21.256-23.213m32.926,0c0-7.507-4.668-12.489-11.67-12.489-6.937,0-11.543,4.982-11.543,12.489,0,7.569,4.606,12.616,11.543,12.616,7,0,11.67-5.047,11.67-12.616" transform="translate(101.853 6.164)" fill="#fb8c00"/>
      <path id="패스_14" data-name="패스 14" d="M168.921,29.229c4.922-1.514,7.066-5.109,7.066-9.588,0-10.029-8.328-12.552-16.906-12.552-11.354,0-16.842,2.46-16.842,10.156V47.018a5.047,5.047,0,0,0,10.092,0V33.392h8.894c2.839,0,5.427.63,5.427,6.057v7.569a5.047,5.047,0,0,0,10.092,0V39.449c0-5.552-2.776-9.083-7.823-10.22m-7.631-3.406h-8.96V20.651c0-3.092,1.7-4.227,7.255-4.227,3.976,0,7.128,1.387,7.128,5.109,0,3.785-2.583,4.29-5.423,4.29" transform="translate(123.65 6.164)" fill="#fb8c00"/>
    </g>
  </g>
</svg>
