<svg xmlns="http://www.w3.org/2000/svg" xmlns:xlink="http://www.w3.org/1999/xlink" width="268" height="578" viewBox="0 0 268 578">
  <defs>
    <clipPath id="clip-path">
      <rect id="사각형_227" data-name="사각형 227" width="268" height="578" transform="translate(1652 3321)" fill="#fff" stroke="#707070" stroke-width="1"/>
    </clipPath>
    <clipPath id="clip-path-2">
      <rect id="사각형_102" data-name="사각형 102" width="655.733" height="577.76" fill="#fff"/>
    </clipPath>
  </defs>
  <g id="sec05_right_bg" transform="translate(-1652 -3321)" clip-path="url(#clip-path)">
    <g id="그룹_123" data-name="그룹 123" transform="translate(1468 2584.744)" opacity="0.08">
      <g id="그룹_116" data-name="그룹 116" transform="translate(184.135 736)">
        <g id="그룹_115" data-name="그룹 115" clip-path="url(#clip-path-2)">
          <path id="패스_1240" data-name="패스 1240" d="M214.357,465.4C86.146,465.4,0,374.131,0,238.32,0,106.775,88.156,14.883,214.357,14.883c29.941,0,59.018,4.993,84.924,14.534a207.726,207.726,0,0,0-38.815,36.216c-1.624,1.975-2.984,3.8-4.283,5.694-4.506,5.968-9.037,11.875-13.158,18.578a227.963,227.963,0,0,0-14.646,27.769,104.364,104.364,0,0,0-3.822,10.884l-.085.325c-2.334-.137-4.694-.222-7.1-.222-61.079,0-105.4,45.869-105.4,109.034,0,67.431,43.586,114.514,106.024,114.514a127.038,127.038,0,0,0,16.056-1,138.787,138.787,0,0,0,15.33-2.847,119.23,119.23,0,0,0,12.585-3.933c10.225-3.907,18.493-8.789,26.47-13.483,13.286-7.84,25.581-15.082,42.2-15.082,31.36,0,50.828,20.887,50.828,54.47,0,25.2-15.107,48.442-42.552,65.448a108.475,108.475,0,0,1-11.448,5.831l-3.471,1.6a181.5,181.5,0,0,1-22.186,8.866l-3.36,1.06c-7.216,2.223-14.321,4.232-21.947,5.805-2.146.462-14.483,2.522-14.483,2.522-4.8.812-9.55,1.6-14.569,2.112a314.337,314.337,0,0,1-33.087,1.821" transform="translate(0 112.362)" fill="#fff"/>
          <path id="패스_1241" data-name="패스 1241" d="M237.6,465.4a222.147,222.147,0,0,1-77.332-13.585c28.1-21.81,43.4-50.289,43.4-81.478a97.149,97.149,0,0,0-3.121-24.982,108.9,108.9,0,0,0,37.054,6.233c64.387,0,106-45.159,106-115.078,0-69.192-41.611-113.89-106-113.89-63.661,0-104.8,44.7-104.8,113.89,0,18.741,3.249,36.319,9.541,51.828a87.679,87.679,0,0,0-19.117-2.086c-24.768,0-42.7,10.576-57.095,19.066-7.49,4.42-14.321,8.439-22.212,11.474-1.522.573-3.121,1.111-4.779,1.6a286.9,286.9,0,0,1-11.662-81.88c0-39.679,6.942-75.647,20.639-106.922a195.226,195.226,0,0,1,12.671-24.059,181.232,181.232,0,0,1,10.687-15c2.223-3.146,3.223-4.557,4.309-5.891A173.636,173.636,0,0,1,92.656,66.959a177.235,177.235,0,0,1,20.776-16.467l8.729-5.933C155.008,24.946,193.986,14.883,237.6,14.883c129.972,0,210.723,84.924,210.723,221.624,0,139.035-82.727,228.891-210.723,228.891" transform="translate(207.412 112.362)" fill="#fff"/>
          <path id="패스_1242" data-name="패스 1242" d="M118.9,51.3A51.3,51.3,0,1,1,67.607,0a51.295,51.295,0,0,1,51.3,51.3" transform="translate(123.127 0.001)" fill="#fff"/>
          <path id="패스_1243" data-name="패스 1243" d="M148.681,51.3A51.3,51.3,0,1,1,97.383,0a51.295,51.295,0,0,1,51.3,51.3" transform="translate(347.926 0.001)" fill="#fff"/>
        </g>
      </g>
    </g>
  </g>
</svg>
