<svg xmlns="http://www.w3.org/2000/svg" xmlns:xlink="http://www.w3.org/1999/xlink" width="274" height="615" viewBox="0 0 274 615">
  <defs>
    <clipPath id="clip-path">
      <rect id="사각형_228" data-name="사각형 228" width="274" height="615" transform="translate(0 3840)" fill="#fff" stroke="#707070" stroke-width="1"/>
    </clipPath>
    <clipPath id="clip-path-2">
      <rect id="사각형_102" data-name="사각형 102" width="697.674" height="614.714" fill="#fff"/>
    </clipPath>
  </defs>
  <g id="sec05_left_bg" transform="translate(0 -3840)" clip-path="url(#clip-path)">
    <g id="그룹_156" data-name="그룹 156" transform="translate(-423.674 3840.03)" opacity="0.08">
      <g id="그룹_116" data-name="그룹 116" transform="translate(0 0)">
        <g id="그룹_115" data-name="그룹 115" clip-path="url(#clip-path-2)">
          <path id="패스_1240" data-name="패스 1240" d="M228.068,494.214C91.656,494.214,0,397.109,0,252.611,0,112.652,93.794,14.883,228.068,14.883c31.856,0,62.793,5.312,90.356,15.464a221.011,221.011,0,0,0-41.3,38.533c-1.728,2.1-3.175,4.039-4.557,6.058-4.794,6.349-9.615,12.635-14,19.767a242.544,242.544,0,0,0-15.582,29.545,111.042,111.042,0,0,0-4.066,11.58l-.091.346c-2.483-.146-4.994-.236-7.559-.236-64.985,0-112.142,48.8-112.142,116.008,0,71.744,46.374,121.839,112.806,121.839a135.158,135.158,0,0,0,17.083-1.064,147.654,147.654,0,0,0,16.31-3.029,126.847,126.847,0,0,0,13.39-4.184c10.879-4.157,19.676-9.351,28.163-14.345,14.136-8.342,27.217-16.046,44.9-16.046,33.366,0,54.079,22.223,54.079,57.954,0,26.807-16.074,51.541-45.273,69.634a115.412,115.412,0,0,1-12.18,6.2l-3.693,1.7a193.1,193.1,0,0,1-23.605,9.433l-3.575,1.128c-7.677,2.365-15.237,4.5-23.351,6.176-2.283.491-15.409,2.684-15.409,2.684-5.112.864-10.161,1.7-15.5,2.247a334.447,334.447,0,0,1-35.2,1.938" transform="translate(0 120.501)" fill="#fff"/>
          <path id="패스_1241" data-name="패스 1241" d="M251.038,494.214A236.356,236.356,0,0,1,168.76,479.76c29.9-23.205,46.174-53.506,46.174-86.69a103.363,103.363,0,0,0-3.32-26.58,115.864,115.864,0,0,0,39.424,6.631c68.506,0,112.778-48.048,112.778-122.439,0-73.618-44.273-121.175-112.778-121.175-67.733,0-111.5,47.557-111.5,121.175,0,19.94,3.457,38.642,10.152,55.143a93.285,93.285,0,0,0-20.34-2.22c-26.353,0-45.428,11.252-60.746,20.285-7.969,4.7-15.237,8.978-23.633,12.208-1.619.609-3.32,1.183-5.085,1.7a305.252,305.252,0,0,1-12.408-87.117c0-42.217,7.386-80.486,21.959-113.761a207.714,207.714,0,0,1,13.481-25.6A192.821,192.821,0,0,1,74.284,95.369c2.365-3.347,3.429-4.848,4.585-6.268A184.742,184.742,0,0,1,96.825,70.29a188.572,188.572,0,0,1,22.1-17.52l9.288-6.313c34.949-20.867,76.42-31.574,122.821-31.574,138.285,0,224.2,90.356,224.2,235.8,0,147.927-88.018,243.532-224.2,243.532" transform="translate(222.435 120.501)" fill="#fff"/>
          <path id="패스_1242" data-name="패스 1242" d="M125.467,54.579A54.579,54.579,0,1,1,70.888,0a54.576,54.576,0,0,1,54.579,54.579" transform="translate(132.046 0.001)" fill="#fff"/>
          <path id="패스_1243" data-name="패스 1243" d="M155.243,54.579A54.579,54.579,0,1,1,100.664,0a54.576,54.576,0,0,1,54.579,54.579" transform="translate(373.127 0.001)" fill="#fff"/>
        </g>
      </g>
    </g>
  </g>
</svg>
