<svg xmlns="http://www.w3.org/2000/svg" xmlns:xlink="http://www.w3.org/1999/xlink" width="68" height="113" viewBox="0 0 68 113">
  <defs>
    <clipPath id="clip-path">
      <rect id="사각형_230" data-name="사각형 230" width="68" height="113" transform="translate(350.599 179.776)" fill="#fff" stroke="#707070" stroke-width="1"/>
    </clipPath>
    <clipPath id="clip-path-2">
      <rect id="사각형_102" data-name="사각형 102" width="127.759" height="112.567" fill="#fff"/>
    </clipPath>
  </defs>
  <g id="sec04_right_bg_m" transform="translate(-350.599 -179.776)" clip-path="url(#clip-path)">
    <g id="sec04_right_bg_m-2" data-name="sec04_right_bg_m" transform="translate(350.438 179.842)" opacity="0.08">
      <g id="그룹_116" data-name="그룹 116" transform="translate(0 0)">
        <g id="그룹_115" data-name="그룹 115" clip-path="url(#clip-path-2)">
          <path id="패스_1240" data-name="패스 1240" d="M41.764,102.659C16.784,102.659,0,84.877,0,58.416,0,32.787,17.176,14.883,41.764,14.883A48.15,48.15,0,0,1,58.31,17.715a40.472,40.472,0,0,0-7.563,7.056c-.316.385-.581.74-.835,1.109-.878,1.163-1.761,2.314-2.564,3.62A44.414,44.414,0,0,0,44.5,34.91a20.334,20.334,0,0,0-.745,2.121l-.017.063c-.455-.027-.915-.043-1.384-.043-11.9,0-20.536,8.937-20.536,21.243,0,13.138,8.492,22.311,20.657,22.311a24.752,24.752,0,0,0,3.128-.195,27.04,27.04,0,0,0,2.987-.555,23.23,23.23,0,0,0,2.452-.766A33.3,33.3,0,0,0,56.2,76.463c2.589-1.528,4.984-2.938,8.222-2.938,6.11,0,9.9,4.069,9.9,10.613,0,4.909-2.943,9.438-8.291,12.751a21.134,21.134,0,0,1-2.23,1.136l-.676.311a35.361,35.361,0,0,1-4.323,1.727l-.655.207c-1.406.433-2.79.825-4.276,1.131-.418.09-2.822.491-2.822.491-.936.158-1.861.312-2.838.411a61.244,61.244,0,0,1-6.447.355" transform="translate(0 9.909)" fill="#fff"/>
          <path id="패스_1241" data-name="패스 1241" d="M68.412,102.659a43.282,43.282,0,0,1-15.067-2.647c5.475-4.249,8.455-9.8,8.455-15.875a18.928,18.928,0,0,0-.608-4.867,21.217,21.217,0,0,0,7.219,1.214c12.545,0,20.652-8.8,20.652-22.421,0-13.481-8.107-22.19-20.652-22.19-12.4,0-20.419,8.709-20.419,22.19a26.852,26.852,0,0,0,1.859,10.1,17.083,17.083,0,0,0-3.725-.406c-4.826,0-8.319,2.061-11.124,3.715A28.738,28.738,0,0,1,30.676,73.7c-.3.112-.608.217-.931.311a55.9,55.9,0,0,1-2.272-15.953,51.675,51.675,0,0,1,4.021-20.832,38.037,38.037,0,0,1,2.469-4.687,35.31,35.31,0,0,1,2.082-2.922c.433-.613.628-.888.84-1.148a33.83,33.83,0,0,1,3.288-3.445,34.531,34.531,0,0,1,4.048-3.208l1.7-1.156a43.308,43.308,0,0,1,22.491-5.782c25.323,0,41.056,16.546,41.056,43.18,0,27.089-16.118,44.6-41.056,44.6" transform="translate(18.291 9.909)" fill="#fff"/>
          <path id="패스_1242" data-name="패스 1242" d="M36.3,9.995A9.995,9.995,0,1,1,26.3,0,9.994,9.994,0,0,1,36.3,9.995" transform="translate(10.858 0)" fill="#fff"/>
          <path id="패스_1243" data-name="패스 1243" d="M66.074,9.995A9.995,9.995,0,1,1,56.08,0a9.994,9.994,0,0,1,9.995,9.995" transform="translate(30.682 0)" fill="#fff"/>
        </g>
      </g>
    </g>
  </g>
</svg>
