<svg xmlns="http://www.w3.org/2000/svg" xmlns:xlink="http://www.w3.org/1999/xlink" width="77" height="120" viewBox="0 0 77 120">
  <defs>
    <clipPath id="clip-path">
      <rect id="사각형_231" data-name="사각형 231" width="77" height="120" transform="translate(0 2547)" fill="#fff" stroke="#707070" stroke-width="1"/>
    </clipPath>
    <clipPath id="clip-path-2">
      <rect id="사각형_102" data-name="사각형 102" width="135.931" height="119.767" fill="#fff"/>
    </clipPath>
  </defs>
  <g id="sec04_left_bg_m" transform="translate(0 -2547)" clip-path="url(#clip-path)">
    <g id="그룹_331" data-name="그룹 331" transform="translate(-58.599 2546.736)" opacity="0.08">
      <g id="그룹_116" data-name="그룹 116" transform="translate(0 0)">
        <g id="그룹_115" data-name="그룹 115" clip-path="url(#clip-path-2)">
          <path id="패스_1240" data-name="패스 1240" d="M44.435,108.273C17.858,108.273,0,89.354,0,61.2,0,33.932,18.274,14.883,44.435,14.883A51.23,51.23,0,0,1,62.04,17.9,43.06,43.06,0,0,0,53.993,25.4c-.337.409-.619.787-.888,1.18-.934,1.237-1.873,2.462-2.728,3.851a47.255,47.255,0,0,0-3.036,5.756,21.634,21.634,0,0,0-.792,2.256l-.018.067c-.484-.028-.973-.046-1.473-.046-12.661,0-21.849,9.508-21.849,22.6,0,13.978,9.035,23.738,21.978,23.738a26.334,26.334,0,0,0,3.328-.207,28.767,28.767,0,0,0,3.178-.59A24.713,24.713,0,0,0,54.3,83.2,35.427,35.427,0,0,0,59.791,80.4c2.754-1.625,5.3-3.126,8.748-3.126,6.5,0,10.536,4.33,10.536,11.291,0,5.223-3.132,10.042-8.821,13.567a22.485,22.485,0,0,1-2.373,1.209l-.72.331a37.622,37.622,0,0,1-4.6,1.838l-.7.22c-1.5.461-2.969.877-4.55,1.2-.445.1-3,.523-3,.523-1,.168-1.98.331-3.02.438a65.16,65.16,0,0,1-6.859.378" transform="translate(0 11.494)" fill="#fff"/>
          <path id="패스_1241" data-name="패스 1241" d="M71.031,108.273A46.05,46.05,0,0,1,55,105.457c5.826-4.521,9-10.425,9-16.89a20.139,20.139,0,0,0-.647-5.179,22.574,22.574,0,0,0,7.681,1.292C84.378,84.68,93,75.319,93,60.825c0-14.343-8.626-23.609-21.973-23.609-13.2,0-21.725,9.266-21.725,23.609a28.57,28.57,0,0,0,1.978,10.744,18.175,18.175,0,0,0-3.963-.432c-5.134,0-8.851,2.192-11.835,3.952a30.576,30.576,0,0,1-4.6,2.378c-.315.119-.647.23-.991.331a59.474,59.474,0,0,1-2.417-16.973A54.98,54.98,0,0,1,31.751,38.66a40.469,40.469,0,0,1,2.627-4.987,37.568,37.568,0,0,1,2.215-3.109c.461-.652.668-.945.893-1.221a35.994,35.994,0,0,1,3.5-3.665,36.74,36.74,0,0,1,4.307-3.413l1.81-1.23a46.078,46.078,0,0,1,23.93-6.152c26.943,0,43.682,17.6,43.682,45.942,0,28.821-17.149,47.448-43.682,47.448" transform="translate(21.218 11.494)" fill="#fff"/>
          <path id="패스_1242" data-name="패스 1242" d="M37.577,10.634A10.634,10.634,0,1,1,26.943,0,10.633,10.633,0,0,1,37.577,10.634" transform="translate(12.596 0)" fill="#fff"/>
          <path id="패스_1243" data-name="패스 1243" d="M67.353,10.634A10.634,10.634,0,1,1,56.719,0,10.633,10.633,0,0,1,67.353,10.634" transform="translate(35.592 0)" fill="#fff"/>
        </g>
      </g>
    </g>
  </g>
</svg>
