<svg xmlns="http://www.w3.org/2000/svg" xmlns:xlink="http://www.w3.org/1999/xlink" width="99" height="136" viewBox="0 0 99 136">
  <defs>
    <clipPath id="clip-path">
      <rect id="사각형_1473" data-name="사각형 1473" width="99" height="88" transform="translate(911 461)" fill="#fff" stroke="#707070" stroke-width="1"/>
    </clipPath>
    <clipPath id="clip-path-2">
      <rect id="사각형_1474" data-name="사각형 1474" width="83.003" height="42" fill="#fff"/>
    </clipPath>
  </defs>
  <g id="collabor_white" transform="translate(-911 -472)">
    <g id="마스크_그룹_7" data-name="마스크 그룹 7" transform="translate(0 11)" clip-path="url(#clip-path)">
      <path id="합치기_14" data-name="합치기 14" d="M57.465-1367.88c3.855-3.022,5.955-6.965,5.955-11.282a13.655,13.655,0,0,0-.427-3.459,14.833,14.833,0,0,0,5.084.863c8.838,0,14.549-6.254,14.549-15.935,0-9.581-5.711-15.771-14.549-15.771-8.738,0-14.384,6.189-14.384,15.771a19.217,19.217,0,0,0,1.31,7.177,12,12,0,0,0-2.626-.288,14.713,14.713,0,0,0-7.834,2.639,20.261,20.261,0,0,1-3.051,1.59c-.208.078-.427.154-.654.221a40.025,40.025,0,0,1-1.6-11.339A37.023,37.023,0,0,1,42.07-1412.5a27.01,27.01,0,0,1,1.74-3.33c.446-.732.957-1.4,1.465-2.078.307-.436.445-.63.592-.814a23.972,23.972,0,0,1,2.318-2.45,24.371,24.371,0,0,1,2.85-2.28l1.2-.822a30.29,30.29,0,0,1,15.843-4.108c17.84,0,28.922,11.758,28.922,30.687C97-1378.443,85.645-1366,68.078-1366A30.247,30.247,0,0,1,57.465-1367.88ZM7-1397.443q0-.214,0-.426c.187-17.986,12.23-30.514,29.418-30.514a33.7,33.7,0,0,1,11.4,1.923l.251.092a30.64,30.64,0,0,0-2.561,2.091,31.227,31.227,0,0,0-2.766,2.921c-.222.275-.41.526-.588.79-.617.827-1.239,1.645-1.806,2.571a31.8,31.8,0,0,0-2.01,3.846,14.889,14.889,0,0,0-.526,1.507l-.011.045c-.319-.019-.644-.03-.977-.03a15.365,15.365,0,0,0-4.14.554c-6.172,1.725-10.325,7.317-10.325,14.544,0,9.337,5.983,15.857,14.553,15.857a17.266,17.266,0,0,0,2.2-.141,19.326,19.326,0,0,0,2.1-.393,16.049,16.049,0,0,0,1.727-.544,23.386,23.386,0,0,0,3.634-1.867c1.823-1.085,3.512-2.089,5.792-2.089,4.3,0,6.977,2.892,6.977,7.543,0,3.488-2.073,6.707-5.839,9.061a14.947,14.947,0,0,1-1.572.807l-.477.223a24.888,24.888,0,0,1-3.044,1.227l-.464.148c-.989.307-1.965.584-3.01.8-.294.065-1.989.348-1.989.348-.658.113-1.31.223-2,.294a43.1,43.1,0,0,1-4.541.251C18.823-1366,7-1378.637,7-1397.443ZM61.078-1438.9a7.072,7.072,0,0,1,7.041-7.1,7.071,7.071,0,0,1,7.041,7.1,7.07,7.07,0,0,1-7.041,7.1A7.071,7.071,0,0,1,61.078-1438.9Zm-34.94,0a7.072,7.072,0,0,1,7.041-7.1,7.071,7.071,0,0,1,7.041,7.1,7.07,7.07,0,0,1-7.041,7.1A7.071,7.071,0,0,1,26.138-1438.9Z" transform="translate(908 1910)" fill="#fff" stroke="rgba(0,0,0,0)" stroke-miterlimit="10" stroke-width="1"/>
    </g>
    <g id="그룹_312" data-name="그룹 312" transform="translate(919 566)">
      <g id="그룹_311" data-name="그룹 311" transform="translate(0 0)" clip-path="url(#clip-path-2)">
        <path id="패스_897" data-name="패스 897" d="M0,2.965A2.61,2.61,0,0,1,2.722.239,2.64,2.64,0,0,1,5.409,2.965V15.057c0,2.418.85,4.224,3.673,4.224,1.973,0,2.687-1.5,4.285-1.5A2.2,2.2,0,0,1,15.647,20.2c0,3.337-4.252,4.325-7.142,4.325-5.648,0-8.5-3.916-8.5-9.469Z" transform="translate(0 0.101)" fill="#fff"/>
        <path id="패스_898" data-name="패스 898" d="M24.261,23.879c-2.108,0-3.4-.887-3.4-2.725,0-1.873,1.361-2.726,3.4-2.726h3.4c-.782-3.371-3.1-9.331-4.728-11.24C21.1,9.744,18.751,15.534,17.594,20.37c-.579,2.453-1.189,3.782-3.1,3.782a2.493,2.493,0,0,1-2.754-2.726c0-1.94,1.087-5.518,2.619-9.264C16.2,7.666,19.363.239,22.9.239s6.7,7.393,8.5,11.922c1.5,3.714,2.585,7.154,2.585,9.162,0,1.534-.646,2.556-2.721,2.556Z" transform="translate(4.925 0.101)" fill="#fff"/>
        <path id="패스_899" data-name="패스 899" d="M41.756,9.333c0-2.453-1.225-3.951-3.707-3.951-2.516,0-3.946,1.329-4.014,3.747V21.595a2.542,2.542,0,0,1-2.721,2.691,2.541,2.541,0,0,1-2.721-2.691V2.826A2.393,2.393,0,0,1,31.142.34c1.294,0,1.94.887,2.213,2.078A7.134,7.134,0,0,1,38.9,0c5.271,0,8.333,3.44,8.333,9.5V21.629a2.579,2.579,0,0,1-2.755,2.657,2.552,2.552,0,0,1-2.721-2.657Z" transform="translate(11.99 0.001)" fill="#fff"/>
        <path id="패스_900" data-name="패스 900" d="M43.621,5.45C43.621,1.329,46.614,0,52.94,0,60.05,0,64.711,4.463,64.711,12.127c0,7.7-4.661,12.535-11.771,12.535-4.863,0-9.319-.955-9.319-5.144Zm5.443,11.513c0,1.5,1.223,2.078,3.775,2.078,3.774,0,6.36-2.792,6.36-6.914,0-4.054-2.551-6.678-6.327-6.678-3.026,0-3.808.546-3.808,2.146Z" transform="translate(18.292 0.001)" fill="#fff"/>
        <path id="패스_901" data-name="패스 901" d="M4.227,26.672a.562.562,0,0,1-.237-.419.832.832,0,0,0-.325-.6,1.364,1.364,0,0,0-.847-.223,1.043,1.043,0,0,0-1.152,1.146c-.02.507-.028.995-.026,1.465s.013.942.026,1.416a1.169,1.169,0,0,0,.305.849,1.205,1.205,0,0,0,.847.267,1.278,1.278,0,0,0,.843-.227,1.038,1.038,0,0,0,.311-.7.552.552,0,0,1,.255-.415.89.89,0,0,1,.522-.168.685.685,0,0,1,.769.78,1.571,1.571,0,0,1-.193.759,1.92,1.92,0,0,1-.546.623,2.8,2.8,0,0,1-.853.419,3.793,3.793,0,0,1-1.108.154,4.593,4.593,0,0,1-1.083-.124,2.4,2.4,0,0,1-.877-.405,2.017,2.017,0,0,1-.6-.725A2.57,2.57,0,0,1,.02,29.459q-.04-1.509,0-2.911a2.478,2.478,0,0,1,.247-1.065,2.031,2.031,0,0,1,.6-.726,2.6,2.6,0,0,1,.871-.415,3.986,3.986,0,0,1,1.035-.132,3.954,3.954,0,0,1,1.108.148,2.981,2.981,0,0,1,.873.4,1.9,1.9,0,0,1,.566.593,1.394,1.394,0,0,1,.2.725.675.675,0,0,1-.768.759.865.865,0,0,1-.532-.162" transform="translate(0 10.202)" fill="#fff"/>
        <path id="패스_902" data-name="패스 902" d="M6.41,31.656a2.571,2.571,0,0,1-.945-.4,1.973,1.973,0,0,1-.627-.725A2.454,2.454,0,0,1,4.6,29.442c-.014-.473-.02-.945-.02-1.416s.006-.952.02-1.446A2.365,2.365,0,0,1,4.843,25.5a2.02,2.02,0,0,1,.63-.725,2.636,2.636,0,0,1,.947-.405,5.364,5.364,0,0,1,1.187-.124,4.716,4.716,0,0,1,1.154.134,2.728,2.728,0,0,1,.931.415,2.092,2.092,0,0,1,.639.719,2.41,2.41,0,0,1,.273,1.062c.02.473.027.957.024,1.45s-.011.964-.024,1.411a2.33,2.33,0,0,1-.247,1.066,2.037,2.037,0,0,1-.642.725,2.778,2.778,0,0,1-.945.414,4.812,4.812,0,0,1-1.162.134,5.428,5.428,0,0,1-1.2-.124m2.172-5.92a1.6,1.6,0,0,0-.975-.271,1.556,1.556,0,0,0-.989.277,1.058,1.058,0,0,0-.37.847q-.03,1.433,0,2.853a1.043,1.043,0,0,0,.37.849,1.6,1.6,0,0,0,.989.266,1.516,1.516,0,0,0,.961-.281,1.1,1.1,0,0,0,.4-.843c.033-.468.045-.934.034-1.4s-.021-.949-.034-1.45a1.03,1.03,0,0,0-.385-.844" transform="translate(1.921 10.219)" fill="#fff"/>
        <path id="패스_903" data-name="패스 903" d="M9.823,24.982a.619.619,0,0,1,.267-.553,1.058,1.058,0,0,1,.6-.178A1.1,1.1,0,0,1,11,24.3a.845.845,0,0,1,.271.132.653.653,0,0,1,.187.227.728.728,0,0,1,.068.325V30.5h2.837a.736.736,0,0,1,.578.188.657.657,0,0,1,.162.443.724.724,0,0,1-.03.2.461.461,0,0,1-.114.193.643.643,0,0,1-.226.148.971.971,0,0,1-.37.06H10.631a.9.9,0,0,1-.59-.179.612.612,0,0,1-.217-.5Z" transform="translate(4.119 10.219)" fill="#fff"/>
        <path id="패스_904" data-name="패스 904" d="M14.113,24.982a.619.619,0,0,1,.267-.553,1.058,1.058,0,0,1,.6-.178,1.1,1.1,0,0,1,.309.045.845.845,0,0,1,.271.132.653.653,0,0,1,.187.227.728.728,0,0,1,.068.325V30.5h2.837a.736.736,0,0,1,.578.188.657.657,0,0,1,.162.443.724.724,0,0,1-.03.2.461.461,0,0,1-.114.193.642.642,0,0,1-.226.148.971.971,0,0,1-.37.06H14.921a.9.9,0,0,1-.59-.179.612.612,0,0,1-.217-.5Z" transform="translate(5.918 10.219)" fill="#fff"/>
        <path id="패스_905" data-name="패스 905" d="M19.45,31.294a.626.626,0,0,1-.346.365.928.928,0,0,1-.619.05.915.915,0,0,1-.307-.158.6.6,0,0,1-.172-.227.638.638,0,0,1-.054-.256.728.728,0,0,1,.04-.247l2.138-6.048a.9.9,0,0,1,.29-.381,1.036,1.036,0,0,1,.666-.182,1.052,1.052,0,0,1,.67.182.883.883,0,0,1,.3.381l2.138,6.068a.641.641,0,0,1-.01.553.728.728,0,0,1-.443.3.843.843,0,0,1-.627-.02.7.7,0,0,1-.349-.424l-.453-1.352H19.923ZM21.9,28.7l-.788-2.358L20.328,28.7Z" transform="translate(7.528 10.202)" fill="#fff"/>
        <path id="패스_906" data-name="패스 906" d="M23.076,24.745a.428.428,0,0,1,.172-.365.756.756,0,0,1,.458-.128h2.267a5.268,5.268,0,0,1,1.033.1,2.646,2.646,0,0,1,.874.331,1.722,1.722,0,0,1,.6.606,1.81,1.81,0,0,1,.223.938,1.872,1.872,0,0,1-.227.952,1.8,1.8,0,0,1-.6.627,2.005,2.005,0,0,1,.4.206,1.442,1.442,0,0,1,.335.316,1.647,1.647,0,0,1,.231.435,1.679,1.679,0,0,1,.089.573V29.5a2.353,2.353,0,0,1-.207,1.036,1.866,1.866,0,0,1-.566.691,2.337,2.337,0,0,1-.852.384,4.489,4.489,0,0,1-1.055.119H23.884a.878.878,0,0,1-.59-.188.631.631,0,0,1-.217-.5Zm2.839,2.546A.982.982,0,0,0,27,26.255a.665.665,0,0,0-.291-.6,1.5,1.5,0,0,0-.812-.186h-1.1v1.825Zm.1,3.207a1.508,1.508,0,0,0,.9-.227.92.92,0,0,0,.317-.8V29.4a.887.887,0,0,0-.317-.735,1.4,1.4,0,0,0-.9-.252H24.791V30.5Z" transform="translate(9.677 10.22)" fill="#fff"/>
        <path id="패스_907" data-name="패스 907" d="M29.867,31.656a2.571,2.571,0,0,1-.945-.4,1.973,1.973,0,0,1-.627-.725,2.454,2.454,0,0,1-.236-1.086c-.014-.473-.02-.945-.02-1.416s.006-.952.02-1.446A2.365,2.365,0,0,1,28.3,25.5a2.02,2.02,0,0,1,.63-.725,2.636,2.636,0,0,1,.947-.405,5.364,5.364,0,0,1,1.187-.124,4.716,4.716,0,0,1,1.154.134,2.728,2.728,0,0,1,.931.415,2.092,2.092,0,0,1,.639.719,2.41,2.41,0,0,1,.273,1.062c.02.473.027.957.024,1.45s-.011.964-.024,1.411a2.33,2.33,0,0,1-.247,1.066,2.037,2.037,0,0,1-.642.725,2.778,2.778,0,0,1-.945.414,4.812,4.812,0,0,1-1.162.134,5.428,5.428,0,0,1-1.2-.124m2.172-5.92a1.6,1.6,0,0,0-.975-.271,1.556,1.556,0,0,0-.989.277,1.058,1.058,0,0,0-.37.847q-.03,1.433,0,2.853a1.043,1.043,0,0,0,.37.849,1.6,1.6,0,0,0,.989.266,1.516,1.516,0,0,0,.961-.281,1.1,1.1,0,0,0,.4-.843c.033-.468.045-.934.034-1.4s-.021-.949-.034-1.45a1.03,1.03,0,0,0-.385-.844" transform="translate(11.758 10.219)" fill="#fff"/>
        <path id="패스_908" data-name="패스 908" d="M34.976,30.971a.7.7,0,0,1-.078.341.785.785,0,0,1-.2.236.812.812,0,0,1-.267.139,1.061,1.061,0,0,1-.3.044,1.117,1.117,0,0,1-.3-.044.853.853,0,0,1-.275-.139.726.726,0,0,1-.2-.236.7.7,0,0,1-.078-.341V24.813a.527.527,0,0,1,.162-.424.625.625,0,0,1,.419-.138H36.07a5.852,5.852,0,0,1,1.089.1,2.621,2.621,0,0,1,.911.345,1.817,1.817,0,0,1,.625.651,2.044,2.044,0,0,1,.233,1.026,2.268,2.268,0,0,1-.118.75,2.037,2.037,0,0,1-.326.591,2.212,2.212,0,0,1-.483.445,2.272,2.272,0,0,1-.581.286l1.28,2.1a.866.866,0,0,1,.149.591.644.644,0,0,1-.356.483.876.876,0,0,1-.349.114.754.754,0,0,1-.315-.034.807.807,0,0,1-.261-.148.936.936,0,0,1-.2-.227l-1.607-2.693h-.788Zm1.055-3.522a1.611,1.611,0,0,0,.887-.217.845.845,0,0,0,.334-.769.864.864,0,0,0-.329-.78,1.613,1.613,0,0,0-.891-.216H34.976v1.983Z" transform="translate(13.956 10.22)" fill="#fff"/>
        <path id="패스_909" data-name="패스 909" d="M40.021,24.982a.618.618,0,0,1,.265-.553,1.058,1.058,0,0,1,.6-.178,1.1,1.1,0,0,1,.309.045.867.867,0,0,1,.273.132.686.686,0,0,1,.187.227.748.748,0,0,1,.067.325V30.5h2.837a.736.736,0,0,1,.578.188.657.657,0,0,1,.162.443.724.724,0,0,1-.03.2.446.446,0,0,1-.114.193.63.63,0,0,1-.226.148.971.971,0,0,1-.37.06H40.827a.889.889,0,0,1-.589-.179.608.608,0,0,1-.217-.5Z" transform="translate(16.782 10.219)" fill="#fff"/>
        <path id="패스_910" data-name="패스 910" d="M45.357,31.294a.626.626,0,0,1-.346.365.928.928,0,0,1-.619.05.915.915,0,0,1-.307-.158.6.6,0,0,1-.172-.227.638.638,0,0,1-.054-.256.728.728,0,0,1,.04-.247l2.138-6.048a.9.9,0,0,1,.29-.381,1.038,1.038,0,0,1,.667-.182,1.051,1.051,0,0,1,.669.182.883.883,0,0,1,.3.381L50.1,30.841a.641.641,0,0,1-.01.553.728.728,0,0,1-.443.3.843.843,0,0,1-.627-.02.7.7,0,0,1-.349-.424l-.453-1.352H45.83ZM47.81,28.7l-.788-2.358L46.235,28.7Z" transform="translate(18.392 10.202)" fill="#fff"/>
        <path id="패스_911" data-name="패스 911" d="M55.168,30.9a1,1,0,0,1-.07.4.641.641,0,0,1-.186.252.809.809,0,0,1-.267.138,1.059,1.059,0,0,1-.307.044,1.531,1.531,0,0,1-.581-.1.855.855,0,0,1-.4-.33l-2.66-4.035v3.71a.655.655,0,0,1-.257.581.98.98,0,0,1-.571.178,1.19,1.19,0,0,1-.326-.044.83.83,0,0,1-.28-.138.679.679,0,0,1-.2-.237.71.71,0,0,1-.075-.34V24.943a.557.557,0,0,1,.055-.237.745.745,0,0,1,.16-.222.813.813,0,0,1,.273-.168,1.056,1.056,0,0,1,.389-.064,1.981,1.981,0,0,1,.365.03.888.888,0,0,1,.285.1,1.057,1.057,0,0,1,.247.2,2.541,2.541,0,0,1,.246.325l2.454,3.779v-3.71a.612.612,0,0,1,.271-.553,1.081,1.081,0,0,1,.6-.178,1.059,1.059,0,0,1,.307.044.856.856,0,0,1,.267.134.634.634,0,0,1,.186.227.724.724,0,0,1,.07.325Z" transform="translate(20.543 10.22)" fill="#fff"/>
        <path id="패스_912" data-name="패스 912" d="M57.176,24.252a5.41,5.41,0,0,1,1.182.122,2.73,2.73,0,0,1,.961.405,1.981,1.981,0,0,1,.64.725,2.3,2.3,0,0,1,.231,1.076v2.811a2.321,2.321,0,0,1-.231,1.086,1.969,1.969,0,0,1-.64.725,2.73,2.73,0,0,1-.961.405,5.408,5.408,0,0,1-1.182.124H55.165a.779.779,0,0,1-.571-.193.688.688,0,0,1-.2-.517v-6.1a.62.62,0,0,1,.217-.475.8.8,0,0,1,.562-.2ZM56.1,30.5h1.074a1.545,1.545,0,0,0,.971-.266,1,1,0,0,0,.339-.84V26.58a1.012,1.012,0,0,0-.339-.844,1.528,1.528,0,0,0-.971-.27H56.1Z" transform="translate(22.81 10.22)" fill="#fff"/>
      </g>
    </g>
  </g>
</svg>
