<svg id="comments" xmlns="http://www.w3.org/2000/svg" width="24" height="24" viewBox="0 0 24 24">
  <rect id="사각형_4088" data-name="사각형 4088" width="24" height="24" fill="none"/>
  <g id="그룹_727" data-name="그룹 727">
    <path id="패스_1474" data-name="패스 1474" d="M20.994,6.444a2.794,2.794,0,0,0-2.786-2.788Q12,3.647,5.785,3.656A2.8,2.8,0,0,0,3.063,5.872,1.177,1.177,0,0,1,3,6.045v8.717a.57.57,0,0,1,.063.174,2.8,2.8,0,0,0,2.565,2.206c.172.01.192.07.191.215,0,.779,0,1.558,0,2.337a.66.66,0,0,0,.132.444.556.556,0,0,0,.874-.005q1.357-1.425,2.708-2.857a.373.373,0,0,1,.3-.126q4.173,0,8.346,0a2.8,2.8,0,0,0,2.81-2.8q.009-3.954,0-7.907M19.871,14.3a1.681,1.681,0,0,1-1.733,1.73q-4.295,0-8.591,0a.8.8,0,0,0-.634.272c-.606.652-1.223,1.294-1.835,1.94a1.308,1.308,0,0,0-.084.112l-.054-.029c0-.566,0-1.131,0-1.7a.567.567,0,0,0-.207-.463.609.609,0,0,0-.391-.131,3.892,3.892,0,0,1-.927-.047,1.681,1.681,0,0,1-1.29-1.67q0-3.19,0-6.379c0-.475,0-.948,0-1.423A1.681,1.681,0,0,1,5.844,4.781q6.158,0,12.316,0A1.676,1.676,0,0,1,19.871,6.5q0,3.9,0,7.8" fill="#fb8c00"/>
    <path id="패스_1475" data-name="패스 1475" d="M9.748,10.4A1.124,1.124,0,1,1,8.614,9.279,1.128,1.128,0,0,1,9.748,10.4" fill="#fb8c00"/>
    <path id="패스_1476" data-name="패스 1476" d="M13.123,10.407A1.124,1.124,0,1,1,12,9.279a1.128,1.128,0,0,1,1.125,1.128" fill="#fb8c00"/>
    <path id="패스_1477" data-name="패스 1477" d="M15.367,9.279a1.125,1.125,0,1,1-1.119,1.134,1.127,1.127,0,0,1,1.119-1.134" fill="#fb8c00"/>
  </g>
</svg>
