<?xml version="1.0" encoding="UTF-8"?>
<svg xmlns="http://www.w3.org/2000/svg" width="384" height="384" xmlns:xlink="http://www.w3.org/1999/xlink" viewBox="0 0 384 384">
  <defs>
    <style>
      .cls-1 {
        fill: url(#radial-gradient-7);
      }

      .cls-2 {
        fill: url(#radial-gradient-10);
      }

      .cls-3 {
        fill: #431959;
      }

      .cls-4 {
        fill: url(#radial-gradient-8);
      }

      .cls-5 {
        fill: url(#radial-gradient-5);
      }

      .cls-6 {
        fill: url(#radial-gradient-4);
      }

      .cls-7 {
        isolation: isolate;
      }

      .cls-8 {
        fill: url(#radial-gradient-6);
      }

      .cls-9 {
        fill: url(#radial-gradient-12);
      }

      .cls-10 {
        fill: url(#radial-gradient);
      }

      .cls-11 {
        fill: #6a9708;
      }

      .cls-12 {
        fill: url(#radial-gradient-13);
      }

      .cls-13 {
        mix-blend-mode: multiply;
        opacity: .3;
      }

      .cls-14 {
        fill: #363333;
      }

      .cls-15 {
        fill: url(#radial-gradient-2);
      }

      .cls-16 {
        fill: url(#radial-gradient-3);
      }

      .cls-17 {
        fill: #692e15;
      }

      .cls-18 {
        fill: url(#radial-gradient-14);
      }

      .cls-19 {
        fill: #e6afff;
      }

      .cls-20 {
        fill: url(#radial-gradient-11);
      }

      .cls-21 {
        fill: url(#radial-gradient-9);
      }

      .cls-22 {
        fill: #90b204;
      }

      .cls-23 {
        fill: #3d5915;
      }
    </style>
    <radialGradient id="radial-gradient" cx="259.33" cy="68.67" fx="259.33" fy="68.67" r="75.53" gradientTransform="translate(548.08 192.72) rotate(170.78) scale(1 1.17)" gradientUnits="userSpaceOnUse">
      <stop offset="0" stop-color="#ebb8fc"/>
      <stop offset=".07" stop-color="#e7b0f7"/>
      <stop offset=".18" stop-color="#df9aeb"/>
      <stop offset=".31" stop-color="#d176d8"/>
      <stop offset=".35" stop-color="#ce6dd3"/>
      <stop offset=".54" stop-color="#8c42a8"/>
      <stop offset=".71" stop-color="#592187"/>
      <stop offset=".8" stop-color="#46157b"/>
    </radialGradient>
    <radialGradient id="radial-gradient-2" cx="188.77" cy="90.76" fx="188.77" fy="90.76" r="91.97" gradientTransform="translate(209.84 -38.69) rotate(72.65)" gradientUnits="userSpaceOnUse">
      <stop offset="0" stop-color="#e2c5f3"/>
      <stop offset=".12" stop-color="#cca2e7"/>
      <stop offset=".29" stop-color="#b27bda"/>
      <stop offset=".37" stop-color="#a96cd5"/>
      <stop offset=".45" stop-color="#9e62cc"/>
      <stop offset=".59" stop-color="#8248b6"/>
      <stop offset=".7" stop-color="#672ea0"/>
      <stop offset=".93" stop-color="#46157b"/>
    </radialGradient>
    <radialGradient id="radial-gradient-3" cx="279.22" cy="317.72" fx="279.22" fy="317.72" r="144.63" gradientTransform="translate(131.15 697.12) rotate(-113.28) scale(1 .81) skewX(.27)" xlink:href="#radial-gradient"/>
    <radialGradient id="radial-gradient-4" cx="300.32" cy="138.29" fx="300.32" fy="138.29" r="85.7" gradientTransform="translate(360.98 566.09) rotate(-127.75) scale(1 1.1)" xlink:href="#radial-gradient"/>
    <radialGradient id="radial-gradient-5" cx="252.47" cy="234.26" fx="252.47" fy="234.26" r="122.99" gradientTransform="translate(356.52 -61.48) rotate(62.43)" xlink:href="#radial-gradient"/>
    <radialGradient id="radial-gradient-6" cx="186.67" cy="279.61" fx="186.67" fy="279.61" r="89.38" gradientTransform="translate(339.66 3.77) rotate(62.43)" xlink:href="#radial-gradient"/>
    <radialGradient id="radial-gradient-7" cx="219.57" cy="160.45" fx="219.57" fy="160.45" r="121.68" gradientTransform="translate(276.56 -75.21) rotate(62.43)" xlink:href="#radial-gradient"/>
    <radialGradient id="radial-gradient-8" cx="144.57" cy="207.28" fx="144.57" fy="207.28" r="122.16" gradientTransform="translate(266.06 10.21) rotate(62.43)" gradientUnits="userSpaceOnUse">
      <stop offset="0" stop-color="#ebb8fc"/>
      <stop offset=".06" stop-color="#e7b0f7"/>
      <stop offset=".16" stop-color="#df9aeb"/>
      <stop offset=".28" stop-color="#d176d8"/>
      <stop offset=".31" stop-color="#ce6dd3"/>
      <stop offset=".49" stop-color="#8c42a8"/>
      <stop offset=".64" stop-color="#592187"/>
      <stop offset=".72" stop-color="#46157b"/>
    </radialGradient>
    <radialGradient id="radial-gradient-9" cx="3060.91" cy="-749.09" fx="3060.91" fy="-749.09" r="81.79" gradientTransform="translate(3314.1 -4.39) rotate(164.17) scale(.98 -1.07) skewX(.72)" gradientUnits="userSpaceOnUse">
      <stop offset=".28" stop-color="#e3df43"/>
      <stop offset=".4" stop-color="#d0d62e"/>
      <stop offset=".6" stop-color="#a7c300"/>
      <stop offset=".71" stop-color="#6c990a"/>
      <stop offset=".91" stop-color="#04501c"/>
    </radialGradient>
    <radialGradient id="radial-gradient-10" cx="2926.84" cy="-724.45" fx="2926.84" fy="-724.45" r="175.34" gradientTransform="translate(2680.33 -45.54) rotate(165.18) scale(.8 -.68) skewX(.7)" gradientUnits="userSpaceOnUse">
      <stop offset=".24" stop-color="#e3df43"/>
      <stop offset=".31" stop-color="#dedd3e"/>
      <stop offset=".4" stop-color="#d2d730"/>
      <stop offset=".49" stop-color="#becd19"/>
      <stop offset=".56" stop-color="#a7c300"/>
      <stop offset=".68" stop-color="#6c990a"/>
      <stop offset=".86" stop-color="#04501c"/>
    </radialGradient>
    <radialGradient id="radial-gradient-11" cx="3269.94" cy="-716.89" fx="3269.94" fy="-716.89" r="146.72" gradientTransform="translate(-3201.75 151.77) rotate(-10.07) scale(.98 -.76) skewX(-.22)" gradientUnits="userSpaceOnUse">
      <stop offset=".25" stop-color="#e3df43"/>
      <stop offset=".37" stop-color="#d0d62e"/>
      <stop offset=".58" stop-color="#a7c300"/>
      <stop offset=".61" stop-color="#9fbe01"/>
      <stop offset=".65" stop-color="#8cb004"/>
      <stop offset=".69" stop-color="#6c990a"/>
      <stop offset=".74" stop-color="#407a11"/>
      <stop offset=".8" stop-color="#07521b"/>
      <stop offset=".8" stop-color="#04501c"/>
    </radialGradient>
    <radialGradient id="radial-gradient-12" cx="3634.29" cy="-804.52" fx="3634.29" fy="-804.52" r="50.91" gradientTransform="translate(-726.57 -3829.89) rotate(88.75) scale(1.07 1.03) skewX(-1.44)" gradientUnits="userSpaceOnUse">
      <stop offset=".03" stop-color="#af7d4b"/>
      <stop offset=".37" stop-color="#ab611a"/>
      <stop offset=".52" stop-color="#a75e18"/>
      <stop offset=".67" stop-color="#9c5514"/>
      <stop offset=".81" stop-color="#89470d"/>
      <stop offset=".91" stop-color="#773a07"/>
    </radialGradient>
    <radialGradient id="radial-gradient-13" cx="155.06" cy="183.02" fx="155.06" fy="183.02" r="100.98" gradientTransform="translate(6.67 321.9) rotate(-83.38) scale(1 .72)" gradientUnits="userSpaceOnUse">
      <stop offset=".14" stop-color="#e3df43"/>
      <stop offset=".63" stop-color="#a7c300"/>
      <stop offset=".67" stop-color="#a0be01"/>
      <stop offset=".73" stop-color="#8cb004"/>
      <stop offset=".79" stop-color="#6c9909"/>
      <stop offset=".87" stop-color="#407a11"/>
      <stop offset=".95" stop-color="#08531b"/>
      <stop offset=".95" stop-color="#04501c"/>
    </radialGradient>
    <radialGradient id="radial-gradient-14" cx="146.13" cy="72.92" fx="146.13" fy="72.92" r="60.87" gradientTransform="translate(143.86 -99.28) rotate(57.3) scale(1 1.25)" gradientUnits="userSpaceOnUse">
      <stop offset="0" stop-color="#e3df43"/>
      <stop offset=".11" stop-color="#dbdb3a"/>
      <stop offset=".27" stop-color="#c6d122"/>
      <stop offset=".47" stop-color="#a7c300"/>
      <stop offset=".52" stop-color="#96b702"/>
      <stop offset=".62" stop-color="#69970a"/>
      <stop offset=".76" stop-color="#236616"/>
      <stop offset=".82" stop-color="#04501c"/>
    </radialGradient>
  </defs>
  <g class="cls-7">
    <g id="Layer_1" data-name="Layer 1">
      <g>
        <g>
          <g class="cls-13">
            <path class="cls-14" d="M301.99,198.22c.44-.72,.92-1.41,1.33-2.17,14.2-26.23,2.3-59.27-26.57-73.8-25.62-12.9-55.97-6.85-72.41,13-4.66-8.98-12.08-16.65-21.92-21.6-25.4-12.79-57.05-2.74-70.69,22.45-8.43,15.58-7.98,33.29-.41,47.57-16.69,2.75-32.06,12.87-40.65,28.73-14.39,26.58-4.32,59.06,22.48,72.56,7.23,3.64,14.93,5.47,22.61,5.76-1.87,18.16,7.31,36.23,24.71,44.99,14.67,7.38,31.61,6.35,45.19-1.25,5.08,10.79,13.75,20.11,25.49,26.02,27.95,14.07,62.43,3.63,77.02-23.32,9.17-16.94,8.29-36.36-.57-51.95,10.53-4.76,19.82-13.04,25.84-24.16,12.19-22.52,6.84-48.96-11.47-62.83Z"/>
          </g>
          <ellipse class="cls-10" cx="251.73" cy="157.51" rx="53.57" ry="56.86" transform="translate(-4.39 307.77) rotate(-62.43)"/>
          <ellipse class="cls-15" cx="161.76" cy="147.03" rx="51.45" ry="50.04" transform="translate(-43.44 222.39) rotate(-62.43)"/>
          <circle class="cls-16" cx="238.76" cy="299.47" r="55.05" transform="translate(-141.82 256.54) rotate(-45)"/>
          <ellipse class="cls-6" cx="270.46" cy="227.18" rx="51.37" ry="46.77" transform="translate(-56.1 361.8) rotate(-62.43)"/>
          <ellipse class="cls-5" cx="228.99" cy="263.41" rx="50.66" ry="49.27" transform="translate(-110.49 344.5) rotate(-62.43)"/>
          <ellipse class="cls-8" cx="166.72" cy="282.13" rx="46.67" ry="45.39" transform="translate(-160.53 299.36) rotate(-62.43)"/>
          <ellipse class="cls-1" cx="200.33" cy="190.57" rx="53.94" ry="52.46" transform="translate(-61.32 279.97) rotate(-62.43)"/>
          <ellipse class="cls-4" cx="124.61" cy="224.62" rx="54.29" ry="52.8" transform="translate(-132.17 231.13) rotate(-62.43)"/>
          <path class="cls-3" d="M162.95,95.87c7.66,0,15.4,1.79,22.62,5.55,9.49,4.95,16.64,12.62,21.13,21.6,10.18-12.75,25.89-19.8,42.38-19.8,9.18,0,18.61,2.19,27.45,6.8,27.84,14.53,39.31,47.58,25.62,73.8-.39,.75-.86,1.44-1.28,2.17,17.65,13.87,22.82,40.31,11.06,62.84-5.8,11.12-14.76,19.4-24.91,24.16,8.54,15.59,9.39,35.01,.55,51.95-9.82,18.82-28.99,29.58-48.84,29.58-8.58,0-17.29-2.01-25.43-6.26-11.32-5.91-19.68-15.23-24.58-26.02-7.05,4.09-15.03,6.28-23.11,6.28-6.93,0-13.94-1.61-20.47-5.02-16.78-8.76-25.63-26.83-23.83-44.99-7.41-.29-14.84-2.13-21.81-5.76-25.85-13.49-35.56-45.98-21.68-72.56,8.28-15.87,23.11-25.98,39.2-28.74-7.3-14.28-7.73-31.99,.4-47.57,9.28-17.77,27.19-28.01,45.55-28.01m0-2v2s0-2,0-2c-19.82,0-37.96,11.14-47.32,29.08-7.7,14.76-8.23,32.14-1.55,47.03-16.38,3.58-30.15,14.14-38.05,29.28-6.95,13.32-8.45,28.48-4.2,42.69,4.25,14.23,13.74,25.8,26.73,32.57,6.4,3.34,13.31,5.31,20.58,5.87-1.08,18.83,8.59,36.29,25.06,44.89,6.67,3.48,13.87,5.25,21.4,5.25s15.32-1.9,22.21-5.5c5.39,10.8,13.84,19.42,24.55,25.01,8.13,4.24,17.24,6.49,26.35,6.49,21.35,0,40.74-11.75,50.62-30.66,8.52-16.31,8.63-35.59,.4-51.99,10.07-5.22,18.53-13.72,23.96-24.12,11.76-22.53,7.41-49.21-10.22-64.21,.15-.25,.3-.52,.44-.79,14.18-27.16,2.31-61.48-26.47-76.5-8.81-4.6-18.62-7.03-28.37-7.03-16.44,0-31.58,6.62-42,18.26-4.87-8.5-11.93-15.32-20.58-19.83-7.35-3.83-15.27-5.78-23.54-5.78h0Z"/>
        </g>
        <g>
          <ellipse class="cls-19" cx="192.07" cy="306.73" rx="5.38" ry="4.62" transform="translate(-168.72 335.04) rotate(-62.43)"/>
          <ellipse class="cls-19" cx="271.61" cy="270.54" rx="5.38" ry="3.37" transform="translate(-17.85 521.9) rotate(-85.86)"/>
          <ellipse class="cls-19" cx="268.71" cy="250.32" rx="5.49" ry="12.36" transform="translate(-51.79 71.03) rotate(-13.75)"/>
          <ellipse class="cls-19" cx="303.21" cy="197.88" rx="3.81" ry="8.96" transform="translate(-53.76 258.42) rotate(-42.76)"/>
          <ellipse class="cls-19" cx="311.37" cy="209.37" rx="2.88" ry="3.78" transform="translate(-62.97 183.73) rotate(-30)"/>
          <ellipse class="cls-19" cx="153.24" cy="253.79" rx="6.58" ry="4.34" transform="translate(-142.65 272.19) rotate(-62.43)"/>
          <ellipse class="cls-19" cx="160.9" cy="227.84" rx="17" ry="9.42" transform="translate(-86.23 357.18) rotate(-82.4)"/>
          <ellipse class="cls-19" cx="199.48" cy="287.87" rx="14.07" ry="8.62" transform="translate(-133.57 396.21) rotate(-73.3)"/>
          <ellipse class="cls-19" cx="283.69" cy="299.47" rx="10.25" ry="7.14" transform="translate(-77.1 499.44) rotate(-75.55)"/>
          <ellipse class="cls-19" cx="243.32" cy="203.93" rx="5.23" ry="3.45" transform="translate(12.43 421.83) rotate(-83.31)"/>
          <ellipse class="cls-19" cx="242.51" cy="182.5" rx="7.48" ry="13.51" transform="translate(-35.42 60.55) rotate(-13.27)"/>
        </g>
        <g class="cls-13">
          <path class="cls-14" d="M258.44,105.49c8.63-14.92,4.29-27.95,4.29-27.95-12.3,7.05-23.03,3.42-23.03,3.42-32.17-8.52-57.28,3.47-65.01,9.1-4.7-3.94-11.32-7.97-20.79-11.62-31.19-12.02-53.95,2.32-53.95,2.32,0,0,.72,10.99,10.84,22.85-1.67,.88-3.33,1.86-4.96,3.06-22.05,16.04-38.81,59.04-38.62,85.23,0,0,16-.44,32.07,3.81,7.14,1.89,12.65,.5,17.31-2.48,4.24,13.14,9.98,22.25,9.98,22.25,5.49-8.23,41.83-.95,65.46-34.17,5.65-7.95,7.95-17.17,8.25-26.29,15.92,13.65,39.66,20.28,51.04,14.12,18.08-9.79,40.62-10.1,40.62-10.1-5.06-28.29-18.67-44.5-33.49-53.54Z"/>
        </g>
        <g>
          <path class="cls-23" d="M127.37,62.33c7.37,0,15.85,1.25,25.06,4.8,9.38,3.61,16.13,7.56,21.08,11.4,6.06-4.29,21.54-11.84,42.26-11.84,6.95,0,14.49,.85,22.46,2.96,0,0,2.76,.93,7.09,.93s9.88-.88,15.94-4.35c0,0,4.34,13.03-4.29,27.95,14.82,9.04,28.43,25.24,33.49,53.54,0,0-22.54,.31-40.62,10.1-2.91,1.57-6.62,2.31-10.81,2.31-11.96,0-27.77-6.04-39.55-15.86-1.13,6.35-3.51,12.61-7.81,18.22-23.71,30.96-59.16,24.91-64.68,32.58,0,0-4.23-6.44-7.92-16.19-4.15,3.72-8.91,6.38-15,6.38-1.94,0-4.03-.27-6.27-.86-13.32-3.52-26.59-3.82-30.74-3.82-.86,0-1.32,.01-1.32,.01-.2-26.19,16.57-69.19,38.62-85.23,1.64-1.19,3.3-2.17,4.96-3.06-10.12-11.86-10.84-22.85-10.84-22.85,0,0,11.3-7.12,28.89-7.12m0-2v2s0-2,0-2c-17.96,0-29.47,7.12-29.95,7.43-.62,.39-.98,1.09-.93,1.82,.03,.45,.8,10.66,9.78,22.13-1.11,.66-2.12,1.32-3.08,2.02-22.46,16.33-39.64,60.11-39.44,86.86,0,.54,.22,1.05,.61,1.42,.37,.36,.87,.56,1.39,.56,.02,0,.04,0,.05,0,.02,0,.46-.01,1.27-.01,3.76,0,17.05,.27,30.23,3.75,2.33,.62,4.61,.93,6.78,.93,5.09,0,9.65-1.62,14.16-5.07,3.43,8.37,6.94,13.74,7.1,13.98,.36,.55,.97,.89,1.63,.9,.01,0,.03,0,.04,0,.64,0,1.25-.31,1.62-.83,1.38-1.92,6.64-2.96,12.72-4.18,14.2-2.83,35.65-7.12,51.92-28.35,3.52-4.59,6.04-9.92,7.51-15.86,11.57,8.75,26.27,14.28,38.27,14.28,4.67,0,8.63-.86,11.76-2.55,17.42-9.43,39.48-9.85,39.7-9.86,.59,0,1.14-.27,1.51-.73,.37-.45,.53-1.05,.43-1.62-4.38-24.5-15.41-42.61-32.8-53.87,7.74-14.8,3.71-27.34,3.52-27.89-.19-.57-.62-1.02-1.18-1.24-.23-.09-.47-.13-.71-.13-.34,0-.69,.09-.99,.26-4.74,2.71-9.77,4.09-14.95,4.09-3.9,0-6.43-.82-6.46-.83-.04-.01-.08-.03-.12-.04-7.59-2.01-15.32-3.03-22.97-3.03-18.37,0-33.87,5.95-42.2,11.38-5.52-4.08-12.39-7.71-20.43-10.81-8.5-3.27-17.17-4.93-25.78-4.93h0Z"/>
          <path class="cls-21" d="M170.71,81.24c-.09-2.13,28.58-21.89,67.52-11.58,0,0,10.73,3.63,23.03-3.42,0,0,6.17,18.27-10.46,36.32-16.63,18.06-77.79,33.62-80.1-21.32Z"/>
          <g>
            <path class="cls-11" d="M255.72,73.03s-19.06,4.32-36.35,4.51c-13.36,.15-26.06-1.36-31.95,1.11,0,0,53.17,2.79,68.29-5.62Z"/>
            <polygon class="cls-11" points="238.36 76.55 241.14 72.13 240.39 76.69 238.36 76.55"/>
            <polygon class="cls-11" points="233.24 77.81 243.8 91.17 230.28 77.39 233.24 77.81"/>
            <polygon class="cls-11" points="228.7 77.83 231.53 71.1 226.44 77.91 228.7 77.83"/>
            <polygon class="cls-11" points="213.7 78.34 225.5 93.73 211.11 78.02 213.7 78.34"/>
            <polygon class="cls-11" points="209.3 78.03 217.53 68.97 206.61 78.17 209.3 78.03"/>
            <polygon class="cls-11" points="244.37 76.06 253.83 82.45 242.36 76.63 244.37 76.06"/>
          </g>
          <path class="cls-2" d="M208.59,84.74c12.05-3.36,70.1-2.88,81.88,62.97,0,0-22.54,.31-40.62,10.1-18.08,9.79-67.34-12.69-66.92-44.32,.24-18.09,4.47-22.85,25.66-28.75Z"/>
          <path class="cls-20" d="M152.04,92.96s-25.63-13.64-47.68,2.4c-22.05,16.04-38.81,59.04-38.62,85.23,0,0,16-.44,32.07,3.81,14.62,3.86,22.46-5.96,30-15.18,8.97-10.97,38.66-59,24.23-76.26Z"/>
          <g>
            <path class="cls-11" d="M145.42,97.02s-47.84,5.3-72.09,73.61c0,0,18.3-47.64,72.09-73.61Z"/>
            <path class="cls-11" d="M98.54,172.54c-.28-1.04-9.31-31.18-9.31-31.18l2.55-5.02s7.04,37.25,6.76,36.2Z"/>
            <polygon class="cls-11" points="87.59 142.56 89.44 139.29 74.73 145.46 87.59 142.56"/>
            <path class="cls-11" d="M115.92,163.22c-.28-1.04-8.14-41.15-8.14-41.15l2.55-5.02s5.88,47.21,5.6,46.17Z"/>
            <polygon class="cls-11" points="105.45 120.73 107.29 117.46 84.5 123.92 105.45 120.73"/>
            <path class="cls-11" d="M133.65,153.53c-.28-1.04-7.88-47.16-7.88-47.16l4.87-3.68s3.29,51.88,3,50.84Z"/>
            <polygon class="cls-11" points="125.77 106.37 127.62 103.1 101.86 104.26 125.77 106.37"/>
          </g>
          <g>
            <path class="cls-9" d="M178.08,104.13c-.51,0-.94-.39-.99-.9l-.05-.54-1.45-2.21c-.13-.2-.18-.44-.16-.67,.19-1.51-.08-2.76-.8-3.82-.14-.21-.2-.46-.16-.71,.54-3.51,2.28-27.01,1.81-29.82-.03-.15-.02-.31,.03-.46,1.33-4.27,.75-8.08-1.78-11.66-2.57-3.06-5.55-4.58-9.04-4.58-.18,0-.36,0-.55,.01-.96,.31-2.02,.47-3.08,.47-3.99,0-8.42-2.36-8.72-7.53-.32-5.56,2.08-9.71,7.14-12.33,.03-.02,.06-.03,.09-.04,1.44-.56,2.87-.85,4.24-.85,2.02,0,3.98,.61,5.81,1.82,.45,.29,.8,.74,.97,1.27,.23,.68,.45,1.35,.66,1.97,1.69,5.14,2.55,7.75,8.2,9.59,2.07-2.13,4.46-3.59,7.08-4.34,.69-.2,1.37-.3,2.04-.3,1.59,0,3,.57,3.98,1.61,1.06,1.13,1.55,2.72,1.43,4.61-.01,.22-.1,.43-.24,.59l-4.8,5.52c-1.12,3.42-1.91,6.89-2.37,10.31-.02,.16-.08,.31-.17,.44l-2.92,32.23c0,.05-.01,.1-.03,.16-.64,2.52-.98,5.11-1.02,7.71,0,.31-.15,.6-.4,.78-1.41,1.07-3,1.63-4.74,1.66h-.02Z"/>
            <path class="cls-17" d="M164.6,29.48c1.83,0,3.59,.55,5.26,1.66,.26,.17,.47,.43,.57,.75,2.23,6.49,2.64,10.01,9.66,12.25,.07,.02,.15,.03,.22,.03,.2,0,.4-.09,.56-.25,1.97-2.05,4.22-3.45,6.73-4.16,.6-.17,1.2-.26,1.76-.26,2.57,0,4.63,1.75,4.42,5.16l-4.93,5.67c-1.18,3.57-2,7.14-2.48,10.68l-.15,.2-2.95,32.52c-.66,2.59-1.01,5.24-1.05,7.94-1.25,.94-2.63,1.43-4.15,1.46l-.08-.78-1.58-2.42c.21-1.74-.11-3.25-.97-4.51,.54-3.52,2.31-27.14,1.81-30.14,1.42-4.54,.78-8.71-1.92-12.54-2.8-3.34-6.09-5-9.86-5-.24,0-.49,0-.73,.02-.91,.31-1.9,.46-2.9,.46-3.66,0-7.46-2.09-7.72-6.59-.3-5.16,1.9-8.95,6.6-11.38,1.33-.52,2.62-.78,3.88-.78m0-2c-1.5,0-3.05,.31-4.61,.92-.06,.03-.13,.05-.19,.08-5.37,2.77-8.02,7.36-7.68,13.27,.34,5.82,5.27,8.47,9.72,8.47,1.13,0,2.23-.16,3.26-.48,.12,0,.25,0,.37,0,3.16,0,5.87,1.38,8.28,4.22,2.3,3.29,2.82,6.8,1.6,10.72-.09,.3-.11,.62-.06,.93,.42,2.46-1.2,25.51-1.81,29.5-.08,.5,.04,1.01,.32,1.43,.58,.86,.79,1.89,.64,3.14-.06,.47,.05,.94,.31,1.34l1.31,2.01,.03,.29c.1,1.02,.96,1.8,1.99,1.8,.01,0,.03,0,.04,0,1.95-.04,3.74-.67,5.32-1.87,.49-.37,.78-.95,.79-1.57,.04-2.52,.37-5.04,.99-7.48,.03-.1,.04-.21,.05-.31l2.9-32.02c.09-.19,.15-.4,.18-.61,.44-3.3,1.21-6.64,2.27-9.94l4.67-5.36c.29-.33,.46-.75,.49-1.19,.17-2.74-.83-4.43-1.7-5.36-1.17-1.24-2.84-1.93-4.71-1.93-.76,0-1.54,.11-2.31,.33-2.61,.74-4.98,2.14-7.07,4.15-4.65-1.65-5.36-3.83-6.99-8.75-.21-.63-.43-1.3-.67-2-.24-.72-.73-1.36-1.37-1.78-1.99-1.31-4.13-1.98-6.35-1.98h0Z"/>
          </g>
          <path class="cls-12" d="M186.05,97.46c7.74,3.32,24.52,40.37,5.63,65.03-23.71,30.96-59.16,24.91-64.68,32.58,0,0-28.48-43.2-2.07-75.48,26.41-32.29,51.04-26.44,61.12-22.12Z"/>
          <g>
            <path class="cls-11" d="M127.49,194.42s17.07-78.75,40.55-90.63c0,0-27.55,39.58-40.55,90.63Z"/>
            <polygon class="cls-11" points="137.87 158.72 149.05 186 138.67 153.38 137.87 158.72"/>
            <polygon class="cls-11" points="140.46 150.26 139.34 152.89 129.8 157.38 140.4 149.69 140.46 150.26"/>
            <polygon class="cls-11" points="148.79 134.43 166.68 173.38 151.62 129.49 148.79 134.43"/>
            <polygon class="cls-11" points="160.41 116.16 173.98 145.71 163.24 111.22 160.41 116.16"/>
            <polygon class="cls-11" points="150.63 127.61 149 130.82 135.48 136.44 150.55 126.91 150.63 127.61"/>
            <polygon class="cls-11" points="160.78 112.15 159.15 115.37 142.83 119.15 160.7 111.45 160.78 112.15"/>
          </g>
          <path class="cls-18" d="M98.48,69.45s22.76-14.34,53.95-2.32c31.19,12.02,33.81,27.7,35,31.2,1.19,3.5-46.21,18.87-67.02,4.06-20.81-14.81-21.93-32.94-21.93-32.94Z"/>
          <g>
            <path class="cls-11" d="M286.61,142.8s-52.11-53.51-88.19-51.9c0,0,51.81,18.1,88.19,51.9Z"/>
            <polygon class="cls-11" points="259.42 119.77 254.39 146.23 256.37 115.98 259.42 119.77"/>
            <polygon class="cls-11" points="252.8 114.38 255.28 115.92 269.82 114.99 252.67 113.9 252.8 114.38"/>
            <polygon class="cls-11" points="235.71 105.89 225.94 144.56 230.07 103.35 235.71 105.89"/>
            <polygon class="cls-11" points="213.28 97.03 205.86 126.36 207.63 94.48 213.28 97.03"/>
            <polygon class="cls-11" points="230.71 101.42 234.09 103.18 254.43 101.29 230.55 100.84 230.71 101.42"/>
            <polygon class="cls-11" points="211.31 94.07 214.68 95.83 238.11 91.21 211.15 93.49 211.31 94.07"/>
          </g>
          <g>
            <path class="cls-22" d="M104.75,69.52s54.88,26.44,72.74,24.45l-72.74-24.45Z"/>
            <polygon class="cls-22" points="158.76 89.97 162.01 91.32 136.71 100.2 158.76 89.97"/>
            <polygon class="cls-22" points="166.21 90.81 161.69 77.67 163.77 90.02 166.21 90.81"/>
            <polygon class="cls-22" points="140.7 83.95 144.64 85.58 121.74 92.69 140.7 83.95"/>
            <polygon class="cls-22" points="148.15 84.8 143.63 71.65 145.71 84.01 148.15 84.8"/>
            <polygon class="cls-22" points="120.44 75.33 124.38 76.96 107.18 81.44 120.44 75.33"/>
            <polygon class="cls-22" points="128.44 78.99 123.92 65.85 126 78.2 128.44 78.99"/>
          </g>
        </g>
      </g>
    </g>
  </g>
</svg>