<svg xmlns="http://www.w3.org/2000/svg" width="24" height="24" viewBox="0 0 24 24">
  <g id="그룹_741" data-name="그룹 741" opacity="0.6">
    <rect id="사각형_4092" data-name="사각형 4092" width="24" height="24" fill="none"/>
    <path id="패스_1481" data-name="패스 1481" d="M18.757,11.364a1.664,1.664,0,0,0-1.4-1.581c-.275-.041-.558-.033-.854-.049v-.19c0-.691,0-1.382,0-2.074a4.492,4.492,0,0,0-3.263-4.291c-.28-.081-.571-.12-.857-.179h-.775c-.19.035-.381.063-.569.105A4.442,4.442,0,0,0,7.528,7.033c-.074.82-.029,1.651-.038,2.476,0,.075,0,.149,0,.241-.18,0-.343,0-.5,0a1.688,1.688,0,0,0-1.749,1.737q0,3.885,0,7.769A1.687,1.687,0,0,0,6.979,21Q12,21,17.018,21a1.891,1.891,0,0,0,.486-.059,1.673,1.673,0,0,0,1.256-1.664q0-3.332,0-6.662c0-.416.008-.832,0-1.248M8.617,7.521a3.38,3.38,0,0,1,6.755-.195c.027.785.006,1.57.007,2.355a.387.387,0,0,1-.014.065H8.617V9.578c0-.686,0-1.371,0-2.057m9.017,11.7a.58.58,0,0,1-.661.656H7.024a.58.58,0,0,1-.661-.656q0-3.849,0-7.7a.576.576,0,0,1,.651-.646h9.95c.458,0,.67.21.67.663v7.681" fill="#222"/>
  </g>
</svg>
