<svg id="back_icon" xmlns="http://www.w3.org/2000/svg" xmlns:xlink="http://www.w3.org/1999/xlink" width="40" height="40" viewBox="0 0 40 40" transform="rotate(180)">
  <defs>
    <linearGradient id="linear-gradient" x1="0.119" y1="0.205" x2="1.034" y2="1.027" gradientUnits="objectBoundingBox">
      <stop offset="0" stop-color="#676eff"/>
      <stop offset="1" stop-color="#00a8fa"/>
    </linearGradient>
  </defs>
  <circle id="타원_95" data-name="타원 95" cx="20" cy="20" r="20" fill="url(#linear-gradient)"/>
  <g id="그룹_707" data-name="그룹 707" transform="translate(7.312 12.413)">
    <path id="패스_1468" data-name="패스 1468" d="M4.641,7.661h0a1.5,1.5,0,0,1,.106-.547.155.155,0,0,1,.008-.023A1.515,1.515,0,0,1,5.081,6.6L11.242.44a1.5,1.5,0,0,1,2.121,2.121l-3.6,3.6H23.876a1.5,1.5,0,1,1,0,3H9.762l3.454,3.455a1.5,1.5,0,0,1-2.121,2.121L5.081,8.723a1.515,1.515,0,0,1-.326-.492l-.008-.023a1.5,1.5,0,0,1-.106-.547" transform="translate(-4.641 -0.001)" fill="#fff"/>
    <path id="패스_1469" data-name="패스 1469" d="M1.5,6.161h.347a1.5,1.5,0,1,1,0,3H1.5a1.5,1.5,0,1,1,0-3" transform="translate(22.029 -0.001)" fill="#fff"/>
  </g>
</svg>
