<svg id="next_icon" xmlns="http://www.w3.org/2000/svg" width="40" height="40" viewBox="0 0 40 40">
  <g id="타원_96" data-name="타원 96" fill="#fff" stroke="#bcbcbc" stroke-width="1">
    <circle cx="20" cy="20" r="20" stroke="none"/>
    <circle cx="20" cy="20" r="19.5" fill="none"/>
  </g>
  <g id="그룹_706" data-name="그룹 706" transform="translate(-1651.688 -715.588)">
    <path id="패스_1468" data-name="패스 1468" d="M25.376,7.661h0a1.5,1.5,0,0,0-.106-.547.155.155,0,0,0-.008-.023,1.515,1.515,0,0,0-.326-.492L18.775.44a1.5,1.5,0,0,0-2.121,2.121l3.6,3.6H6.141a1.5,1.5,0,0,0,0,3H20.255L16.8,12.616a1.5,1.5,0,0,0,2.121,2.121l6.014-6.014a1.515,1.515,0,0,0,.326-.492l.008-.023a1.5,1.5,0,0,0,.106-.547" transform="translate(1659 728)" fill="#909090"/>
    <path id="패스_1469" data-name="패스 1469" d="M1.847,6.161H1.5a1.5,1.5,0,0,0,0,3h.347a1.5,1.5,0,0,0,0-3" transform="translate(1659 728)" fill="#909090"/>
  </g>
</svg>
