<svg id="notice_icon" xmlns="http://www.w3.org/2000/svg" width="20" height="20" viewBox="0 0 20 20">
  <rect id="사각형_4234" data-name="사각형 4234" width="20" height="20" fill="none"/>
  <path id="패스_1515" data-name="패스 1515" d="M17.986,8.541q0-2.425,0-4.85c0-.159-.007-.318-.018-.477a1.715,1.715,0,0,0-3.309-.467A.373.373,0,0,1,14.393,3Q11.344,4.014,8.3,5.033a1.155,1.155,0,0,1-.373.059c-1.018,0-2.037-.006-3.056,0A1.728,1.728,0,0,0,3.033,6.824q-.024,1.719,0,3.438a1.7,1.7,0,0,0,1.586,1.72c.129.012.164.053.177.178.182,1.733.376,3.466.556,5.2a1.641,1.641,0,0,0,.6,1.129,1.716,1.716,0,0,0,2.817-1.467c-.047-.475-.084-.951-.137-1.425-.015-.129.028-.154.141-.151.172.006.343,0,.515,0a1.722,1.722,0,0,0,1.742-1.321,3.18,3.18,0,0,0,.055-.949c-.006-.171.041-.181.19-.13q1.571.533,3.148,1.047a.35.35,0,0,1,.235.238,1.639,1.639,0,0,0,1.32,1.085,1.66,1.66,0,0,0,1.593-.581,1.843,1.843,0,0,0,.42-1.273q0-2.51,0-5.022M7.19,17.728a.564.564,0,0,1-.65-.308,1.185,1.185,0,0,1-.068-.392c-.175-1.623-.345-3.247-.524-4.87-.016-.148.027-.174.156-.167.146.008.293,0,.439,0s.3,0,.457,0c.1,0,.146.018.156.132.152,1.658.309,3.315.463,4.973a.56.56,0,0,1-.429.631m.25-6.881c-.872-.006-1.743,0-2.615,0a.584.584,0,0,1-.647-.653q0-1.65,0-3.3a.578.578,0,0,1,.636-.642c.878-.005,1.756,0,2.633-.006.162,0,.185.063.184.2-.006.706,0,1.412,0,2.118s0,1.4,0,2.1c0,.153-.046.189-.192.188M9.933,13.7a.572.572,0,0,1-.606.6c-.235.007-.47,0-.705.012-.1.007-.118-.036-.126-.117q-.077-.873-.157-1.747c-.011-.119-.022-.238-.034-.38l1.549.513c.078.026.082.082.082.149,0,.324.006.649,0,.972m4.405-.833q-2.69-.905-5.386-1.8a.212.212,0,0,1-.171-.243q.006-2.281,0-4.563a.209.209,0,0,1,.174-.238q2.686-.889,5.37-1.788c.2-.068.206-.067.206.159V8.557c0,1.387,0,2.774,0,4.162,0,.17-.031.2-.2.145m2.493.673a2.226,2.226,0,0,1-.008.247.568.568,0,0,1-1.113.086,1.157,1.157,0,0,1-.029-.283q0-5.041,0-10.083c0-.382.137-.605.422-.685a.561.561,0,0,1,.72.483,2.226,2.226,0,0,1,.008.247v9.987" transform="translate(-0.504 -0.276)" fill="#222"/>
</svg>
