<?xml version="1.0" encoding="UTF-8"?>
<svg xmlns="http://www.w3.org/2000/svg" width="384" height="384" xmlns:xlink="http://www.w3.org/1999/xlink" viewBox="0 0 384 384">
  <defs>
    <style>
      .cls-1 {
        fill: #939393;
      }

      .cls-2 {
        fill: url(#linear-gradient-2);
      }

      .cls-3 {
        fill: #262626;
      }

      .cls-4 {
        fill: #fff;
      }

      .cls-5 {
        fill: url(#linear-gradient-6);
      }

      .cls-6 {
        isolation: isolate;
      }

      .cls-7 {
        fill: #eaeaea;
      }

      .cls-8 {
        mix-blend-mode: multiply;
        opacity: .3;
      }

      .cls-9 {
        fill: url(#linear-gradient-5);
      }

      .cls-10 {
        fill: url(#linear-gradient-7);
      }

      .cls-11 {
        fill: url(#linear-gradient-3);
      }

      .cls-12 {
        fill: url(#linear-gradient);
      }

      .cls-13 {
        fill: url(#linear-gradient-4);
      }

      .cls-14 {
        fill: #c4c4c4;
      }

      .cls-15 {
        fill: #003b7c;
      }
    </style>
    <linearGradient id="linear-gradient" x1="192" y1="371.55" x2="192" y2="287.29" gradientUnits="userSpaceOnUse">
      <stop offset="0" stop-color="#3486ef"/>
      <stop offset=".38" stop-color="#166ae1"/>
      <stop offset=".61" stop-color="#1467de"/>
      <stop offset=".78" stop-color="#0e60d4"/>
      <stop offset=".93" stop-color="#0554c5"/>
      <stop offset="1" stop-color="#004cbb"/>
    </linearGradient>
    <linearGradient id="linear-gradient-2" x1="192" y1="92.82" x2="192" y2="316.51" xlink:href="#linear-gradient"/>
    <linearGradient id="linear-gradient-3" x1="192" y1="335.55" x2="192" y2="120.06" gradientUnits="userSpaceOnUse">
      <stop offset="0" stop-color="#8d8e90"/>
      <stop offset=".1" stop-color="#a6a6a8"/>
      <stop offset=".24" stop-color="#c6c6c7"/>
      <stop offset=".4" stop-color="#dfdfdf"/>
      <stop offset=".56" stop-color="#f0f1f1"/>
      <stop offset=".72" stop-color="#fbfbfb"/>
      <stop offset=".92" stop-color="#fff"/>
    </linearGradient>
    <linearGradient id="linear-gradient-4" x1="192" y1="92.82" x2="192" y2="316.51" xlink:href="#linear-gradient"/>
    <linearGradient id="linear-gradient-5" x1="192" y1="254.82" x2="192" y2="103.35" xlink:href="#linear-gradient"/>
    <linearGradient id="linear-gradient-6" x1="218.82" y1="256.71" x2="199.55" y2="206.53" xlink:href="#linear-gradient"/>
    <linearGradient id="linear-gradient-7" x1="199.79" y1="146.45" x2="199.79" y2="257.54" gradientUnits="userSpaceOnUse">
      <stop offset=".11" stop-color="#3486ef"/>
      <stop offset=".65" stop-color="#166ae1"/>
      <stop offset=".76" stop-color="#1366dc"/>
      <stop offset=".88" stop-color="#0b5bce"/>
      <stop offset="1" stop-color="#004cbb"/>
    </linearGradient>
  </defs>
  <g class="cls-6">
    <g id="Layer_1" data-name="Layer 1">
      <g>
        <g class="cls-8">
          <path class="cls-3" d="M327.59,203.69c0-.19,.02-.39,.02-.58,.02-.39,.03-.78,.05-1.18,.04-1.31,.07-2.63,.07-3.95s-.03-2.62-.06-3.92c-.01-.4-.03-.8-.05-1.2-.04-.92-.08-1.85-.14-2.76-.03-.43-.05-.87-.08-1.3-.07-.95-.15-1.9-.23-2.84-.03-.35-.06-.7-.1-1.05-.13-1.3-.28-2.6-.45-3.89,0-.01,0-.03,0-.04-.17-1.27-.36-2.52-.56-3.78-.05-.33-.11-.65-.17-.98-.16-.97-.34-1.93-.52-2.89-.07-.35-.14-.7-.21-1.05-.21-1.02-.42-2.04-.66-3.06-.05-.23-.1-.47-.16-.7-5.09-21.87-15.73-41.68-30.4-57.95-.18-.2-.35-.39-.53-.58-.96-1.05-1.93-2.09-2.92-3.11-.02-.02-.04-.05-.07-.07-1.03-1.06-2.09-2.1-3.16-3.13-.17-.17-.35-.33-.53-.5-1.03-.98-2.08-1.96-3.15-2.91-.03-.03-.06-.05-.09-.08-1.12-1-2.26-1.98-3.42-2.94-.16-.13-.32-.26-.48-.39-1.12-.93-2.26-1.84-3.41-2.73-.02-.02-.05-.04-.07-.06-1.21-.93-2.44-1.85-3.68-2.74-.13-.09-.26-.19-.39-.28-1.22-.87-2.45-1.72-3.7-2.55-.01,0-.02-.02-.03-.02-1.3-.86-2.62-1.71-3.95-2.53-.09-.06-.19-.11-.28-.17-2.67-1.64-5.4-3.19-8.2-4.65-.05-.03-.1-.05-.15-.08-2.84-1.48-5.74-2.86-8.69-4.14,0,0-.02,0-.02,0-4.48-1.94-9.09-3.65-13.81-5.12,0,0,0,0,0,0h0c-13-4.04-26.85-6.23-41.23-6.23-12.73,0-25.05,1.71-36.73,4.91h0c-1.55,.42-3.09,.88-4.62,1.36-.17,.05-.35,.11-.52,.17-3.02,.95-5.98,2.01-8.9,3.15-.18,.07-.36,.14-.54,.21-2.9,1.16-5.75,2.41-8.55,3.75-.19,.09-.37,.18-.56,.27-2.77,1.35-5.49,2.78-8.15,4.31-.19,.11-.39,.22-.58,.33-2.64,1.53-5.22,3.14-7.74,4.83-.2,.13-.39,.26-.59,.4-2.5,1.7-4.93,3.47-7.3,5.33-.2,.15-.39,.31-.59,.46-2.35,1.86-4.63,3.79-6.85,5.79-.19,.17-.39,.35-.58,.52-2.2,2.01-4.33,4.09-6.38,6.24-.18,.19-.37,.38-.55,.58-16.67,17.61-28.5,39.65-33.43,64.1-.05,.24-.1,.48-.14,.73-.21,1.07-.4,2.14-.59,3.22-.04,.26-.09,.52-.13,.79-.21,1.27-.4,2.54-.57,3.82,0,.02,0,.04,0,.07-.17,1.32-.33,2.66-.46,3.99-.03,.28-.05,.56-.08,.85-.1,1.01-.18,2.03-.25,3.05-.03,.41-.06,.82-.08,1.24-.06,.94-.1,1.89-.14,2.84-.02,.39-.03,.79-.05,1.18-.04,1.31-.07,2.63-.07,3.95s.03,2.66,.07,3.98c.01,.39,.03,.78,.05,1.16,0,.19,.01,.38,.02,.57-.08,1.89-.13,3.8-.13,5.71,0,38.29,16.66,72.78,43.29,96.96,.02,.02,.04,.03,.05,.05,2.3,2.09,4.68,4.1,7.13,6.03,.04,.04,.09,.07,.13,.11,2.42,1.91,4.92,3.74,7.47,5.48,.08,.05,.16,.11,.24,.16,2.53,1.72,5.13,3.36,7.78,4.91,.11,.07,.23,.13,.34,.2,1.24,.72,2.5,1.42,3.76,2.11,.09,.05,.18,.1,.27,.15,1.33,.71,2.68,1.41,4.04,2.08,.14,.07,.28,.13,.41,.2,1.22,.6,2.46,1.18,3.7,1.74,.19,.09,.38,.18,.57,.26,1.36,.61,2.72,1.2,4.1,1.76,.14,.06,.28,.11,.42,.17,1.24,.5,2.48,.98,3.74,1.45,.26,.1,.53,.2,.79,.29,1.39,.51,2.78,.99,4.19,1.46,.11,.03,.21,.07,.32,.1,1.3,.42,2.6,.82,3.91,1.2,.31,.09,.61,.18,.92,.27,1.43,.41,2.87,.8,4.31,1.16,0,0,0,0,0,0h0c10.81,2.7,22.13,4.14,33.81,4.14,13.32,0,26.19-1.88,38.35-5.37h0c23.88-6.4,47.31-21.48,62.12-38.01,21.91-23.52,35.26-54.76,35.26-89.05,0-1.91-.05-3.82-.13-5.71Z"/>
        </g>
        <circle class="cls-12" cx="192" cy="199.03" r="132.43"/>
        <path class="cls-14" d="M95.24,289.44c16.96,18.15,38.96,31.52,63.78,37.88v-42.18l-63.78-7.13v11.42Z"/>
        <path class="cls-14" d="M290.91,287.09c-14.39,16.93-37.73,32.49-61.49,39.02v-40.96s61.49-9.48,61.49-9.48v11.42Z"/>
        <circle class="cls-2" cx="192" cy="187.61" r="132.43"/>
        <ellipse class="cls-11" cx="192" cy="192.36" rx="98.17" ry="93.07"/>
        <path class="cls-7" d="M192,279.15c-53.11,0-96.37-39.98-98.11-89.93-.04,1.04-.06,2.09-.06,3.14,0,51.4,43.95,93.07,98.17,93.07s98.17-41.67,98.17-93.07c0-1.05-.03-2.09-.06-3.14-1.75,49.95-45,89.93-98.11,89.93Z"/>
        <path class="cls-13" d="M192,55.18c-73.14,0-132.43,59.29-132.43,132.43s59.29,132.43,132.43,132.43,132.43-59.29,132.43-132.43S265.14,55.18,192,55.18Zm0,227.74c-52.64,0-95.31-42.67-95.31-95.31s42.67-95.31,95.31-95.31,95.31,42.67,95.31,95.31-42.67,95.31-95.31,95.31Z"/>
        <path class="cls-9" d="M192,101.21c51.15,0,92.88,40.29,95.2,90.86,.07-1.48,.11-2.96,.11-4.45,0-52.64-42.67-95.31-95.31-95.31s-95.31,42.67-95.31,95.31c0,1.49,.04,2.98,.11,4.45,2.33-50.57,44.06-90.86,95.2-90.86Z"/>
        <path class="cls-5" d="M197.06,129.38c15.63,0,27.07,4.18,34.34,12.54,7.27,8.36,10.9,16.44,10.9,37.76,0,6.31-3.77,10.12-11.31,18.11-7.54,8-19.04,11.99-34.48,11.99h-10.9v41.7h-28.35v-122.11h39.79Zm-11.45,60.78h11.91c4.34,0,8.17-1.86,11.48-5.59,3.3-3.72,4.96-8.86,4.96-15.4s-1.66-11.54-4.96-14.99c-3.31-3.45-7.13-5.18-11.48-5.18h-11.91v41.16Z"/>
        <path class="cls-10" d="M197.06,137.98c15.63,0,27.07,4.18,34.34,12.54,7.27,8.36,10.9,18.08,10.9,29.16,0,9.81-3.77,18.72-11.31,26.71-7.54,8-19.04,11.99-34.48,11.99h-10.9v41.7h-28.35v-122.11h39.79Zm-11.45,60.78h11.91c4.34,0,8.17-1.86,11.48-5.59,3.3-3.72,4.96-8.86,4.96-15.4s-1.66-11.54-4.96-14.99c-3.31-3.45-7.13-5.18-11.48-5.18h-11.91v41.16Z"/>
        <path class="cls-4" d="M91.73,101.1l28.7,23.58c13.38-15.21,31.52-26.11,52.1-30.39-5.24-10.89-11.67-24.29-16.37-34.2-25.38,7.12-47.67,21.6-64.43,41.01Z"/>
        <path class="cls-4" d="M232.23,61.41c-4.79,10.09-11.15,23.34-16.25,33.94,19.78,5.13,37.06,16.44,49.66,31.76l28.68-23.57c-16.02-19.48-37.5-34.29-62.09-42.13Z"/>
        <path class="cls-4" d="M159.02,315.9c5.31-11.14,11.82-24.68,16.51-34.4-20.01-3.49-37.88-13.22-51.52-27.11l-28.76,23.63c16.96,18.15,38.96,31.52,63.78,37.88Z"/>
        <path class="cls-4" d="M290.91,275.67l-28.71-23.59c-12.88,14.02-29.91,24.18-49.15,28.51,4.55,9.43,10.99,22.83,16.36,34.09,24.05-7.07,45.25-20.78,61.5-39.01Z"/>
        <path class="cls-4" d="M96.69,187.61c0-8.83,1.21-17.37,3.45-25.49-7.89-1.74-22.64-5-36.28-8.06-2.8,10.71-4.29,21.96-4.29,33.55s1.52,23.01,4.36,33.8l36.31-7.97c-2.31-8.21-3.54-16.88-3.54-25.83Z"/>
        <path class="cls-4" d="M320.14,221.16c2.8-10.71,4.29-21.95,4.29-33.54s-1.47-22.65-4.22-33.29c-14.02,3.14-28.95,6.44-36.28,8.06,2.2,8.04,3.38,16.5,3.38,25.23s-1.21,17.43-3.48,25.57l36.31,7.97Z"/>
        <path class="cls-1" d="M120.43,133.59c13.38-15.21,31.52-26.11,52.1-30.39v-8.91c-20.58,4.27-38.72,15.18-52.1,30.39v8.91Z"/>
        <path class="cls-1" d="M265.64,136.01c-13.38-15.21-30.37-26.01-49.66-31.72v-8.95c20.25,5.07,36.27,15.81,49.66,31.76v8.91Z"/>
        <path class="cls-15" d="M192,55.18c14.03,0,27.54,2.19,40.23,6.23,0,0,0,0,0,0,4.61,1.47,9.1,3.18,13.47,5.12,0,0,.02,0,.02,0,2.88,1.28,5.71,2.66,8.48,4.14,.05,.03,.1,.05,.15,.08,2.72,1.46,5.39,3.01,8,4.65,.09,.06,.18,.11,.27,.17,1.3,.82,2.59,1.66,3.86,2.53,.01,0,.02,.02,.03,.02,1.22,.83,2.42,1.68,3.61,2.55,.13,.09,.26,.19,.38,.28,1.21,.89,2.41,1.81,3.59,2.74,.02,.02,.05,.04,.07,.06,1.13,.89,2.23,1.8,3.33,2.73,.15,.13,.31,.26,.46,.39,1.13,.96,2.24,1.94,3.33,2.94,.03,.03,.06,.05,.08,.08,1.04,.95,2.06,1.92,3.07,2.91,.17,.17,.34,.33,.51,.5,1.04,1.03,2.07,2.07,3.08,3.13,.02,.02,.04,.05,.07,.07,.97,1.02,1.91,2.06,2.85,3.11,.17,.19,.35,.39,.52,.58,14.31,16.27,24.69,36.08,29.66,57.95,.05,.23,.1,.47,.15,.7,.22,1.01,.44,2.03,.64,3.06,.07,.35,.13,.7,.2,1.05,.18,.96,.35,1.92,.51,2.89,.05,.33,.11,.65,.16,.98,.2,1.25,.38,2.51,.54,3.78,0,.01,0,.03,0,.04,.16,1.29,.31,2.59,.43,3.89,.03,.35,.06,.7,.09,1.05,.08,.94,.16,1.89,.23,2.84,.03,.43,.06,.87,.08,1.3,.05,.92,.1,1.84,.13,2.76,.02,.4,.03,.8,.05,1.2,.04,1.3,.06,2.61,.06,3.92s-.03,2.64-.06,3.95c-.01,.39-.03,.78-.04,1.18,0,.19-.01,.39-.02,.58,.08,1.89,.13,3.8,.13,5.71,0,34.29-13.03,65.53-34.41,89.05-14.45,16.54-37.31,31.62-60.61,38.02h0c-11.87,3.48-24.42,5.36-37.42,5.36-11.39,0-22.44-1.44-32.99-4.14,0,0,0,0,0,0-1.41-.36-2.81-.75-4.21-1.16-.3-.09-.6-.18-.9-.27-1.28-.38-2.55-.78-3.82-1.2-.1-.03-.21-.07-.31-.1-1.37-.46-2.74-.95-4.09-1.46-.26-.1-.51-.2-.77-.29-1.22-.47-2.44-.95-3.64-1.45-.14-.06-.28-.11-.41-.17-1.35-.56-2.68-1.15-4.01-1.76-.19-.09-.37-.17-.56-.26-1.21-.56-2.42-1.14-3.61-1.74-.13-.07-.27-.13-.4-.2-1.33-.67-2.64-1.36-3.94-2.08-.09-.05-.18-.1-.27-.15-1.24-.68-2.46-1.39-3.67-2.11-.11-.07-.22-.13-.33-.2-2.59-1.55-5.12-3.19-7.6-4.91-.08-.05-.15-.11-.23-.16-2.5-1.74-4.93-3.57-7.29-5.48-.04-.04-.09-.07-.13-.11-2.39-1.93-4.71-3.94-6.95-6.03-.02-.02-.04-.03-.05-.05-25.98-24.18-42.24-58.67-42.24-96.96,0-1.91,.05-3.82,.13-5.71,0-.19-.01-.38-.02-.57-.01-.39-.03-.78-.04-1.16-.04-1.32-.06-2.65-.06-3.98s.03-2.64,.06-3.95c.01-.39,.03-.79,.04-1.18,.04-.95,.08-1.89,.14-2.84,.02-.41,.05-.82,.08-1.24,.07-1.02,.15-2.04,.25-3.05,.03-.28,.05-.56,.08-.85,.13-1.34,.28-2.67,.45-3.99,0-.02,0-.04,0-.07,.17-1.28,.35-2.55,.56-3.82,.04-.26,.09-.52,.13-.79,.18-1.08,.37-2.15,.57-3.22,.05-.24,.09-.49,.14-.73,4.81-24.45,16.35-46.49,32.62-64.1,.18-.19,.36-.38,.54-.58,2.01-2.15,4.08-4.23,6.23-6.24,.19-.18,.38-.35,.56-.52,2.16-2,4.39-3.94,6.68-5.79,.19-.15,.38-.31,.57-.46,2.31-1.85,4.69-3.63,7.13-5.33,.19-.13,.38-.27,.57-.4,2.46-1.69,4.98-3.3,7.55-4.83,.19-.11,.38-.22,.57-.33,2.6-1.52,5.25-2.96,7.96-4.31,.18-.09,.36-.18,.54-.27,2.73-1.34,5.51-2.59,8.34-3.75,.17-.07,.35-.14,.52-.21,2.85-1.15,5.74-2.2,8.69-3.15,.17-.06,.34-.11,.51-.17,1.49-.48,2.99-.93,4.5-1.36,0,0,0,0,0,0,11.4-3.2,23.42-4.91,35.84-4.91m0-2c-12.34,0-24.59,1.68-36.38,4.99-1.48,.41-2.97,.86-4.57,1.38l-.33,.11-.19,.06c-2.98,.96-5.94,2.04-8.82,3.2l-.36,.15-.17,.07c-2.86,1.17-5.71,2.45-8.47,3.81l-.43,.21-.12,.06c-2.74,1.36-5.45,2.83-8.08,4.37l-.51,.3-.07,.04c-2.6,1.54-5.18,3.19-7.66,4.9l-.58,.4c-2.46,1.71-4.9,3.53-7.23,5.41l-.58,.47c-2.31,1.87-4.6,3.85-6.79,5.88l-.57,.53c-2.16,2.03-4.29,4.16-6.32,6.33l-.54,.58c-16.88,18.28-28.33,40.78-33.11,65.08l-.1,.53-.04,.21c-.21,1.08-.4,2.18-.58,3.27l-.04,.26-.09,.54c-.22,1.4-.41,2.67-.56,3.88v.07c-.18,1.29-.33,2.66-.47,4.05-.02,.17-.03,.34-.05,.52l-.03,.34c-.1,1.06-.18,2.1-.25,3.1-.03,.42-.05,.84-.08,1.25-.06,.96-.1,1.92-.14,2.88v.37c-.03,.27-.04,.55-.05,.82-.04,1.48-.06,2.79-.06,4.01s.02,2.54,.07,4.04c0,.28,.02,.55,.03,.82v.36s.02,.19,.02,.19v.3c-.08,2.06-.12,3.93-.12,5.71,0,19,3.89,37.36,11.55,54.58,7.4,16.63,17.94,31.38,31.33,43.84l.05,.05c2.27,2.11,4.65,4.17,7.06,6.12l.09,.07,.05,.04c2.4,1.94,4.89,3.81,7.4,5.56l.14,.1,.1,.07c2.52,1.75,5.11,3.43,7.71,4.98l.2,.12,.14,.08c1.25,.74,2.5,1.46,3.73,2.14l.11,.06,.16,.09c1.32,.72,2.66,1.43,4,2.11l.24,.12,.17,.08c1.19,.6,2.42,1.19,3.66,1.77l.22,.1,.35,.16c1.38,.63,2.75,1.23,4.07,1.79l.25,.1,.17,.07c1.18,.49,2.42,.98,3.7,1.47l.23,.09,.55,.21c1.48,.55,2.83,1.03,4.15,1.48l.19,.06,.13,.04c1.22,.41,2.48,.81,3.88,1.22,.33,.1,.62,.19,.91,.27,1.57,.46,2.97,.84,4.27,1.18,10.88,2.79,22.15,4.2,33.48,4.2,12.84,0,25.55-1.82,37.8-5.4,.05,0,.1-.02,.15-.03,22.59-6.21,46.19-21.02,61.59-38.64,22.5-24.75,34.9-56.85,34.9-90.36,0-1.78-.04-3.65-.13-5.71v-.3s.02-.2,.02-.2v-.37c.03-.27,.04-.55,.05-.82,.04-1.48,.06-2.79,.06-4.01s-.02-2.52-.06-3.98c0-.28-.02-.56-.03-.83l-.02-.38c-.04-.94-.08-1.87-.13-2.81-.03-.44-.05-.88-.08-1.32-.07-.96-.14-1.92-.23-2.88l-.03-.39c-.02-.23-.04-.45-.06-.68-.14-1.42-.28-2.71-.44-3.95,0-.01,0-.05,0-.06-.15-1.17-.33-2.43-.55-3.82-.04-.22-.07-.44-.11-.66l-.06-.33c-.16-.98-.33-1.96-.52-2.93-.07-.35-.13-.71-.2-1.06-.2-1.01-.42-2.06-.65-3.1l-.06-.29c-.03-.14-.06-.29-.09-.43-4.93-21.69-15.34-42.03-30.11-58.83l-.45-.5-.08-.09c-1.04-1.16-1.98-2.2-2.89-3.16l-.07-.07c-.96-1.01-1.98-2.05-3.13-3.18l-.38-.37-.14-.14c-1.11-1.08-2.13-2.04-3.12-2.95l-.09-.08c-1.06-.97-2.17-1.94-3.38-2.98l-.31-.27-.16-.13c-1.19-1.01-2.29-1.91-3.38-2.77l-.07-.06c-1.14-.9-2.37-1.84-3.64-2.78l-.24-.18-.15-.11c-1.28-.94-2.48-1.79-3.66-2.59-1.28-.87-2.59-1.73-3.95-2.59l-.16-.1-.11-.07c-2.65-1.67-5.38-3.25-8.12-4.72l-.09-.05-.06-.03c-2.81-1.5-5.71-2.91-8.61-4.2-4.47-1.98-9.07-3.73-13.7-5.21,0,0,0,0,0,0-13.17-4.2-26.91-6.32-40.84-6.32h0Z"/>
      </g>
    </g>
  </g>
</svg>