<svg id="Layer_3" height="512" viewBox="0 0 64 64" width="512" xmlns="http://www.w3.org/2000/svg" data-name="Layer 3"><path d="m16 42v20h46v-26h-40z" fill="#ccc"/><path d="m19 39-3 3v20h42.704v-23z" fill="#e2e2e2"/><path d="m58 16a12 12 0 0 1 -12 12h-32a12 12 0 0 1 -12-12v30a4 4 0 0 0 4 4h10v-8l6-6h36z" fill="#976947"/><path d="m27 28h-13a12 12 0 0 1 -12-12v-2a2 2 0 0 1 2-2h52a2 2 0 0 1 2 2v2a12 12 0 0 1 -12 12h-13" fill="#c18e59"/><path d="m27 24h6v8h-6z" fill="#ccc"/><path d="m36 12v-6h-12v6h-4v-8a2 2 0 0 1 2-2h16a2 2 0 0 1 2 2v8z" fill="#976947"/><g fill="#b5b5b5"><path d="m16 42h6v-6"/><path d="m25 41h2v16h-2z"/><path d="m29 41h2v16h-2z"/><path d="m33 41h2v16h-2z"/><path d="m55 41h2v8h-2z"/></g><path d="m27 25.994h4v6.006h-4z" fill="#e2e2e2"/></svg>