<?xml version="1.0" encoding="UTF-8"?>
<svg id="_레이어_2" data-name="레이어 2" xmlns="http://www.w3.org/2000/svg" viewBox="0 0 20 20">
  <defs>
    <style>
      .cls-1 {
        fill: none;
      }

      .cls-1, .cls-2 {
        stroke-width: 0px;
      }

      .cls-2 {
        fill: #fff;
      }
    </style>
  </defs>
  <g id="_레이어_1-2" data-name="레이어 1">
    <g>
      <rect class="cls-1" width="20" height="20"/>
      <g>
        <path class="cls-2" d="m13.03,8.21c0,.75,0,1.49,0,2.24,0,1.75-1.4,3.11-3.15,3.06-1.56-.04-2.89-1.37-2.91-2.93-.02-1.58-.02-3.17,0-4.75.01-1.45,1.2-2.73,2.63-2.9,1.64-.19,3.06.85,3.38,2.47.04.19.05.39.05.58,0,.74,0,1.48,0,2.23Zm-1.01,0c0-.75,0-1.49,0-2.24,0-.16-.01-.32-.05-.47-.23-1.01-1.18-1.7-2.17-1.58-1.05.12-1.82.98-1.82,2.03,0,1.5,0,3.01,0,4.51,0,.15.02.31.05.45.23,1,1.17,1.68,2.16,1.58,1.05-.11,1.83-.97,1.83-2.03,0-.75,0-1.5,0-2.26Z"/>
        <path class="cls-2" d="m10.51,15.59c0,.32,0,.63,0,.94,0,.34-.21.57-.51.56-.3,0-.5-.23-.5-.57,0-.33,0-.65,0-.98-.27-.06-.54-.09-.8-.17-2.07-.64-3.32-2.02-3.7-4.16-.04-.2-.04-.41-.04-.61,0-.32.19-.53.5-.53.3,0,.51.2.51.52.02,1.23.48,2.26,1.42,3.05,1.19,1,2.56,1.26,4.02.72,1.44-.53,2.3-1.6,2.59-3.11.04-.21.05-.43.06-.64.01-.34.2-.54.51-.54.32,0,.51.21.5.56-.07,1.94-.97,3.38-2.64,4.35-.55.32-1.16.51-1.8.59-.03,0-.06.01-.11.02Z"/>
      </g>
    </g>
  </g>
</svg>