<?xml version="1.0" encoding="UTF-8"?>
<svg id="_레이어_2" data-name="레이어 2" xmlns="http://www.w3.org/2000/svg" viewBox="0 0 20 20">
  <defs>
    <style>
      .cls-1 {
        fill: none;
      }

      .cls-1, .cls-2 {
        stroke-width: 0px;
      }

      .cls-2 {
        fill: #ff5353;
      }
    </style>
  </defs>
  <g id="_레이어_1-2" data-name="레이어 1">
    <g>
      <rect class="cls-1" width="20" height="20"/>
      <g>
        <path class="cls-2" d="m5.28,12.26l.78-.78c-.06-.29-.1-.58-.1-.89,0-.32-.21-.52-.51-.52-.3,0-.5.21-.5.53,0,.2,0,.41.04.61.07.37.17.72.29,1.05Z"/>
        <path class="cls-2" d="m14.55,10.07c-.31,0-.49.2-.51.54,0,.21-.02.43-.06.64-.29,1.51-1.15,2.58-2.59,3.11-1.46.54-2.83.28-4.02-.72-.12-.1-.21-.22-.31-.33l-.69.69c.6.61,1.37,1.07,2.33,1.37.26.08.53.12.8.17,0,.33,0,.65,0,.98,0,.34.2.56.5.57.29,0,.5-.23.51-.56,0-.31,0-.62,0-.94.05,0,.08-.02.11-.02.64-.07,1.25-.26,1.8-.59,1.66-.97,2.56-2.41,2.64-4.35.01-.35-.19-.56-.5-.56Z"/>
      </g>
      <g>
        <path class="cls-2" d="m7.98,9.56c0-1.2,0-2.41,0-3.61,0-1.06.77-1.91,1.82-2.03.99-.11,1.94.58,2.17,1.58,0,.02,0,.04,0,.07l.81-.8c-.52-1.24-1.77-1.99-3.18-1.83-1.43.16-2.62,1.45-2.63,2.9-.02,1.58-.02,3.16,0,4.74l1.01-1.01Z"/>
        <path class="cls-2" d="m12.02,8.35c0,.71,0,1.41,0,2.12,0,1.06-.78,1.91-1.83,2.03-.63.07-1.24-.19-1.66-.65l-.72.72c.53.56,1.27.92,2.07.95,1.75.05,3.14-1.31,3.15-3.06,0-.75,0-1.49,0-2.24,0-.29,0-.58,0-.87l-1.01,1.01Z"/>
      </g>
      <path class="cls-2" d="m4.31,15.15c-.13,0-.26-.05-.35-.15-.2-.2-.2-.51,0-.71L14.52,3.72c.2-.2.51-.2.71,0s.2.51,0,.71L4.66,15c-.1.1-.23.15-.35.15Z"/>
    </g>
  </g>
</svg>