<?xml version="1.0" encoding="UTF-8"?>
<svg id="_레이어_2" data-name="레이어 2" xmlns="http://www.w3.org/2000/svg" viewBox="0 0 20 20">
  <defs>
    <style>
      .cls-1 {
        fill: none;
      }

      .cls-1, .cls-2 {
        stroke-width: 0px;
      }

      .cls-2 {
        fill: #fff;
      }
    </style>
  </defs>
  <g id="_레이어_1-2" data-name="레이어 1">
    <g>
      <rect class="cls-1" width="20" height="20"/>
      <g>
        <path class="cls-2" d="m6.5,14c-.07,0-.13,0-.18,0-.59,0-1.17,0-1.76,0-.91,0-1.55-.64-1.55-1.55,0-2.12,0-4.24,0-6.36,0-.95.63-1.58,1.58-1.58,2.63,0,5.26,0,7.9,0,.99,0,1.98,0,2.97,0,.77,0,1.36.46,1.51,1.18.03.13.04.27.04.41,0,2.11,0,4.22,0,6.33,0,.83-.5,1.44-1.29,1.57-.09.01-.18.01-.27.01-.59,0-1.17,0-1.76,0-.06,0-.11,0-.19,0,0,.13,0,.24,0,.36,0,.67-.48,1.14-1.15,1.15-.93,0-1.85,0-2.78,0-.63,0-1.26,0-1.88,0-.72,0-1.18-.47-1.19-1.19,0-.1,0-.2,0-.31Zm3.5-1c1.79,0,3.59,0,5.38,0,.44,0,.62-.18.62-.62,0-2.08,0-4.16,0-6.25,0-.45-.18-.63-.63-.63-3.58,0-7.17,0-10.75,0-.44,0-.62.18-.62.61,0,2.09,0,4.18,0,6.26,0,.45.17.62.63.62,1.79,0,3.58,0,5.37,0Zm2.48,1.01h-4.98c0,.09,0,.16,0,.23,0,.25,0,.26.25.26,1.44,0,2.89,0,4.33,0,.46,0,.47-.01.4-.49Z"/>
        <path class="cls-2" d="m10.5,8.76c0,.7,0,1.4,0,2.1,0,.07,0,.15-.01.22-.05.26-.27.43-.53.41-.26-.02-.46-.22-.46-.49,0-.7,0-1.39,0-2.09,0-.06,0-.11,0-.21-.2.2-.37.37-.54.54-.14.14-.31.2-.5.14-.36-.1-.5-.53-.25-.8.48-.5.98-.99,1.48-1.48.18-.17.46-.17.64.01.49.48.98.96,1.45,1.45.19.2.17.51-.02.69-.19.19-.49.19-.69,0-.18-.17-.35-.36-.52-.54-.02.01-.03.02-.05.03Z"/>
      </g>
    </g>
  </g>
</svg>