<?xml version="1.0" encoding="UTF-8"?>
<svg id="_레이어_2" data-name="레이어 2" xmlns="http://www.w3.org/2000/svg" viewBox="0 0 20 20">
  <defs>
    <style>
      .cls-1 {
        fill: none;
      }

      .cls-1, .cls-2 {
        stroke-width: 0px;
      }

      .cls-2 {
        fill: #ff5353;
      }
    </style>
  </defs>
  <g id="_레이어_1-2" data-name="레이어 1">
    <g>
      <rect class="cls-1" width="20" height="20"/>
      <path class="cls-2" d="m3,15.88c-.13,0-.26-.05-.35-.15-.2-.2-.2-.51,0-.71L13.21,4.46c.2-.2.51-.2.71,0s.2.51,0,.71L3.35,15.73c-.1.1-.23.15-.35.15Z"/>
      <g>
        <path class="cls-2" d="m3.2,13.76l.65-.65s-.02-.09-.02-.14c0-2,0-3.99,0-5.99,0-.4.17-.57.58-.57,1.14,0,2.28,0,3.43,0,.9,0,1.81,0,2.71,0l.82-.82s-.02,0-.03,0c-2.33,0-4.67,0-7.01,0-.58,0-1.04.32-1.24.82-.04.1-.06.2-.09.3v6.55s.02.03.02.05c.04.17.1.32.18.45Z"/>
        <path class="cls-2" d="m16.46,6.54c-1.21.48-2.42.97-3.64,1.45-.04.02-.09.03-.15.05,0-.32,0-.62,0-.92l-.83.83c0,1.68,0,3.37,0,5.05,0,.39-.18.56-.56.56-1.68,0-3.36,0-5.05,0l-.82.82c1.98,0,3.95,0,5.93,0,.78,0,1.32-.56,1.33-1.34,0-.32,0-.64,0-.96,0-.04,0-.09,0-.14.06.02.1.04.14.05,1.21.48,2.42.97,3.64,1.45.38.15.64-.03.64-.44,0-2.01,0-4.02,0-6.03,0-.41-.26-.59-.64-.44Zm-.19,5.93s-.08-.02-.12-.04c-1.12-.45-2.24-.9-3.37-1.34-.09-.03-.12-.07-.12-.17,0-.62,0-1.24,0-1.86,0-.07,0-.12.08-.15,1.15-.46,2.31-.92,3.46-1.38.01,0,.03,0,.06-.01v4.95Z"/>
      </g>
    </g>
  </g>
</svg>