<svg id="alarm_icon" xmlns="http://www.w3.org/2000/svg" width="32" height="32" viewBox="0 0 32 32">
  <rect id="사각형_1412" data-name="사각형 1412" width="32" height="32" fill="none"/>
  <path id="합치기_12" data-name="합치기 12" d="M-2083.021,25a.306.306,0,0,1-.115-.022,1.734,1.734,0,0,0-.225-.076,3.8,3.8,0,0,1-2.916-2.953c-.8,0-1.753.007-2.726.007-.779,0-1.483,0-2.156-.006a1.763,1.763,0,0,1-1.638-1.02,1.754,1.754,0,0,1,.161-1.891,2.207,2.207,0,0,1,.359-.378,6.793,6.793,0,0,0,2.343-5.242c0-.378,0-.755,0-1.132,0-.668,0-1.359.009-2.038a7.412,7.412,0,0,1,5-6.788.442.442,0,0,0,.078-.032.556.556,0,0,0,0-.08l0-.144a7.424,7.424,0,0,1,.026-1.163A2.342,2.342,0,0,1-2082.5,0a2.339,2.339,0,0,1,2.324,2.04,7.128,7.128,0,0,1,.03,1.031c0,.12,0,.24,0,.361a7.364,7.364,0,0,1,5.007,5.911,6.819,6.819,0,0,1,.082,1.189v.1c0,.4,0,.8-.006,1.187-.009.746-.018,1.517.039,2.267a6.61,6.61,0,0,0,2.172,4.451c.036.034.072.066.109.1.058.053.119.106.178.164a1.82,1.82,0,0,1,.432,2,1.827,1.827,0,0,1-1.7,1.151q-1.121,0-2.242,0c-.938,0-1.8,0-2.63-.007h-.007a.071.071,0,0,1,0,.015,3.849,3.849,0,0,1-3.088,2.978.9.9,0,0,1-.124.046.282.282,0,0,1-.092.015Zm.521-1.635h.008a2.256,2.256,0,0,0,2.076-1.415c-.255,0-.533,0-.872,0h-2.421c-.336,0-.614,0-.869,0A2.294,2.294,0,0,0-2082.5,23.365Zm3.055-3.057,3.5.008,1.981,0c.041,0,.07,0,.1,0,.151-.012.185-.072.208-.135s.035-.126-.073-.229c-.054-.051-.11-.1-.169-.153s-.148-.132-.221-.2a8.353,8.353,0,0,1-2.576-6.127c0-.936,0-1.894,0-2.929a5.632,5.632,0,0,0-.06-.9,5.8,5.8,0,0,0-5.728-4.948,6.074,6.074,0,0,0-1.5.19,5.788,5.788,0,0,0-4.309,5.444c-.008.591-.007,1.195-.006,1.778,0,.469,0,.955,0,1.433a8.342,8.342,0,0,1-2.158,5.631,9.822,9.822,0,0,1-.716.706l-.107.1a.169.169,0,0,0-.058.21c.026.075.066.121.189.135a1.042,1.042,0,0,0,.116.006h8.532c.479,0,.965,0,1.437-.007s.959-.006,1.44-.006ZM-2081.8,3.08c0-.058,0-.115,0-.171V2.82a.337.337,0,0,1-.006-.059c0-.056,0-.113,0-.17,0-.115,0-.225,0-.33a.7.7,0,0,0-.695-.628h0a.694.694,0,0,0-.692.631c-.01.2-.009.4-.008.61,0,.067,0,.136,0,.2q.354-.034.7-.034T-2081.8,3.08Z" transform="translate(2098.5 3.5)" fill="#fb8c00"/>
</svg>
