<svg id="chat_icon" xmlns="http://www.w3.org/2000/svg" width="32" height="32" viewBox="0 0 32 32">
  <rect id="사각형_1414" data-name="사각형 1414" width="32" height="32" fill="none"/>
  <g id="그룹_274" data-name="그룹 274" transform="translate(-144 -330)">
    <path id="패스_622" data-name="패스 622" d="M2860.79,1174.154a1.416,1.416,0,0,1-1.041-.461l-1.2-1.312h-5.582c-2.472,0-4.134-1.478-4.134-3.679v-7.33a4.18,4.18,0,0,1,4.134-4.217H2868.7a4.181,4.181,0,0,1,4.134,4.217v7.33c0,2.2-1.661,3.679-4.134,3.679h-5.66l-1.2,1.312a1.415,1.415,0,0,1-1.04.461Zm-7.827-15.656a2.848,2.848,0,0,0-2.816,2.873v7.33c0,1.722,1.455,2.335,2.816,2.335h5.922a.658.658,0,0,1,.6.392.136.136,0,0,0,.023.035l1.2,1.312a.094.094,0,0,0,.158,0l1.2-1.313a.138.138,0,0,0,.022-.034.658.658,0,0,1,.6-.392h6c1.362,0,2.816-.614,2.816-2.335v-7.33a2.848,2.848,0,0,0-2.816-2.873Z" transform="translate(-2700.829 -819.154)" fill="#fb8c00"/>
    <circle id="타원_49" data-name="타원 49" cx="1.013" cy="1.013" r="1.013" transform="translate(154.889 344.409)" fill="#fb8c00"/>
    <circle id="타원_50" data-name="타원 50" cx="1.013" cy="1.013" r="1.013" transform="translate(158.987 344.409)" fill="#fb8c00"/>
    <circle id="타원_51" data-name="타원 51" cx="1.013" cy="1.013" r="1.013" transform="translate(163.086 344.409)" fill="#fb8c00"/>
  </g>
</svg>
