<svg id="class_icon" xmlns="http://www.w3.org/2000/svg" width="32" height="32" viewBox="0 0 32 32">
  <rect id="사각형_1415" data-name="사각형 1415" width="32" height="32" fill="none"/>
  <g id="그룹_275" data-name="그룹 275" transform="translate(-2893.212 -1257.075)">
    <path id="패스_623" data-name="패스 623" d="M2917.141,1278.42h-15.858a4.138,4.138,0,0,1-4.071-4.193v-6.96a4.138,4.138,0,0,1,4.071-4.192h15.858a4.138,4.138,0,0,1,4.071,4.192v6.96A4.138,4.138,0,0,1,2917.141,1278.42Zm-15.858-13.988a2.8,2.8,0,0,0-2.753,2.835v6.96a2.8,2.8,0,0,0,2.753,2.835h15.858a2.8,2.8,0,0,0,2.753-2.835v-6.96a2.8,2.8,0,0,0-2.753-2.835Z" transform="translate(0 0)" fill="#fb8c00"/>
    <path id="패스_624" data-name="패스 624" d="M2931.047,1284.638a1.615,1.615,0,0,1-1.609-1.612v-4.511a1.609,1.609,0,0,1,2.414-1.394l3.907,2.256h0a1.61,1.61,0,0,1,0,2.788l-3.907,2.256A1.6,1.6,0,0,1,2931.047,1284.638Zm0-6.4a.272.272,0,0,0-.136.038.262.262,0,0,0-.135.234v4.511a.27.27,0,0,0,.405.234l3.907-2.256a.27.27,0,0,0,0-.468l-3.907-2.256A.265.265,0,0,0,2931.048,1278.243Z" transform="translate(-23.789 -10.062)" fill="#fb8c00"/>
    <path id="패스_625" data-name="패스 625" d="M2921.892,1329.056h-16.4a.768.768,0,0,0-.7-.453h-1.747a.768.768,0,0,0-.7.453h-1.643a.67.67,0,0,0,0,1.339h1.643a.769.769,0,0,0,.7.453h1.747a.768.768,0,0,0,.7-.453h16.4a.67.67,0,0,0,0-1.339Z" transform="translate(-2.077 -47.774)" fill="#fb8c00"/>
  </g>
</svg>
