<svg id="그룹_839" data-name="그룹 839" xmlns="http://www.w3.org/2000/svg" xmlns:xlink="http://www.w3.org/1999/xlink" width="32.253" height="28.417" viewBox="0 0 32.253 28.417">
  <defs>
    <clipPath id="clip-path">
      <rect id="사각형_4267" data-name="사각형 4267" width="32.253" height="28.417" fill="none"/>
    </clipPath>
  </defs>
  <g id="그룹_838" data-name="그룹 838" clip-path="url(#clip-path)">
    <path id="패스_1485" data-name="패스 1485" d="M10.543,30.3C4.237,30.3,0,25.811,0,19.131c0-6.47,4.336-10.99,10.543-10.99a12.141,12.141,0,0,1,4.177.715,10.2,10.2,0,0,0-1.909,1.78c-.08.1-.147.187-.211.281-.221.294-.444.584-.647.913a11.268,11.268,0,0,0-.72,1.366,5.244,5.244,0,0,0-.188.535l0,.016c-.115-.007-.231-.011-.349-.011A5.1,5.1,0,0,0,5.507,19.1c0,3.317,2.144,5.633,5.215,5.633a6.232,6.232,0,0,0,.79-.05,6.9,6.9,0,0,0,.753-.14,5.756,5.756,0,0,0,.619-.193,8.393,8.393,0,0,0,1.3-.663,3.955,3.955,0,0,1,2.076-.742,2.407,2.407,0,0,1,2.5,2.679,3.87,3.87,0,0,1-2.093,3.219,5.36,5.36,0,0,1-.564.287l-.171.079a9.009,9.009,0,0,1-1.091.436l-.166.052c-.354.109-.7.208-1.079.285-.105.023-.713.124-.713.124-.236.04-.47.079-.717.1a15.6,15.6,0,0,1-1.628.089" transform="translate(0 -1.883)" fill="#fb8c00"/>
    <path id="패스_1486" data-name="패스 1486" d="M25.363,30.3a10.925,10.925,0,0,1-3.8-.668,5.048,5.048,0,0,0,2.134-4.008,4.811,4.811,0,0,0-.153-1.229,5.355,5.355,0,0,0,1.822.307c3.167,0,5.214-2.222,5.214-5.661,0-3.4-2.046-5.6-5.214-5.6-3.131,0-5.155,2.2-5.155,5.6a6.775,6.775,0,0,0,.47,2.549,4.278,4.278,0,0,0-.941-.1,5.309,5.309,0,0,0-2.808.938,7.216,7.216,0,0,1-1.092.564c-.075.028-.153.055-.234.079a14.1,14.1,0,0,1-.574-4.028,13.049,13.049,0,0,1,1.015-5.259,9.563,9.563,0,0,1,.623-1.183c.16-.26.343-.5.525-.738.11-.155.159-.224.212-.289a8.543,8.543,0,0,1,.83-.87,8.73,8.73,0,0,1,1.022-.81l.43-.292a10.929,10.929,0,0,1,5.677-1.459c6.393,0,10.365,4.177,10.365,10.9,0,6.838-4.069,11.258-10.365,11.258" transform="translate(-3.475 -1.883)" fill="#fb8c00"/>
    <path id="패스_1487" data-name="패스 1487" d="M13.967,2.523A2.523,2.523,0,1,1,11.444,0a2.523,2.523,0,0,1,2.523,2.523" transform="translate(-2.063 0)" fill="#fb8c00"/>
    <path id="패스_1488" data-name="패스 1488" d="M30.254,2.523A2.523,2.523,0,1,1,27.731,0a2.523,2.523,0,0,1,2.523,2.523" transform="translate(-5.829 0)" fill="#fb8c00"/>
  </g>
</svg>
