<svg id="logout_icon" xmlns="http://www.w3.org/2000/svg" width="24" height="24" viewBox="0 0 24 24">
  <rect id="사각형_1411" data-name="사각형 1411" width="24" height="24" fill="none"/>
  <g id="그룹_283" data-name="그룹 283" transform="translate(-3151.611 -1696.639)" opacity="0.5">
    <path id="패스_628" data-name="패스 628" d="M3156.613,1718.639a6.451,6.451,0,0,1-.977-.262,3.094,3.094,0,0,1-2.016-2.99c-.017-3.567-.006-7.134-.006-10.7,0-.924,0-1.849,0-2.773a3.242,3.242,0,0,1,3.341-3.269q3.3-.01,6.6,0a3.242,3.242,0,0,1,3.332,3.258c0,.631.006,1.263,0,1.894a.932.932,0,0,1-.657.909.968.968,0,0,1-1.06-.309.935.935,0,0,1-.2-.618c0-.592,0-1.185,0-1.777a1.366,1.366,0,0,0-1.51-1.483h-6.424a1.362,1.362,0,0,0-1.5,1.473q0,6.649,0,13.3a1.362,1.362,0,0,0,1.5,1.472h6.444a1.361,1.361,0,0,0,1.489-1.445c0-.735-.006-1.471,0-2.206a.916.916,0,0,1,.808-.882.948.948,0,0,1,1.051.624.836.836,0,0,1,.053.267c0,.885.03,1.772-.03,2.654a3.2,3.2,0,0,1-2.786,2.83,1.729,1.729,0,0,0-.172.038Z" transform="translate(0 0)"/>
    <path id="패스_629" data-name="패스 629" d="M3314.619,1812.641a1.891,1.891,0,0,1-.51.723q-1.577,1.564-3.144,3.14a.962.962,0,1,1-1.411-1.3c.527-.539,1.064-1.068,1.6-1.6a2.182,2.182,0,0,1,.17-.14l-.019-.058h-8.226a.961.961,0,0,1-.112-1.919c.073,0,.147,0,.22,0h8.154c-.068-.072-.108-.117-.15-.16-.542-.543-1.088-1.083-1.625-1.63a.938.938,0,0,1-.233-1,.9.9,0,0,1,.752-.636.886.886,0,0,1,.808.254q1.732,1.72,3.451,3.455a2.174,2.174,0,0,1,.276.476Z" transform="translate(-141.009 -103.801)"/>
  </g>
</svg>
