<svg id="class_icon" xmlns="http://www.w3.org/2000/svg" width="40" height="40" viewBox="0 0 40 40">
  <g id="class_icon-2" data-name="class_icon" transform="translate(-926.582 -472.582)" opacity="0.8">
    <rect id="사각형_1415" data-name="사각형 1415" width="40" height="40" transform="translate(926.582 472.582)" fill="none"/>
    <g id="그룹_275" data-name="그룹 275" transform="translate(931.146 479.71)">
      <path id="패스_623" data-name="패스 623" d="M2922.765,1282.751h-20.333a5.305,5.305,0,0,1-5.22-5.375v-8.925a5.305,5.305,0,0,1,5.22-5.375h20.333a5.305,5.305,0,0,1,5.22,5.375v8.925A5.305,5.305,0,0,1,2922.765,1282.751Zm-20.333-17.935a3.588,3.588,0,0,0-3.53,3.635v8.925a3.588,3.588,0,0,0,3.53,3.635h20.333a3.587,3.587,0,0,0,3.53-3.635v-8.925a3.588,3.588,0,0,0-3.53-3.635Z" transform="translate(-2897.212 -1263.075)" fill="#fff"/>
      <path id="패스_624" data-name="패스 624" d="M2931.5,1286.821a2.07,2.07,0,0,1-2.063-2.067v-5.785a2.063,2.063,0,0,1,3.1-1.787l5.01,2.893h0a2.064,2.064,0,0,1,0,3.574l-5.01,2.892A2.056,2.056,0,0,1,2931.5,1286.821Zm0-8.2a.348.348,0,0,0-.174.048.336.336,0,0,0-.173.3v5.785a.346.346,0,0,0,.52.3l5.01-2.892a.347.347,0,0,0,0-.6l-5.01-2.893A.342.342,0,0,0,2931.5,1278.621Z" transform="translate(-2918.62 -1272.074)" fill="#fff"/>
      <path id="패스_625" data-name="패스 625" d="M2928.057,1329.184h-21.031a.984.984,0,0,0-.893-.581h-2.24a.985.985,0,0,0-.894.581h-2.107a.859.859,0,0,0,0,1.717H2903a.985.985,0,0,0,.894.581h2.24a.984.984,0,0,0,.893-.581h21.031a.859.859,0,0,0,0-1.717Z" transform="translate(-2899.074 -1305.839)" fill="#fff"/>
    </g>
  </g>
</svg>
