<svg id="end_icon" xmlns="http://www.w3.org/2000/svg" width="40" height="40" viewBox="0 0 40 40">
  <rect id="사각형_1416" data-name="사각형 1416" width="40" height="40" fill="none"/>
  <path id="패스_626" data-name="패스 626" d="M3045.242,1283.829q-3.878-11.856-7.758-23.712c-.46-1.406-.913-2.813-1.381-4.215a.984.984,0,0,0-1.531-.566,6,6,0,0,0-.573.388,13.829,13.829,0,0,1-4.352,2.172,23.167,23.167,0,0,1-6.553.857,19.618,19.618,0,0,0-5.056.609,20.1,20.1,0,0,0-6.162,3.039,1.009,1.009,0,0,0-.463,1.373q1.325,4.01,2.653,8.02c.618,1.868,1.232,3.738,1.855,5.6a1,1,0,0,0,1.577.574c.245-.147.473-.321.7-.489a13.666,13.666,0,0,1,3.72-1.9,21.141,21.141,0,0,1,6.527-1,28.393,28.393,0,0,0,3.51-.214,17.2,17.2,0,0,0,6.869-2.617c.252-.158.336-.155.433.144q1.993,6.142,4,12.279c.157.485.368.9.938.972a1.078,1.078,0,0,0,1.112-.7v-.522C3045.259,1283.914,3045.255,1283.871,3045.242,1283.829Zm-14.069-24.348a19.82,19.82,0,0,0,3.277-1.705c.118-.076.165-.046.2.077q.391,1.21.792,2.418a.161.161,0,0,1-.077.216,19.375,19.375,0,0,1-3.274,1.78c-.031.013-.062.023-.093.034-.1.02-.1-.062-.119-.12-.271-.827-.538-1.654-.815-2.479C3031.023,1259.573,3031.065,1259.524,3031.172,1259.481Zm-5.817,1.17a16.881,16.881,0,0,0,3.578-.456c.157-.039.212.016.257.158q.381,1.2.781,2.386c.058.173.009.217-.162.256a17.8,17.8,0,0,1-2.945.37,1.707,1.707,0,0,1-.823-.031c-.244-.131-.237-.554-.337-.85-.178-.525-.34-1.056-.523-1.579C3025.115,1260.718,3025.154,1260.656,3025.355,1260.651Zm-6.129.438a16.64,16.64,0,0,1,2.965-.346c.223.007.574-.144.8.014s.218.524.313.8c.188.544.357,1.094.54,1.64.057.171.043.243-.174.25a16.859,16.859,0,0,0-3.543.451c-.177.044-.254-.007-.306-.174-.248-.787-.5-1.573-.766-2.354C3018.99,1261.176,3019.045,1261.127,3019.226,1261.089Zm-4.922,5.118c-.247-.764-.5-1.529-.755-2.289-.054-.158-.046-.249.107-.348a20.063,20.063,0,0,1,3.217-1.738c.144-.06.226-.078.285.11.253.808.522,1.611.785,2.416a.227.227,0,0,1,.013.048c.051.171-.048.188-.128.22a19.629,19.629,0,0,0-3.24,1.695C3014.4,1266.444,3014.356,1266.367,3014.3,1266.207Zm1.59,4.788c-.28-.85-.549-1.673-.826-2.494-.045-.134.037-.174.118-.229a19.794,19.794,0,0,1,3.2-1.756c.159-.068.24-.072.3.129.23.757.484,1.508.732,2.26.041.122.083.216-.088.283A20.662,20.662,0,0,0,3015.894,1271Zm4.965,2.854a20.494,20.494,0,0,0-3.426,1.793c-.291-.879-.569-1.724-.854-2.567-.041-.12,0-.178.1-.239a19.708,19.708,0,0,1,3.239-1.764c.143-.06.206-.049.256.11q.382,1.211.785,2.415C3021,1273.723,3021,1273.795,3020.859,1273.85Zm.783-5.391c-.179.044-.271.023-.333-.179-.227-.748-.473-1.491-.727-2.232-.062-.18-.034-.236.16-.281a16.547,16.547,0,0,1,2.842-.365c.97-.018.97-.018,1.2.7.181.558.353,1.12.547,1.673.071.2.011.234-.179.24A17.071,17.071,0,0,0,3021.642,1268.459Zm5.036,4.212a17.149,17.149,0,0,0-3.609.47c-.126.032-.176-.014-.213-.13-.262-.817-.527-1.635-.8-2.448-.059-.174.023-.191.162-.224a16,16,0,0,1,2.867-.372c.956-.017.956-.017,1.185.687.192.589.379,1.18.582,1.765C3026.916,1272.606,3026.877,1272.664,3026.678,1272.671Zm.6-5.343c-.193-.589-.38-1.18-.578-1.767-.049-.147-.078-.232.14-.24a18.03,18.03,0,0,0,3.612-.462c.161-.039.211.011.255.152.243.767.491,1.532.75,2.294.061.18,0,.22-.164.257a17.184,17.184,0,0,1-3.006.372C3027.485,1267.951,3027.484,1267.952,3027.28,1267.328Zm5.484,4.91a16.592,16.592,0,0,1-2.956.347c-.8.024-.8.024-1.051-.73-.186-.567-.369-1.135-.561-1.7-.061-.179-.065-.262.178-.271a17.212,17.212,0,0,0,3.54-.454c.194-.048.248.022.3.177.247.776.487,1.553.758,2.321C3033.056,1272.172,3032.945,1272.2,3032.764,1272.238Zm.713-5.365c-.095-.008-.1-.094-.121-.161-.253-.774-.5-1.55-.761-2.322-.053-.156,0-.208.133-.263a19.47,19.47,0,0,0,3.186-1.658c.173-.111.234-.068.29.109.229.724.467,1.447.706,2.168.045.136.059.234-.088.331a19.815,19.815,0,0,1-3.213,1.745C3033.568,1266.84,3033.526,1266.855,3033.477,1266.874Zm4.874,2.855a19.869,19.869,0,0,1-3.208,1.751c-.172.072-.225.032-.277-.131-.252-.8-.517-1.589-.777-2.383-.034-.106-.064-.191.092-.254a20.591,20.591,0,0,0,3.273-1.7c.027-.018.057-.033.085-.048.113-.011.116.077.139.146q.386,1.175.775,2.35A.205.205,0,0,1,3038.351,1269.729Z" transform="translate(-3008.31 -1250.16)" fill="#fff" opacity="0.8"/>
</svg>
