<svg id="graduation_icon" xmlns="http://www.w3.org/2000/svg" width="40" height="40" viewBox="0 0 40 40">
  <rect id="사각형_1417" data-name="사각형 1417" width="40" height="40" fill="none"/>
  <g id="그룹_278" data-name="그룹 278" transform="translate(-2634.252 -1597.994)" opacity="0.8">
    <path id="패스_627" data-name="패스 627" d="M2667.1,1617.376c-.559.345-1.1.661-1.613,1.009a.551.551,0,0,0-.145.394c-.01,1.718-.02,3.437,0,5.156a3.983,3.983,0,0,1-2.034,3.74c-1.748,1.039-3.465,2.138-5.211,3.179a7.041,7.041,0,0,1-7.675.006c-1.808-1.073-3.595-2.187-5.387-3.29a3.8,3.8,0,0,1-1.866-3.437q-.012-2.669,0-5.338a.515.515,0,0,0-.281-.51q-1.823-1.107-3.632-2.24a1.92,1.92,0,0,1,.009-3.384q6.551-4.051,13.107-8.09a3.343,3.343,0,0,1,3.734-.012q6.59,4.05,13.167,8.126a1.93,1.93,0,0,1,.055,3.323.557.557,0,0,0-.211.387q-.018,4.575,0,9.15a.631.631,0,0,0,.172.391,1.948,1.948,0,0,1,.074,2.7,1.681,1.681,0,0,1-2.51-.025,1.954,1.954,0,0,1,.121-2.694.524.524,0,0,0,.155-.326q.011-4.049,0-8.1A.621.621,0,0,0,2667.1,1617.376Zm-26.656-3.024c.155.1.268.173.382.244,4.074,2.515,8.156,5.015,12.215,7.557a2.033,2.033,0,0,0,2.414.007c4.09-2.558,8.2-5.077,12.3-7.611.091-.056.177-.121.292-.2-.116-.076-.184-.121-.252-.163q-6.244-3.855-12.484-7.715a1.837,1.837,0,0,0-2.144.013c-3.356,2.094-6.727,4.162-10.092,6.239C2642.219,1613.254,2641.357,1613.789,2640.447,1614.352Zm4.691,5.326v.442c0,1.3.013,2.59,0,3.885a1.927,1.927,0,0,0,1,1.828c1.735,1.038,3.454,2.107,5.18,3.161a5.238,5.238,0,0,0,5.809.042c1.792-1.079,3.569-2.186,5.357-3.274a1.782,1.782,0,0,0,.891-1.636q0-2.087,0-4.176c0-.067-.01-.133-.019-.254-.157.1-.274.164-.389.234q-3.395,2.094-6.791,4.188a3.428,3.428,0,0,1-3.856-.013l-4.929-3.044C2646.662,1620.614,2645.935,1620.169,2645.137,1619.678Z" transform="translate(-0.001 0)" fill="#fb8c00"/>
  </g>
</svg>
