<svg id="구성_요소_47_1" data-name="구성 요소 47 – 1" xmlns="http://www.w3.org/2000/svg" xmlns:xlink="http://www.w3.org/1999/xlink" width="24" height="24" viewBox="0 0 24 24">
  <defs>
    <clipPath id="clip-path">
      <rect id="사각형_1409" data-name="사각형 1409" width="24" height="24" transform="translate(0 0)" fill="none"/>
    </clipPath>
  </defs>
  <g id="profile_icon" transform="translate(3 2.067)">
    <g id="그룹_271" data-name="그룹 271" transform="translate(-3 -2.067)" clip-path="url(#clip-path)">
      <path id="패스_617" data-name="패스 617" d="M2.084,17.718c-.437,0-.873,0-1.309,0-.516-.007-.755-.237-.758-.742q-.01-1.259,0-2.516a1.866,1.866,0,0,1,.565-1.35q4.6-4.566,9.195-9.129c.152-.152.237-.146.384,0Q12,5.824,13.865,7.652c.172.169.148.262-.01.418Q9.276,12.6,4.706,17.13a1.937,1.937,0,0,1-1.434.583c-.4,0-.791,0-1.187,0v.006" transform="translate(2.878 1.381)" fill="#fb8c00"/>
      <path id="패스_618" data-name="패스 618" d="M19.828,3.271A1.811,1.811,0,0,1,19.3,4.593c-.441.458-.909.894-1.351,1.353-.155.162-.247.134-.39-.011q-1.842-1.84-3.7-3.666c-.172-.167-.155-.256.008-.408.454-.428.881-.885,1.337-1.311A1.94,1.94,0,0,1,17.875.513c.5.453.979.94,1.448,1.429a1.783,1.783,0,0,1,.505,1.329" transform="translate(0.108 2.187)" fill="#fb8c00"/>
      <path id="패스_619" data-name="패스 619" d="M8.512,24.315q-3.847,0-7.693,0c-.5,0-.74-.159-.805-.513a.625.625,0,0,1,.536-.77,2.488,2.488,0,0,1,.407-.017H16.1c.082,0,.164,0,.246,0,.47.019.726.244.734.641.007.416-.25.656-.75.657q-3.682.008-7.365,0h-.45" transform="translate(2.881 -2.61)" fill="#fb8c00"/>
    </g>
  </g>
</svg>
