<svg id="reset_icon" xmlns="http://www.w3.org/2000/svg" width="40" height="40" viewBox="0 0 40 40">
  <rect id="사각형_3981" data-name="사각형 3981" width="40" height="40" fill="none"/>
  <g id="그룹_615" data-name="그룹 615">
    <path id="패스_1201" data-name="패스 1201" d="M19.653,29.608c-.077-.087-.15-.162-.214-.244a.677.677,0,0,1,.051-.917.66.66,0,0,1,.916-.034q.84.8,1.64,1.641a.625.625,0,0,1-.021.892q-.807.833-1.641,1.639a.678.678,0,0,1-.958-.958,4.84,4.84,0,0,1,.477-.4l-.055-.081c-.067-.018-.133-.039-.2-.055a3.746,3.746,0,0,1,.836-7.393c1.055-.022,2.111-.008,3.166,0a.686.686,0,0,1,.769.7.678.678,0,0,1-.761.675c-1.037.006-2.074-.009-3.111,0a2.362,2.362,0,0,0-2.414,2.447,2.318,2.318,0,0,0,1.3,2.04,1.047,1.047,0,0,0,.151.063c.014,0,.033-.005.074-.013" fill="#fb8c00"/>
    <path id="패스_1202" data-name="패스 1202" d="M19.051,28a1.335,1.335,0,0,1,.928-.383,1.24,1.24,0,0,1,.859.343c.571.544,1.13,1.1,1.661,1.662a1,1,0,0,1,.077.1c.024-.475.04-.983.044-1.533,0-.228-.023-.54-.055-.916a4.773,4.773,0,0,0-.2-1.008l-.017,0a1.585,1.585,0,0,0-.075-.286c-.035-.088-.072-.188-.108-.283h-.524c-.363,0-.726,0-1.088.006a1.858,1.858,0,0,0-1.343.563,1.671,1.671,0,0,0-.453,1.232,1.835,1.835,0,0,0,.148.675A1.508,1.508,0,0,1,19.051,28" fill="#fb8c00"/>
    <path id="패스_1203" data-name="패스 1203" d="M22.92,25.694c.035.045.067.09.1.135.2.258.409.5.615.737,0,.037.011.079.016.117l-.009-.008a2.74,2.74,0,0,0-.02.66.906.906,0,0,1,0,.356c-.059.219-.2.261-.183.376l0,0h0c.022.152.3.279.528.254a.687.687,0,0,0,.488-.305c.046-.078.066-.16.142-.183a.269.269,0,0,1,.2.061c.034.02.095.052.164.086a5.209,5.209,0,0,0,.614.29,1.716,1.716,0,0,0,.248.1.739.739,0,0,0,.22.011.661.661,0,0,0,.176-.04.553.553,0,0,0,.243-.17.625.625,0,0,0,.063-.1.463.463,0,0,0,.18.026.482.482,0,0,0,.276-.106.446.446,0,0,0,.041-.036l0,0a.478.478,0,0,0,.064-.073.207.207,0,0,0,.015-.025.445.445,0,0,0,.033-.055l.01-.023c.008-.02.016-.039.022-.058l0-.014a.6.6,0,0,0,.015-.065.614.614,0,0,0,.137-.1.545.545,0,0,0,.1-.152.591.591,0,0,0,.037-.118,1.217,1.217,0,0,1-.8-.329c-.565-.536-1.131-1.1-1.682-1.68a1.261,1.261,0,0,1-.141-.181,1.358,1.358,0,0,1-1.19.616h-.74Z" fill="#fb8c00"/>
    <path id="패스_1204" data-name="패스 1204" d="M20.818,33.036a1.27,1.27,0,0,1-.884.357,1.322,1.322,0,0,1-1.18-.735c.018.757.052,2.868.052,3.247a1.4,1.4,0,0,1-.011.214c-.033.249-.113.32-.088.42.016.069.083.162.464.284a2.861,2.861,0,0,0,1.492.127c.249-.05.533-.106.608-.284.045-.106-.01-.194.044-.39.042-.148.227-.724.236-.756a18.17,18.17,0,0,0,.894-4.109c-.564.582-1.1,1.115-1.627,1.625" fill="#fb8c00"/>
    <path id="패스_1205" data-name="패스 1205" d="M18.115,35.9c0-.4.039-2.78.055-3.38.015-.527.026-.978.034-1.369a4.329,4.329,0,0,1-2.056-4.136,4.4,4.4,0,0,1,4.322-3.949c.44-.009.88-.012,1.32-.012q.6,0,1.2,0l.425,0a29.035,29.035,0,0,1-2.035-2.542,1.929,1.929,0,0,0-.506-.542,12.4,12.4,0,0,0,1.87-.721c.222-.108.436-.219.639-.333a3.345,3.345,0,0,0,1.113-1c.109-.155.222-.326.335-.508a3.283,3.283,0,0,0,2.237-1.332,2.606,2.606,0,0,0,.568-1.891,1.487,1.487,0,0,0-.688-1.186,1.065,1.065,0,0,0-.409-.108,9.111,9.111,0,0,0-.056-2.948A8.48,8.48,0,0,0,22.9,4.2,7.953,7.953,0,0,0,18.461,3a7.954,7.954,0,0,0-4.437,1.2,8.473,8.473,0,0,0-3.584,5.75,9.107,9.107,0,0,0-.057,2.947,1.077,1.077,0,0,0-.414.109,1.488,1.488,0,0,0-.687,1.186,2.607,2.607,0,0,0,.567,1.891,3.29,3.29,0,0,0,2.242,1.333c.113.181.226.353.335.507a3.345,3.345,0,0,0,1.113,1q.306.171.639.333a12.4,12.4,0,0,0,1.87.721,1.929,1.929,0,0,0-.506.542,39.622,39.622,0,0,1-3.724,4.369c-.326.32-.667.619-.935.846l-.4.326a.946.946,0,0,1-.219.069c-.181.037-.27-.037-.4.026a.444.444,0,0,0-.2.276.642.642,0,0,0-.01.291.212.212,0,0,0-.053.025l0,0-.013.005a.313.313,0,0,0-.074.076.532.532,0,0,0-.079.23l0,.019a.626.626,0,0,0,.05.3.563.563,0,0,0,.1.151.578.578,0,0,0,.137.1q.006.031.015.066l0,.014c.006.018.014.038.022.057l.011.024a.391.391,0,0,0,.032.055c0,.008.009.017.015.025a.608.608,0,0,0,.064.073l0,0a.542.542,0,0,0,.042.035.483.483,0,0,0,.275.107.468.468,0,0,0,.181-.026.722.722,0,0,0,.062.1.57.57,0,0,0,.244.17.721.721,0,0,0,.395.028,1.567,1.567,0,0,0,.249-.1,5.454,5.454,0,0,0,.614-.29c.068-.035.129-.066.163-.086a.261.261,0,0,1,.2-.061c.076.023.1.105.143.183a.686.686,0,0,0,.487.305c.23.025.506-.1.529-.254h0l0,0c.017-.114-.123-.156-.183-.375a.906.906,0,0,1,0-.356,2.74,2.74,0,0,0-.02-.66l-.009.007c.005-.038.012-.079.016-.116.206-.236.411-.479.615-.738a19.368,19.368,0,0,0,1.485-2.177c-.094.379-.2.8-.37,1.314-.125.379-.251.718-.366,1.011a1.435,1.435,0,0,0-.075.286l-.017,0a4.716,4.716,0,0,0-.2,1.007c-.032.377-.057.689-.055.917a20.977,20.977,0,0,0,1.069,7.333c.009.032.194.607.236.755.055.2,0,.285.044.391.075.177.36.234.608.283a2.84,2.84,0,0,0,1.492-.127c.381-.121.448-.215.464-.283.025-.1-.055-.172-.088-.42a1.41,1.41,0,0,1-.011-.215" fill="#fb8c00"/>
    <path id="패스_1206" data-name="패스 1206" d="M27.813,25.248c.108.122.185.2.251.284a.673.673,0,0,1-.065.915.653.653,0,0,1-.9.037q-.85-.807-1.659-1.658a.625.625,0,0,1,.027-.891q.787-.813,1.6-1.6a.681.681,0,0,1,.96.965,5.722,5.722,0,0,1-.492.411l.438.123a3.752,3.752,0,0,1,2.747,3.934,3.7,3.7,0,0,1-3.44,3.392c-1.17.066-2.345.032-3.518.026a.682.682,0,0,1-.713-.7.7.7,0,0,1,.748-.669c1.055-.007,2.11.007,3.165,0a2.371,2.371,0,0,0,2.4-2.434,2.315,2.315,0,0,0-1.553-2.126" fill="#fb8c00"/>
  </g>
</svg>
