<svg id="save_icon" xmlns="http://www.w3.org/2000/svg" width="40" height="40" viewBox="0 0 40 40">
  <rect id="사각형_3985" data-name="사각형 3985" width="40" height="40" fill="none"/>
  <g id="그룹_623" data-name="그룹 623" transform="translate(2.785 2.784)">
    <path id="패스_1208" data-name="패스 1208" d="M11.975,4.118v4.2c0,.91-.009,1.819,0,2.729a1.734,1.734,0,0,0,1.836,1.8q3.409.012,6.82,0a1.726,1.726,0,0,0,1.813-1.824c.009-2.272,0-4.545,0-6.88,1.084-.007,2.093-.216,2.985.8,1.38,1.566,2.926,2.986,4.415,4.456a1.441,1.441,0,0,1,.468,1.106q-.016,8.513-.008,17.025a2.625,2.625,0,0,1-2.808,2.79c-.491,0-.981,0-1.559,0v-.591q0-3.519,0-7.039a2.632,2.632,0,0,0-2.86-2.847q-5.866,0-11.732,0a2.639,2.639,0,0,0-2.867,2.9q0,3.465,0,6.93v.623a17.367,17.367,0,0,1-2.148-.016,2.569,2.569,0,0,1-2.216-2.632c-.01-2.656,0-5.311,0-7.967q0-6.33,0-12.66A2.639,2.639,0,0,1,6.984,4.119c1.635,0,3.272,0,4.99,0" fill="#fb8c00"/>
    <path id="패스_1209" data-name="패스 1209" d="M25.5,34.006H11.558c-.012-.171-.031-.327-.031-.484q0-3.545,0-7.09c0-.853.289-1.139,1.147-1.139q5.835,0,11.67,0c.859,0,1.152.288,1.153,1.135,0,2.507,0,5.013,0,7.578" transform="translate(-1.3 -3.712)" fill="#fb8c00"/>
    <rect id="사각형_3986" data-name="사각형 3986" width="6.918" height="6.919" transform="translate(13.758 4.142)" fill="#fb8c00"/>
  </g>
</svg>
