<svg id="신고하기_icon" xmlns="http://www.w3.org/2000/svg" width="18" height="18" viewBox="0 0 18 18">
  <g id="신고하기_icon-2" data-name="신고하기_icon" transform="translate(-0.309 -0.309)" opacity="0.6">
    <rect id="사각형_4090" data-name="사각형 4090" width="18" height="18" transform="translate(0.309 0.309)" fill="none"/>
    <g id="그룹_732" data-name="그룹 732" transform="translate(2.894 2.331)">
      <path id="패스_1478" data-name="패스 1478" d="M16.612,14.87a2.085,2.085,0,0,0-1.264-1.925.229.229,0,0,1-.159-.247c0-1.512,0-3.025,0-4.538,0-.2-.008-.4-.027-.6a4.981,4.981,0,0,0-9.937.5c-.006,1.554,0,3.108,0,4.662a.2.2,0,0,1-.142.223,2.048,2.048,0,0,0-1.253,1.631A12.132,12.132,0,0,0,3.8,16.2a.723.723,0,0,0,.817.821H15.849a.713.713,0,0,0,.765-.767c0-.463.013-.926,0-1.388M6.651,8.052a3.559,3.559,0,1,1,7.118.025c0,1.5,0,3,0,4.5,0,.152-.043.183-.188.182-1.126-.006-2.253,0-3.379,0s-2.253,0-3.38,0c-.132,0-.181-.023-.18-.171.006-1.511,0-3.023,0-4.534m8.38,7.554c-.438-.009-.877,0-1.317,0H10.19c-1.589,0-3.179,0-4.769,0-.169,0-.212-.05-.2-.207s0-.308,0-.462a.713.713,0,0,1,.756-.759H14.4a.721.721,0,0,1,.792.795c0,.154-.009.309,0,.463.009.13-.025.173-.163.17" transform="translate(-3.791 -3.071)" fill="#222"/>
      <path id="패스_1479" data-name="패스 1479" d="M12.516,8.142c0,.238,0,.474,0,.711a.711.711,0,1,1-1.421,0q-.007-.71,0-1.42a.711.711,0,1,1,1.421,0c0,.236,0,.474,0,.71" transform="translate(-5.386 -3.868)" fill="#222"/>
      <path id="패스_1480" data-name="패스 1480" d="M11.8,13.607a.711.711,0,1,1,.713-.71.713.713,0,0,1-.713.71" transform="translate(-5.387 -5.063)" fill="#222"/>
    </g>
  </g>
</svg>
