<svg xmlns="http://www.w3.org/2000/svg" width="16" height="16" viewBox="0 0 16 16">
  <g id="cart_icon" opacity="0.5">
    <g id="사각형_4126" data-name="사각형 4126" fill="#fff" stroke="#fff" stroke-width="1" opacity="0">
      <rect width="16" height="16" stroke="none"/>
      <rect x="0.5" y="0.5" width="15" height="15" fill="none"/>
    </g>
    <g id="레이어_1" data-name="레이어 1" transform="translate(2.005 1.999)">
      <g id="그룹_733" data-name="그룹 733" transform="translate(-0.005 0.001)">
        <path id="빼기_8" data-name="빼기 8" d="M10.29,9.076H2.639a1.351,1.351,0,0,1-.99-.41A1.266,1.266,0,0,1,1.3,7.726a1.236,1.236,0,0,1,.68-1.079.142.142,0,0,0,.083-.189C1.723,4.77,1.366,2.984.972,1,.955.913.928.863.838.863H.808c-.049,0-.1.006-.162.006l-.157,0H.43A.43.43,0,0,1,0,.45.426.426,0,0,1,.415.006C.551,0,.695,0,.842,0s.3,0,.465.006A.431.431,0,0,1,1.729.39l.04.194L1.78.64c.061.3.129.63.188.953.019.109.058.141.173.141,1.71,0,3.534,0,5.741,0h3.6c.285,0,.446.105.506.331a.407.407,0,0,1,.009.173L11.82,3.341q-.284,1.8-.569,3.6a.433.433,0,0,1-.492.41H2.649a.506.506,0,0,0-.377.14.416.416,0,0,0-.11.313.421.421,0,0,0,.405.41h7.776a.556.556,0,0,1,.142.015.43.43,0,0,1-.09.849ZM6.472,6.506l3.853,0c.091,0,.121-.025.135-.116.219-1.424.4-2.583.574-3.646.011-.068.008-.1-.01-.125s-.062-.029-.123-.029c-.929,0-1.85,0-2.629,0H4.908c-.786,0-1.716,0-2.654,0h0c-.054,0-.083.008-.1.026s-.014.056,0,.1c.273,1.348.536,2.669.735,3.671.018.089.05.116.138.116Z" fill="#fff"/>
        <path id="빼기_9" data-name="빼기 9" d="M1.29,2.581H1.282a1.278,1.278,0,0,1-.908-.386A1.284,1.284,0,0,1,0,1.277,1.31,1.31,0,0,1,1.294,0h0A1.291,1.291,0,1,1,1.29,2.581ZM1.279.86h0a.428.428,0,1,0,.309.127A.426.426,0,0,0,1.279.861Z" transform="translate(1.726 9.507)" fill="#fff"/>
        <path id="빼기_10" data-name="빼기 10" d="M1.29,2.582h0A1.3,1.3,0,0,1,0,1.281,1.31,1.31,0,0,1,1.293,0a1.284,1.284,0,0,1,.914.383,1.28,1.28,0,0,1,.38.912A1.3,1.3,0,0,1,1.29,2.582ZM1.3.861A.43.43,0,0,0,1.3,1.72H1.3A.43.43,0,0,0,1.31.861Z" transform="translate(8.229 9.508)" fill="#fff"/>
      </g>
    </g>
  </g>
</svg>
