<svg xmlns="http://www.w3.org/2000/svg" width="16" height="16" viewBox="0 0 16 16">
  <g id="그룹_991" data-name="그룹 991" transform="translate(-477 -155.711)">
    <rect id="사각형_4079" data-name="사각형 4079" width="16" height="16" transform="translate(477 155.711)" fill="none"/>
    <g id="그룹_719" data-name="그룹 719" transform="translate(478.964 157.968)">
      <path id="패스_1472" data-name="패스 1472" d="M14.772,6.458A2.235,2.235,0,0,0,12.8,4.234a4.605,4.605,0,0,0-.752-.024c-.091,0-.185,0-.286,0,0-.219,0-.439,0-.659v-.05a.465.465,0,0,0-.455-.5H11.3a.434.434,0,0,0-.329.144.521.521,0,0,0-.128.35c0,.232,0,.464,0,.714-1.3,0-2.6,0-3.907,0,0-.238,0-.476,0-.713a.515.515,0,0,0-.146-.37.438.438,0,0,0-.31-.124H6.473a.465.465,0,0,0-.456.5c0,.232,0,.465,0,.706-.171,0-.341,0-.512,0h-.18A2.274,2.274,0,0,0,3,6.529q0,2.077,0,4.154v1.781a2.389,2.389,0,0,0,.1.7,2.268,2.268,0,0,0,2.213,1.616c.823,0,1.645,0,2.466,0h3.287q.705,0,1.411,0a2.265,2.265,0,0,0,2.294-2.245c.015-1.9.016-3.89,0-6.076M11.6,5.075l.158-.04a.083.083,0,0,1-.013.04Zm-5.584.763a.465.465,0,0,0,.454.5.428.428,0,0,0,.319-.123.513.513,0,0,0,.145-.368c0-.233,0-.465,0-.718,1.3,0,2.6,0,3.907,0,0,.234,0,.467,0,.7a.533.533,0,0,0,.147.384.45.45,0,0,0,.317.122.471.471,0,0,0,.454-.514V5.133c.095,0,.19,0,.286,0a3.093,3.093,0,0,1,.776.045,1.323,1.323,0,0,1,1.023,1.25c.007.25.006.5.005.751,0,.212,0,.425,0,.653H7.8q-1.938,0-3.874,0H3.924V7.823c0-.272,0-.544,0-.816V6.535a1.353,1.353,0,0,1,1.4-1.4h.3c.127,0,.252,0,.391,0,0,.208,0,.416,0,.625ZM3.924,8.744h0q1.964.006,3.925,0h2.1q1.948,0,3.9,0a.017.017,0,0,1,.01,0v.012q0,1.029,0,2.057,0,.822,0,1.644a1.341,1.341,0,0,1-1.119,1.377,1.3,1.3,0,0,1-.238.018h-1.2q-3,0-6,0A1.332,1.332,0,0,1,3.945,12.73a1.637,1.637,0,0,1-.018-.3V11.206q0-1.229,0-2.458Zm9.938-.755Z" transform="translate(-3 -3.006)" fill="#222"/>
      <path id="패스_1473" data-name="패스 1473" d="M15.615,16.7c.111,0,.222.006.333.006s.219,0,.327-.006a.434.434,0,0,0,.428-.434c0-.076,0-.151,0-.227v-.19c0-.079,0-.158,0-.237a.433.433,0,0,0-.424-.421c-.22-.009-.441-.008-.661,0a.432.432,0,0,0-.426.424c-.007.22-.007.441,0,.66a.431.431,0,0,0,.424.427" transform="translate(-7.209 -7.213)" fill="#222"/>
    </g>
  </g>
</svg>
