<svg id="구성_요소_569_51" data-name="구성 요소 569 – 51" xmlns="http://www.w3.org/2000/svg" width="24" height="24" viewBox="0 0 24 24">
  <rect id="사각형_3776" data-name="사각형 3776" width="24" height="24" transform="translate(24 24) rotate(180)" fill="rgba(255,255,255,0.05)"/>
  <g id="구성_요소_50_1" data-name="구성 요소 50 – 1" transform="translate(24 24) rotate(180)">
    <rect id="사각형_454" data-name="사각형 454" width="24" height="24" fill="#fff" opacity="0"/>
    <rect id="사각형_3777" data-name="사각형 3777" width="18" height="18" transform="translate(3 3)" fill="#ffa4a4" opacity="0"/>
    <path id="패스_631_-_윤곽선" data-name="패스 631 - 윤곽선" d="M5481.256,3692.459a1.324,1.324,0,0,1-.979-.439l-6.636-7.189L5467,3692.02a1.31,1.31,0,0,1-1.958,0,1.589,1.589,0,0,1,0-2.121l7.615-8.25a1.31,1.31,0,0,1,1.958,0l7.615,8.25a1.589,1.589,0,0,1,0,2.121A1.324,1.324,0,0,1,5481.256,3692.459Zm-5.315-7.259,5.315,5.759h0Z" transform="translate(3695.334 -5461.641) rotate(90)" fill="#222" opacity="0.1"/>
    <path id="패스_631_-_윤곽선-2" data-name="패스 631 - 윤곽선" d="M5481.256,3692.459a1.324,1.324,0,0,1-.979-.439l-6.636-7.189L5467,3692.02a1.31,1.31,0,0,1-1.958,0,1.589,1.589,0,0,1,0-2.121l7.615-8.25a1.31,1.31,0,0,1,1.958,0l7.615,8.25a1.589,1.589,0,0,1,0,2.121A1.324,1.324,0,0,1,5481.256,3692.459Zm-5.315-7.259,5.315,5.759h0Z" transform="translate(3702.334 -5461.641) rotate(90)" fill="#222" opacity="0.1"/>
  </g>
</svg>
