<svg id="heart_icon" xmlns="http://www.w3.org/2000/svg" width="16" height="16" viewBox="0 0 16 16">
  <rect id="사각형_4063" data-name="사각형 4063" width="16" height="16" fill="#fff" opacity="0"/>
  <rect id="사각형_4064" data-name="사각형 4064" width="12" height="12" transform="translate(2 2)" fill="#ffa7a7" opacity="0"/>
  <path id="패스_1204" data-name="패스 1204" d="M3.975,7.8.894,4.666c-.051-.044-.1-.089-.149-.138a2.543,2.543,0,0,1,0-3.6,2.556,2.556,0,0,1,3.6.165h0c.041-.048.084-.094.13-.14A2.548,2.548,0,0,1,8.074.8a2.543,2.543,0,0,1,0,3.6,2.613,2.613,0,0,1-.207.185L4.67,7.8a.491.491,0,0,1-.7,0Z" transform="translate(3.5 4.373)" fill="none" stroke="rgba(34,34,34,0.2)" stroke-width="1"/>
</svg>
