<svg id="loxk_icon" xmlns="http://www.w3.org/2000/svg" width="16" height="16" viewBox="0 0 16 16">
  <g id="사각형_4230" data-name="사각형 4230" fill="#fff" stroke="#707070" stroke-width="1" opacity="0">
    <rect width="16" height="16" stroke="none"/>
    <rect x="0.5" y="0.5" width="15" height="15" fill="none"/>
  </g>
  <g id="레이어_1" data-name="레이어 1" transform="translate(4.053 2.994)">
    <g id="그룹_789" data-name="그룹 789" transform="translate(-0.001 -0.002)">
      <path id="패스_1230" data-name="패스 1230" d="M7.894,4.972a1.028,1.028,0,0,0-1.05-1.1c-.1,0-.119-.039-.12-.13A12.276,12.276,0,0,0,6.7,2.452a2.778,2.778,0,0,0-5.537.333q0,.48,0,.96c0,.09-.012.14-.119.13A.78.78,0,0,0,.825,3.9,1.031,1.031,0,0,0,0,4.939Q0,6.929,0,8.92a1.037,1.037,0,0,0,1.1,1.093h5.7a1.037,1.037,0,0,0,1.1-1.1q0-1.969,0-3.938ZM5.91,3.868c-.658-.005-1.316,0-1.974,0H1.994c-.136,0-.138,0-.136-.141.006-.385-.018-.77.014-1.154a2.085,2.085,0,0,1,4.114-.234,2.479,2.479,0,0,1,.05.557c0,.28,0,.561,0,.841,0,.1-.02.134-.128.133Z" transform="translate(0.001 0.002)" fill="rgba(34,34,34,0.2)"/>
      <g id="그룹_788" data-name="그룹 788" transform="translate(3.436 5.96)">
        <circle id="타원_70" data-name="타원 70" cx="0.512" cy="0.512" r="0.512" fill="#fff"/>
        <rect id="사각형_4169" data-name="사각형 4169" width="0.507" height="1.246" transform="translate(0.259 0.664)" fill="#fff"/>
      </g>
    </g>
  </g>
</svg>
