<svg xmlns="http://www.w3.org/2000/svg" xmlns:xlink="http://www.w3.org/1999/xlink" width="119.285" height="396" viewBox="0 0 119.285 396">
  <defs>
    <filter id="합치기_11" x="61" y="285" width="58.284" height="58.284" filterUnits="userSpaceOnUse">
      <feOffset dy="3" input="SourceAlpha"/>
      <feGaussianBlur stdDeviation="5" result="blur"/>
      <feFlood flood-color="#00a8fa" flood-opacity="0.078"/>
      <feComposite operator="in" in2="blur"/>
      <feComposite in="SourceGraphic"/>
    </filter>
    <filter id="합치기_26" x="40" y="86" width="51.263" height="51.263" filterUnits="userSpaceOnUse">
      <feOffset dy="3" input="SourceAlpha"/>
      <feGaussianBlur stdDeviation="5" result="blur-2"/>
      <feFlood flood-color="#fb8c00" flood-opacity="0.078"/>
      <feComposite operator="in" in2="blur-2"/>
      <feComposite in="SourceGraphic"/>
    </filter>
    <filter id="타원_117" x="11" y="15" width="78" height="78" filterUnits="userSpaceOnUse">
      <feOffset dy="3" input="SourceAlpha"/>
      <feGaussianBlur stdDeviation="10" result="blur-3"/>
      <feFlood flood-color="#00a8fa" flood-opacity="0.239"/>
      <feComposite operator="in" in2="blur-3"/>
      <feComposite in="SourceGraphic"/>
    </filter>
    <filter id="타원_118" x="0" y="0" width="68" height="68" filterUnits="userSpaceOnUse">
      <feOffset dy="3" input="SourceAlpha"/>
      <feGaussianBlur stdDeviation="10" result="blur-4"/>
      <feFlood flood-color="#00a8fa" flood-opacity="0.239"/>
      <feComposite operator="in" in2="blur-4"/>
      <feComposite in="SourceGraphic"/>
    </filter>
    <filter id="타원_119" x="14.529" y="319" width="70" height="70" filterUnits="userSpaceOnUse">
      <feOffset dy="3" input="SourceAlpha"/>
      <feGaussianBlur stdDeviation="10" result="blur-5"/>
      <feFlood flood-color="#00a8fa" flood-opacity="0.239"/>
      <feComposite operator="in" in2="blur-5"/>
      <feComposite in="SourceGraphic"/>
    </filter>
    <clipPath id="clip-path">
      <rect id="사각형_4233" data-name="사각형 4233" width="27" height="70" transform="translate(712 492)" fill="#fff" stroke="#707070" stroke-width="1"/>
    </clipPath>
    <filter id="타원_120" x="-27" y="329" width="91" height="91" filterUnits="userSpaceOnUse">
      <feOffset dy="3" input="SourceAlpha"/>
      <feGaussianBlur stdDeviation="10" result="blur-6"/>
      <feFlood flood-color="#00a8fa" flood-opacity="0.18"/>
      <feComposite operator="in" in2="blur-6"/>
      <feComposite in="SourceGraphic"/>
    </filter>
  </defs>
  <g id="login_bg_right" transform="translate(-691 -166)">
    <g transform="matrix(1, 0, 0, 1, 691, 166)" filter="url(#합치기_11)">
      <path id="합치기_11-2" data-name="합치기 11" d="M14.5,20V12.5H7v-5h7.5V0h5V7.5H27v5H19.5V20Z" transform="translate(71.05 316.09) rotate(-45)" fill="#00a8fa"/>
    </g>
    <g transform="matrix(1, 0, 0, 1, 691, 166)" filter="url(#합치기_26)">
      <path id="합치기_26-2" data-name="합치기 26" d="M13,16V10H7V6h6V0h4V6h6v4H17v6Z" transform="translate(48.66 107.72) rotate(-25)" fill="#fb8c00"/>
    </g>
    <g transform="matrix(1, 0, 0, 1, 691, 166)" filter="url(#타원_117)">
      <circle id="타원_117-2" data-name="타원 117" cx="9" cy="9" r="9" transform="translate(41 42)" fill="#fff"/>
    </g>
    <g transform="matrix(1, 0, 0, 1, 691, 166)" filter="url(#타원_118)">
      <circle id="타원_118-2" data-name="타원 118" cx="4" cy="4" r="4" transform="translate(30 27)" fill="#fff"/>
    </g>
    <g transform="matrix(1, 0, 0, 1, 691, 166)" filter="url(#타원_119)">
      <circle id="타원_119-2" data-name="타원 119" cx="5" cy="5" r="5" transform="translate(44.53 346)" fill="#fff"/>
    </g>
    <g id="마스크_그룹_35" data-name="마스크 그룹 35" clip-path="url(#clip-path)">
      <g transform="matrix(1, 0, 0, 1, 691, 166)" filter="url(#타원_120)">
        <circle id="타원_120-2" data-name="타원 120" cx="15.5" cy="15.5" r="15.5" transform="translate(3 356)" fill="#fff"/>
      </g>
    </g>
  </g>
</svg>
