<svg xmlns="http://www.w3.org/2000/svg" width="16" height="16" viewBox="0 0 16 16">
  <g id="그룹_711" data-name="그룹 711" transform="translate(-38 -704.909)">
    <rect id="사각형_1411" data-name="사각형 1411" width="16" height="16" transform="translate(38 704.909)" fill="none"/>
    <g id="그룹_283" data-name="그룹 283" transform="translate(39.326 706.326)" opacity="0.8">
      <path id="패스_628" data-name="패스 628" d="M3155.6,1711.9a4.28,4.28,0,0,1-.647-.174,2.052,2.052,0,0,1-1.336-1.982c-.011-2.364,0-4.729,0-7.093,0-.613,0-1.225,0-1.838a2.148,2.148,0,0,1,2.214-2.167q2.189-.007,4.378,0a2.149,2.149,0,0,1,2.208,2.16c0,.418,0,.837,0,1.256a.618.618,0,0,1-.436.6.641.641,0,0,1-.7-.2.617.617,0,0,1-.135-.41c0-.393,0-.785,0-1.178a.906.906,0,0,0-1-.983h-4.258a.9.9,0,0,0-.995.976v8.815a.9.9,0,0,0,1,.976h4.271a.9.9,0,0,0,.987-.958c0-.488,0-.975,0-1.463a.607.607,0,0,1,.536-.585.628.628,0,0,1,.7.413.57.57,0,0,1,.035.177c0,.587.02,1.175-.02,1.759a2.118,2.118,0,0,1-1.847,1.876,1.1,1.1,0,0,0-.114.025Z" transform="translate(-3153.611 -1698.639)" fill="#fff"/>
      <path id="패스_629" data-name="패스 629" d="M3310.386,1811.09a1.253,1.253,0,0,1-.338.479q-1.046,1.037-2.084,2.081a.637.637,0,1,1-.935-.865c.349-.357.706-.708,1.06-1.06a1.42,1.42,0,0,1,.113-.093l-.013-.039h-5.453a.637.637,0,0,1-.074-1.272c.049,0,.1,0,.146,0h5.4c-.045-.048-.072-.078-.1-.106-.359-.36-.721-.718-1.077-1.08a.622.622,0,0,1-.155-.662.6.6,0,0,1,.5-.422.588.588,0,0,1,.536.168q1.148,1.141,2.287,2.29a1.441,1.441,0,0,1,.183.315Z" transform="translate(-3297.129 -1804.329)" fill="#fff"/>
    </g>
  </g>
</svg>
