<svg xmlns="http://www.w3.org/2000/svg" width="25" height="25" viewBox="0 0 25 25">
  <g id="question_icon" transform="translate(0.5 0.5)">
    <rect id="사각형_4121" data-name="사각형 4121" width="24" height="24" fill="#00a8fa" stroke="#222" stroke-width="1" opacity="0"/>
    <rect id="사각형_4122" data-name="사각형 4122" width="18" height="18" transform="translate(2 3)" fill="#00a8fa" stroke="#222" stroke-width="1" opacity="0"/>
    <path id="합치기_24" data-name="합치기 24" d="M0,8a8,8,0,1,1,14.751,4.292l.925.924a1.5,1.5,0,0,1-2.123,2.123l-.86-.86A8,8,0,0,1,0,8ZM3,8a5,5,0,0,0,7.528,4.313L9.6,11.385a1.5,1.5,0,0,1,2.12-2.123l.826.825A5,5,0,1,0,3,8Z" transform="translate(4 4)" fill="rgba(34,34,34,0.2)"/>
  </g>
</svg>
