<svg id="quest_icon" xmlns="http://www.w3.org/2000/svg" width="24" height="24" viewBox="0 0 24 24">
  <rect id="사각형_4160" data-name="사각형 4160" width="24" height="24" fill="none"/>
  <path id="패스_1488" data-name="패스 1488" d="M22.077,16.7H18.908V15.182c0-.042,0-.082,0-.12q0-3.56,0-7.12a2.833,2.833,0,0,0-.058-.608,2.316,2.316,0,0,0-2.366-1.845q-2.771-.006-5.543,0c-1.826,0-3.651.006-5.477,0a2.291,2.291,0,0,0-1.991.994,2.257,2.257,0,0,0-.212,2.442A2.15,2.15,0,0,0,5.3,10.153c.409,0,.818,0,1.226,0,.07,0,.139.006.223.011v.308q0,4.2,0,8.39a3.146,3.146,0,0,0,.057.653,2.31,2.31,0,0,0,2.315,1.851c.986.01,1.972,0,2.958,0,2.183,0,4.368.024,6.55-.013a4.18,4.18,0,0,0,4.012-4.06c.008-.422-.153-.592-.571-.592M6.747,9.21c-.571,0-1.126.037-1.674-.01A1.248,1.248,0,0,1,3.964,8.076,1.472,1.472,0,0,1,4.79,6.55,1.378,1.378,0,0,1,6.742,7.7c.025.494,0,.99,0,1.509m2.63,11.218a1.434,1.434,0,0,1-1.684-1.514q.008-5.476,0-10.953A2.51,2.51,0,0,0,7.288,6.51a.492.492,0,0,1-.033-.085c.059,0,.1-.006.144-.006q4.569,0,9.137,0a1.512,1.512,0,0,1,.261.019A1.394,1.394,0,0,1,17.971,7.9q0,3.56,0,7.119V16.7H12.941c-.41,0-.564.153-.582.568a3.268,3.268,0,0,1-2.983,3.156m10.985-.617a3.126,3.126,0,0,1-1.879.626c-2.189.005-4.379,0-6.569,0-.035,0-.07,0-.162-.008a4.3,4.3,0,0,0,1.526-2.785h8.4a3.227,3.227,0,0,1-1.317,2.165" transform="translate(-0.824 -1.431)" fill="#fff"/>
</svg>
