<svg xmlns="http://www.w3.org/2000/svg" width="24" height="24" viewBox="0 0 24 24">
  <g id="그룹_1529" data-name="그룹 1529" opacity="0.45">
    <rect id="사각형_1478" data-name="사각형 1478" width="24" height="24" fill="none"/>
    <g id="그룹_122" data-name="그룹 122" transform="translate(3 2.5)">
      <path id="합치기_15" data-name="합치기 15" d="M16.7,18.766,11.868,13.7A7.076,7.076,0,0,1,7.321,15.36,7.516,7.516,0,0,1,0,7.68,7.515,7.515,0,0,1,7.321,0a7.515,7.515,0,0,1,7.321,7.68,7.875,7.875,0,0,1-1.688,4.9l4.823,5.058a.826.826,0,0,1,0,1.128.736.736,0,0,1-1.076,0ZM1.521,7.68a5.954,5.954,0,0,0,5.8,6.084,5.954,5.954,0,0,0,5.8-6.084A5.954,5.954,0,0,0,7.321,1.6,5.954,5.954,0,0,0,1.521,7.68Z" fill="#1d1d1d" stroke="rgba(0,0,0,0)" stroke-miterlimit="10" stroke-width="1"/>
    </g>
  </g>
</svg>
