<svg xmlns="http://www.w3.org/2000/svg" xmlns:xlink="http://www.w3.org/1999/xlink" width="300" height="50" viewBox="0 0 300 50">
  <defs>
    <clipPath id="clip-path">
      <path id="사각형_1375" data-name="사각형 1375" d="M8,0H300a0,0,0,0,1,0,0V50a0,0,0,0,1,0,0H8a8,8,0,0,1-8-8V8A8,8,0,0,1,8,0Z" transform="translate(20 540)" fill="#fb8c00"/>
    </clipPath>
  </defs>
  <g id="cloud" transform="translate(-20 -540)" clip-path="url(#clip-path)">
    <path id="패스_615" data-name="패스 615" d="M54.328,0A13.9,13.9,0,0,0,41.373,8.872a11.326,11.326,0,0,0-2.421-.263,10.92,10.92,0,0,0-1.678.139A3.9,3.9,0,0,0,34.11,7.116a4.56,4.56,0,0,0-.456.046A8.457,8.457,0,0,0,18.176,8.818a3.893,3.893,0,0,0-3.542,2.591,10.794,10.794,0,1,0,3.775,17.743,8.423,8.423,0,0,0,10.774-3.218,11.407,11.407,0,0,0,19.213.518A13.89,13.89,0,1,0,54.328,0Z" transform="translate(274 566.5)" fill="#fff"/>
    <path id="패스_616" data-name="패스 616" d="M13.884,32.292a13.9,13.9,0,0,0,12.956-8.872,11.326,11.326,0,0,0,2.421.263,10.92,10.92,0,0,0,1.678-.139A3.9,3.9,0,0,0,34.1,25.176a4.56,4.56,0,0,0,.456-.046,8.457,8.457,0,0,0,15.477-1.655,3.893,3.893,0,0,0,3.542-2.591A10.795,10.795,0,1,0,57.414,0,10.752,10.752,0,0,0,49.8,3.14,8.423,8.423,0,0,0,39.029,6.358,11.407,11.407,0,0,0,19.816,5.84a13.89,13.89,0,1,0-5.932,26.453Z" transform="translate(6 526.5)" fill="#fff"/>
  </g>
</svg>
