<?xml version="1.0" encoding="utf-8"?>
<!-- Generator: Adobe Illustrator 27.0.0, SVG Export Plug-In . SVG Version: 6.00 Build 0)  -->
<svg version="1.1" id="Layer_1" xmlns="http://www.w3.org/2000/svg" xmlns:xlink="http://www.w3.org/1999/xlink" x="0px" y="0px"
	 viewBox="0 0 64 64" style="enable-background:new 0 0 64 64;" xml:space="preserve">
<style type="text/css">
	.st0{fill:#FFFFFF;}
</style>
<g>
	<g>
		<path class="st0" d="M21.5,10.3h-5V2.8c0-1.4,1.1-2.5,2.5-2.5h7.5v5h-5V10.3z"/>
		<path class="st0" d="M16.5,16.3h5v14.9h-5V16.3z"/>
		<path class="st0" d="M32.4,42.1h14.9v5H32.4L32.4,42.1z"/>
		<path class="st0" d="M60.8,47.1h-7.5v-5h5v-5h5v7.5C63.3,46,62.2,47.1,60.8,47.1z"/>
		<path class="st0" d="M58.3,16.3h5v14.9h-5V16.3z"/>
		<path class="st0" d="M63.3,10.3h-5v-5h-5v-5h7.5c1.4,0,2.5,1.1,2.5,2.5V10.3z"/>
		<path class="st0" d="M32.4,0.3h14.9v5H32.4L32.4,0.3z"/>
	</g>
	<g>
		<path class="st0" d="M24,63.7H3.2c-1.4,0-2.5-1.1-2.5-2.5V39.5c0-1.4,1.1-2.5,2.5-2.5H24c1.4,0,2.5,1.1,2.5,2.5v21.7
			C26.5,62.6,25.4,63.7,24,63.7z M5.7,58.7h15.8V42H5.7L5.7,58.7z"/>
		<path class="st0" d="M51.6,14.3c-0.1-1.3-1.1-2.3-2.4-2.4l-6.7-0.4c-1.4-0.1-2.6,1-2.6,2.4c-0.1,1.4,1,2.6,2.4,2.6l1.1,0.1
			L32.5,27.6c-1,1-1,2.6,0,3.5c0.5,0.5,1.1,0.7,1.8,0.7s1.3-0.2,1.8-0.7l10.9-10.9l0.1,1.1c0.1,1.3,1.2,2.4,2.5,2.4c0,0,0.1,0,0.1,0
			c1.4-0.1,2.4-1.3,2.4-2.6L51.6,14.3z"/>
	</g>
</g>
</svg>
