<?xml version="1.0" encoding="UTF-8"?>
<svg id="_레이어_2" data-name="레이어 2" xmlns="http://www.w3.org/2000/svg" viewBox="0 0 20 20">
  <defs>
    <style>
      .cls-1 {
        fill: none;
      }

      .cls-1, .cls-2 {
        stroke-width: 0px;
      }

      .cls-2 {
        fill: #fff;
      }
    </style>
  </defs>
  <g id="_레이어_1-2" data-name="레이어 1">
    <g>
      <rect class="cls-1" width="20" height="20"/>
      <path class="cls-2" d="m3,6.71c.03-.1.05-.2.09-.3.2-.5.67-.82,1.24-.82,2.34,0,4.67,0,7.01,0,.78,0,1.33.56,1.33,1.34,0,.36,0,.72,0,1.11.06-.02.11-.04.15-.05,1.21-.48,2.42-.97,3.64-1.45.38-.15.64.03.64.44,0,2.01,0,4.02,0,6.03,0,.41-.26.59-.64.44-1.21-.48-2.42-.97-3.64-1.45-.04-.02-.08-.03-.14-.05,0,.06,0,.1,0,.14,0,.32,0,.64,0,.96,0,.78-.55,1.34-1.33,1.34-2.34,0-4.67,0-7.01,0-.68,0-1.17-.41-1.31-1.07,0-.02-.01-.03-.02-.05,0-2.18,0-4.37,0-6.55Zm4.83-.29c-1.14,0-2.28,0-3.43,0-.41,0-.58.17-.58.57,0,2,0,3.99,0,5.99,0,.41.17.58.57.58,2.29,0,4.59,0,6.88,0,.39,0,.56-.17.56-.56,0-2,0-4.01,0-6.01,0-.4-.17-.57-.57-.57-1.15,0-2.29,0-3.44,0Zm8.43,1.09s-.04,0-.06.01c-1.15.46-2.3.92-3.46,1.38-.08.03-.08.08-.08.15,0,.62,0,1.24,0,1.86,0,.09.03.14.12.17,1.12.45,2.25.9,3.37,1.34.04.01.07.02.12.04v-4.95Z"/>
    </g>
  </g>
</svg>