<svg xmlns="http://www.w3.org/2000/svg" xmlns:xlink="http://www.w3.org/1999/xlink" width="16" height="16" viewBox="0 0 16 16">
  <defs>
    <clipPath id="clip-path">
      <rect id="사각형_4266" data-name="사각형 4266" width="16" height="16" fill="none"/>
    </clipPath>
  </defs>
  <g id="admin_icon" opacity="0.8">
    <rect id="사각형_4265" data-name="사각형 4265" width="16" height="16" fill="none"/>
    <g id="그룹_1299" data-name="그룹 1299">
      <g id="그룹_1298" data-name="그룹 1298" clip-path="url(#clip-path)">
        <path id="패스_1507" data-name="패스 1507" d="M15.087,5.65a.714.714,0,0,1-.4.534,2.422,2.422,0,0,1-.526.151.229.229,0,0,0-.171.131.426.426,0,0,0,.05.54.806.806,0,0,1-.1,1.164c-.114.114-.225.232-.346.338a.8.8,0,0,1-.926.094.484.484,0,0,1-.138-.09c-.187-.218-.387-.14-.586-.027a.183.183,0,0,0-.068.105c-.028.116-.042.236-.072.351a.784.784,0,0,1-.745.609c-.193.008-.387.008-.58,0a.8.8,0,0,1-.753-.619A.435.435,0,0,1,9.7,8.81c.012-.249-.126-.366-.349-.43a.2.2,0,0,0-.2.03,1.248,1.248,0,0,1-.572.288.761.761,0,0,1-.617-.174,5.462,5.462,0,0,1-.47-.468.787.787,0,0,1-.087-.914.68.68,0,0,1,.106-.161A.36.36,0,0,0,7.568,6.5a.259.259,0,0,0-.218-.169,1,1,0,0,1-.662-.271.774.774,0,0,1-.228-.518c-.005-.189-.008-.378,0-.567a.8.8,0,0,1,.664-.788,1.236,1.236,0,0,1,.19-.032.3.3,0,0,0,.269-.2A.384.384,0,0,0,7.513,3.5a.825.825,0,0,1,.1-1.207c.1-.105.2-.212.316-.309a.8.8,0,0,1,.961-.089.457.457,0,0,1,.114.077c.187.217.386.139.585.027a.184.184,0,0,0,.07-.106c.024-.094.034-.19.053-.285a.806.806,0,0,1,.6-.654A.227.227,0,0,0,10.36.923h.8a.852.852,0,0,1,.616.521,1.9,1.9,0,0,1,.083.375.272.272,0,0,0,.169.218.366.366,0,0,0,.489-.061.683.683,0,0,1,.138-.09.789.789,0,0,1,.927.074,4.7,4.7,0,0,1,.467.469.785.785,0,0,1,.072.926c-.061.1-.134.2-.2.3-.017.026-.047.062-.04.082a1.5,1.5,0,0,0,.153.352c.034.049.137.057.211.068a.89.89,0,0,1,.622.287.878.878,0,0,1,.22.407ZM13.526,2.941a.757.757,0,0,0-.07-.1c-.092-.1-.19-.188-.282-.285a.137.137,0,0,0-.206-.016c-.134.1-.272.19-.407.287a.407.407,0,0,1-.44.04c-.209-.1-.422-.181-.636-.264a.391.391,0,0,1-.27-.319c-.027-.163-.058-.326-.084-.49-.016-.1-.061-.157-.172-.152-.129.006-.258,0-.387,0a.137.137,0,0,0-.158.134c-.025.159-.058.317-.081.476a.417.417,0,0,1-.287.354c-.211.079-.42.163-.623.258a.406.406,0,0,1-.441-.038c-.127-.092-.259-.177-.383-.272a.16.16,0,0,0-.251.016c-.08.089-.165.174-.253.255a.15.15,0,0,0-.019.229c.1.13.184.265.278.395a.4.4,0,0,1,.042.441c-.1.208-.183.421-.265.635a.394.394,0,0,1-.319.27c-.163.028-.326.059-.49.084-.1.016-.154.063-.149.174.006.129,0,.258,0,.387a.136.136,0,0,0,.134.157c.159.024.316.059.476.082a.42.42,0,0,1,.359.3c.075.2.156.4.248.6a.416.416,0,0,1-.042.465c-.093.126-.177.258-.271.383a.15.15,0,0,0,.015.229q.138.128.264.264a.149.149,0,0,0,.229.017c.126-.093.258-.178.383-.271a.418.418,0,0,1,.465-.042c.2.093.4.174.6.247a.428.428,0,0,1,.3.373c.022.155.057.307.08.462a.137.137,0,0,0,.157.135c.129,0,.258-.006.387,0,.11.006.158-.045.174-.149.025-.159.059-.316.082-.476a.4.4,0,0,1,.283-.34c.21-.08.418-.165.623-.258a.406.406,0,0,1,.441.04c.13.094.266.182.395.278a.154.154,0,0,0,.239-.024,3.3,3.3,0,0,1,.244-.244.159.159,0,0,0,.017-.251c-.089-.116-.166-.243-.255-.36a.427.427,0,0,1-.044-.489,6.106,6.106,0,0,0,.243-.585.424.424,0,0,1,.371-.3c.15-.021.3-.057.448-.077.107-.014.155-.062.151-.171s-.005-.249,0-.373a.151.151,0,0,0-.15-.175c-.163-.026-.326-.058-.489-.085a.39.39,0,0,1-.322-.267c-.082-.214-.167-.428-.263-.636a.4.4,0,0,1,.038-.441q.14-.2.277-.4c.023-.033.04-.07.065-.114" fill="#fff"/>
        <path id="패스_1508" data-name="패스 1508" d="M3.43,5.4a.849.849,0,0,1,.581.222.566.566,0,0,0,.741.1c.163-.091.263-.163.274-.35a1.661,1.661,0,0,1,.056-.312.366.366,0,0,1,.4-.262.355.355,0,0,1,.293.379c-.036.273-.089.544-.141.815a.353.353,0,0,1-.245.258c-.285.116-.57.231-.852.354a.4.4,0,0,1-.417-.035c-.184-.131-.368-.261-.554-.388a.239.239,0,0,0-.367.033q-.192.189-.381.381a.23.23,0,0,0-.029.345c.122.178.245.357.374.53a.445.445,0,0,1,.032.5,6.763,6.763,0,0,0-.305.737.453.453,0,0,1-.392.336c-.209.031-.418.069-.625.11-.166.031-.222.1-.224.262,0,.184,0,.369,0,.553,0,.167.066.238.236.268.213.038.425.076.639.111a.423.423,0,0,1,.355.3c.1.267.208.53.327.788a.425.425,0,0,1-.035.466c-.13.179-.256.36-.381.543a.228.228,0,0,0,.027.344c.131.136.264.27.4.4a.225.225,0,0,0,.333.025c.187-.127.371-.257.554-.389a.418.418,0,0,1,.454-.033c.263.119.53.232.8.332a.418.418,0,0,1,.3.346q.054.32.111.639c.033.184.1.241.29.242H6.57c.186,0,.25-.051.285-.23.038-.194.079-.388.1-.584a.479.479,0,0,1,.375-.437,4.614,4.614,0,0,0,.7-.291.445.445,0,0,1,.514.033c.169.127.345.246.519.366a.232.232,0,0,0,.355-.03q.193-.189.382-.381a.238.238,0,0,0,.033-.356q-.187-.273-.381-.542a.424.424,0,0,1-.033-.466q.18-.387.327-.788a.42.42,0,0,1,.344-.3c.208-.036.416-.076.625-.108a.629.629,0,0,1,.233,0,.348.348,0,0,1,.267.343.364.364,0,0,1-.271.342c-.148.035-.3.061-.448.081a.149.149,0,0,0-.147.118.64.64,0,0,1-.085.218.4.4,0,0,0,.06.557,1.357,1.357,0,0,1,.235.4.851.851,0,0,1-.15.882,5.7,5.7,0,0,1-.562.569.9.9,0,0,1-1.124.09,3.845,3.845,0,0,1-.351-.243.2.2,0,0,0-.26-.028,1.348,1.348,0,0,1-.33.138.2.2,0,0,0-.162.2,3.728,3.728,0,0,1-.081.434.923.923,0,0,1-.9.723c-.2.005-.4,0-.594,0a.948.948,0,0,1-.992-.832A3.057,3.057,0,0,1,5,13.917a.2.2,0,0,0-.164-.2c-.131-.041-.253-.11-.382-.155a.192.192,0,0,0-.147.012c-.152.1-.293.208-.447.3a.9.9,0,0,1-1.066-.1,6.71,6.71,0,0,1-.548-.545.9.9,0,0,1-.1-1.1c.087-.146.2-.279.285-.424a.211.211,0,0,0,.015-.158,3.572,3.572,0,0,0-.174-.42.235.235,0,0,0-.133-.109c-.152-.039-.309-.054-.461-.089a.929.929,0,0,1-.747-.92c0-.2,0-.4,0-.594a.945.945,0,0,1,.81-.97c.158-.029.351-.012.465-.1s.131-.283.21-.419a.248.248,0,0,0-.033-.32A2.833,2.833,0,0,1,2.13,7.23.892.892,0,0,1,2.22,6.2a7.888,7.888,0,0,1,.585-.586A.862.862,0,0,1,3.43,5.4" fill="#fff"/>
        <path id="패스_1509" data-name="패스 1509" d="M6.376,12.1a2.4,2.4,0,1,1-.09-4.8.373.373,0,0,1,.386.337A.353.353,0,0,1,6.33,8a1.778,1.778,0,0,0-1.116.418,1.682,1.682,0,1,0,2.776,1.4A.532.532,0,0,1,8.1,9.444a.353.353,0,0,1,.384-.08.366.366,0,0,1,.229.347,2.419,2.419,0,0,1-1.51,2.215,2.3,2.3,0,0,1-.831.169" fill="#fff"/>
        <path id="패스_1510" data-name="패스 1510" d="M10.771,6.953a1.716,1.716,0,1,1,1.715-1.711,1.711,1.711,0,0,1-1.715,1.711m-.021-.72a1,1,0,1,0-.974-1.011,1,1,0,0,0,.974,1.011" fill="#fff"/>
      </g>
    </g>
  </g>
</svg>
