<svg id="asmo_side_company_icon" xmlns="http://www.w3.org/2000/svg" width="23.108" height="21.268" viewBox="0 0 23.108 21.268">
  <path id="패스_58" data-name="패스 58" d="M23.108,20.383h-.961V7.976H15.4V0H.961V20.383H0v.885H23.108Zm-13.481,0H6.738V17.725H9.627Zm4.816,0h-3.85v-3.1a.465.465,0,0,0-.483-.444H6.26a.465.465,0,0,0-.483.444v3.1H1.927V.885H14.442Zm6.738,0H15.4V8.86H21.18Z" fill="#b4b4b4"/>
  <path id="패스_59" data-name="패스 59" d="M85.648,66.679h2.083a.349.349,0,0,0,.348-.348V64.248a.349.349,0,0,0-.348-.348H85.648a.349.349,0,0,0-.348.348v2.083A.347.347,0,0,0,85.648,66.679ZM86,64.6h1.39v1.39H86Z" transform="translate(-81.235 -61.82)" fill="#b4b4b4"/>
  <path id="패스_60" data-name="패스 60" d="M192.348,66.679h2.083a.349.349,0,0,0,.348-.348V64.248a.349.349,0,0,0-.348-.348h-2.083a.349.349,0,0,0-.348.348v2.083A.347.347,0,0,0,192.348,66.679Zm.345-2.083h1.39v1.39h-1.39V64.6Z" transform="translate(-182.851 -61.82)" fill="#b4b4b4"/>
  <path id="패스_61" data-name="패스 61" d="M85.648,173.379h2.083a.349.349,0,0,0,.348-.348v-2.083a.349.349,0,0,0-.348-.348H85.648a.349.349,0,0,0-.348.348v2.083A.349.349,0,0,0,85.648,173.379ZM86,171.3h1.39v1.39H86Z" transform="translate(-81.235 -163.206)" fill="#b4b4b4"/>
  <path id="패스_62" data-name="패스 62" d="M192.348,173.379h2.083a.349.349,0,0,0,.348-.348v-2.083a.349.349,0,0,0-.348-.348h-2.083a.349.349,0,0,0-.348.348v2.083A.349.349,0,0,0,192.348,173.379Zm.345-2.083h1.39v1.39h-1.39V171.3Z" transform="translate(-182.851 -163.206)" fill="#b4b4b4"/>
  <path id="패스_63" data-name="패스 63" d="M362.948,258.679h2.083a.349.349,0,0,0,.348-.348v-2.083a.349.349,0,0,0-.348-.348h-2.083a.349.349,0,0,0-.348.348v2.083A.349.349,0,0,0,362.948,258.679Zm.348-2.083h1.39v1.39H363.3Z" transform="translate(-345.51 -244.809)" fill="#b4b4b4"/>
  <path id="패스_64" data-name="패스 64" d="M362.948,365.379h2.083a.349.349,0,0,0,.348-.348v-2.083a.349.349,0,0,0-.348-.348h-2.083a.349.349,0,0,0-.348.348v2.083A.351.351,0,0,0,362.948,365.379Zm.348-2.083h1.39v1.39H363.3Z" transform="translate(-345.51 -346.194)" fill="#b4b4b4"/>
  <path id="패스_65" data-name="패스 65" d="M85.648,280.079h2.083a.349.349,0,0,0,.348-.348v-2.083a.349.349,0,0,0-.348-.348H85.648a.349.349,0,0,0-.348.348v2.083A.349.349,0,0,0,85.648,280.079ZM86,278h1.39v1.39H86Z" transform="translate(-81.235 -265.282)" fill="#b4b4b4"/>
  <path id="패스_66" data-name="패스 66" d="M192.348,280.079h2.083a.349.349,0,0,0,.348-.348v-2.083a.349.349,0,0,0-.348-.348h-2.083a.349.349,0,0,0-.348.348v2.083A.349.349,0,0,0,192.348,280.079Zm.345-2.083h1.39v1.39h-1.39V278Z" transform="translate(-182.851 -265.282)" fill="#b4b4b4"/>
</svg>
