<svg xmlns="http://www.w3.org/2000/svg" xmlns:xlink="http://www.w3.org/1999/xlink" width="29" height="29" viewBox="0 0 29 29">
  <defs>
    <clipPath id="clip-path">
      <rect id="사각형_4430" data-name="사각형 4430" width="29" height="29" transform="translate(571 167)" fill="#fff" stroke="#707070" stroke-width="1"/>
    </clipPath>
  </defs>
  <g id="asmo_hand" transform="translate(-571 -167)" clip-path="url(#clip-path)">
    <g id="goodbye_5821932" transform="translate(571 167)">
      <g id="그룹_1224" data-name="그룹 1224" transform="translate(0 1.016)">
        <g id="그룹_1222" data-name="그룹 1222" transform="translate(0 0)">
          <path id="패스_2020" data-name="패스 2020" d="M7.673,27.222.423,17.808a2.049,2.049,0,0,1,.358-2.857,2.006,2.006,0,0,1,2.832.355l5.041,6.546Z" transform="translate(0 -4.74)" fill="#ffcebf"/>
          <path id="패스_2021" data-name="패스 2021" d="M8.994,20l-7.25-9.414A2.049,2.049,0,0,1,2.1,7.731a2.006,2.006,0,0,1,2.832.355l7.25,9.414Z" transform="translate(-0.339 -2.889)" fill="#ffcebf"/>
          <path id="패스_2022" data-name="패스 2022" d="M18.083,13.932l-5.777-7.5a2.049,2.049,0,0,1,.358-2.857,2.006,2.006,0,0,1,2.832.355l7.575,9.836Z" transform="translate(-3.047 -1.822)" fill="#ffcebf"/>
          <path id="패스_2023" data-name="패스 2023" d="M11.3,14.067,4.055,4.653A2.049,2.049,0,0,1,4.414,1.8a2.006,2.006,0,0,1,2.832.355l7.25,9.414Z" transform="translate(-0.931 -1.367)" fill="#ffcebf"/>
          <path id="패스_2024" data-name="패스 2024" d="M8.33,23.723l3.2,4.159A8.339,8.339,0,0,0,23.306,29.36a8.5,8.5,0,0,0,3.225-6.046l.878-11.536A3.158,3.158,0,0,0,24.442,8.37a.872.872,0,0,0-.9.7l-1.109,5.323a2.36,2.36,0,0,1-.853,1.376,9.091,9.091,0,0,0-3.472,7.176v.2L22.16,15.1,15.7,12.2l-5.284,4.77Z" transform="translate(-2.136 -3.162)" fill="#ffcebf"/>
        </g>
        <path id="패스_2025" data-name="패스 2025" d="M3.614,15.307a2.006,2.006,0,0,0-2.832-.355A2.044,2.044,0,0,0,0,16.616a2.006,2.006,0,0,1,2.751.416L6.617,22.05a1.209,1.209,0,0,0,2.039-.2Z" transform="translate(0 -4.74)" fill="#ffb09e"/>
        <path id="패스_2026" data-name="패스 2026" d="M4.073,9.811,9.76,17.2a1.72,1.72,0,0,0,2.425.3L4.935,8.087A2.006,2.006,0,0,0,2.1,7.731,2.044,2.044,0,0,0,1.322,9.4a2.006,2.006,0,0,1,2.751.416Z" transform="translate(-0.339 -2.888)" fill="#ffb09e"/>
        <path id="패스_2027" data-name="패스 2027" d="M6.384,3.876l7.065,9.118a1.94,1.94,0,0,0,2.519.483L7.246,2.152A2.006,2.006,0,0,0,4.414,1.8,2.044,2.044,0,0,0,3.633,3.46a2.006,2.006,0,0,1,2.751.416Z" transform="translate(-0.931 -1.367)" fill="#ffb09e"/>
        <path id="패스_2028" data-name="패스 2028" d="M13.9,4.791l6.224,8.082a2.386,2.386,0,0,0,1.971.929l1.1-.037L15.623,3.929a2.006,2.006,0,0,0-2.832-.355,2.033,2.033,0,0,0-.411.434,2,2,0,0,1,1.519.783Z" transform="translate(-3.174 -1.822)" fill="#ffb09e"/>
        <g id="그룹_1223" data-name="그룹 1223" transform="translate(15.152 5.207)">
          <path id="패스_2029" data-name="패스 2029" d="M27.531,8.37a.864.864,0,0,0-.654.25,3.171,3.171,0,0,1,1.9,3.157L27.9,23.313A8.5,8.5,0,0,1,24.67,29.36,8.33,8.33,0,0,1,20.377,31.1a8.326,8.326,0,0,0,6.018-1.741,8.5,8.5,0,0,0,3.225-6.046L30.5,11.778A3.158,3.158,0,0,0,27.531,8.37Z" transform="translate(-20.377 -8.369)" fill="#ffb09e"/>
        </g>
      </g>
      <g id="그룹_1227" data-name="그룹 1227" transform="translate(0.431 20.468)">
        <g id="그룹_1225" data-name="그룹 1225">
          <path id="패스_2030" data-name="패스 2030" d="M6.637,35.627a.439.439,0,0,1-.054,0,6.789,6.789,0,0,1-4.562-2.618A6.9,6.9,0,0,1,.634,27.9a.431.431,0,1,1,.856.107A6.044,6.044,0,0,0,2.7,32.479,5.932,5.932,0,0,0,6.69,34.768a.431.431,0,0,1-.053.859Z" transform="translate(-0.579 -27.527)" fill="#e5e1e5"/>
        </g>
        <g id="그룹_1226" data-name="그룹 1226" transform="translate(2.037 0.253)">
          <path id="패스_2031" data-name="패스 2031" d="M7.6,33.676a.439.439,0,0,1-.054,0,4.851,4.851,0,0,1-4.183-5.428.431.431,0,0,1,.856.107,3.988,3.988,0,0,0,3.435,4.465.431.431,0,0,1-.053.859Z" transform="translate(-3.319 -27.867)" fill="#e5e1e5"/>
        </g>
      </g>
      <g id="그룹_1230" data-name="그룹 1230" transform="translate(22.256 0)">
        <g id="그룹_1228" data-name="그룹 1228" transform="translate(0.256)">
          <path id="패스_2032" data-name="패스 2032" d="M36.281,8.1a.44.44,0,0,1-.054,0,.431.431,0,0,1-.374-.481,6.036,6.036,0,0,0-5.2-6.757A.431.431,0,0,1,30.76,0a6.9,6.9,0,0,1,5.948,7.72.431.431,0,0,1-.427.378Z" transform="translate(-30.275 0)" fill="#e5e1e5"/>
        </g>
        <g id="그룹_1229" data-name="그룹 1229" transform="translate(0 2.038)">
          <path id="패스_2033" data-name="패스 2033" d="M34.172,8.55a.439.439,0,0,1-.054,0,.431.431,0,0,1-.374-.481A3.988,3.988,0,0,0,30.308,3.6a.431.431,0,0,1,.107-.856A4.851,4.851,0,0,1,34.6,8.172.431.431,0,0,1,34.172,8.55Z" transform="translate(-29.931 -2.741)" fill="#e5e1e5"/>
        </g>
      </g>
    </g>
  </g>
</svg>
