<svg xmlns="http://www.w3.org/2000/svg" xmlns:xlink="http://www.w3.org/1999/xlink" width="23" height="23" viewBox="0 0 23 23">
  <defs>
    <clipPath id="clip-path">
      <rect id="사각형_4401" data-name="사각형 4401" width="23" height="23" fill="#fff" stroke="#707070" stroke-width="1"/>
    </clipPath>
  </defs>
  <g id="asmo_schedule_icon" clip-path="url(#clip-path)">
    <g id="schedule_3652191" transform="translate(0.766)">
      <g id="그룹_1132" data-name="그룹 1132">
        <path id="패스_1711" data-name="패스 1711" d="M11.061,19.167H2.3A1.533,1.533,0,0,1,.766,17.633V16.1H12.534Z" transform="translate(-0.766)" fill="#d3dcfb"/>
        <path id="패스_1712" data-name="패스 1712" d="M20.7,6.9V17.633H2.3A1.533,1.533,0,0,1,.766,16.1V6.9L11.5,3.067Z" transform="translate(-0.766)" fill="#ebf5fc"/>
        <g id="그룹_1125" data-name="그룹 1125" transform="translate(1.534 8.433)">
          <path id="패스_1713" data-name="패스 1713" d="M3.474,9.967H2.66A.359.359,0,0,1,2.3,9.607V8.793a.359.359,0,0,1,.359-.359h.815a.359.359,0,0,1,.359.359v.815A.359.359,0,0,1,3.474,9.967Z" transform="translate(-2.3 -8.433)" fill="#3c58a0"/>
          <path id="패스_1714" data-name="패스 1714" d="M6.541,9.967H5.726a.359.359,0,0,1-.359-.359V8.793a.359.359,0,0,1,.359-.359h.815a.359.359,0,0,1,.359.359v.815A.359.359,0,0,1,6.541,9.967Z" transform="translate(-2.3 -8.433)" fill="#3c58a0"/>
          <path id="패스_1715" data-name="패스 1715" d="M9.607,9.967H8.793a.359.359,0,0,1-.359-.359V8.793a.359.359,0,0,1,.359-.359h.815a.359.359,0,0,1,.359.359v.815A.359.359,0,0,1,9.607,9.967Z" transform="translate(-2.3 -8.433)" fill="#3c58a0"/>
          <path id="패스_1716" data-name="패스 1716" d="M12.674,9.967H11.86a.359.359,0,0,1-.359-.359V8.793a.359.359,0,0,1,.359-.359h.815a.359.359,0,0,1,.359.359v.815A.359.359,0,0,1,12.674,9.967Z" transform="translate(-2.3 -8.433)" fill="#3c58a0"/>
          <path id="패스_1717" data-name="패스 1717" d="M15.74,9.967h-.815a.359.359,0,0,1-.359-.359V8.793a.359.359,0,0,1,.359-.359h.815a.359.359,0,0,1,.359.359v.815A.359.359,0,0,1,15.74,9.967Z" transform="translate(-2.3 -8.433)" fill="#3c58a0"/>
          <path id="패스_1718" data-name="패스 1718" d="M18.807,9.967h-.815a.359.359,0,0,1-.359-.359V8.793a.359.359,0,0,1,.359-.359h.815a.359.359,0,0,1,.359.359v.815A.359.359,0,0,1,18.807,9.967Z" transform="translate(-2.3 -8.433)" fill="#3c58a0"/>
          <path id="패스_1719" data-name="패스 1719" d="M3.474,13.033H2.66a.359.359,0,0,1-.359-.359v-.815A.359.359,0,0,1,2.66,11.5h.815a.359.359,0,0,1,.359.359v.815A.359.359,0,0,1,3.474,13.033Z" transform="translate(-2.3 -8.433)" fill="#3c58a0"/>
          <path id="패스_1720" data-name="패스 1720" d="M6.541,13.033H5.726a.359.359,0,0,1-.359-.359v-.815a.359.359,0,0,1,.359-.359h.815a.359.359,0,0,1,.359.359v.815A.359.359,0,0,1,6.541,13.033Z" transform="translate(-2.3 -8.433)" fill="#3c58a0"/>
          <path id="패스_1721" data-name="패스 1721" d="M9.607,13.033H8.793a.359.359,0,0,1-.359-.359v-.815a.359.359,0,0,1,.359-.359h.815a.359.359,0,0,1,.359.359v.815A.359.359,0,0,1,9.607,13.033Z" transform="translate(-2.3 -8.433)" fill="#3c58a0"/>
          <path id="패스_1722" data-name="패스 1722" d="M13.033,13.033v-1.15a.383.383,0,0,0-.383-.383h-.767a.383.383,0,0,0-.383.383v.767a.383.383,0,0,0,.383.383Z" transform="translate(-2.3 -8.433)" fill="#3c58a0"/>
          <path id="패스_1723" data-name="패스 1723" d="M3.474,16.1H2.66a.359.359,0,0,1-.359-.359v-.815a.359.359,0,0,1,.359-.359h.815a.359.359,0,0,1,.359.359v.815A.359.359,0,0,1,3.474,16.1Z" transform="translate(-2.3 -8.433)" fill="#3c58a0"/>
          <path id="패스_1724" data-name="패스 1724" d="M6.541,16.1H5.726a.359.359,0,0,1-.359-.359v-.815a.359.359,0,0,1,.359-.359h.815a.359.359,0,0,1,.359.359v.815A.359.359,0,0,1,6.541,16.1Z" transform="translate(-2.3 -8.433)" fill="#3c58a0"/>
          <path id="패스_1725" data-name="패스 1725" d="M9.607,16.1H8.793a.359.359,0,0,1-.359-.359v-.815a.359.359,0,0,1,.359-.359h.815a.359.359,0,0,1,.359.359v.815A.359.359,0,0,1,9.607,16.1Z" transform="translate(-2.3 -8.433)" fill="#3c58a0"/>
        </g>
        <path id="패스_1726" data-name="패스 1726" d="M18.8,8.433H18a.369.369,0,0,0-.136.026A.37.37,0,0,1,18.1,8.8V9.6a.37.37,0,0,1-.234.344A.369.369,0,0,0,18,9.967H18.8a.37.37,0,0,0,.37-.37V8.8A.37.37,0,0,0,18.8,8.433Z" transform="translate(-0.766)" fill="#2a428c"/>
        <path id="패스_1727" data-name="패스 1727" d="M15.729,8.433h-.793a.369.369,0,0,0-.136.026.37.37,0,0,1,.234.344V9.6a.37.37,0,0,1-.234.344.369.369,0,0,0,.136.026h.793a.37.37,0,0,0,.37-.37V8.8A.37.37,0,0,0,15.729,8.433Z" transform="translate(-0.766)" fill="#2a428c"/>
        <path id="패스_1728" data-name="패스 1728" d="M12.663,8.433H11.87a.369.369,0,0,0-.136.026.37.37,0,0,1,.234.344V9.6a.37.37,0,0,1-.234.344.369.369,0,0,0,.136.026h.793a.37.37,0,0,0,.37-.37V8.8A.37.37,0,0,0,12.663,8.433Z" transform="translate(-0.766)" fill="#2a428c"/>
        <path id="패스_1729" data-name="패스 1729" d="M9.6,8.433H8.8a.369.369,0,0,0-.136.026A.37.37,0,0,1,8.9,8.8V9.6a.37.37,0,0,1-.234.344.369.369,0,0,0,.136.026H9.6a.37.37,0,0,0,.37-.37V8.8A.37.37,0,0,0,9.6,8.433Z" transform="translate(-0.766)" fill="#2a428c"/>
        <path id="패스_1730" data-name="패스 1730" d="M6.53,8.433H5.737a.369.369,0,0,0-.136.026.37.37,0,0,1,.234.344V9.6a.37.37,0,0,1-.234.344.369.369,0,0,0,.136.026H6.53A.37.37,0,0,0,6.9,9.6V8.8A.37.37,0,0,0,6.53,8.433Z" transform="translate(-0.766)" fill="#2a428c"/>
        <path id="패스_1731" data-name="패스 1731" d="M3.463,8.433H2.67a.369.369,0,0,0-.136.026.37.37,0,0,1,.234.344V9.6a.37.37,0,0,1-.234.344.369.369,0,0,0,.136.026h.793a.37.37,0,0,0,.37-.37V8.8A.37.37,0,0,0,3.463,8.433Z" transform="translate(-0.766)" fill="#2a428c"/>
        <path id="패스_1732" data-name="패스 1732" d="M3.463,11.5H2.67a.369.369,0,0,0-.136.026.37.37,0,0,1,.234.344v.793a.37.37,0,0,1-.234.344.369.369,0,0,0,.136.026h.793a.37.37,0,0,0,.37-.37V11.87a.37.37,0,0,0-.37-.37Z" transform="translate(-0.766)" fill="#2a428c"/>
        <path id="패스_1733" data-name="패스 1733" d="M3.463,14.567H2.67a.369.369,0,0,0-.136.026.37.37,0,0,1,.234.344v.793a.37.37,0,0,1-.234.344.369.369,0,0,0,.136.026h.793a.37.37,0,0,0,.37-.37v-.793a.37.37,0,0,0-.37-.37Z" transform="translate(-0.766)" fill="#2a428c"/>
        <path id="패스_1734" data-name="패스 1734" d="M6.53,11.5H5.737a.369.369,0,0,0-.136.026.37.37,0,0,1,.234.344v.793a.37.37,0,0,1-.234.344.369.369,0,0,0,.136.026H6.53a.37.37,0,0,0,.37-.37V11.87a.37.37,0,0,0-.37-.37Z" transform="translate(-0.766)" fill="#2a428c"/>
        <path id="패스_1735" data-name="패스 1735" d="M6.53,14.567H5.737a.369.369,0,0,0-.136.026.37.37,0,0,1,.234.344v.793a.37.37,0,0,1-.234.344.369.369,0,0,0,.136.026H6.53a.37.37,0,0,0,.37-.37v-.793a.37.37,0,0,0-.37-.37Z" transform="translate(-0.766)" fill="#2a428c"/>
        <path id="패스_1736" data-name="패스 1736" d="M9.6,11.5H8.8a.369.369,0,0,0-.136.026.37.37,0,0,1,.234.344v.793a.37.37,0,0,1-.234.344.369.369,0,0,0,.136.026H9.6a.37.37,0,0,0,.37-.37V11.87a.37.37,0,0,0-.37-.37Z" transform="translate(-0.766)" fill="#2a428c"/>
        <path id="패스_1737" data-name="패스 1737" d="M13.033,13.033V11.87a.37.37,0,0,0-.37-.37H11.87a.369.369,0,0,0-.136.026.37.37,0,0,1,.234.344v.793a.37.37,0,0,1-.234.344.369.369,0,0,0,.136.026h1.163Z" transform="translate(-0.766)" fill="#2a428c"/>
        <path id="패스_1738" data-name="패스 1738" d="M9.6,14.567H8.8a.369.369,0,0,0-.136.026.37.37,0,0,1,.234.344v.793a.37.37,0,0,1-.234.344A.369.369,0,0,0,8.8,16.1H9.6a.37.37,0,0,0,.37-.37v-.793a.37.37,0,0,0-.37-.37Z" transform="translate(-0.766)" fill="#2a428c"/>
        <path id="패스_1739" data-name="패스 1739" d="M19.636,6.456V17.633H20.7V6.9Z" transform="translate(-0.766)" fill="#d3dcfb"/>
        <path id="패스_1740" data-name="패스 1740" d="M20.7,6.9V3.067a1.533,1.533,0,0,0-1.533-1.533H2.3A1.533,1.533,0,0,0,.766,3.067V6.9Z" transform="translate(-0.766)" fill="#ff4155"/>
        <g id="그룹_1131" data-name="그룹 1131" transform="translate(3.486 2.72)">
          <g id="그룹_1130" data-name="그룹 1130">
            <g id="그룹_1126" data-name="그룹 1126">
              <path id="패스_1741" data-name="패스 1741" d="M5.6,3.414h-1a.347.347,0,0,1,0-.694h1a.347.347,0,1,1,0,.694Z" transform="translate(-4.253 -2.72)" fill="#e80054"/>
            </g>
            <g id="그룹_1127" data-name="그룹 1127" transform="translate(2.452)">
              <path id="패스_1742" data-name="패스 1742" d="M8.05,3.414h-1a.347.347,0,0,1,0-.694h1a.347.347,0,0,1,0,.694Z" transform="translate(-6.705 -2.72)" fill="#e80054"/>
            </g>
            <g id="그룹_1128" data-name="그룹 1128" transform="translate(8.817)">
              <path id="패스_1743" data-name="패스 1743" d="M14.415,3.414h-1a.347.347,0,1,1,0-.694h1a.347.347,0,1,1,0,.694Z" transform="translate(-13.07 -2.72)" fill="#e80054"/>
            </g>
            <g id="그룹_1129" data-name="그룹 1129" transform="translate(11.269)">
              <path id="패스_1744" data-name="패스 1744" d="M16.867,3.414h-1a.347.347,0,1,1,0-.694h1a.347.347,0,1,1,0,.694Z" transform="translate(-15.522 -2.72)" fill="#e80054"/>
            </g>
          </g>
        </g>
        <path id="패스_1745" data-name="패스 1745" d="M7.283,2.875a.958.958,0,1,1-1.917,0V.958a.958.958,0,1,1,1.917,0V2.875Z" transform="translate(-0.766)" fill="#ebf5fc"/>
        <path id="패스_1746" data-name="패스 1746" d="M16.1,2.875a.958.958,0,0,1-1.917,0V.958a.958.958,0,0,1,1.917,0V2.875Z" transform="translate(-0.766)" fill="#ebf5fc"/>
        <path id="패스_1747" data-name="패스 1747" d="M15.142,0a.954.954,0,0,0-.532.161.957.957,0,0,1,.427.8V2.875a.957.957,0,0,1-.427.8.958.958,0,0,0,1.49-.8V.958A.958.958,0,0,0,15.142,0Z" transform="translate(-0.766)" fill="#d3dcfb"/>
        <path id="패스_1748" data-name="패스 1748" d="M6.325,0a.954.954,0,0,0-.532.161.957.957,0,0,1,.427.8V2.875a.957.957,0,0,1-.427.8.958.958,0,0,0,1.49-.8V.958A.958.958,0,0,0,6.325,0Z" transform="translate(-0.766)" fill="#d3dcfb"/>
        <path id="패스_1749" data-name="패스 1749" d="M19.168,1.533H18.1a1.533,1.533,0,0,1,1.533,1.533V6.9H20.7V3.067a1.533,1.533,0,0,0-1.533-1.533Z" transform="translate(-0.766)" fill="#e80054"/>
        <path id="패스_1750" data-name="패스 1750" d="M.766,5.02H20.7v.694H.766Z" transform="translate(-0.766)" fill="#e80054"/>
      </g>
      <circle id="타원_120" data-name="타원 120" cx="5.75" cy="5.75" r="5.75" transform="translate(9.967 11.5)" fill="#4fabf7"/>
      <circle id="타원_121" data-name="타원 121" cx="4.217" cy="4.217" r="4.217" transform="translate(11.501 13.033)" fill="#ebf5fc"/>
      <g id="그룹_1134" data-name="그룹 1134" transform="translate(15.37 14.22)">
        <g id="그룹_1133" data-name="그룹 1133">
          <path id="패스_1751" data-name="패스 1751" d="M16.484,16.83a.347.347,0,0,1-.347-.347V14.567a.347.347,0,0,1,.694,0v1.917A.347.347,0,0,1,16.484,16.83Z" transform="translate(-16.137 -14.22)" fill="#3c58a0"/>
        </g>
      </g>
      <g id="그룹_1136" data-name="그룹 1136" transform="translate(16.137 16.903)">
        <g id="그룹_1135" data-name="그룹 1135">
          <path id="패스_1752" data-name="패스 1752" d="M18.4,17.6H17.25a.347.347,0,1,1,0-.694H18.4a.347.347,0,0,1,0,.694Z" transform="translate(-16.903 -16.903)" fill="#3c58a0"/>
        </g>
      </g>
      <path id="패스_1753" data-name="패스 1753" d="M16.484,11.5c-.179,0-.357.009-.532.025a5.75,5.75,0,0,1,0,11.45c.175.016.353.025.532.025a5.75,5.75,0,0,0,0-11.5Z" transform="translate(-0.766)" fill="#1886ea"/>
      <path id="패스_1754" data-name="패스 1754" d="M16.484,13.033a4.258,4.258,0,0,0-.532.033,4.217,4.217,0,0,1,0,8.367,4.217,4.217,0,1,0,.532-8.4Z" transform="translate(-0.766)" fill="#d3dcfb"/>
      <circle id="타원_122" data-name="타원 122" cx="0.767" cy="0.767" r="0.767" transform="translate(14.951 16.483)" fill="#ffdd40"/>
    </g>
  </g>
</svg>
