<svg xmlns="http://www.w3.org/2000/svg" width="22.53" height="22.53" viewBox="0 0 22.53 22.53">
  <g id="asmo_side_dash_icon_on" transform="translate(0.5 0.5)">
    <path id="패스_85" data-name="패스 85" d="M8.3,0H1.57A1.572,1.572,0,0,0,0,1.57V5.607a1.572,1.572,0,0,0,1.57,1.57H8.3a1.572,1.572,0,0,0,1.57-1.57V1.57A1.572,1.572,0,0,0,8.3,0Zm0,0" fill="none" stroke="#fb8c00" stroke-width="1"/>
    <path id="패스_86" data-name="패스 86" d="M8.3,213.332H1.57A1.572,1.572,0,0,0,0,214.9v9.42a1.572,1.572,0,0,0,1.57,1.57H8.3a1.572,1.572,0,0,0,1.57-1.57V214.9A1.572,1.572,0,0,0,8.3,213.332Zm0,0" transform="translate(0 -204.361)" fill="none" stroke="#fb8c00" stroke-width="1"/>
    <path id="패스_87" data-name="패스 87" d="M285.63,341.332H278.9a1.572,1.572,0,0,0-1.57,1.57v4.037a1.572,1.572,0,0,0,1.57,1.57h6.728a1.572,1.572,0,0,0,1.57-1.57V342.9A1.572,1.572,0,0,0,285.63,341.332Zm0,0" transform="translate(-265.67 -326.978)" fill="none" stroke="#fb8c00" stroke-width="1"/>
    <path id="패스_88" data-name="패스 88" d="M285.63,0H278.9a1.572,1.572,0,0,0-1.57,1.57v9.42a1.572,1.572,0,0,0,1.57,1.57h6.728a1.572,1.572,0,0,0,1.57-1.57V1.57A1.572,1.572,0,0,0,285.63,0Zm0,0" transform="translate(-265.67)" fill="none" stroke="#fb8c00" stroke-width="1"/>
  </g>
</svg>
