<svg xmlns="http://www.w3.org/2000/svg" width="13.776" height="15.82" viewBox="0 0 13.776 15.82">
  <path id="asmo_logout" d="M43.286,15.078a.742.742,0,0,1-.742.742H35.554a2.475,2.475,0,0,1-2.472-2.472V2.472A2.475,2.475,0,0,1,35.554,0h6.991a.742.742,0,1,1,0,1.483H35.554a.99.99,0,0,0-.989.989V13.348a.99.99,0,0,0,.989.989h6.991A.742.742,0,0,1,43.286,15.078ZM46.64,7.386,43.116,3.862A.742.742,0,1,0,42.068,4.91l2.258,2.258H38.488a.742.742,0,0,0,0,1.483h5.838L42.068,10.91a.742.742,0,1,0,1.049,1.049L46.64,8.434a.742.742,0,0,0,0-1.049Z" transform="translate(-33.082)" fill="#b4b4b4"/>
</svg>
