<svg xmlns="http://www.w3.org/2000/svg" xmlns:xlink="http://www.w3.org/1999/xlink" width="23" height="23" viewBox="0 0 23 23">
  <defs>
    <clipPath id="clip-path">
      <rect id="사각형_4400" data-name="사각형 4400" width="23" height="23" fill="#fff" stroke="#707070" stroke-width="1"/>
    </clipPath>
  </defs>
  <g id="asmo_event_icon" clip-path="url(#clip-path)">
    <g id="이달의이벤트" transform="translate(0.293)">
      <g id="그룹_1143" data-name="그룹 1143">
        <path id="패스_1755" data-name="패스 1755" d="M11.726,20.323H2.439A1.623,1.623,0,0,1,.814,18.7V17.075H13.293Z" transform="translate(-0.814)" fill="#d3dcfb"/>
        <path id="패스_1756" data-name="패스 1756" d="M21.947,7.316V18.694H2.439A1.623,1.623,0,0,1,.814,17.07V7.316L12.193,3.253Z" transform="translate(-0.814)" fill="#ebf5fc"/>
        <path id="패스_1757" data-name="패스 1757" d="M20.819,6.844v11.85h1.129V7.316Z" transform="translate(-0.814)" fill="#d3dcfb"/>
        <path id="패스_1758" data-name="패스 1758" d="M21.947,7.316V3.253a1.623,1.623,0,0,0-1.624-1.624H2.439A1.623,1.623,0,0,0,.814,3.253V7.316Z" transform="translate(-0.814)" fill="#ff4155"/>
        <g id="그룹_1142" data-name="그룹 1142" transform="translate(3.696 2.886)">
          <g id="그룹_1141" data-name="그룹 1141">
            <g id="그룹_1137" data-name="그룹 1137">
              <path id="패스_1759" data-name="패스 1759" d="M5.935,3.62H4.877a.367.367,0,0,1,0-.733H5.935a.367.367,0,0,1,0,.733Z" transform="translate(-4.51 -2.886)" fill="#e80054"/>
            </g>
            <g id="그룹_1138" data-name="그룹 1138" transform="translate(2.601)">
              <path id="패스_1760" data-name="패스 1760" d="M8.535,3.62H7.478a.367.367,0,0,1,0-.733H8.535a.367.367,0,1,1,0,.733Z" transform="translate(-7.111 -2.886)" fill="#e80054"/>
            </g>
            <g id="그룹_1139" data-name="그룹 1139" transform="translate(9.35)">
              <path id="패스_1761" data-name="패스 1761" d="M15.284,3.62H14.227a.367.367,0,1,1,0-.733h1.057a.367.367,0,1,1,0,.733Z" transform="translate(-13.86 -2.886)" fill="#e80054"/>
            </g>
            <g id="그룹_1140" data-name="그룹 1140" transform="translate(11.95)">
              <path id="패스_1762" data-name="패스 1762" d="M17.885,3.62H16.827a.367.367,0,1,1,0-.733h1.057a.367.367,0,1,1,0,.733Z" transform="translate(-16.461 -2.886)" fill="#e80054"/>
            </g>
          </g>
        </g>
        <path id="패스_1763" data-name="패스 1763" d="M7.721,3.048a1.014,1.014,0,0,1-2.029,0V1.014a1.014,1.014,0,0,1,2.029,0V3.048Z" transform="translate(-0.814)" fill="#ebf5fc"/>
        <path id="패스_1764" data-name="패스 1764" d="M17.07,3.048a1.014,1.014,0,1,1-2.029,0V1.014a1.014,1.014,0,1,1,2.029,0V3.048Z" transform="translate(-0.814)" fill="#ebf5fc"/>
        <path id="패스_1765" data-name="패스 1765" d="M16.056,0a.992.992,0,0,0-.562.171,1.012,1.012,0,0,1,.452.843V3.048a1.012,1.012,0,0,1-.452.843,1,1,0,0,0,.562.171A1.015,1.015,0,0,0,17.07,3.048V1.014A1.015,1.015,0,0,0,16.056,0Z" transform="translate(-0.814)" fill="#d3dcfb"/>
        <path id="패스_1766" data-name="패스 1766" d="M6.706,0a.992.992,0,0,0-.562.171,1.012,1.012,0,0,1,.452.843V3.048a1.012,1.012,0,0,1-.452.843,1,1,0,0,0,.562.171A1.015,1.015,0,0,0,7.721,3.048V1.014A1.015,1.015,0,0,0,6.706,0Z" transform="translate(-0.814)" fill="#d3dcfb"/>
        <path id="패스_1767" data-name="패스 1767" d="M20.323,1.624H19.194a1.623,1.623,0,0,1,1.624,1.624V7.311h1.129V3.253a1.627,1.627,0,0,0-1.624-1.629Z" transform="translate(-0.814)" fill="#e80054"/>
        <path id="패스_1768" data-name="패스 1768" d="M.814,5.32H21.952v.738H.814Z" transform="translate(-0.814)" fill="#e80054"/>
      </g>
      <g id="그룹_1145" data-name="그룹 1145" transform="translate(5.463 6.054)">
        <g id="그룹_1144" data-name="그룹 1144" transform="translate(8.74)">
          <path id="패스_1769" data-name="패스 1769" d="M17.061,11.255l2.305-2.305.962.962-2.305,2.305Z" transform="translate(-15.017 -6.054)" fill="#7a83ea"/>
          <path id="패스_1770" data-name="패스 1770" d="M15.979,10.169l-.962-.962.4-.4a1.271,1.271,0,0,0,0-1.8l.962-.962a2.63,2.63,0,0,1,0,3.715Z" transform="translate(-15.017 -6.054)" fill="#7a83ea"/>
          <path id="패스_1771" data-name="패스 1771" d="M20.08,14.27l-.962-.962.4-.4a2.63,2.63,0,0,1,3.715,0l-.962.962a1.271,1.271,0,0,0-1.8,0Z" transform="translate(-15.017 -6.054)" fill="#7a83ea"/>
        </g>
        <path id="패스_1772" data-name="패스 1772" d="M13.041,13.741,12.75,17.28l.291,3.043,2.5-.986-.529-2.458Z" transform="translate(-6.277 -6.054)" fill="#ffb54c"/>
        <path id="패스_1773" data-name="패스 1773" d="M12.279,7.849l-.876,2.21.252,1.958,1.386,1.719.4-2.067-.4-3.058Z" transform="translate(-6.277 -6.054)" fill="#ffb54c"/>
        <path id="패스_1774" data-name="패스 1774" d="M21.428,17,13.041,8.616v5.125l2.5,5.592Z" transform="translate(-6.277 -6.054)" fill="#ff5b5b"/>
        <path id="패스_1775" data-name="패스 1775" d="M11.4,10.064l-1.819,4.6.862,3.834,1.805,2.143.8-.314V13.741Z" transform="translate(-6.277 -6.054)" fill="#ffdd46"/>
        <path id="패스_1776" data-name="패스 1776" d="M6.277,23l5.968-2.362L9.578,14.66Z" transform="translate(-6.277 -6.054)" fill="#ffb54c"/>
      </g>
    </g>
  </g>
</svg>
