<svg xmlns="http://www.w3.org/2000/svg" width="21.865" height="21.96" viewBox="0 0 21.865 21.96">
  <path id="asmo_side_shop_icon" d="M34.039,15.714H32.513a1.725,1.725,0,0,0,.085-1.445l-.709-1.8a1.31,1.31,0,0,0-.063-.139,1.734,1.734,0,0,0-2.321-.768l-4.184,2.114a1.259,1.259,0,0,0-.714-.224H22.466a1.262,1.262,0,0,0-.718.224l-4.193-2.114c-.045-.022-.094-.045-.139-.063a1.7,1.7,0,0,0-1.32.022,1.73,1.73,0,0,0-.92.947l-.709,1.8c-.018.045-.036.094-.049.139a1.724,1.724,0,0,0,.13,1.306H13.022a.421.421,0,0,0-.422.422V20.71a.421.421,0,0,0,.422.422H14.1V32.92a.421.421,0,0,0,.422.422H32.544a.421.421,0,0,0,.422-.422V21.137h1.077a.421.421,0,0,0,.422-.422V16.136A.428.428,0,0,0,34.039,15.714Zm-19.1,5.423h1.6a20.354,20.354,0,0,0-1.4,5.126.4.4,0,0,0,.081.3.428.428,0,0,0,.593.09l1.9-1.4L18.947,27.2a.414.414,0,0,0,.359.2h0a.67.67,0,0,0,.094-.009.421.421,0,0,0,.323-.373,17.652,17.652,0,0,1,1.647-5.14V32.494H14.939Zm.637-4.574,2.837.844A26.962,26.962,0,0,0,16.9,20.293H13.439v-3.73Zm6.585-2.137a.428.428,0,0,1,.3-.126H24.6a.421.421,0,0,1,.274.1.41.41,0,0,0,.09.108.429.429,0,0,1,.058.215v2.855a.378.378,0,0,1-.031.157.166.166,0,0,0-.022.049.423.423,0,0,1-.368.22H22.462a.421.421,0,0,1-.422-.422V14.727a.436.436,0,0,1,.072-.238A.767.767,0,0,0,22.161,14.426ZM31.1,12.783l.709,1.8a.336.336,0,0,1,.022.072.886.886,0,0,1-.593,1.1l-3.358,1a.309.309,0,0,0-.036.013l-1.971.588v-.66c.6-.4,2.59-1.665,3.95-1.5a.419.419,0,0,0,.458-.359.427.427,0,0,0-.359-.48c-1.374-.166-3.111.75-4.049,1.329v-.961a1.326,1.326,0,0,0-.049-.355l4.062-2.051a.347.347,0,0,1,.072-.031A.883.883,0,0,1,31.1,12.783ZM30.91,25.365l-1.441-1.059c-.009,0-.018-.013-.027-.018a.423.423,0,0,0-.584.135l-.884,1.409a20.627,20.627,0,0,0-3.07-7.016,1.28,1.28,0,0,0,.741-.512l2.15-.642A24.419,24.419,0,0,1,30.91,25.365Zm-6.078-5.077H22.224q.417-.707.929-1.441H23.9C24.24,19.337,24.549,19.817,24.832,20.288Zm-5.58-2.63,2.164.646a1.273,1.273,0,0,0,.732.507,20.784,20.784,0,0,0-3.075,7.021l-.884-1.409c0-.009-.013-.018-.018-.027a.423.423,0,0,0-.593-.09l-1.441,1.059A24.68,24.68,0,0,1,19.252,17.658Zm1.939-2.936v.965a8.874,8.874,0,0,0-3.353-1.338.057.057,0,0,1-.027,0,.4.4,0,0,0-.305.1.425.425,0,0,0-.144.292.419.419,0,0,0,.391.449,9.082,9.082,0,0,1,3.443,1.5v.651l-5.387-1.6c-.022-.009-.049-.013-.072-.022a.881.881,0,0,1-.5-1.14l.714-1.8c.009-.022.022-.049.031-.072a.884.884,0,0,1,1.185-.391l4.071,2.056A1.182,1.182,0,0,0,21.192,14.722Zm1.023,6.415h2.626V32.5H22.215V21.137Zm3.47.745a17.158,17.158,0,0,1,1.647,5.144.42.42,0,0,0,.323.368.336.336,0,0,0,.094.009h0a.425.425,0,0,0,.359-.2l1.225-1.953,1.9,1.4a.444.444,0,0,0,.3.081.426.426,0,0,0,.283-.162.432.432,0,0,0,.085-.31,20.544,20.544,0,0,0-1.4-5.126h1.6V32.5H25.685Zm2.954-4.475,2.832-.844h2.141v3.73H30.151A26.151,26.151,0,0,0,28.639,17.407Z" transform="translate(-12.6 -11.382)" fill="#b4b4b4"/>
</svg>
