<svg id="asmo_faq" xmlns="http://www.w3.org/2000/svg" width="22.285" height="21.142" viewBox="0 0 22.285 21.142">
  <g id="그룹_29" data-name="그룹 29">
    <path id="패스_94" data-name="패스 94" d="M5.253,17.641l-.208.034.182-1.053a2,2,0,0,0-.265-1.379,7.07,7.07,0,0,1-1-3.636,7.144,7.144,0,0,1,10.2-6.455A.857.857,0,0,0,14.9,3.6,8.854,8.854,0,0,0,3.5,16.13l0,.007a.282.282,0,0,1,.039.2l-.386,2.239a.856.856,0,0,0,.984.991l1.4-.231a.857.857,0,0,0-.279-1.691Z" transform="translate(-2.25 -2.75)" fill="#fff" fill-rule="evenodd"/>
    <path id="패스_95" data-name="패스 95" d="M15.107,5.75a8.857,8.857,0,1,0,4.5,16.484l.007,0a.283.283,0,0,1,.192-.037h0c.755.121,2.265.37,2.265.37a.856.856,0,0,0,.984-.991l-.386-2.239a.282.282,0,0,1,.039-.2l0-.007A8.852,8.852,0,0,0,15.107,5.75Zm0,1.714a7.147,7.147,0,0,1,7.143,7.143,7.066,7.066,0,0,1-1,3.642,2,2,0,0,0-.261,1.374l.182,1.054L20.084,20.5a2,2,0,0,0-1.355.263,7.143,7.143,0,1,1-3.622-13.3Z" transform="translate(-1.679 -2.322)" fill="#fff" fill-rule="evenodd"/>
    <path id="패스_96" data-name="패스 96" d="M14.224,16.378h.045l.037,0a.876.876,0,0,0,.821-.849c0-.01,0-.047,0-.1a2.905,2.905,0,1,0-3.524-3.937.857.857,0,0,0,1.57.687,1.191,1.191,0,1,1,1.4,1.626,1.425,1.425,0,0,0-1.136,1.327,3.369,3.369,0,0,0-.029.377v.013A.857.857,0,0,0,14.224,16.378Z" transform="translate(-0.924 -1.75)" fill="#fff" fill-rule="evenodd"/>
  </g>
  <path id="패스_97" data-name="패스 97" d="M14.034,17.714a.857.857,0,1,0-.857-.857A.857.857,0,0,0,14.034,17.714Z" transform="translate(-0.689 -0.858)" fill="#fff"/>
</svg>
