<svg id="asmo_side_myland_icon" xmlns="http://www.w3.org/2000/svg" width="21.505" height="21.614" viewBox="0 0 21.505 21.614">
  <g id="layer2_18_" transform="translate(0 0)">
    <path id="Icon-3_1_" d="M-180.187,18.169a17.38,17.38,0,0,1,7.495-1.089,14.663,14.663,0,0,1,3.395,1.064,17.259,17.259,0,0,0,3.572,1.246,12.067,12.067,0,0,0,7.03-1l-.03-.068a4.616,4.616,0,0,0-1.74-3.4,10.216,10.216,0,0,0,.781-4.083,9.933,9.933,0,0,0-.912-4.362A3.037,3.037,0,0,0-163.1,4.488a3.029,3.029,0,0,0-2.508,1.989,9.947,9.947,0,0,0-.908,4.362,11.3,11.3,0,0,0,.279,2.521,7.771,7.771,0,0,0-.9.177,10.144,10.144,0,0,0-4.9-1.241l-1.2-5.358h3.3a.486.486,0,0,0,.486-.486A2.932,2.932,0,0,0-170.8,4l1.41-1.887a.489.489,0,0,0-.021-.608A2.629,2.629,0,0,0-171.5.46a3.111,3.111,0,0,0-1.909.874,6.212,6.212,0,0,0-1.41,1.9,6.127,6.127,0,0,0-1.334-1.9A2.95,2.95,0,0,0-178.009.46h0A2.622,2.622,0,0,0-180.078,1.5a.488.488,0,0,0,0,.642l1.507,1.689a2.94,2.94,0,0,0-1.63,2.622.486.486,0,0,0,.486.486h3.319L-177.7,13.93a.593.593,0,0,1-.068.042,5.258,5.258,0,0,0-2.419,4.2m2.137-16.733a2.029,2.029,0,0,1,1.229.616,5.619,5.619,0,0,1,1.275,2.031,2.9,2.9,0,0,0-1.723-.566,2.566,2.566,0,0,0-.258.013l-1.431-1.6C-178.642,1.689-178.325,1.427-178.051,1.435Zm6.591,0a1.741,1.741,0,0,1,.971.519L-171.713,3.6a2.922,2.922,0,0,0-.671-.08,2.906,2.906,0,0,0-1.7.553,5.606,5.606,0,0,1,1.334-2.01A2.167,2.167,0,0,1-171.46,1.435Zm-5.806,3.057a1.86,1.86,0,0,1,1.752,1.465h-3.5A1.861,1.861,0,0,1-177.265,4.492Zm4.881,0a1.86,1.86,0,0,1,1.752,1.465h-3.5A1.856,1.856,0,0,1-172.384,4.492Zm9.281.98c.545,0,1.153.473,1.638,1.444a6.406,6.406,0,0,1,.38.967l-1.8-.891a.548.548,0,0,0-.232-.051.424.424,0,0,0-.2.051l-1.8.891a6.408,6.408,0,0,1,.38-.967c.486-.971,1.089-1.444,1.634-1.444Zm-12.3,1.465h1.161l1.208,5.4a10.014,10.014,0,0,0-3.555.942Zm12.3,1.039L-160.8,9.12a11.427,11.427,0,0,1,.131,1.41l-2.217-1.1a.445.445,0,0,0-.232-.051.479.479,0,0,0-.2.051l-2.217,1.1a10.665,10.665,0,0,1,.131-1.41Zm0,2.436,2.415,1.2a9.043,9.043,0,0,1-.591,2.723,7.323,7.323,0,0,0-3.817-1.051c-.055,0-.106,0-.16,0a9.665,9.665,0,0,1-.258-1.681Zm-9.036,2.837c2.863,0,5.308,1.195,6.418,2.8.232.338.6.916.916,1.5a8.886,8.886,0,0,1,.477,1.018,9.359,9.359,0,0,1-1.216-.139,18.654,18.654,0,0,1-3.441-1.212,14.715,14.715,0,0,0-3.572-1.1,13.767,13.767,0,0,0-6.435.823,4.852,4.852,0,0,1,1.778-2.187A8.76,8.76,0,0,1-172.139,13.25Zm7.039.988c2.745,0,4.928,1.685,5.346,3.517a12.217,12.217,0,0,1-3.564.8,7.964,7.964,0,0,0-.654-1.465c-.338-.621-.718-1.216-.971-1.583a6.049,6.049,0,0,0-1.119-1.212,8.073,8.073,0,0,1,.963-.059ZM-174.31,18.7A12.755,12.755,0,0,0-176,18.8a17.955,17.955,0,0,0-4.2,1.127l.355.908a13.3,13.3,0,0,1,6.84-1.072,14.915,14.915,0,0,1,3.395,1.077,16.115,16.115,0,0,0,3.749,1.123,13.37,13.37,0,0,0,7.165-1.132l-.38-.9A12.3,12.3,0,0,1-165.721,21a15.953,15.953,0,0,1-3.576-1.077,15,15,0,0,0-3.568-1.119A10.727,10.727,0,0,0-174.31,18.7Z" transform="translate(180.2 -0.458)" fill="#b4b4b4"/>
  </g>
</svg>
