<svg xmlns="http://www.w3.org/2000/svg" xmlns:xlink="http://www.w3.org/1999/xlink" width="21" height="20" viewBox="0 0 21 20">
  <defs>
    <clipPath id="clip-path">
      <rect id="사각형_4402" data-name="사각형 4402" width="21" height="20" transform="translate(-0.362 0.433)" fill="#fff" stroke="#707070" stroke-width="1"/>
    </clipPath>
  </defs>
  <g id="asmo_class_status_icon" transform="translate(0.362 -0.433)" clip-path="url(#clip-path)">
    <g id="education_3976631" transform="translate(0 0.105)">
      <path id="패스_1777" data-name="패스 1777" d="M17.915,11.178a4.206,4.206,0,0,0-.025,3.115l.343.672H3.422s-2.757-1.549,0-4.307l14.683-.3Z" transform="translate(-0.225 -1.165)" fill="#f1f2f2"/>
      <path id="패스_1778" data-name="패스 1778" d="M18.233,14.966H3.422s-2.757-1.549,0-4.307l14.683-.3-.19.822a4.033,4.033,0,0,0-.209.668H4.266a.944.944,0,1,0,0,1.888H17.71a3.625,3.625,0,0,0,.179.559Z" transform="translate(-0.225 -1.165)" fill="#dee1e1"/>
      <path id="패스_1779" data-name="패스 1779" d="M17.922,15.537,4.384,15.516a2.779,2.779,0,0,1-3.015-2.657,3.7,3.7,0,0,1,.055-1.145A2.938,2.938,0,0,1,4.179,9.8H18.068a.662.662,0,1,1,0,1.325H7.557l-1.027.241-.893-.241H4.179a1.612,1.612,0,0,0,0,3.224H18.068a.663.663,0,0,1,.658.74c-.039.329-.465.452-.8.452Z" transform="translate(-0.138 -1.108)" fill="#b7e546"/>
      <path id="패스_1780" data-name="패스 1780" d="M18.713,15.285a.662.662,0,0,1-.658.585l-6.862.411-7.027-.411A2.938,2.938,0,0,1,1.48,11.744v.6a2.937,2.937,0,0,0,2.937,2.937Z" transform="translate(-0.126 -1.307)" fill="#abd641"/>
      <path id="패스_1781" data-name="패스 1781" d="M8.052,13.2V11.272H6.675l-.489.049.029,1.8a.083.083,0,0,0,.114.078l.345-.084.386-.151a.083.083,0,0,1,.061,0l.815.319A.084.084,0,0,0,8.052,13.2Z" transform="translate(-0.633 -1.259)" fill="#ef5227"/>
      <path id="패스_1782" data-name="패스 1782" d="M6.669,11.272v1.841l-.429.168a.084.084,0,0,1-.114-.078V11.272Z" transform="translate(-0.627 -1.259)" fill="#d83724"/>
      <path id="패스_1783" data-name="패스 1783" d="M16.236,7.886v.942l-.042.418a.292.292,0,0,1-.292.292L4.775,9.5A.292.292,0,0,1,4.482,9.2L4.4,7.886l5.712-.273Z" transform="translate(-0.45 -0.884)" fill="#fdcd08"/>
      <path id="패스_1784" data-name="패스 1784" d="M21.37,7.549a.313.313,0,0,1-.313-.313V3.988a.313.313,0,1,1,.626,0V7.236a.313.313,0,0,1-.313.313Z" transform="translate(-2.155 -0.481)" fill="#77777f"/>
      <path id="패스_1785" data-name="패스 1785" d="M20.688,8.793c-.261.644-.524,1.28-.786,1.924a.585.585,0,0,0,.537.807l.483.042H22.1a.585.585,0,0,0,.537-.807l-.545-1.344-.343-.622H20.688Z" transform="translate(-2.033 -1.005)" fill="#fdcd08"/>
      <path id="패스_1786" data-name="패스 1786" d="M21.1,9.641a1.587,1.587,0,0,0,.981-.237l-.293-.733-.484.145h0l-.631-.084c-.08.2-.2.476-.275.673h0l-.545,1.343a.585.585,0,0,0,.537.807h.668a.585.585,0,0,1-.537-.807l.407-1A.169.169,0,0,1,21.1,9.641Z" transform="translate(-2.028 -0.993)" fill="#faab18"/>
      <path id="패스_1787" data-name="패스 1787" d="M22.267,7.87a.973.973,0,0,0-.651-.92c-.1-.034-.241.027-.35.027a.82.82,0,0,0-.86.894.849.849,0,0,0,.931.86c.11,0,.182.095.28.061a.973.973,0,0,0,.651-.92Z" transform="translate(-2.089 -0.815)" fill="#fdcd08"/>
      <path id="패스_1788" data-name="패스 1788" d="M21.609,8.785a.95.95,0,0,1-.313.053.973.973,0,0,1,0-1.946.95.95,0,0,1,.313.053.976.976,0,0,0,0,1.841Z" transform="translate(-2.081 -0.811)" fill="#faab18"/>
      <path id="패스_1789" data-name="패스 1789" d="M19.315,3.959l-2.754.953-.752-.077L10.464,7.023a1.752,1.752,0,0,1-1.146,0L3.972,4.92l-.752-.008L.466,3.959a.35.35,0,0,1,0-.662L9.422.2a1.433,1.433,0,0,1,.937,0l8.956,3.1A.35.35,0,0,1,19.315,3.959Z" transform="translate(-0.024 -0.117)" fill="#868491"/>
      <path id="패스_1790" data-name="패스 1790" d="M16.9,4.949v.283L10.8,7.342a1.752,1.752,0,0,1-1.147,0l-6.1-2.111V4.949a1.228,1.228,0,0,1,1.012-1.21,32.068,32.068,0,0,1,11.316,0A1.229,1.229,0,0,1,16.9,4.949Z" transform="translate(-0.365 -0.436)" fill="#77777f"/>
      <path id="패스_1791" data-name="패스 1791" d="M16.246,5.034v2.49H4.534L4.492,5.118a.478.478,0,0,1,.393-.47C5,4.626,5.04,4.522,5.16,4.5a31.307,31.307,0,0,1,10.693.062.478.478,0,0,1,.393.47Z" transform="translate(-0.46 -0.522)" fill="#868491"/>
      <path id="패스_1792" data-name="패스 1792" d="M16.236,8.828v.459a.292.292,0,0,1-.292.292H4.691A.292.292,0,0,1,4.4,9.287v-1.4l.376-.273.376.273v.733a.209.209,0,0,0,.209.209Z" transform="translate(-0.45 -0.884)" fill="#faab18"/>
      <path id="패스_1793" data-name="패스 1793" d="M5.15,4.551V7.573H4.4V5.083a.478.478,0,0,1,.393-.47Z" transform="translate(-0.45 -0.571)" fill="#77777f"/>
      <path id="패스_1794" data-name="패스 1794" d="M18.91,20.868a3.929,3.929,0,0,1,0-3.007l.127-.564H1.964a2.937,2.937,0,0,0,.125,4.136l17.06.128Z" transform="translate(-0.117 -1.876)" fill="#f1f2f2"/>
      <path id="패스_1795" data-name="패스 1795" d="M19.149,21.561l-17.06-.128A2.937,2.937,0,0,1,1.964,17.3l17.155.032-.209.532a3.912,3.912,0,0,0-.187.57H3.054a.944.944,0,1,0,0,1.888H18.729a3.961,3.961,0,0,0,.182.55Z" transform="translate(-0.117 -1.876)" fill="#dee1e1"/>
      <path id="패스_1796" data-name="패스 1796" d="M18.769,22.067,3.333,22.038c-1.622,0-3.049-.915-3.049-2.537a3.838,3.838,0,0,1,.107-1.644A2.936,2.936,0,0,1,2.962,16.34h16.1a.662.662,0,0,1,0,1.325H15.071l-1.042.231-.877-.231H2.962a1.612,1.612,0,1,0,0,3.224h16.1a.663.663,0,0,1,.652.782C19.655,21.979,19.094,22.067,18.769,22.067Z" transform="translate(-0.026 -1.778)" fill="#ef5227"/>
      <path id="패스_1797" data-name="패스 1797" d="M19.686,21.825a.663.663,0,0,1-.652.543H2.937A2.937,2.937,0,0,1,.459,17.854v1.035A2.937,2.937,0,0,0,3.4,21.825Z" transform="translate(0 -1.933)" fill="#d83724"/>
      <path id="패스_1798" data-name="패스 1798" d="M16.548,19.762V17.815H15.255l-.574.035.031,1.828a.083.083,0,0,0,.114.078l.429-.117.3-.119a.083.083,0,0,1,.061,0l.815.319A.084.084,0,0,0,16.548,19.762Z" transform="translate(-1.503 -1.929)" fill="#fdcd08"/>
      <path id="패스_1799" data-name="패스 1799" d="M15.249,17.815v1.824l-.512.2a.084.084,0,0,1-.114-.078V17.815Z" transform="translate(-1.497 -1.929)" fill="#faab18"/>
    </g>
  </g>
</svg>
