<svg id="quest" xmlns="http://www.w3.org/2000/svg" width="24" height="24" viewBox="0 0 24 24">
  <rect id="사각형_4160" data-name="사각형 4160" width="24" height="24" fill="none"/>
  <path id="패스_1488" data-name="패스 1488" d="M21.934,16.62H18.789V15.109c0-.041,0-.081,0-.119q0-3.534,0-7.067a2.812,2.812,0,0,0-.058-.6,2.3,2.3,0,0,0-2.348-1.831q-2.751-.006-5.5,0c-1.812,0-3.624.006-5.436,0a2.274,2.274,0,0,0-1.976.986A2.24,2.24,0,0,0,3.262,8.9a2.134,2.134,0,0,0,2.024,1.223c.406,0,.811,0,1.217,0,.069,0,.138.006.221.011v.306q0,4.164,0,8.327a3.123,3.123,0,0,0,.056.648,2.293,2.293,0,0,0,2.3,1.838c.979.01,1.957,0,2.936,0,2.167,0,4.335.024,6.5-.013a4.149,4.149,0,0,0,3.982-4.03c.007-.418-.152-.588-.566-.588M6.718,9.182c-.566,0-1.118.037-1.661-.01a1.238,1.238,0,0,1-1.1-1.116,1.461,1.461,0,0,1,.82-1.515A1.368,1.368,0,0,1,6.714,7.685c.025.49,0,.982,0,1.5m2.61,11.134a1.423,1.423,0,0,1-1.672-1.5q.008-5.435,0-10.871a2.491,2.491,0,0,0-.4-1.441.489.489,0,0,1-.033-.085c.059,0,.1-.006.143-.006q4.535,0,9.068,0a1.5,1.5,0,0,1,.26.019,1.384,1.384,0,0,1,1.164,1.455q0,3.534,0,7.066V16.62H12.866c-.406,0-.56.152-.578.563a3.244,3.244,0,0,1-2.96,3.133m10.9-.613a3.1,3.1,0,0,1-1.865.621c-2.173.005-4.346,0-6.52,0-.034,0-.069,0-.161-.008A4.267,4.267,0,0,0,13.2,17.555h8.338A3.2,3.2,0,0,1,20.23,19.7" transform="translate(-0.75 -1.371)" fill="#fb8c00"/>
</svg>
