<svg id="asmo_side_class_icon_on" xmlns="http://www.w3.org/2000/svg" width="25.265" height="21.112" viewBox="0 0 25.265 21.112">
  <path id="패스_67" data-name="패스 67" d="M72.516,10.4a.429.429,0,0,0-.154-.251v-.019l-5.6-4.094a.531.531,0,0,0-.444-.1l-6.682,1.7a.54.54,0,0,0-.386.637.593.593,0,0,0,.193.29l1.7,1.236-.367,1.854c-.232,1.159,1.506,2.935,3.978,3.418a7.061,7.061,0,0,0,1.255.116h.039a5.8,5.8,0,0,0,1.893-.309c.985-.328,1.641-.888,1.757-1.487l.367-1.835,2.028-.521A.522.522,0,0,0,72.516,10.4ZM70.8,10.283l-5.349,1.352L60.988,8.371,66.337,7.02Zm-8.96,1.564.27-1.371,2.916,2.144a.584.584,0,0,0,.309.1.286.286,0,0,0,.135-.019l3.515-.888-.27,1.371c-.039.154-.386.483-1.062.7a5.5,5.5,0,0,1-2.684.154,4.858,4.858,0,0,1-2.974-1.738A.69.69,0,0,1,61.837,11.847Z" transform="translate(-47.27 -5.923)" fill="#fb8c00"/>
  <path id="패스_68" data-name="패스 68" d="M47.57,52.586a.608.608,0,0,0-.27.444v6.817a.511.511,0,0,0,.251.444.443.443,0,0,0,.27.077h0a.459.459,0,0,0,.232-.058l6.508-3.418a.506.506,0,0,0,.251-.309.593.593,0,0,0-.039-.406.558.558,0,0,0-.212-.212l-6.469-3.4A.555.555,0,0,0,47.57,52.586Zm5.658,3.862-4.847,2.53V53.9Z" transform="translate(-37.864 -43.86)" fill="#fb8c00"/>
  <path id="패스_69" data-name="패스 69" d="M24,48.577H22.182c0-.058.02-.116.02-.193V39.4H21.134v8.98a.21.21,0,0,1-.2.193H3.618a.216.216,0,0,1-.138-.058.173.173,0,0,1-.059-.135V36.836a.2.2,0,0,1,.2-.193h8.8V35.6h-8.8a1.26,1.26,0,0,0-1.265,1.236V48.4a.708.708,0,0,0,.02.193H.534A.526.526,0,0,0,0,49.118v.1a1.936,1.936,0,0,0,1.76,1.95H22.775a1.95,1.95,0,0,0,1.76-1.95v-.1A.53.53,0,0,0,24,48.577Zm-.633,1.043a.792.792,0,0,1-.593.483H1.76a.753.753,0,0,1-.593-.483Z" transform="translate(0 -30.053)" fill="#fb8c00"/>
</svg>
