<svg xmlns="http://www.w3.org/2000/svg" xmlns:xlink="http://www.w3.org/1999/xlink" width="22" height="22" viewBox="0 0 22 22">
  <defs>
    <clipPath id="clip-path">
      <rect id="사각형_4399" data-name="사각형 4399" width="22" height="22" transform="translate(0 0)" fill="#fff"/>
    </clipPath>
  </defs>
  <g id="asmo_cake" transform="translate(0 0)" clip-path="url(#clip-path)">
    <g id="Page-1" transform="translate(0.678 0)">
      <g id="_007---Birthday-Cake" data-name="007---Birthday-Cake">
        <path id="Shape" d="M10.441,2.61h.746a.746.746,0,0,1,.746.746v2.61H9.695V3.356A.746.746,0,0,1,10.441,2.61Z" transform="translate(0)" fill="#ff5364"/>
        <path id="Shape-2" data-name="Shape" d="M6.339,7.085h8.949A1.492,1.492,0,0,1,16.78,8.576V13.8H4.847V8.576A1.492,1.492,0,0,1,6.339,7.085Z" transform="translate(0)" fill="#f3d55b"/>
        <path id="Shape-3" data-name="Shape" d="M3.729,13.051H17.9a1.492,1.492,0,0,1,1.492,1.492v5.593H2.237V14.542A1.492,1.492,0,0,1,3.729,13.051Z" transform="translate(0)" fill="#f3d55b"/>
        <path id="Shape-4" data-name="Shape" d="M8.2,5.593h5.22a.746.746,0,0,1,.746.746V7.458H7.458V6.339A.746.746,0,0,1,8.2,5.593Z" transform="translate(0)" fill="#f9eab0"/>
        <path id="Shape-5" data-name="Shape" d="M11.559,1.864a.746.746,0,0,1-1.492,0A4.952,4.952,0,0,1,10.814.373,4.952,4.952,0,0,1,11.559,1.864Z" transform="translate(0)" fill="#f0c419"/>
        <path id="Shape-6" data-name="Shape" d="M6.339,1.119A.373.373,0,0,1,5.966.746V.373a.373.373,0,0,1,.746,0V.746A.373.373,0,0,1,6.339,1.119Z" transform="translate(0)" fill="#2fa8cc"/>
        <path id="Shape-7" data-name="Shape" d="M7.458,1.864H7.085a.373.373,0,0,1,0-.746h.373a.373.373,0,0,1,0,.746Z" transform="translate(0)" fill="#2fa8cc"/>
        <path id="Shape-8" data-name="Shape" d="M6.339,2.983a.373.373,0,0,1-.373-.373V2.237a.373.373,0,0,1,.746,0V2.61A.373.373,0,0,1,6.339,2.983Z" transform="translate(0)" fill="#2fa8cc"/>
        <path id="Shape-9" data-name="Shape" d="M5.593,1.864H5.22a.373.373,0,0,1,0-.746h.373a.373.373,0,0,1,0,.746Z" transform="translate(0)" fill="#2fa8cc"/>
        <path id="Shape-10" data-name="Shape" d="M3.356,4.475A.373.373,0,0,1,2.983,4.1V3.729a.373.373,0,1,1,.746,0V4.1A.373.373,0,0,1,3.356,4.475Z" transform="translate(0)" fill="#955ba5"/>
        <path id="Shape-11" data-name="Shape" d="M4.475,5.22H4.1a.373.373,0,0,1,0-.746h.373a.373.373,0,0,1,0,.746Z" transform="translate(0)" fill="#955ba5"/>
        <path id="Shape-12" data-name="Shape" d="M3.356,6.339a.373.373,0,0,1-.373-.373V5.593a.373.373,0,1,1,.746,0v.373A.373.373,0,0,1,3.356,6.339Z" transform="translate(0)" fill="#955ba5"/>
        <path id="Shape-13" data-name="Shape" d="M2.61,5.22H2.237a.373.373,0,0,1,0-.746H2.61a.373.373,0,1,1,0,.746Z" transform="translate(0)" fill="#955ba5"/>
        <path id="Shape-14" data-name="Shape" d="M15.288,1.119a.373.373,0,0,1-.373-.373V.373a.373.373,0,1,1,.746,0V.746A.373.373,0,0,1,15.288,1.119Z" transform="translate(0)" fill="#f0c419"/>
        <path id="Shape-15" data-name="Shape" d="M14.542,1.864h-.373a.373.373,0,1,1,0-.746h.373a.373.373,0,1,1,0,.746Z" transform="translate(0)" fill="#f0c419"/>
        <path id="Shape-16" data-name="Shape" d="M15.288,2.983a.373.373,0,0,1-.373-.373V2.237a.373.373,0,1,1,.746,0V2.61A.373.373,0,0,1,15.288,2.983Z" transform="translate(0)" fill="#f0c419"/>
        <path id="Shape-17" data-name="Shape" d="M16.407,1.864h-.373a.373.373,0,0,1,0-.746h.373a.373.373,0,0,1,0,.746Z" transform="translate(0)" fill="#f0c419"/>
        <g id="그룹_1022" data-name="그룹 1022" transform="translate(2.237 3.356)">
          <path id="Shape-18" data-name="Shape" d="M18.271,4.475A.373.373,0,0,1,17.9,4.1V3.729a.373.373,0,0,1,.746,0V4.1A.373.373,0,0,1,18.271,4.475Z" transform="translate(-2.237 -3.356)" fill="#ff5364"/>
          <path id="Shape-19" data-name="Shape" d="M17.525,5.22h-.373a.373.373,0,0,1,0-.746h.373a.373.373,0,0,1,0,.746Z" transform="translate(-2.237 -3.356)" fill="#ff5364"/>
          <path id="Shape-20" data-name="Shape" d="M18.271,6.339a.373.373,0,0,1-.373-.373V5.593a.373.373,0,0,1,.746,0v.373A.373.373,0,0,1,18.271,6.339Z" transform="translate(-2.237 -3.356)" fill="#ff5364"/>
          <path id="Shape-21" data-name="Shape" d="M19.39,5.22h-.373a.373.373,0,0,1,0-.746h.373a.373.373,0,1,1,0,.746Z" transform="translate(-2.237 -3.356)" fill="#ff5364"/>
          <path id="Shape-22" data-name="Shape" d="M19.39,14.542v.28l-.671.5a.749.749,0,0,1-.895,0l-.6-.447a.749.749,0,0,0-.895,0l-.6.447a.749.749,0,0,1-.895,0l-.6-.447a.749.749,0,0,0-.895,0l-.6.447a.749.749,0,0,1-.895,0l-.6-.447a.749.749,0,0,0-.895,0l-.6.447a.749.749,0,0,1-.895,0l-.6-.447a.749.749,0,0,0-.895,0l-.6.447a.749.749,0,0,1-.895,0l-.6-.447a.749.749,0,0,0-.895,0l-.6.447a.749.749,0,0,1-.895,0l-.671-.5v-.28a1.492,1.492,0,0,1,1.492-1.492H17.9A1.492,1.492,0,0,1,19.39,14.542Z" transform="translate(-2.237 -3.356)" fill="#ff5364"/>
        </g>
        <path id="Shape-23" data-name="Shape" d="M19.39,14.822v2.331H2.237V14.822l.671.5a.749.749,0,0,0,.895,0l.6-.447a.749.749,0,0,1,.895,0l.6.447a.749.749,0,0,0,.895,0l.6-.447a.749.749,0,0,1,.895,0l.6.447a.749.749,0,0,0,.895,0l.6-.447a.749.749,0,0,1,.895,0l.6.447a.749.749,0,0,0,.895,0l.6-.447a.749.749,0,0,1,.895,0l.6.447a.749.749,0,0,0,.895,0l.6-.447a.749.749,0,0,1,.895,0l.6.447a.749.749,0,0,0,.895,0Z" transform="translate(0)" fill="#f9eab0"/>
        <path id="Rectangle-path" d="M2.237,16.78H19.39v.746H2.237Z" transform="translate(0)" fill="#e64c3c"/>
        <path id="Shape-24" data-name="Shape" d="M16.78,8.576l-1.044.783a.749.749,0,0,1-.895,0l-.6-.447a.749.749,0,0,0-.895,0l-.6.447a.749.749,0,0,1-.895,0l-.6-.447a.749.749,0,0,0-.895,0l-.6.447a.749.749,0,0,1-.895,0l-.6-.447a.749.749,0,0,0-.895,0l-.6.447a.749.749,0,0,1-.895,0L4.847,8.576A1.492,1.492,0,0,1,6.339,7.085h8.949A1.492,1.492,0,0,1,16.78,8.576Z" transform="translate(0)" fill="#ff5364"/>
        <path id="Shape-25" data-name="Shape" d="M16.78,8.576v2.237H4.847V8.576l1.044.783a.749.749,0,0,0,.895,0l.6-.447a.749.749,0,0,1,.895,0l.6.447a.749.749,0,0,0,.895,0l.6-.447a.749.749,0,0,1,.895,0l.6.447a.749.749,0,0,0,.895,0l.6-.447a.749.749,0,0,1,.895,0l.6.447a.749.749,0,0,0,.895,0Z" transform="translate(0)" fill="#f9eab0"/>
        <path id="Rectangle-path-2" data-name="Rectangle-path" d="M4.847,10.441H16.78v.746H4.847Z" transform="translate(0)" fill="#e64c3c"/>
        <path id="Shape-26" data-name="Shape" d="M21.254,19.763H.373a.373.373,0,0,0-.333.54l.643,1.285A.746.746,0,0,0,1.349,22H20.278a.746.746,0,0,0,.667-.412l.642-1.285a.373.373,0,0,0-.333-.54Z" transform="translate(0)" fill="#7d6599"/>
      </g>
    </g>
  </g>
</svg>
