<svg xmlns="http://www.w3.org/2000/svg" xmlns:xlink="http://www.w3.org/1999/xlink" width="22" height="22" viewBox="0 0 22 22">
  <defs>
    <clipPath id="clip-path">
      <rect id="사각형_4399" data-name="사각형 4399" width="22" height="22" transform="translate(0 -0.046)" fill="#fff"/>
    </clipPath>
  </defs>
  <g id="asmo_levelup" transform="translate(0 0.046)" clip-path="url(#clip-path)">
    <g id="level-up_8882764">
      <g id="그룹_1160" data-name="그룹 1160">
        <g id="그룹_1159" data-name="그룹 1159">
          <g id="그룹_1158" data-name="그룹 1158">
            <g id="그룹_1157" data-name="그룹 1157">
              <g id="그룹_1156" data-name="그룹 1156">
                <circle id="타원_125" data-name="타원 125" cx="11" cy="11" r="11" transform="translate(0 -0.046)" fill="#00c8c8"/>
              </g>
            </g>
          </g>
        </g>
      </g>
      <path id="패스_1847" data-name="패스 1847" d="M22,11q0-.221-.009-.44L18.247,6.816,3.753,15.184l6.807,6.807Q10.779,22,11,22A11,11,0,0,0,22,11Z" transform="translate(0.491 0.485)" fill="#00abaf"/>
      <g id="그룹_1161" data-name="그룹 1161" transform="translate(4.244 3.116)">
        <path id="패스_1848" data-name="패스 1848" d="M11,2.632,3.753,6.816v8.368L11,19.368l.1-.129.324-8.253-.345-8.239Z" transform="translate(-3.753 -2.632)" fill="#ffce00"/>
      </g>
      <g id="그룹_1162" data-name="그룹 1162" transform="translate(11.491 3.116)">
        <path id="패스_1849" data-name="패스 1849" d="M18.247,15.184V6.816L11,2.632V19.368Z" transform="translate(-11 -2.632)" fill="#fdba12"/>
      </g>
      <g id="그룹_1163" data-name="그룹 1163" transform="translate(6.052 5.205)">
        <path id="패스_1850" data-name="패스 1850" d="M11,4.72,5.561,7.86v6.28L11,17.28l.081-.214.345-6.06L11.1,4.94Z" transform="translate(-5.561 -4.72)" fill="#fdba12"/>
      </g>
      <g id="그룹_1164" data-name="그룹 1164" transform="translate(11.491 5.205)">
        <path id="패스_1851" data-name="패스 1851" d="M16.439,14.14V7.86L11,4.72V17.28Z" transform="translate(-11 -4.72)" fill="#ffa300"/>
      </g>
      <g id="그룹_1166" data-name="그룹 1166" transform="translate(6.56 8.776)">
        <g id="그룹_1165" data-name="그룹 1165">
          <path id="패스_1852" data-name="패스 1852" d="M6.069,10.586v-2.3h.7V9.98h.871v.606Z" transform="translate(-6.069 -8.291)" fill="#636978"/>
          <path id="패스_1853" data-name="패스 1853" d="M7.913,10.586v-2.3H9.654v.578H8.608v.268H9.63v.578H8.608v.292H9.654v.578Z" transform="translate(-6.069 -8.291)" fill="#636978"/>
          <path id="패스_1854" data-name="패스 1854" d="M11,9.836l-.5-1.545H9.716l.846,2.3h.524l.17-.516-.17-.507Z" transform="translate(-6.069 -8.291)" fill="#636978"/>
        </g>
        <path id="패스_1855" data-name="패스 1855" d="M11,10.586v-.75l.5-1.545h.788l-.846,2.3Z" transform="translate(-6.069 -8.291)" fill="#414952"/>
        <path id="패스_1856" data-name="패스 1856" d="M12.407,10.586v-2.3h1.741v.578H13.1v.268h1.022v.578H13.1v.292h1.046v.578Z" transform="translate(-6.069 -8.291)" fill="#414952"/>
        <path id="패스_1857" data-name="패스 1857" d="M14.458,10.586v-2.3h.7V9.98h.871v.606Z" transform="translate(-6.069 -8.291)" fill="#414952"/>
        <path id="패스_1858" data-name="패스 1858" d="M8.758,12.42h.705v1.328a.4.4,0,0,0,.795,0V12.42h.705v1.349c0,.571-.327.988-1.1.988s-1.1-.416-1.1-.984Z" transform="translate(-6.069 -8.291)" fill="#636978"/>
        <path id="패스_1859" data-name="패스 1859" d="M11.336,14.715v-2.3H12.56a.763.763,0,0,1,.826.788.752.752,0,0,1-.826.771h-.53v.736h-.7ZM12.471,13h-.44v.4h.44a.2.2,0,1,0,0-.4Z" transform="translate(-6.069 -8.291)" fill="#414952"/>
      </g>
    </g>
  </g>
</svg>
