<svg xmlns="http://www.w3.org/2000/svg" xmlns:xlink="http://www.w3.org/1999/xlink" width="23" height="23" viewBox="0 0 23 23">
  <defs>
    <clipPath id="clip-path">
      <rect id="사각형_4403" data-name="사각형 4403" width="23" height="23" fill="#fff" stroke="#707070" stroke-width="1"/>
    </clipPath>
  </defs>
  <g id="asmo_survey_icon" clip-path="url(#clip-path)">
    <g id="_1.이달의서베이" data-name="1.이달의서베이" transform="translate(0 0.269)">
      <path id="패스_1807" data-name="패스 1807" d="M16.407,22.762l-14.166.014a2.2,2.2,0,0,1-2.2-2.2V3.41A.659.659,0,0,1,.7,2.751H9.349a4.916,4.916,0,0,0,5.105,7.3V20.579a2.2,2.2,0,0,0,1.953,2.183Z" transform="translate(-0.045 -0.316)" fill="#cbe6fe"/>
      <path id="패스_1808" data-name="패스 1808" d="M22.7,15.357a1.943,1.943,0,0,1-3.274-.162c-.162-.3-.5-.893-.663-1.186l-1.312-2.359c-.122-.212.086-.352.235-.465l-.325-.41.514-.406.28.352c-.149.117-.356.248-.235.465l1.312,2.359.041.068-.505.4.347.613.5-.4.28.5a1.93,1.93,0,0,0,2.805.631Z" transform="translate(-0.045 -0.316)" fill="#2c67b3"/>
      <path id="패스_1809" data-name="패스 1809" d="M22.7,15.357a1.935,1.935,0,0,1-2.81-.631c-.162-.3-.5-.893-.663-1.186L17.914,11.18c-.122-.212.086-.352.235-.465l-.28-.352.717-.568.325.415c.144-.117.325-.289.505-.122l1.993,1.818c.248.23.753.69,1,.916a1.931,1.931,0,0,1,.289,2.535Z" transform="translate(-0.045 -0.316)" fill="#3377c1"/>
      <path id="패스_1810" data-name="패스 1810" d="M19.614,14.225l-.5.4-.347-.613.505-.4C19.285,13.638,19.614,14.216,19.614,14.225Z" transform="translate(-0.045 -0.316)" fill="#e3a800"/>
      <path id="패스_1811" data-name="패스 1811" d="M21.937,12.385l-2.327,1.84s-.329-.586-.343-.618l2.147-1.7Z" transform="translate(-0.045 -0.316)" fill="#febe08"/>
      <path id="패스_1812" data-name="패스 1812" d="M17.436,2.169A4.917,4.917,0,0,0,8.691,4.938a4.929,4.929,0,0,0,7.383,3.978,4.451,4.451,0,0,0,1.362-6.747ZM15.862,8.082a3.655,3.655,0,1,1,.591-5.137A3.668,3.668,0,0,1,15.862,8.082Z" transform="translate(-0.045 -0.316)" fill="#3377c1"/>
      <path id="패스_1813" data-name="패스 1813" d="M17.233,8.506A4.918,4.918,0,0,1,8.691,4.934a4.91,4.91,0,0,0,9.8.018,4.914,4.914,0,0,1-1.263,3.554Z" transform="translate(-0.045 -0.316)" fill="#2c67b3"/>
      <path id="패스_1814" data-name="패스 1814" d="M17.242,5.029a3.656,3.656,0,1,1-7.3-.014A3.657,3.657,0,0,0,17.242,5.029Z" transform="translate(-0.045 -0.316)" fill="#ededed"/>
      <path id="패스_1815" data-name="패스 1815" d="M17.242,5.029A3.666,3.666,0,0,1,10.725,7.1a3.292,3.292,0,0,1,.6-4.745A3.666,3.666,0,0,1,17.242,5.029Z" transform="translate(-0.045 -0.316)" fill="#fefefe"/>
      <path id="패스_1816" data-name="패스 1816" d="M17.9,10.342l-.343.271L16.448,9.2a3.987,3.987,0,0,0,.347-.271Z" transform="translate(-0.045 -0.316)" fill="#aac6eb"/>
      <path id="패스_1817" data-name="패스 1817" d="M18.387,9.958l-.478.379L16.8,8.93a4.917,4.917,0,0,0,.437-.428Z" transform="translate(-0.045 -0.316)" fill="#cbe6fe"/>
      <path id="패스_1818" data-name="패스 1818" d="M18.852,16.353v4.172a2.227,2.227,0,0,1-2.444,2.237,2.194,2.194,0,0,1-1.953-2.183V15.695h3.739A.656.656,0,0,1,18.852,16.353Z" transform="translate(-0.045 -0.316)" fill="#aac6eb"/>
      <path id="패스_1819" data-name="패스 1819" d="M3.464,17.282v2.309a.257.257,0,0,1-.257.257H2.72a.257.257,0,0,0,.257-.257V17.282a.257.257,0,0,0-.257-.257h.487A.251.251,0,0,1,3.464,17.282Z" transform="translate(-0.045 -0.316)" fill="#e3a800"/>
      <path id="패스_1820" data-name="패스 1820" d="M2.977,17.282v2.309a.257.257,0,0,1-.257.257H2.011a.257.257,0,0,1-.257-.257V17.282a.257.257,0,0,1,.257-.257H2.72A.254.254,0,0,1,2.977,17.282Z" transform="translate(-0.045 -0.316)" fill="#febe08"/>
      <path id="패스_1821" data-name="패스 1821" d="M6.639,15.542v4.045a.257.257,0,0,1-.257.257H5.895a.257.257,0,0,0,.257-.257V15.542a.257.257,0,0,0-.257-.257h.487a.257.257,0,0,1,.257.257Z" transform="translate(-0.045 -0.316)" fill="#e3a800"/>
      <path id="패스_1822" data-name="패스 1822" d="M6.152,15.542v4.045a.257.257,0,0,1-.257.257H5.187a.257.257,0,0,1-.257-.257V15.542a.257.257,0,0,1,.257-.257h.708a.26.26,0,0,1,.257.257Z" transform="translate(-0.045 -0.316)" fill="#febe08"/>
      <path id="패스_1823" data-name="패스 1823" d="M9.57,14.238v5.349a.257.257,0,0,1-.257.257H8.826a.257.257,0,0,0,.257-.257V14.238a.257.257,0,0,0-.257-.257h.487A.257.257,0,0,1,9.57,14.238Z" transform="translate(-0.045 -0.316)" fill="#e3a800"/>
      <path id="패스_1824" data-name="패스 1824" d="M9.083,14.238v5.349a.257.257,0,0,1-.257.257H8.118a.257.257,0,0,1-.257-.257V14.238a.257.257,0,0,1,.257-.257h.708A.26.26,0,0,1,9.083,14.238Z" transform="translate(-0.045 -0.316)" fill="#febe08"/>
      <path id="패스_1825" data-name="패스 1825" d="M12.5,12.529v7.058a.257.257,0,0,1-.257.257h-.487a.257.257,0,0,0,.257-.257V12.529a.257.257,0,0,0-.257-.257h.487A.26.26,0,0,1,12.5,12.529Z" transform="translate(-0.045 -0.316)" fill="#e3a800"/>
      <path id="패스_1826" data-name="패스 1826" d="M12.015,12.529v7.058a.257.257,0,0,1-.257.257H11.05a.257.257,0,0,1-.257-.257V12.529a.257.257,0,0,1,.257-.257h.708A.26.26,0,0,1,12.015,12.529Z" transform="translate(-0.045 -0.316)" fill="#febe08"/>
      <path id="패스_1827" data-name="패스 1827" d="M6.152,5.191a.243.243,0,0,1-.244.244H2a.245.245,0,0,1-.23-.325A.244.244,0,0,0,2,5.272h3.91a.244.244,0,0,0,.23-.162.218.218,0,0,1,.014.081Z" transform="translate(-0.045 -0.316)" fill="#2c67b3"/>
      <path id="패스_1828" data-name="패스 1828" d="M6.138,5.11a.244.244,0,0,1-.23.162H2a.244.244,0,0,1-.23-.162A.244.244,0,0,1,2,4.948h3.91A.244.244,0,0,1,6.138,5.11Z" transform="translate(-0.045 -0.316)" fill="#3377c1"/>
      <path id="패스_1829" data-name="패스 1829" d="M6.882,7.126a.243.243,0,0,1-.244.244H2a.245.245,0,0,1-.23-.325A.244.244,0,0,0,2,7.207H6.639a.244.244,0,0,0,.23-.162.255.255,0,0,1,.014.081Z" transform="translate(-0.045 -0.316)" fill="#2c67b3"/>
      <path id="패스_1830" data-name="패스 1830" d="M6.869,7.045a.244.244,0,0,1-.23.162H2a.244.244,0,0,1-.23-.162A.244.244,0,0,1,2,6.882H6.639A.244.244,0,0,1,6.869,7.045Z" transform="translate(-0.045 -0.316)" fill="#3377c1"/>
      <path id="패스_1831" data-name="패스 1831" d="M8.1,9.34a.243.243,0,0,1-.244.244H2a.245.245,0,0,1-.23-.325A.244.244,0,0,0,2,9.421H7.861a.244.244,0,0,0,.23-.162A.255.255,0,0,1,8.1,9.34Z" transform="translate(-0.045 -0.316)" fill="#2c67b3"/>
      <path id="패스_1832" data-name="패스 1832" d="M8.091,9.264a.244.244,0,0,1-.23.162H2a.244.244,0,0,1-.23-.162A.244.244,0,0,1,2,9.1H7.861A.233.233,0,0,1,8.091,9.264Z" transform="translate(-0.045 -0.316)" fill="#3377c1"/>
    </g>
  </g>
</svg>
