<svg xmlns="http://www.w3.org/2000/svg" xmlns:xlink="http://www.w3.org/1999/xlink" width="110" height="65" viewBox="0 0 110 65">
  <defs>
    <clipPath id="clip-path">
      <rect id="사각형_4522" data-name="사각형 4522" width="110" height="65" transform="translate(231)" fill="#fff" stroke="#707070" stroke-width="1"/>
    </clipPath>
  </defs>
  <g id="asmo_faq_bg" transform="translate(-231)" clip-path="url(#clip-path)">
    <g id="그룹_1415" data-name="그룹 1415">
      <path id="패스_2188" data-name="패스 2188" d="M292.754,0h-.376V4.895h-3.01v9.428h-1.461V58.853H273.2V20.718h.381v-.377h-1.508v-2.61h-1.5V16.576h.386v-.732h-.751V15.07h-.756V10.176h-.376v2.259H268.7V15.07h-.751v.753h-.756v.763h.386v1.124h-1.508v2.625H264.56v.377h.293v38.14H253.671V21.847h.365v-.732h-.746V19.97h-6.751v-1.5h-2.249v-.763H243.9v-.377h-.751V15.07H242.4v2.264h-.746v.371h-.381V19.98h-.746v1.114h-1.23v.758h.592v37H211.97V62.52H405.421V58.936H367.486V13.941l-16.847-3.811,1.395,48.724H302.891V28.64h-1.127V14.323H299.52V10.558h-.751V4.9h-4.883V.763h-.381V4.895h-.751V0" transform="translate(21.021 2.716)" fill="#99dcfd"/>
      <path id="패스_2189" data-name="패스 2189" d="M317.926,18.27h-.381v4.152h-.376V24.66h-1.5v2.651h-2.249v7.154h-.741V69.32H295.758V36.729h1.127v-.387h-1.142v-.377h-1.1V34.841H283.707V35.96h-1.5v.387h-1.122v.371h1.5V50.67h-2V47.916H263.407V37.869H261.93V36.724h-.756V32.948h-.381v3.791h-.376V32.2h-.381v4.518h-.371v1.181h-.293V55.358H251.4V45.017h-2.249V42.763h-1.132v2.264h-1.122V42.763h-1.132v2.285h-2.218V42.763h-6.422v1.893H235.63v.758h1.106v4.142h-2.475v9.8H231.1V56.7h-3.726V60.81H222.9V64.8H216.75v6.581H407.741v-3.6h-2.28V64.621H402.8V60.9H392.705V48.777h-.365V47.3h-.391V45.389h-.376V43.883h-.746v1.883h-.365v-.743H389.7v.743h-1.508V43.9h-.376v-.763h-3.381v.748h-.376V45.77h-.376v9.036H381.06V31.52H380.3V26.548h-.751v4.967h-.376V24.294H378.8v7.221h-.381V27.688h-.767V31.52h-4.786V65.684H356.952v-7h-25.5v-16.3h-7.137v.748h.746v4.9h-1.127v1.511h-.371v1.5H323.2v2.666h-.4V34.47h-.741V27.3H319.8v-2.61h-1.513V22.4h-.36V18.27" transform="translate(18.7 -6.131)" fill="#33b9fb"/>
      <path id="패스_2190" data-name="패스 2190" d="M211.97,88.011V84.189h4.508V78.572h5.29v6.5h4.045V79.738h5.29V71.491h6.417V81.93h7.492V67.772h2.29v-.9h2.949v.882h1.111V71.94h5.722v7.076H259.7V59.1h3.921v.34h-.607v.712h5.66V85.416h4.261l2.269-7.69h3.931V71.558h4.194V68.52h3.828V79.8h5.985V70.062h5.985V85.385h1.909V57.215h2.938v-1.2h1.194v.351H307.4V55.033h1.137v.572H310.8V54.595h3.329v-.9h1.194V82.714h1.533V73.255H326.6V86.118h2.619V82.771h-1.065v-.557h1.065V78.583h-1.348V77.85h1.348V74.183h-.926v-.552h.926V65.477h-.592v-.516h.592V56.421h-1.539v-1.2h1.878v-.707h-.412V53.7h4.184v.774h-.386V55.2h7.153v1.222h-1.127V82.776h3.041V68.448h-.792v-.784h2.645V65.41h1.132v2.269h1.111V65.41h1.122v2.285h2.28V65.776h6.37v1.9h1.539v.732h-1.142V78.6l5.455,2.584V70.377H366.4v-10.6h-.37V58.638h.731v-.753h5.609V56.24h2.28v-.892h.777V52.64h.391v2.708h1.1v2.563h.4v.712h.365V76.334H381.1v6.447h6.787V67.69h-.8v-.371h5.66V64.678h.329v2.646h.772V63.93h.376v3.409h1.5v.366h-.756v7.922h3.015v8.794h7.492v3.59Z" transform="translate(21.021 -22.774)" fill="#00a8fa"/>
    </g>
  </g>
</svg>
