<svg xmlns="http://www.w3.org/2000/svg" xmlns:xlink="http://www.w3.org/1999/xlink" width="22" height="22" viewBox="0 0 22 22">
  <defs>
    <clipPath id="clip-path">
      <rect id="사각형_4399" data-name="사각형 4399" width="22" height="22" transform="translate(0 0.438)" fill="#fff"/>
    </clipPath>
  </defs>
  <g id="asmo_ring" transform="translate(0 -0.438)" clip-path="url(#clip-path)">
    <g id="marriage_2793050" transform="translate(0.956 -0.258)">
      <path id="패스_1860" data-name="패스 1860" d="M16.219,2.825l-1.677.831-1.677-.831-.518-1.273L14.006,0H15.08l1.776,1.364Z" transform="translate(-0.465 0)" fill="#3ccadd"/>
      <g id="그룹_1167" data-name="그룹 1167" transform="translate(10.225)">
        <path id="패스_1861" data-name="패스 1861" d="M16.219,2.825l.518,1.729L14.985,6.046H14.1L12.4,4.436l.471-1.61Z" transform="translate(-10.69 0)" fill="#80d8e6"/>
        <path id="패스_1862" data-name="패스 1862" d="M14.006,0l-1.14,2.825-.832.831L10.69,2.825a1.823,1.823,0,0,1,.235-.95l.547-.969A1.786,1.786,0,0,1,13.027,0Z" transform="translate(-10.69 0)" fill="#80d8e6"/>
        <path id="패스_1863" data-name="패스 1863" d="M18.4,2.825l-1.162.831-1.014-.831L15.08,0h.979a1.786,1.786,0,0,1,1.554.907l.547.969A1.822,1.822,0,0,1,18.4,2.825Z" transform="translate(-10.69 0)" fill="#80d8e6"/>
      </g>
      <path id="패스_1864" data-name="패스 1864" d="M14.1,6.046h-1.72L10.959,3.728a1.821,1.821,0,0,1-.269-.9h2.176Z" transform="translate(-0.465 0)" fill="#3ccadd"/>
      <path id="패스_1865" data-name="패스 1865" d="M18.4,2.825a1.82,1.82,0,0,1-.268.9L16.7,6.046h-1.72l1.234-3.221Z" transform="translate(-0.465 0)" fill="#3ccadd"/>
      <path id="패스_1866" data-name="패스 1866" d="M8.367,8.016a6.992,6.992,0,1,0,6.992,6.992A6.992,6.992,0,0,0,8.367,8.016Zm0,11.379a4.387,4.387,0,1,1,4.387-4.387A4.387,4.387,0,0,1,8.367,19.395Z" transform="translate(-0.465 0)" fill="#f8e86a"/>
      <g id="그룹_1168" data-name="그룹 1168" transform="translate(5.838 8.016)">
        <path id="패스_1867" data-name="패스 1867" d="M8.367,10.621A4.373,4.373,0,0,1,11.5,11.943,3.062,3.062,0,0,1,12.921,9.7,6.964,6.964,0,0,0,8.367,8.016a7.051,7.051,0,0,0-1,.071A8.261,8.261,0,0,0,6.3,11.136,4.368,4.368,0,0,1,8.367,10.621Z" transform="translate(-6.303 -8.016)" fill="#fbc072"/>
        <path id="패스_1868" data-name="패스 1868" d="M14.543,15.353a3.042,3.042,0,0,1-1.8-.585q.006.119.007.24a4.388,4.388,0,0,1-2.926,4.137,8.28,8.28,0,0,0,2.958,1.282,6.978,6.978,0,0,0,2.569-5.184,3.048,3.048,0,0,1-.812.11Z" transform="translate(-6.303 -8.016)" fill="#fbc072"/>
      </g>
      <path id="패스_1869" data-name="패스 1869" d="M14.543,5.3a6.992,6.992,0,1,0,6.992,6.992A6.992,6.992,0,0,0,14.543,5.3Zm0,11.379a4.387,4.387,0,1,1,4.387-4.387A4.387,4.387,0,0,1,14.543,16.681Z" transform="translate(-0.465 0)" fill="#f8e86a"/>
      <path id="패스_1870" data-name="패스 1870" d="M3.067,2.636C-.82,2.681-.969,9.044,6.9,6.664A.289.289,0,0,0,7.1,6.471C9.475-1.4,3.112-1.251,3.067,2.636Z" transform="translate(-0.465 0)" fill="#ff748f"/>
      <path id="패스_1871" data-name="패스 1871" d="M4.81,5.57A6.069,6.069,0,0,1,.7,3.971C-.19,5.707,1.387,8.331,6.9,6.664A.289.289,0,0,0,7.1,6.471a13.964,13.964,0,0,0,.371-1.51A6.067,6.067,0,0,1,4.81,5.57Z" transform="translate(-0.465 0)" fill="#fd5f7e"/>
    </g>
  </g>
</svg>
