<svg id="chat" xmlns="http://www.w3.org/2000/svg" width="24" height="24" viewBox="0 0 24 24">
  <rect id="사각형_1414" data-name="사각형 1414" width="24" height="24" fill="none"/>
  <g id="그룹_274" data-name="그룹 274" transform="translate(2.674 5.783)">
    <path id="패스_622" data-name="패스 622" d="M2858.124,1170.366a1.1,1.1,0,0,1-.808-.358l-.937-1.02h-4.338c-1.921,0-3.212-1.149-3.212-2.859v-5.7a3.249,3.249,0,0,1,3.212-3.277h12.228a3.249,3.249,0,0,1,3.212,3.277v5.7c0,1.71-1.291,2.859-3.212,2.859h-4.4l-.936,1.02a1.1,1.1,0,0,1-.809.358Zm-6.083-12.168a2.213,2.213,0,0,0-2.188,2.233v5.7c0,1.338,1.13,1.815,2.188,1.815h4.6a.509.509,0,0,1,.465.3.116.116,0,0,0,.019.028l.935,1.019a.073.073,0,0,0,.123,0l.937-1.021a.1.1,0,0,0,.017-.027.512.512,0,0,1,.465-.3h4.665c1.059,0,2.189-.477,2.189-1.815v-5.7a2.213,2.213,0,0,0-2.189-2.233Z" transform="translate(-2848.829 -1157.154)" fill="#fff"/>
    <circle id="타원_49" data-name="타원 49" cx="0.787" cy="0.787" r="0.787" transform="translate(5.354 4.981)" fill="#fff"/>
    <circle id="타원_50" data-name="타원 50" cx="0.787" cy="0.787" r="0.787" transform="translate(8.539 4.981)" fill="#fff"/>
    <circle id="타원_51" data-name="타원 51" cx="0.787" cy="0.787" r="0.787" transform="translate(11.724 4.981)" fill="#fff"/>
  </g>
</svg>
