<svg id="class_icon" xmlns="http://www.w3.org/2000/svg" width="35.906" height="35.906" viewBox="0 0 35.906 35.906">
  <g id="class_icon-2" data-name="class_icon">
    <rect id="사각형_1415" data-name="사각형 1415" width="35.906" height="35.906" fill="none"/>
    <g id="그룹_275" data-name="그룹 275" transform="translate(4.097 6.398)">
      <path id="패스_623" data-name="패스 623" d="M2920.149,1280.737H2901.9a4.762,4.762,0,0,1-4.686-4.825V1267.9a4.762,4.762,0,0,1,4.686-4.825h18.252a4.762,4.762,0,0,1,4.686,4.825v8.011A4.762,4.762,0,0,1,2920.149,1280.737Zm-18.252-16.1a3.221,3.221,0,0,0-3.169,3.263v8.011a3.221,3.221,0,0,0,3.169,3.263h18.252a3.22,3.22,0,0,0,3.169-3.263V1267.9a3.22,3.22,0,0,0-3.169-3.263Z" transform="translate(-2897.212 -1263.075)" fill="#fff"/>
      <path id="패스_624" data-name="패스 624" d="M2931.29,1285.806a1.858,1.858,0,0,1-1.852-1.855v-5.193a1.852,1.852,0,0,1,2.778-1.6l4.5,2.6h0a1.853,1.853,0,0,1,0,3.208l-4.5,2.6A1.845,1.845,0,0,1,2931.29,1285.806Zm0-7.361a.312.312,0,0,0-.156.043.3.3,0,0,0-.155.269v5.193a.31.31,0,0,0,.466.269l4.5-2.6a.311.311,0,0,0,0-.539l-4.5-2.6A.307.307,0,0,0,2931.291,1278.445Z" transform="translate(-2919.728 -1272.568)" fill="#fff"/>
      <path id="패스_625" data-name="패스 625" d="M2925.189,1329.125h-18.878a.883.883,0,0,0-.8-.522h-2.01a.885.885,0,0,0-.8.522h-1.891a.771.771,0,0,0,0,1.541h1.891a.885.885,0,0,0,.8.522h2.01a.883.883,0,0,0,.8-.522h18.878a.771.771,0,0,0,0-1.541Z" transform="translate(-2899.174 -1308.169)" fill="#fff"/>
    </g>
  </g>
</svg>
