<svg xmlns="http://www.w3.org/2000/svg" xmlns:xlink="http://www.w3.org/1999/xlink" width="300" height="40" viewBox="0 0 300 40">
  <defs>
    <clipPath id="clip-path">
      <rect id="사각형_1346" data-name="사각형 1346" width="300" height="40" rx="6" transform="translate(790 624)" fill="#fb8c00"/>
    </clipPath>
  </defs>
  <g id="cloud" transform="translate(-790 -624)" clip-path="url(#clip-path)">
    <path id="패스_614" data-name="패스 614" d="M50.078,0A12.81,12.81,0,0,0,37.523,10.28,7.768,7.768,0,0,0,32,10.069a7.8,7.8,0,1,0-15.286,2.453,9.949,9.949,0,1,0,.254,14.35,7.778,7.778,0,0,0,10.892-5.285,7.792,7.792,0,0,0,13.1.21A12.806,12.806,0,1,0,50.078,0" transform="translate(1038 643.5)" fill="#fff"/>
    <path id="패스_614-2" data-name="패스 614" d="M12.807,29.767a12.81,12.81,0,0,0,12.556-10.28,7.768,7.768,0,0,0,5.518.211,7.8,7.8,0,1,0,15.286-2.453A9.949,9.949,0,1,0,45.914,2.9,7.778,7.778,0,0,0,35.021,8.18a7.792,7.792,0,0,0-13.1-.21,12.806,12.806,0,1,0-9.117,21.8" transform="translate(782 611.117)" fill="#fff"/>
  </g>
</svg>
