<svg id="company_icon" xmlns="http://www.w3.org/2000/svg" width="24" height="24" viewBox="0 0 24 24">
  <g id="company_icon-2" data-name="company_icon" opacity="0.8">
    <rect id="사각형_4192" data-name="사각형 4192" width="24" height="24" fill="none"/>
    <g id="그룹_1059" data-name="그룹 1059">
      <path id="패스_1469" data-name="패스 1469" d="M15.15,6.594c1.035-.138,2.04-.257,3.041-.408a2.115,2.115,0,0,1,2.558,2.17q0,5.238,0,10.475a2.084,2.084,0,0,1-1.562,2.09,2.462,2.462,0,0,1-.6.073Q12,21,5.419,21a2.1,2.1,0,0,1-2.167-2.165q0-6.822,0-13.645a2.11,2.11,0,0,1,2.492-2.16q3.745.507,7.493,1A2.114,2.114,0,0,1,15.15,6.179c0,.13,0,.261,0,.415m-10.5,5.389q0,3.409,0,6.821a.71.71,0,0,0,.777.792h7.543a.7.7,0,0,0,.779-.768V6.212a.714.714,0,0,0-.694-.793L9.635,4.961C8.278,4.78,6.922,4.593,5.564,4.42c-.617-.078-.913.2-.913.829v6.734m10.5-3.977V8.29c0,2.989.006,5.977,0,8.966a10.767,10.767,0,0,1-.093,2.341h.161q1.685,0,3.368,0a.7.7,0,0,0,.767-.78q0-5.248,0-10.5a.689.689,0,0,0-.84-.754c-1.113.137-2.224.291-3.359.441" fill="#fff"/>
      <path id="패스_1470" data-name="패스 1470" d="M9.2,17.147c-.452,0-.9,0-1.356,0a.7.7,0,1,1-.009-1.4q1.366,0,2.733,0a.7.7,0,1,1,.01,1.4c-.46,0-.919,0-1.378,0" fill="#fff"/>
      <path id="패스_1471" data-name="패스 1471" d="M8.5,8.052a.7.7,0,1,1-.689-.7.705.705,0,0,1,.689.7" fill="#fff"/>
      <path id="패스_1472" data-name="패스 1472" d="M11.3,8.051a.7.7,0,1,1-.691-.7.7.7,0,0,1,.691.7" fill="#fff"/>
      <path id="패스_1473" data-name="패스 1473" d="M7.8,11.547a.7.7,0,1,1,.7-.691.705.705,0,0,1-.7.691" fill="#fff"/>
      <path id="패스_1474" data-name="패스 1474" d="M10.606,10.148a.7.7,0,1,1-.7.687.7.7,0,0,1,.7-.687" fill="#fff"/>
      <path id="패스_1475" data-name="패스 1475" d="M8.5,13.639a.7.7,0,1,1-.7-.691.706.706,0,0,1,.7.691" fill="#fff"/>
      <path id="패스_1476" data-name="패스 1476" d="M10.592,12.948a.7.7,0,1,1-.691.7.7.7,0,0,1,.691-.7" fill="#fff"/>
    </g>
  </g>
</svg>
