<svg xmlns="http://www.w3.org/2000/svg" xmlns:xlink="http://www.w3.org/1999/xlink" width="34" height="34" viewBox="0 0 34 34">
  <defs>
    <filter id="타원_158">
      <feOffset input="SourceAlpha"/>
      <feGaussianBlur stdDeviation="5" result="blur"/>
      <feFlood flood-color="#fff" result="color"/>
      <feComposite operator="out" in="SourceGraphic" in2="blur"/>
      <feComposite operator="in" in="color"/>
      <feComposite operator="in" in2="SourceGraphic"/>
    </filter>
  </defs>
  <g id="go_land" transform="translate(1.43 1.499)">
    <g data-type="innerShadowGroup">
      <circle id="타원_158-2" data-name="타원 158" cx="16" cy="16" r="16" transform="translate(-0.43 -0.499)" fill="#fb8c00"/>
      <g transform="matrix(1, 0, 0, 1, -1.43, -1.5)" filter="url(#타원_158)">
        <circle id="타원_158-3" data-name="타원 158" cx="16" cy="16" r="16" transform="translate(1 1)" fill="#fff"/>
      </g>
      <g id="타원_158-4" data-name="타원 158" transform="translate(-0.43 -0.499)" fill="none" stroke="#fb8c00" stroke-width="1">
        <circle cx="16" cy="16" r="16" stroke="none"/>
        <circle cx="16" cy="16" r="16.5" fill="none"/>
      </g>
    </g>
    <g id="타원_159" data-name="타원 159" transform="translate(0.57 0.501)" fill="#fb8c00" stroke="#fff" stroke-width="1" opacity="0.5">
      <circle cx="15" cy="15" r="15" stroke="none"/>
      <circle cx="15" cy="15" r="14.5" fill="none"/>
    </g>
    <g id="_x33_4_Hot_Air_Balloon" transform="translate(4.395 4.672)">
      <g id="그룹_962" data-name="그룹 962">
        <path id="패스_1589" data-name="패스 1589" d="M28.61,22.1a1.85,1.85,0,0,0-1.987-.613,1.831,1.831,0,0,0-.424-.531,7.761,7.761,0,0,0,.926-2.283c.45-3.822-3.1-6.949-7.493-6.95h0c-4.377,0-7.336,2.891-7.52,6a1.644,1.644,0,0,0-2.394,1.2,1.647,1.647,0,0,0,.254,3.274h3.8c1.149,1.913,2.494,3.8,2.589,3.932a.274.274,0,0,0,.223.115h.425v2.443h-.2a.989.989,0,0,0,0,1.977h.022V32.47a1.414,1.414,0,0,0,1.412,1.412h2.774A1.414,1.414,0,0,0,22.43,32.47V30.66h.022a.989.989,0,1,0,0-1.977h-.363V26.239h.591a.274.274,0,0,0,.223-.115c.022-.031.114-.159.253-.358a1.794,1.794,0,0,0,.241.018h5.537A1.856,1.856,0,1,0,28.61,22.1ZM21.16,25.691a53.082,53.082,0,0,0,1.519-7.036c.115-2.541-.476-4.908-1.511-6.114a5.811,5.811,0,0,1,3.484,6.078c-.134,1.556-2.5,6.187-2.953,7.072H21.16Zm-3.068-13.15c-1.035,1.206-1.626,3.573-1.511,6.114A53.1,53.1,0,0,0,18.1,25.691h-.539c-.457-.885-2.819-5.515-2.953-7.072A5.815,5.815,0,0,1,18.092,12.541Zm-.964,6.089c-.195-4.3,1.751-7.7,3.527-5.845.994,1.04,1.588,3.389,1.477,5.845a55.557,55.557,0,0,1-1.539,7.061H18.668A55.585,55.585,0,0,1,17.128,18.63ZM9.97,21.645a1.1,1.1,0,1,1,0-2.2.274.274,0,0,0,.274-.274,1.1,1.1,0,0,1,1.867-.779c.006.093.014.187.025.281a10.034,10.034,0,0,0,1.31,2.97Zm2.71-3.034a5.606,5.606,0,0,1,3.6-5.644,6.685,6.685,0,0,0-2.216,5.7c.134,1.559,2.207,5.709,2.882,7.025h-.222C16.159,24.894,12.864,20.174,12.68,18.611Zm9.2,13.86a.865.865,0,0,1-.864.864H18.243a.865.865,0,0,1-.864-.864V30.66h4.5Zm1.01-2.8a.441.441,0,0,1-.441.441H16.809a.441.441,0,0,1,0-.881h5.642A.441.441,0,0,1,22.892,29.671Zm-5.338-.988V26.239H21.54v2.443Zm4.984-2.991h-.222c.675-1.316,2.748-5.466,2.882-7.025a6.678,6.678,0,0,0-2.217-5.7,5.607,5.607,0,0,1,3.6,5.643C26.4,20.173,23.1,24.894,22.538,25.691Zm6.4-.454H23.522c.63-.918,1.619-2.4,2.4-3.786a1.288,1.288,0,0,1,.291.477.274.274,0,0,0,.379.159,1.3,1.3,0,0,1,1.668.472.274.274,0,0,0,.307.115,1.308,1.308,0,1,1,.363,2.564Z" transform="translate(-8.323 -11.725)" fill="#fff"/>
      </g>
    </g>
  </g>
</svg>
