<svg id="graduation_icon" xmlns="http://www.w3.org/2000/svg" width="36" height="36" viewBox="0 0 36 36">
  <rect id="사각형_1417" data-name="사각형 1417" width="36" height="36" fill="none"/>
  <g id="그룹_278" data-name="그룹 278" transform="translate(3.591 5.386)">
    <path id="패스_627" data-name="패스 627" d="M2664.15,1616.006c-.5.309-.983.593-1.448.906a.494.494,0,0,0-.13.354c-.009,1.542-.017,3.086,0,4.628a3.575,3.575,0,0,1-1.826,3.357c-1.569.933-3.11,1.919-4.677,2.854a6.321,6.321,0,0,1-6.889.005c-1.623-.963-3.227-1.963-4.835-2.953a3.412,3.412,0,0,1-1.675-3.085q-.011-2.4,0-4.792a.462.462,0,0,0-.252-.458q-1.636-.994-3.26-2.011a1.724,1.724,0,0,1,.008-3.038q5.88-3.636,11.766-7.262a3,3,0,0,1,3.352-.01q5.915,3.636,11.819,7.294a1.733,1.733,0,0,1,.049,2.983.5.5,0,0,0-.189.348q-.016,4.107,0,8.214a.566.566,0,0,0,.155.351,1.749,1.749,0,0,1,.067,2.42,1.509,1.509,0,0,1-2.253-.022,1.754,1.754,0,0,1,.109-2.418.47.47,0,0,0,.139-.292q.01-3.635,0-7.268A.564.564,0,0,0,2664.15,1616.006Zm-23.928-2.714c.139.088.24.155.343.219,3.657,2.258,7.321,4.5,10.964,6.783a1.825,1.825,0,0,0,2.167.006c3.671-2.3,7.361-4.557,11.045-6.832.081-.05.158-.109.262-.18-.1-.068-.165-.108-.226-.146q-5.6-3.46-11.206-6.925a1.649,1.649,0,0,0-1.924.011c-3.013,1.88-6.038,3.736-9.059,5.6Zm4.21,4.781v.4c0,1.162.012,2.325,0,3.487a1.73,1.73,0,0,0,.9,1.641c1.558.932,3.1,1.891,4.65,2.838a4.7,4.7,0,0,0,5.215.038c1.608-.968,3.2-1.963,4.808-2.938a1.6,1.6,0,0,0,.8-1.469q0-1.874,0-3.748c0-.06-.009-.119-.017-.228-.141.085-.246.147-.349.21q-3.047,1.88-6.1,3.76a3.077,3.077,0,0,1-3.461-.012l-4.425-2.733C2645.8,1618.913,2645.148,1618.513,2644.432,1618.073Z" transform="translate(-2638.253 -1603.994)" fill="#fff"/>
  </g>
</svg>
