<svg id="link" xmlns="http://www.w3.org/2000/svg" xmlns:xlink="http://www.w3.org/1999/xlink" width="16" height="16" viewBox="0 0 16 16">
  <defs>
    <clipPath id="clip-path">
      <rect id="사각형_4311" data-name="사각형 4311" width="12.46" height="12.437" fill="#222"/>
    </clipPath>
  </defs>
  <g id="link-2" data-name="link" transform="translate(-16 -6)" opacity="0.6">
    <rect id="사각형_4098" data-name="사각형 4098" width="16" height="16" transform="translate(16 6)" fill="none"/>
    <g id="그룹_1438" data-name="그룹 1438" transform="translate(17.77 7.782)">
      <g id="그룹_1437" data-name="그룹 1437" transform="translate(0 0)" clip-path="url(#clip-path)">
        <path id="패스_1508" data-name="패스 1508" d="M0,8.467c.03-.17.055-.342.093-.51A3.257,3.257,0,0,1,.986,6.345Q1.92,5.4,2.866,4.465a.667.667,0,0,1,1.146.3.633.633,0,0,1-.113.551,1.259,1.259,0,0,1-.129.145c-.6.6-1.209,1.206-1.81,1.812A2.017,2.017,0,1,0,4.8,10.134C5.42,9.522,6.032,8.9,6.648,8.288a.672.672,0,0,1,1.043.848.827.827,0,0,1-.055.065c-.668.666-1.327,1.34-2.006,1.994a3.2,3.2,0,0,1-1.943.873.728.728,0,0,0-.094.019H3.131c-.127-.019-.257-.031-.381-.06A3.318,3.318,0,0,1,.1,9.522C.052,9.345.032,9.159,0,8.977v-.51" transform="translate(0 0.351)" fill="#222"/>
        <path id="패스_1509" data-name="패스 1509" d="M12.077,3.347a3.355,3.355,0,0,1-1,2.411q-.922.93-1.853,1.854a.669.669,0,0,1-1.156-.287.636.636,0,0,1,.112-.552,1.249,1.249,0,0,1,.129-.144c.6-.605,1.208-1.207,1.809-1.813A2.017,2.017,0,1,0,7.268,1.959C6.651,2.572,6.038,3.19,5.422,3.8a.671.671,0,0,1-1.036-.853c.017-.022.035-.044.054-.065C5.126,2.2,5.791,1.5,6.5.847A3.112,3.112,0,0,1,9.2.045a3.253,3.253,0,0,1,2.719,2.311,7.223,7.223,0,0,1,.194.984l-.034.006" transform="translate(0.35 0)" fill="#222"/>
        <path id="패스_1510" data-name="패스 1510" d="M4,8.516a.673.673,0,0,1-.5-1.084.986.986,0,0,1,.105-.118q1.848-1.851,3.7-3.7a.677.677,0,0,1,.967-.082.666.666,0,0,1,.088.918,1.4,1.4,0,0,1-.114.127L4.571,8.26A.767.767,0,0,1,4,8.516" transform="translate(0.277 0.278)" fill="#222"/>
      </g>
    </g>
  </g>
</svg>
