<svg xmlns="http://www.w3.org/2000/svg" xmlns:xlink="http://www.w3.org/1999/xlink" width="20" height="20" viewBox="0 0 20 20">
  <defs>
    <clipPath id="clip-path">
      <rect id="사각형_1409" data-name="사각형 1409" width="20" height="20" transform="translate(0 0)" fill="#9f9999"/>
    </clipPath>
  </defs>
  <g id="profile_icon" transform="translate(-0.054 -0.054)">
    <g id="그룹_271" data-name="그룹 271" transform="translate(0.054 0.054)" clip-path="url(#clip-path)">
      <path id="패스_617" data-name="패스 617" d="M1.742,15.429c-.364,0-.729,0-1.093,0-.431-.006-.63-.2-.633-.619q-.008-1.051,0-2.1a1.558,1.558,0,0,1,.472-1.127Q4.325,7.769,8.163,3.96c.127-.127.2-.122.321,0Q10.023,5.5,11.576,7.027c.144.141.123.219-.009.349Q7.746,11.153,3.93,14.938a1.617,1.617,0,0,1-1.2.486c-.33,0-.66,0-.991,0v.005" transform="translate(2.342 0.215)" fill="#9f9999"/>
      <path id="패스_618" data-name="패스 618" d="M18.822,2.73a1.512,1.512,0,0,1-.438,1.1c-.368.383-.759.747-1.127,1.13-.129.135-.206.112-.326-.009q-1.537-1.536-3.088-3.06c-.143-.139-.129-.213.007-.341.379-.357.736-.739,1.116-1.094A1.62,1.62,0,0,1,17.192.428c.42.378.817.784,1.209,1.193a1.488,1.488,0,0,1,.422,1.109" transform="translate(-2.239 1.527)" fill="#9f9999"/>
      <path id="패스_619" data-name="패스 619" d="M7.106,24.1q-3.211,0-6.422,0c-.418,0-.618-.133-.672-.428a.521.521,0,0,1,.448-.643,2.077,2.077,0,0,1,.34-.015H13.438c.069,0,.137,0,.205,0,.392.016.606.2.612.535.006.348-.209.548-.626.548q-3.073.007-6.148,0H7.106" transform="translate(2.346 -6.28)" fill="#9f9999"/>
    </g>
  </g>
</svg>
