<svg id="rank_icon" xmlns="http://www.w3.org/2000/svg" width="20" height="20" viewBox="0 0 20 20">
  <rect id="사각형_3994" data-name="사각형 3994" width="20" height="20" fill="none"/>
  <g id="그룹_632" data-name="그룹 632" transform="translate(2.604 0.746)">
    <path id="패스_1210" data-name="패스 1210" d="M17.785,4.676l-.173.157.152-.18a1.921,1.921,0,0,0-.357-.335Q16.624,3.8,15.825,3.3a16.7,16.7,0,0,0-2.538-1.327c-.332-.135-.659-.282-.987-.429-.478-.216-.974-.438-1.482-.62a.785.785,0,0,0-.5-.037,5.122,5.122,0,0,0-.557.195c-.318.136-.633.275-.948.416l-.992.434c-.254.109-.509.219-.759.335A17.377,17.377,0,0,0,5.2,3.306l-.192.119c-.338.209-.676.418-1.01.633-.2.131-.4.275-.589.423a.689.689,0,0,0-.277.631c.01.109.011.218.012.328s0,.191.008.286c.027.417.056.835.094,1.252.012.136.035.27.057.4.014.077.027.152.037.229l.046.35c.027.214.055.428.092.641.047.27.1.54.154.809.038.191.076.38.112.572a7.379,7.379,0,0,0,1.222,2.874c.151.216.319.419.487.623.085.1.169.2.265.3,0,.086-.006.171-.011.257-.006.1-.012.2-.012.307q0,.452.007.9l0,.628q0,.532,0,1.064l0,1.956a.5.5,0,0,0,.24.406.566.566,0,0,0,.31.1.439.439,0,0,0,.161-.031c.083-.034.167-.066.251-.1l.062-.022c.122-.046.245-.089.367-.132.282-.1.563-.2.836-.32.844-.374,1.682-.767,2.519-1.161.053-.025.059-.024.1,0q.98.471,1.97.917c.4.178.8.339,1.2.5.153.06.308.112.463.166.116.039.23.078.344.12a.59.59,0,0,0,.549-.037.578.578,0,0,0,.226-.5l0-3.235c0-.56,0-1.12-.006-1.68,0-.061.009-.083.077-.16a6.948,6.948,0,0,0,.907-1.215l.145-.262a7.537,7.537,0,0,0,.422-.826,12.51,12.51,0,0,0,.685-2.763l.023-.137c.039-.24.068-.482.1-.724l.078-.611c.041-.305.083-.611.107-.918.026-.334.032-.668.037-1L17.9,5a.5.5,0,0,0-.111-.327m-3.715,9.08a10.329,10.329,0,0,1-2,1.314,8.922,8.922,0,0,1-1.565.591A9.789,9.789,0,0,1,7.276,14a8.2,8.2,0,0,1-1.387-1.323A6.587,6.587,0,0,1,4.673,10.2a18.858,18.858,0,0,1-.424-2.136c-.032-.246-.05-.494-.067-.741L4,5.148c0-.037,0-.074,0-.1.124-.087.246-.175.369-.263.221-.16.44-.32.672-.464A28.243,28.243,0,0,1,10.5,1.713a26.811,26.811,0,0,1,6.016,2.95c.1.066.19.137.283.209l.237.181-.091.94c-.021.21-.041.419-.05.629a15.389,15.389,0,0,1-.219,2.124,12.6,12.6,0,0,1-.552,2.19,6.509,6.509,0,0,1-2.058,2.82" transform="translate(-3.129 -0.867)" fill="#222"/>
    <path id="패스_1211" data-name="패스 1211" d="M15.489,8.09h0a.6.6,0,0,0-.4.6l-.042.028c-.147.1-.293.2-.445.291a1.279,1.279,0,0,1-.877.257.712.712,0,0,1-.251-.061,4.214,4.214,0,0,1-.624-.488,3.5,3.5,0,0,1-.628-.881c-.161-.3-.315-.612-.469-.92l-.175-.347a.784.784,0,0,0,.146-.27c.1-.361.06-.832-.657-1.026a.877.877,0,0,0-.856.265.635.635,0,0,0-.182.332.784.784,0,0,0,.16.7l-.137.275c-.153.31-.306.618-.469.923A3.526,3.526,0,0,1,8.438,9.124a.912.912,0,0,1-.9.068,3.584,3.584,0,0,1-.85-.5.584.584,0,0,0-.132-.406.7.7,0,0,0-.524-.26H6.016a.654.654,0,0,0-.494.236.813.813,0,0,0-.106.866.707.707,0,0,0,.546.339l1.132,1.9a.773.773,0,0,0-.05.449.676.676,0,0,0,.479.615.869.869,0,0,1,.18.076c.041.021.081.042.167.078l.255.088c.191.068.383.136.578.193a7.709,7.709,0,0,0,2.182.31c.222,0,.447-.01.672-.028a8.037,8.037,0,0,0,1.966-.422l.086-.028a1.648,1.648,0,0,0,.51-.236.5.5,0,0,0,.364-.168.854.854,0,0,0,.191-.922l1.134-1.906a.673.673,0,0,0,.5-.27.8.8,0,0,0-.028-.885.629.629,0,0,0-.793-.221" transform="translate(-3.5 -1.6)" fill="#222"/>
  </g>
</svg>
