<svg id="settings_icon" xmlns="http://www.w3.org/2000/svg" width="20" height="20" viewBox="0 0 20 20">
  <rect id="사각형_3936" data-name="사각형 3936" width="20" height="20" fill="none"/>
  <g id="그룹_947" data-name="그룹 947" transform="translate(3 3)">
    <path id="패스_1193" data-name="패스 1193" d="M18.622,7.712a.71.71,0,0,1-.4.532,2.391,2.391,0,0,1-.524.15.23.23,0,0,0-.17.131.423.423,0,0,0,.05.537.8.8,0,0,1-.1,1.157c-.114.114-.224.23-.345.336a.792.792,0,0,1-.921.095.489.489,0,0,1-.137-.09c-.187-.217-.385-.139-.583-.027a.182.182,0,0,0-.067.1c-.028.115-.042.234-.071.349a.784.784,0,0,1-.742.606c-.192.008-.385.008-.576,0a.794.794,0,0,1-.75-.616.418.418,0,0,1-.024-.121c.012-.247-.126-.363-.347-.428a.2.2,0,0,0-.2.03,1.233,1.233,0,0,1-.569.287.755.755,0,0,1-.615-.173,5.567,5.567,0,0,1-.467-.465.784.784,0,0,1-.087-.91.7.7,0,0,1,.106-.16.358.358,0,0,0,.054-.478.257.257,0,0,0-.218-.168,1,1,0,0,1-.659-.27A.773.773,0,0,1,10.04,7.6c0-.188-.008-.376,0-.564a.8.8,0,0,1,.66-.785,1.407,1.407,0,0,1,.19-.031.3.3,0,0,0,.267-.2.381.381,0,0,0-.068-.453.822.822,0,0,1,.1-1.2c.1-.1.205-.21.315-.307a.8.8,0,0,1,.956-.088.446.446,0,0,1,.114.077c.186.216.385.139.582.027a.183.183,0,0,0,.07-.106c.024-.092.034-.189.053-.283a.8.8,0,0,1,.6-.651.2.2,0,0,0,.044-.027h.8a.849.849,0,0,1,.612.518,1.828,1.828,0,0,1,.082.374.271.271,0,0,0,.168.216.365.365,0,0,0,.487-.06.694.694,0,0,1,.137-.091.787.787,0,0,1,.922.074,4.742,4.742,0,0,1,.464.466.782.782,0,0,1,.073.922c-.061.1-.134.2-.2.3-.017.026-.047.062-.04.082a1.489,1.489,0,0,0,.152.35c.034.049.136.056.21.067a.885.885,0,0,1,.619.286.867.867,0,0,1,.218.4ZM17.069,5.017a.682.682,0,0,0-.07-.1c-.092-.1-.189-.186-.28-.283a.137.137,0,0,0-.205-.016c-.134.1-.271.189-.4.285a.4.4,0,0,1-.439.04c-.208-.095-.42-.18-.633-.262a.389.389,0,0,1-.268-.318c-.027-.163-.059-.324-.084-.487-.016-.1-.06-.157-.172-.152-.128.006-.257,0-.385,0a.137.137,0,0,0-.157.134c-.024.158-.058.316-.081.474a.411.411,0,0,1-.285.352c-.209.079-.417.162-.62.256a.4.4,0,0,1-.438-.038c-.126-.091-.258-.175-.381-.27a.158.158,0,0,0-.249.016c-.08.088-.165.172-.252.253a.149.149,0,0,0-.019.228c.095.129.182.264.276.394a.4.4,0,0,1,.042.438c-.1.208-.182.419-.264.632a.387.387,0,0,1-.317.268c-.162.028-.324.06-.487.085-.1.016-.153.063-.148.173.005.128,0,.256,0,.385a.136.136,0,0,0,.133.157c.158.024.315.058.473.081a.419.419,0,0,1,.358.3c.074.2.155.4.247.594a.416.416,0,0,1-.042.463c-.092.125-.177.256-.269.381a.149.149,0,0,0,.015.228q.136.126.262.262a.149.149,0,0,0,.228.016c.125-.092.256-.177.381-.269A.413.413,0,0,1,13,9.672c.193.092.393.172.594.246a.423.423,0,0,1,.3.37c.021.154.056.306.08.46a.135.135,0,0,0,.156.134c.128,0,.257,0,.385,0a.148.148,0,0,0,.174-.148c.024-.158.058-.316.081-.474a.4.4,0,0,1,.281-.338c.209-.08.417-.164.619-.257a.4.4,0,0,1,.439.04c.13.094.265.181.393.277a.154.154,0,0,0,.238-.024,3.087,3.087,0,0,1,.243-.243A.159.159,0,0,0,17,9.466c-.089-.116-.165-.242-.254-.358a.427.427,0,0,1-.044-.487,5.783,5.783,0,0,0,.241-.581.421.421,0,0,1,.37-.3c.149-.021.3-.057.446-.077.106-.014.153-.063.15-.171,0-.124-.005-.247,0-.371a.151.151,0,0,0-.149-.175c-.163-.026-.325-.057-.487-.084a.387.387,0,0,1-.32-.265c-.082-.213-.167-.425-.262-.633a.4.4,0,0,1,.038-.439q.14-.195.276-.394c.023-.033.04-.07.065-.114" transform="translate(-4.622 -3.009)" fill="#222"/>
    <path id="패스_1194" data-name="패스 1194" d="M5.5,8.526a.842.842,0,0,1,.578.222.564.564,0,0,0,.737.1c.162-.09.262-.162.273-.348a1.623,1.623,0,0,1,.056-.31.365.365,0,0,1,.4-.26.352.352,0,0,1,.292.376c-.036.272-.089.542-.141.811a.349.349,0,0,1-.244.257c-.283.115-.567.229-.847.352a.392.392,0,0,1-.414-.034c-.183-.13-.366-.259-.552-.386a.238.238,0,0,0-.364.033c-.128.125-.255.251-.379.38a.228.228,0,0,0-.03.342c.122.178.244.355.373.528a.44.44,0,0,1,.031.5,6.79,6.79,0,0,0-.3.734.449.449,0,0,1-.39.334c-.208.031-.416.07-.622.11-.165.031-.22.1-.222.261,0,.183,0,.367,0,.551,0,.166.065.236.234.266.211.038.424.076.636.11a.423.423,0,0,1,.353.3c.1.266.207.527.325.785A.422.422,0,0,1,5.249,15q-.194.267-.379.54a.228.228,0,0,0,.027.343c.131.135.263.269.4.4a.224.224,0,0,0,.332.024c.186-.126.369-.255.551-.387a.415.415,0,0,1,.451-.033c.262.119.527.232.8.331a.415.415,0,0,1,.294.344q.054.318.11.636c.033.183.1.24.289.24.169,0,.339,0,.508,0,.185,0,.248-.051.283-.229.038-.193.078-.386.1-.581a.476.476,0,0,1,.373-.435,4.631,4.631,0,0,0,.695-.29.444.444,0,0,1,.511.033c.168.127.343.245.517.364a.23.23,0,0,0,.353-.03q.191-.188.379-.379a.236.236,0,0,0,.033-.354c-.124-.181-.251-.361-.379-.54a.422.422,0,0,1-.032-.464c.119-.256.227-.518.325-.784a.416.416,0,0,1,.341-.3c.208-.036.414-.076.623-.108a.654.654,0,0,1,.231,0,.346.346,0,0,1,.266.341.36.36,0,0,1-.27.34c-.147.034-.3.061-.446.081a.149.149,0,0,0-.146.117.635.635,0,0,1-.084.216.4.4,0,0,0,.06.554,1.342,1.342,0,0,1,.233.4.847.847,0,0,1-.149.878,5.7,5.7,0,0,1-.559.566.9.9,0,0,1-1.118.09,3.868,3.868,0,0,1-.35-.243.2.2,0,0,0-.258-.027,1.391,1.391,0,0,1-.329.137.2.2,0,0,0-.161.2,3.84,3.84,0,0,1-.081.431.919.919,0,0,1-.892.719c-.2.005-.395,0-.591,0a.944.944,0,0,1-.987-.829A2.9,2.9,0,0,1,7.068,17a.2.2,0,0,0-.163-.2c-.13-.041-.251-.11-.381-.155a.192.192,0,0,0-.146.013c-.151.094-.291.207-.445.3a.894.894,0,0,1-1.06-.1,6.854,6.854,0,0,1-.546-.542.9.9,0,0,1-.1-1.094c.087-.145.195-.277.283-.422a.205.205,0,0,0,.016-.157,3.191,3.191,0,0,0-.174-.417.229.229,0,0,0-.132-.11c-.15-.038-.306-.053-.458-.088a.926.926,0,0,1-.743-.915c0-.2,0-.394,0-.591a.938.938,0,0,1,.805-.964c.157-.03.349-.013.462-.1s.131-.281.21-.417a.247.247,0,0,0-.033-.318,2.9,2.9,0,0,1-.255-.375A.887.887,0,0,1,4.3,9.324a7.574,7.574,0,0,1,.583-.583A.851.851,0,0,1,5.5,8.526" transform="translate(-3.018 -4.158)" fill="#222"/>
    <path id="패스_1195" data-name="패스 1195" d="M9.255,15.879A2.389,2.389,0,1,1,9.166,11.1a.368.368,0,0,1,.384.335.351.351,0,0,1-.341.372,1.774,1.774,0,0,0-1.109.416,1.673,1.673,0,1,0,2.76,1.388.534.534,0,0,1,.114-.371.352.352,0,0,1,.381-.081.364.364,0,0,1,.229.345,2.406,2.406,0,0,1-1.5,2.2,2.319,2.319,0,0,1-.827.168" transform="translate(-3.865 -4.82)" fill="#222"/>
    <path id="패스_1196" data-name="패스 1196" d="M15.045,9.726a1.707,1.707,0,1,1,1.707-1.7,1.7,1.7,0,0,1-1.707,1.7m-.021-.717A.99.99,0,1,0,14.055,8a.994.994,0,0,0,.969,1.006" transform="translate(-5.319 -3.745)" fill="#222"/>
  </g>
</svg>
