<svg id="shop_icon" xmlns="http://www.w3.org/2000/svg" width="24" height="24" viewBox="0 0 24 24">
  <g id="shop_icon-2" data-name="shop_icon" transform="translate(-703 -356)" opacity="0.8">
    <rect id="사각형_4173" data-name="사각형 4173" width="24" height="24" transform="translate(703 356)" fill="none"/>
    <g id="레이어_1_00000040546597962340856270000011526404185416341940_" transform="translate(706.621 359.474)">
      <g id="그룹_733" transform="translate(-0.005 0.001)">
        <path id="빼기_8" d="M14.514,12.823H3.664a1.809,1.809,0,0,1-1.409-.564,2.381,2.381,0,0,1-.423-1.409A1.733,1.733,0,0,1,2.818,9.3c.141,0,.141-.141.141-.282h0C2.4,6.764,1.973,4.227,1.409,1.409c0-.141,0-.141-.141-.141h-.7A.645.645,0,0,1,0,.564.606.606,0,0,1,.564,0H1.832A.606.606,0,0,1,2.4.564V.986c.141.423.141.845.282,1.409H16.064a.651.651,0,0,1,.7.423V3.1l-.282,1.55-.845,5.073a.645.645,0,0,1-.7.564H3.664a.847.847,0,0,0-.564.141c0,.282,0,.423,0,.564a.606.606,0,0,0,.564.564H14.8c.282.141.564.423.423.7,0,.282-.282.423-.564.423ZM9.159,9.159h5.5c.141,0,.141,0,.141-.141.282-1.973.564-3.664.7-5.214V3.664H2.959V3.8c.423,1.832.7,3.8.986,5.214,0,.141,0,.141.141.141Z" fill="#fff"/>
        <path id="빼기_9" d="M3.532,13.164h0A1.374,1.374,0,0,1,2.264,12.6,2.1,2.1,0,0,1,1.7,11.332,1.865,1.865,0,0,1,3.532,9.5h0a1.776,1.776,0,0,1,1.832,1.832,1.7,1.7,0,0,1-1.832,1.832Zm0-2.4h0a.564.564,0,1,0,0,1.127.606.606,0,0,0,.564-.564.5.5,0,0,0-.564-.564Z" transform="translate(0.695 3.886)" fill="#fff"/>
        <path id="빼기_10" d="M10.032,13.164h0a1.832,1.832,0,1,1,0-3.664,1.53,1.53,0,0,1,1.268.564,2.1,2.1,0,0,1,.564,1.268A1.865,1.865,0,0,1,10.032,13.164Zm0-2.4a.645.645,0,0,0-.564.7.606.606,0,0,0,.564.564h0a.606.606,0,0,0,.564-.564c0-.423-.141-.7-.564-.7Z" transform="translate(3.355 3.886)" fill="#fff"/>
      </g>
    </g>
  </g>
</svg>
