<svg xmlns="http://www.w3.org/2000/svg" width="30" height="30" viewBox="0 0 30 30">
  <g id="soon" transform="translate(-608 -244.905)">
    <rect id="사각형_1416" data-name="사각형 1416" width="30" height="30" transform="translate(608 244.905)" fill="none"/>
    <path id="패스_626" data-name="패스 626" d="M3036.678,1276.594q-2.9-8.864-5.8-17.727c-.344-1.051-.683-2.1-1.033-3.151a.736.736,0,0,0-1.145-.423,4.491,4.491,0,0,0-.429.29,10.338,10.338,0,0,1-3.254,1.624,17.321,17.321,0,0,1-4.9.641,14.663,14.663,0,0,0-3.78.456,15.032,15.032,0,0,0-4.607,2.272.755.755,0,0,0-.346,1.027q.991,3,1.983,6c.462,1.4.921,2.794,1.387,4.19a.746.746,0,0,0,1.179.43c.183-.11.354-.24.526-.366a10.217,10.217,0,0,1,2.781-1.423,15.8,15.8,0,0,1,4.879-.744,21.253,21.253,0,0,0,2.624-.16,12.857,12.857,0,0,0,5.136-1.956c.188-.118.251-.116.323.107.993,3.062,2,6.119,2.992,9.18.118.362.275.673.7.726a.806.806,0,0,0,.832-.524v-.39C3036.691,1276.657,3036.688,1276.625,3036.678,1276.594Zm-10.519-18.2a14.821,14.821,0,0,0,2.45-1.275c.088-.057.123-.034.152.057q.292.9.592,1.807a.12.12,0,0,1-.058.162,14.485,14.485,0,0,1-2.448,1.33c-.023.01-.047.017-.07.025-.076.015-.075-.047-.089-.089-.2-.618-.4-1.237-.609-1.853C3026.048,1258.459,3026.08,1258.422,3026.16,1258.39Zm-4.349.875a12.616,12.616,0,0,0,2.675-.341c.117-.029.158.012.192.118q.285.894.584,1.784c.043.129.007.162-.121.192a13.319,13.319,0,0,1-2.2.277,1.277,1.277,0,0,1-.615-.023c-.183-.1-.177-.414-.252-.635-.134-.393-.254-.789-.391-1.18C3021.631,1259.315,3021.66,1259.269,3021.811,1259.265Zm-4.582.328a12.451,12.451,0,0,1,2.217-.259c.167.005.429-.107.6.01s.163.392.234.6c.141.407.267.818.4,1.226.043.127.032.181-.13.187a12.6,12.6,0,0,0-2.648.337c-.133.033-.19,0-.229-.13-.186-.588-.374-1.176-.573-1.76C3017.052,1259.658,3017.093,1259.621,3017.229,1259.593Zm-3.68,3.826c-.185-.571-.37-1.143-.564-1.711-.041-.118-.034-.186.08-.26a15.021,15.021,0,0,1,2.4-1.3c.108-.045.169-.058.213.082.189.6.391,1.2.587,1.806a.166.166,0,0,1,.01.036c.038.127-.036.141-.1.165a14.669,14.669,0,0,0-2.422,1.267C3013.619,1263.6,3013.587,1263.539,3013.549,1263.419Zm1.189,3.58c-.21-.635-.41-1.251-.618-1.864-.034-.1.028-.13.088-.171a14.8,14.8,0,0,1,2.4-1.313c.119-.051.179-.053.225.1.172.566.362,1.128.548,1.69.03.091.062.161-.066.212A15.445,15.445,0,0,0,3014.738,1267Zm3.712,2.134a15.337,15.337,0,0,0-2.562,1.341c-.218-.657-.425-1.288-.638-1.919-.031-.089,0-.133.072-.179a14.731,14.731,0,0,1,2.421-1.319c.107-.045.154-.037.191.083q.285.905.587,1.806C3018.553,1269.038,3018.553,1269.092,3018.449,1269.133Zm.585-4.03c-.134.033-.2.017-.249-.134-.17-.559-.354-1.115-.543-1.669-.046-.135-.025-.177.119-.21a12.394,12.394,0,0,1,2.125-.273c.725-.013.725-.013.9.522.135.417.263.837.409,1.251.053.152.008.175-.134.18A12.763,12.763,0,0,0,3019.034,1265.1Zm3.765,3.149a12.837,12.837,0,0,0-2.7.352c-.094.024-.132-.01-.159-.1-.2-.611-.394-1.222-.6-1.831-.044-.13.017-.142.121-.167a11.972,11.972,0,0,1,2.143-.278c.715-.013.714-.013.886.513.144.44.283.882.435,1.32C3022.978,1268.2,3022.948,1268.246,3022.8,1268.251Zm.45-3.994c-.144-.44-.284-.882-.432-1.321-.037-.11-.059-.173.1-.18a13.483,13.483,0,0,0,2.7-.345c.121-.029.157.008.191.114.182.573.367,1.146.561,1.715.046.135,0,.164-.122.193a12.85,12.85,0,0,1-2.247.278C3023.4,1264.723,3023.4,1264.723,3023.25,1264.257Zm4.1,3.671a12.406,12.406,0,0,1-2.21.259c-.6.018-.6.018-.785-.546-.139-.424-.276-.849-.42-1.271-.046-.134-.049-.2.133-.2a12.86,12.86,0,0,0,2.646-.339c.145-.036.186.016.222.133.185.58.364,1.161.567,1.735C3027.568,1267.879,3027.485,1267.9,3027.35,1267.928Zm.533-4.011c-.071-.006-.074-.07-.09-.12-.189-.578-.374-1.159-.569-1.736-.039-.117,0-.156.1-.2a14.552,14.552,0,0,0,2.382-1.24c.13-.083.175-.051.217.082.171.542.349,1.082.528,1.621.034.1.044.175-.066.247a14.8,14.8,0,0,1-2.4,1.3C3027.951,1263.892,3027.919,1263.9,3027.883,1263.917Zm3.644,2.134a14.852,14.852,0,0,1-2.4,1.309c-.128.054-.168.024-.207-.1-.189-.6-.387-1.188-.581-1.782-.025-.079-.048-.142.069-.19a15.408,15.408,0,0,0,2.447-1.271c.021-.013.043-.024.064-.036.085-.008.087.057.1.109q.289.878.579,1.757A.153.153,0,0,1,3031.527,1266.052Z" transform="translate(-2401.067 -1006.422)" fill="#fff" opacity="0.8"/>
  </g>
</svg>
