<svg id="구성_요소_629_18" data-name="구성 요소 629 – 18" xmlns="http://www.w3.org/2000/svg" width="80" height="16" viewBox="0 0 80 16">
  <g id="사각형_4155" data-name="사각형 4155" transform="translate(64)" fill="#fb8c00" stroke="#707070" stroke-width="1" opacity="0">
    <rect width="16" height="16" stroke="none"/>
    <rect x="0.5" y="0.5" width="15" height="15" fill="none"/>
  </g>
  <g id="사각형_4154" data-name="사각형 4154" fill="#fb8c00" stroke="#707070" stroke-width="1" opacity="0">
    <rect width="16" height="16" stroke="none"/>
    <rect x="0.5" y="0.5" width="15" height="15" fill="none"/>
  </g>
  <g id="사각형_4217" data-name="사각형 4217" transform="translate(32)" fill="#fb8c00" stroke="#707070" stroke-width="1" opacity="0">
    <rect width="16" height="16" stroke="none"/>
    <rect x="0.5" y="0.5" width="15" height="15" fill="none"/>
  </g>
  <g id="사각형_4216" data-name="사각형 4216" transform="translate(16)" fill="#fb8c00" stroke="#707070" stroke-width="1" opacity="0">
    <rect width="16" height="16" stroke="none"/>
    <rect x="0.5" y="0.5" width="15" height="15" fill="none"/>
  </g>
  <g id="사각형_4218" data-name="사각형 4218" transform="translate(48)" fill="#fb8c00" stroke="#707070" stroke-width="1" opacity="0">
    <rect width="16" height="16" stroke="none"/>
    <rect x="0.5" y="0.5" width="15" height="15" fill="none"/>
  </g>
  <g id="레이어_1" data-name="레이어 1" transform="translate(1.994 2.16)">
    <path id="패스_1225" data-name="패스 1225" d="M-.02,4.748V4.512A.6.6,0,0,1,.6,3.922c.116-.016.234-.022.351-.033.4-.036.8-.075,1.205-.109.386-.033.772-.069,1.159-.1.179-.016.359-.032.538-.051a.263.263,0,0,0,.219-.188q.195-.454.389-.908c.3-.692.586-1.387.888-2.076A.7.7,0,0,1,6.426.146a.724.724,0,0,1,.243.325c.417.96.825,1.925,1.232,2.889a.4.4,0,0,0,.381.279q1.346.113,2.692.246c.171.017.344.027.515.049a.7.7,0,0,1,.434.237c.088.1.077.227.109.343v.235c-.037.132-.03.28-.15.381-.141.119-.275.245-.414.366q-.741.644-1.477,1.294-.3.269-.611.534a.258.258,0,0,0-.089.282q.234,1.026.467,2.053c.089.4.187.794.265,1.194a.7.7,0,0,1-.551.806.775.775,0,0,1-.57-.126q-.47-.28-.938-.563c-.578-.348-1.163-.683-1.735-1.041a.377.377,0,0,0-.452,0C4.9,10.473,4,10.994,3.115,11.53a.71.71,0,0,1-.847.008.641.641,0,0,1-.282-.666c.112-.589.26-1.171.391-1.756.113-.505.23-1.009.344-1.514a.262.262,0,0,0-.093-.281c-.5-.448-1.016-.887-1.521-1.333q-.48-.425-.964-.845A.625.625,0,0,1-.02,4.748Z" transform="translate(0 0)" fill="#fb8c00"/>
  </g>
  <g id="레이어_1-2" data-name="레이어 1" transform="translate(33.994 2.16)">
    <path id="패스_1225-2" data-name="패스 1225" d="M-.02,4.748V4.512A.6.6,0,0,1,.6,3.922c.116-.016.234-.022.351-.033.4-.036.8-.075,1.205-.109.386-.033.772-.069,1.159-.1.179-.016.359-.032.538-.051a.263.263,0,0,0,.219-.188q.195-.454.389-.908c.3-.692.586-1.387.888-2.076A.7.7,0,0,1,6.426.146a.724.724,0,0,1,.243.325c.417.96.825,1.925,1.232,2.889a.4.4,0,0,0,.381.279q1.346.113,2.692.246c.171.017.344.027.515.049a.7.7,0,0,1,.434.237c.088.1.077.227.109.343v.235c-.037.132-.03.28-.15.381-.141.119-.275.245-.414.366q-.741.644-1.477,1.294-.3.269-.611.534a.258.258,0,0,0-.089.282q.234,1.026.467,2.053c.089.4.187.794.265,1.194a.7.7,0,0,1-.551.806.775.775,0,0,1-.57-.126q-.47-.28-.938-.563c-.578-.348-1.163-.683-1.735-1.041a.377.377,0,0,0-.452,0C4.9,10.473,4,10.994,3.115,11.53a.71.71,0,0,1-.847.008.641.641,0,0,1-.282-.666c.112-.589.26-1.171.391-1.756.113-.505.23-1.009.344-1.514a.262.262,0,0,0-.093-.281c-.5-.448-1.016-.887-1.521-1.333q-.48-.425-.964-.845A.625.625,0,0,1-.02,4.748Z" transform="translate(0 0)" fill="#fb8c00"/>
  </g>
  <g id="레이어_1-3" data-name="레이어 1" transform="translate(17.994 2.16)">
    <path id="패스_1225-3" data-name="패스 1225" d="M-.02,4.748V4.512A.6.6,0,0,1,.6,3.922c.116-.016.234-.022.351-.033.4-.036.8-.075,1.205-.109.386-.033.772-.069,1.159-.1.179-.016.359-.032.538-.051a.263.263,0,0,0,.219-.188q.195-.454.389-.908c.3-.692.586-1.387.888-2.076A.7.7,0,0,1,6.426.146a.724.724,0,0,1,.243.325c.417.96.825,1.925,1.232,2.889a.4.4,0,0,0,.381.279q1.346.113,2.692.246c.171.017.344.027.515.049a.7.7,0,0,1,.434.237c.088.1.077.227.109.343v.235c-.037.132-.03.28-.15.381-.141.119-.275.245-.414.366q-.741.644-1.477,1.294-.3.269-.611.534a.258.258,0,0,0-.089.282q.234,1.026.467,2.053c.089.4.187.794.265,1.194a.7.7,0,0,1-.551.806.775.775,0,0,1-.57-.126q-.47-.28-.938-.563c-.578-.348-1.163-.683-1.735-1.041a.377.377,0,0,0-.452,0C4.9,10.473,4,10.994,3.115,11.53a.71.71,0,0,1-.847.008.641.641,0,0,1-.282-.666c.112-.589.26-1.171.391-1.756.113-.505.23-1.009.344-1.514a.262.262,0,0,0-.093-.281c-.5-.448-1.016-.887-1.521-1.333q-.48-.425-.964-.845A.625.625,0,0,1-.02,4.748Z" transform="translate(0 0)" fill="#fb8c00"/>
  </g>
  <g id="레이어_1-4" data-name="레이어 1" transform="translate(49.994 2.16)">
    <path id="패스_1225-4" data-name="패스 1225" d="M-.02,4.748V4.512A.6.6,0,0,1,.6,3.922c.116-.016.234-.022.351-.033.4-.036.8-.075,1.205-.109.386-.033.772-.069,1.159-.1.179-.016.359-.032.538-.051a.263.263,0,0,0,.219-.188q.195-.454.389-.908c.3-.692.586-1.387.888-2.076A.7.7,0,0,1,6.426.146a.724.724,0,0,1,.243.325c.417.96.825,1.925,1.232,2.889a.4.4,0,0,0,.381.279q1.346.113,2.692.246c.171.017.344.027.515.049a.7.7,0,0,1,.434.237c.088.1.077.227.109.343v.235c-.037.132-.03.28-.15.381-.141.119-.275.245-.414.366q-.741.644-1.477,1.294-.3.269-.611.534a.258.258,0,0,0-.089.282q.234,1.026.467,2.053c.089.4.187.794.265,1.194a.7.7,0,0,1-.551.806.775.775,0,0,1-.57-.126q-.47-.28-.938-.563c-.578-.348-1.163-.683-1.735-1.041a.377.377,0,0,0-.452,0C4.9,10.473,4,10.994,3.115,11.53a.71.71,0,0,1-.847.008.641.641,0,0,1-.282-.666c.112-.589.26-1.171.391-1.756.113-.505.23-1.009.344-1.514a.262.262,0,0,0-.093-.281c-.5-.448-1.016-.887-1.521-1.333q-.48-.425-.964-.845A.625.625,0,0,1-.02,4.748Z" transform="translate(0 0)" fill="#fb8c00"/>
  </g>
  <g id="레이어_1-5" data-name="레이어 1" transform="translate(65.994 2.16)">
    <path id="패스_1225-5" data-name="패스 1225" d="M-.02,4.748V4.512A.6.6,0,0,1,.6,3.922c.116-.016.234-.022.351-.033.4-.036.8-.075,1.205-.109.386-.033.772-.069,1.159-.1.179-.016.359-.032.538-.051a.263.263,0,0,0,.219-.188q.195-.454.389-.908c.3-.692.586-1.387.888-2.076A.7.7,0,0,1,6.426.146a.724.724,0,0,1,.243.325c.417.96.825,1.925,1.232,2.889a.4.4,0,0,0,.381.279q1.346.113,2.692.246c.171.017.344.027.515.049a.7.7,0,0,1,.434.237c.088.1.077.227.109.343v.235c-.037.132-.03.28-.15.381-.141.119-.275.245-.414.366q-.741.644-1.477,1.294-.3.269-.611.534a.258.258,0,0,0-.089.282q.234,1.026.467,2.053c.089.4.187.794.265,1.194a.7.7,0,0,1-.551.806.775.775,0,0,1-.57-.126q-.47-.28-.938-.563c-.578-.348-1.163-.683-1.735-1.041a.377.377,0,0,0-.452,0C4.9,10.473,4,10.994,3.115,11.53a.71.71,0,0,1-.847.008.641.641,0,0,1-.282-.666c.112-.589.26-1.171.391-1.756.113-.505.23-1.009.344-1.514a.262.262,0,0,0-.093-.281c-.5-.448-1.016-.887-1.521-1.333q-.48-.425-.964-.845A.625.625,0,0,1-.02,4.748Z" transform="translate(0 0)" fill="#fb8c00"/>
  </g>
</svg>
