<svg xmlns="http://www.w3.org/2000/svg" xmlns:xlink="http://www.w3.org/1999/xlink" width="54" height="54" viewBox="0 0 54 54">
  <defs>
    <filter id="타원_111" x="0" y="0" width="54" height="54" filterUnits="userSpaceOnUse">
      <feOffset dx="2" dy="3" input="SourceAlpha"/>
      <feGaussianBlur stdDeviation="5" result="blur"/>
      <feFlood flood-color="#00a8fa" flood-opacity="0.078"/>
      <feComposite operator="in" in2="blur"/>
      <feComposite in="SourceGraphic"/>
    </filter>
    <linearGradient id="linear-gradient" x1="0.237" y1="0.222" x2="1.258" y2="1.146" gradientUnits="objectBoundingBox">
      <stop offset="0" stop-color="#fb8c00"/>
      <stop offset="1" stop-color="#ff0101"/>
    </linearGradient>
    <filter id="타원_112" x="2" y="2" width="50" height="50" filterUnits="userSpaceOnUse">
      <feOffset dx="2" dy="3" input="SourceAlpha"/>
      <feGaussianBlur stdDeviation="5" result="blur-2"/>
      <feFlood flood-color="#00a8fa" flood-opacity="0.078"/>
      <feComposite operator="in" in2="blur-2"/>
      <feComposite in="SourceGraphic"/>
    </filter>
  </defs>
  <g id="그룹_992" data-name="그룹 992" transform="translate(-668 -1132.5)">
    <path id="패스_1492" data-name="패스 1492" d="M0,6V0" transform="translate(693 1168.5)" fill="none" stroke="#fb8c00" stroke-linecap="round" stroke-width="1" opacity="0.8"/>
    <path id="패스_1493" data-name="패스 1493" d="M0,6V0" transform="translate(693 1138.5)" fill="none" stroke="#fb8c00" stroke-linecap="round" stroke-width="1" opacity="0.8"/>
    <g id="그룹_986" data-name="그룹 986" transform="translate(0 -0.5)">
      <g transform="matrix(1, 0, 0, 1, 668, 1133)" filter="url(#타원_111)">
        <circle id="타원_111-2" data-name="타원 111" cx="12" cy="12" r="12" transform="translate(13 12)" fill="#fff"/>
      </g>
      <g transform="matrix(1, 0, 0, 1, 668, 1133)" filter="url(#타원_112)">
        <circle id="타원_112-2" data-name="타원 112" cx="10" cy="10" r="10" transform="translate(15 14)" fill="url(#linear-gradient)"/>
      </g>
      <g id="check" transform="translate(684 1148)">
        <rect id="사각형_4241" data-name="사각형 4241" width="18" height="18" fill="none"/>
        <path id="패스_1198" data-name="패스 1198" d="M3484.38-7432.845l3.088,2.52,5.532-5.358" transform="translate(-3479.691 7442.004)" fill="none" stroke="#fff" stroke-linecap="round" stroke-linejoin="round" stroke-width="2.5"/>
      </g>
    </g>
  </g>
</svg>
