<svg xmlns="http://www.w3.org/2000/svg" width="32" height="32" viewBox="0 0 32 32">
  <g id="이전_화살표_토글_전" data-name="이전 화살표_토글 전" transform="translate(-260 -754.571)">
    <g id="타원_95" data-name="타원 95" transform="translate(260 754.571)" fill="#fff" stroke="#bcbcbc" stroke-width="1">
      <circle cx="16" cy="16" r="16" stroke="none"/>
      <circle cx="16" cy="16" r="15.5" fill="none"/>
    </g>
    <g id="그룹_707" data-name="그룹 707" transform="translate(265.771 764.797)">
      <path id="패스_1468" data-name="패스 1468" d="M4.641,6.047h0a1.188,1.188,0,0,1,.084-.432A.123.123,0,0,1,4.731,5.6a1.2,1.2,0,0,1,.257-.388L9.851.347a1.184,1.184,0,0,1,1.674,1.674L8.683,4.863h11.14a1.184,1.184,0,1,1,0,2.368H8.683l2.726,2.727a1.184,1.184,0,0,1-1.674,1.674L4.988,6.885A1.2,1.2,0,0,1,4.731,6.5l-.006-.018a1.188,1.188,0,0,1-.084-.432" transform="translate(-4.641 0)" fill="#909090"/>
      <path id="패스_1469" data-name="패스 1469" d="M1.184,6.161h.274a1.184,1.184,0,1,1,0,2.368H1.184a1.184,1.184,0,1,1,0-2.368" transform="translate(17.387 -1.299)" fill="#909090"/>
    </g>
  </g>
</svg>
