<svg xmlns="http://www.w3.org/2000/svg" width="32" height="32" viewBox="0 0 32 32">
  <g id="구성_요소_52_46" data-name="구성 요소 52 – 46" transform="translate(32 32) rotate(180)">
    <rect id="사각형_3776" data-name="사각형 3776" width="32" height="32" rx="8" fill="rgba(251,140,0,0.1)"/>
    <g id="구성_요소_50_2" data-name="구성 요소 50 – 2" transform="translate(4 4)">
      <rect id="사각형_454" data-name="사각형 454" width="24" height="24" fill="#fff" opacity="0"/>
      <rect id="사각형_3777" data-name="사각형 3777" width="18" height="18" transform="translate(3 3)" fill="#ffa4a4" opacity="0"/>
      <path id="패스_631_-_윤곽선" data-name="패스 631 - 윤곽선" d="M5482.641,3692.459a1.49,1.49,0,0,1-1.061-.439l-7.189-7.189-7.189,7.189a1.5,1.5,0,1,1-2.121-2.121l8.25-8.25a1.5,1.5,0,0,1,2.121,0l8.25,8.25a1.5,1.5,0,0,1-1.061,2.561Zm-5.758-7.259,5.758,5.759h0Z" transform="translate(3695.334 -5462.391) rotate(90)" fill="#fb8c00"/>
      <path id="패스_631_-_윤곽선-2" data-name="패스 631 - 윤곽선" d="M5482.641,3692.459a1.49,1.49,0,0,1-1.061-.439l-7.189-7.189-7.189,7.189a1.5,1.5,0,1,1-2.121-2.121l8.25-8.25a1.5,1.5,0,0,1,2.121,0l8.25,8.25a1.5,1.5,0,0,1-1.061,2.561Zm-5.758-7.259,5.758,5.759h0Z" transform="translate(3702.334 -5462.391) rotate(90)" fill="#fb8c00"/>
    </g>
  </g>
</svg>
