<svg xmlns="http://www.w3.org/2000/svg" width="24" height="24" viewBox="0 0 24 24">
  <g id="구성_요소_84_1" data-name="구성 요소 84 – 1" opacity="0.5">
    <rect id="사각형_3903" data-name="사각형 3903" width="24" height="24" fill="#fff" opacity="0"/>
    <rect id="사각형_3904" data-name="사각형 3904" width="18" height="18" transform="translate(3 3)" fill="#fff" opacity="0"/>
    <path id="합치기_13" data-name="합치기 13" d="M335.085-9169.149a.593.593,0,0,1,0-.837l11.929-11.929h-6.393a.591.591,0,0,1-.59-.59.592.592,0,0,1,.59-.593H348.5a.592.592,0,0,1,.59.593v7.875a.591.591,0,0,1-.59.59.589.589,0,0,1-.59-.59v-6.511l-11.989,11.991a.59.59,0,0,1-.417.173A.586.586,0,0,1,335.085-9169.149Z" transform="translate(-330 9188)" fill="#fff"/>
  </g>
</svg>
