<svg id="구성_요소_126_1" data-name="구성 요소 126 – 1" xmlns="http://www.w3.org/2000/svg" width="32" height="32" viewBox="0 0 32 32">
  <g id="그룹_318" data-name="그룹 318" transform="translate(-1407 -87)" opacity="0.8">
    <rect id="사각형_1478" data-name="사각형 1478" width="32" height="32" transform="translate(1407 87)" fill="none"/>
    <g id="그룹_122" data-name="그룹 122" transform="translate(1411 91)">
      <path id="합치기_15" data-name="합치기 15" d="M22.269,23.7l-6.445-6.4a9.686,9.686,0,1,1,3.7-7.6,9.621,9.621,0,0,1-2.251,6.189l6.43,6.389a1,1,0,0,1,0,1.425,1.018,1.018,0,0,1-1.434,0ZM2.028,9.7A7.734,7.734,0,1,0,9.762,2.015,7.718,7.718,0,0,0,2.028,9.7Z" fill="#fff" stroke="rgba(0,0,0,0)" stroke-miterlimit="10" stroke-width="1"/>
    </g>
  </g>
</svg>
