<svg height="512" viewBox="0 0 128 128" width="512" xmlns="http://www.w3.org/2000/svg"><path d="m122.45 32.12a8.766 8.766 0 0 0 -8.75-8.75h-99.4a8.7 8.7 0 0 0 -6.822 3.28 8.731 8.731 0 0 0 -1.928 5.47v63.76a8.683 8.683 0 0 0 2.121 5.7 8.731 8.731 0 0 0 6.629 3.05h99.4a8.724 8.724 0 0 0 6.62-3.041v-.007a8.7 8.7 0 0 0 2.118-5.694zm-37.56 33.328 33.847-34.755a5.219 5.219 0 0 1 .213 1.427v63.76a5.186 5.186 0 0 1 -.315 1.792zm28.81-38.578a5.252 5.252 0 0 1 2.886.875l.081.057-50.156 51.498a3.574 3.574 0 0 1 -5.028-.006l-50.15-51.494a5.327 5.327 0 0 1 2.967-.93zm-104.336 70.803a5.214 5.214 0 0 1 -.314-1.793v-63.76a5.219 5.219 0 0 1 .213-1.427l33.847 34.756zm4.936 3.457a5.4 5.4 0 0 1 -2.685-.745l-.013-.009 33.95-32.42 13.42 13.78a7 7 0 0 0 10.05 0l13.426-13.78 33.951 32.42h-.008a5.411 5.411 0 0 1 -2.691.749z"/></svg>