<svg id="svg28031" height="512" viewBox="0 0 16.933333 16.933334" width="512" xmlns="http://www.w3.org/2000/svg" xmlns:svg="http://www.w3.org/2000/svg"><g id="layer1" transform="translate(0 -280.067)"><path id="path2980" d="m2.910417 280.59581c-.4351604 0-.7927156.35807-.7927156.79323v5.60121c.00765.34503.521507.34503.5291668 0v-5.60121c0-.15116.1123923-.26355.2635488-.26355h11.113535c.151154 0 .263549.11239.263549.26355v5.60121c-.008.36069.537173.36069.529166 0v-5.60121c0-.43516-.357555-.79323-.792715-.79323zm2.1171826 2.11718h6.8786514c.360693.008.360693-.53717 0-.52917h-6.8923436c-.3584152.0254-.3318113.53945.013679.52917zm-1.0583334 1.58595c-.3450378.008-.3450378.52151 0 .52917h6.3494848c.345037-.008.345037-.52151 0-.52917zm7.4078178 0c-.345038.008-.345038.52151 0 .52917h1.588016c.345038-.008.345038-.52151 0-.52917zm-7.4078178 1.58802c-.3450378.008-.3450378.52151 0 .52916h8.9958338c.345038-.008.345038-.52151 0-.52916zm11.4685528 1.06763.296622.2558-7.267258 6.26422-7.267773-6.26422.2961062-.2558c.2563802-.22148-.084628-.6257-.3451988-.40101l-.52916664.45631c-.0583867.0503-.0919718.12346-.091984.2005v8.46667c0 .20619.0824031.39356.21342376.53536.02277.0332.0528148.0608.0878499.0806.13611199.10935.30614668.17777.49247628.17777h14.2875003c.435161 0 .79375-.35859.79375-.79375v-8.46667c-.000013-.077-.0336-.15025-.09199-.2005l-.529166-.45631c-.30384-.23121-.591207.1929-.345197.40101zm-11.4685528.52038c-.3450378.008-.3450378.52151 0 .52917h6.3494848c.345037-.008.345037-.52151 0-.52917zm7.4078178 0c-.345038.008-.345038.52151 0 .52917h1.588016c.345038-.008.345038-.52151 0-.52917zm-10.3187506.31213 7.2347008 6.23838c.099311.0857.2464038.0857.3457152 0l7.2362516-6.23786v7.84086l-4.034896-3.47834c-.0467-.0415-.106553-.0651-.168982-.0667-.250896-.007-.369435.30685-.176733.46767l3.933092 3.39049h-13.9216306l3.757394-3.23908c.195289-.16338.069739-.4813-.184486-.46715-.059491.003-.1161177.0266-.1607132.0661l-3.8597128 3.32745zm4.4984064 1.80507h5.8203442c.34504-.008.34504-.52152 0-.52917h-5.8340258c-.358431.0254-.3318272.53945.013679.52917z" font-variant-ligatures="normal" font-variant-position="normal" font-variant-caps="normal" font-variant-numeric="normal" font-variant-alternates="normal" font-feature-settings="normal" text-indent="0" text-align="start" text-decoration-line="none" text-decoration-style="solid" text-decoration-color="rgb(0,0,0)" text-transform="none" text-orientation="mixed" white-space="normal" shape-padding="0" isolation="auto" mix-blend-mode="normal" solid-color="rgb(0,0,0)" solid-opacity="1" vector-effect="none"/></g></svg>