<?xml version="1.0" encoding="UTF-8"?>
<svg id="_레이어_2" data-name="레이어 2" xmlns="http://www.w3.org/2000/svg" viewBox="0 0 20 20">
  <defs>
    <style>
      .cls-1 {
        fill: none;
      }

      .cls-1, .cls-2 {
        stroke-width: 0px;
      }

      .cls-2 {
        fill: #fff;
      }
    </style>
  </defs>
  <g id="_레이어_1-2" data-name="레이어 1">
    <g>
      <rect class="cls-1" width="20" height="20"/>
      <g>
        <path class="cls-2" d="m15.47,4.3H4.53c-.3,0-.55.25-.55.55v10.94c0,.3.25.55.55.55h10.94c.3,0,.55-.25.55-.55V4.85c0-.3-.25-.55-.55-.55Zm-.55,10.94H5.08V5.4h9.84v9.84Z"/>
        <path class="cls-2" d="m8.24,10.87h1.21v1.22c0,.3.25.55.55.55s.55-.25.55-.55v-1.22h1.21c.3,0,.55-.25.55-.55s-.25-.55-.55-.55h-1.21v-1.21c0-.3-.25-.55-.55-.55s-.55.25-.55.55v1.21h-1.21c-.3,0-.55.25-.55.55s.25.55.55.55Z"/>
      </g>
    </g>
  </g>
</svg>